<?xml version="1.0" encoding="UTF-8"?>
<svg xmlns="http://www.w3.org/2000/svg" 
     xmlns:xlink="http://www.w3.org/1999/xlink"
     width="14200" height="10820" 
     viewBox="0 0 14200 10820">
  <defs>
    <radialGradient id="leafGradient">
      <stop offset="0%" style="stop-color:#22c55e;stop-opacity:1" />
      <stop offset="100%" style="stop-color:#16a34a;stop-opacity:0.8" />
    </radialGradient>
    <radialGradient id="mergeGradient">
      <stop offset="0%" style="stop-color:#a78bfa;stop-opacity:1" />
      <stop offset="100%" style="stop-color:#7c3aed;stop-opacity:0.8" />
    </radialGradient>
    <radialGradient id="forkGradient">
      <stop offset="0%" style="stop-color:#fb923c;stop-opacity:1" />
      <stop offset="100%" style="stop-color:#ea580c;stop-opacity:0.8" />
    </radialGradient>
    <radialGradient id="tagGradient">
      <stop offset="0%" style="stop-color:#38bdf8;stop-opacity:1" />
      <stop offset="100%" style="stop-color:#0284c7;stop-opacity:0.8" />
    </radialGradient>
    <style>
      .branch-line { stroke: #64748b; stroke-width: 2; fill: none; opacity: 0.7; }
      .trunk-line { stroke: #22c55e; stroke-width: 2.5; fill: none; opacity: 0.6; }
      .commit-leaf { cursor: pointer; }
      .commit-leaf:hover { filter: brightness(1.5); }
      .branch-label { font-family: sans-serif; font-size: 12px; font-weight: bold; fill: #0f172a; }
    </style>
  </defs>
  
  <rect width="14200" height="10820" fill="#f8fafc"/>
  <defs>
    <pattern id="grid" width="100" height="100" patternUnits="userSpaceOnUse">
      <path d="M 100 0 L 0 0 0 100" fill="none" stroke="#e2e8f0" stroke-width="0.5" opacity="0.3"/>
    </pattern>
  </defs>
  <rect width="14200" height="10820" fill="url(#grid)"/>
  
  <!-- Branch connection lines -->
  <g id="branches">
    <line class="trunk-line" x1="600" y1="60" x2="600" y2="100"/>
    <line class="trunk-line" x1="600" y1="100" x2="600" y2="140"/>
    <line class="trunk-line" x1="600" y1="140" x2="600" y2="260"/>
    <path class="branch-line" d="M 600 140 C 600 156, 720 164, 720 180"/>
    <path class="branch-line" d="M 720 180 C 720 212, 600 228, 600 260"/>
    <line class="trunk-line" x1="600" y1="260" x2="600" y2="300"/>
    <line class="trunk-line" x1="600" y1="300" x2="600" y2="420"/>
    <path class="branch-line" d="M 600 300 C 600 316, 480 324, 480 340"/>
    <path class="branch-line" d="M 480 340 C 480 372, 600 388, 600 420"/>
    <line class="trunk-line" x1="600" y1="420" x2="600" y2="460"/>
    <line class="trunk-line" x1="600" y1="460" x2="600" y2="500"/>
    <line class="trunk-line" x1="600" y1="500" x2="600" y2="540"/>
    <path class="branch-line" d="M 600 500 C 600 548, 840 572, 840 620"/>
    <line class="trunk-line" x1="600" y1="540" x2="600" y2="580"/>
    <path class="branch-line" d="M 600 540 C 600 604, 360 636, 360 700"/>
    <line class="trunk-line" x1="600" y1="580" x2="600" y2="860"/>
    <path class="branch-line" d="M 600 580 C 600 660, 960 700, 960 780"/>
    <path class="branch-line" d="M 840 620 C 840 716, 600 764, 600 860"/>
    <path class="branch-line" d="M 360 700 C 360 764, 600 796, 600 860"/>
    <path class="branch-line" d="M 960 780 C 960 812, 600 828, 600 860"/>
    <line class="trunk-line" x1="600" y1="860" x2="600" y2="900"/>
    <line class="trunk-line" x1="600" y1="900" x2="600" y2="940"/>
    <path class="branch-line" d="M 600 900 C 600 932, 240 948, 240 980"/>
    <line class="trunk-line" x1="600" y1="940" x2="600" y2="1140"/>
    <path class="branch-line" d="M 600 940 C 600 988, 1080 1012, 1080 1060"/>
    <path class="branch-line" d="M 240 980 C 240 1044, 600 1076, 600 1140"/>
    <path class="branch-line" d="M 1080 1060 C 1080 1092, 600 1108, 600 1140"/>
    <line class="trunk-line" x1="600" y1="1140" x2="600" y2="1260"/>
    <path class="branch-line" d="M 600 1140 C 600 1156, 120 1164, 120 1180"/>
    <path class="branch-line" d="M 120 1180 C 120 1212, 600 1228, 600 1260"/>
    <line class="trunk-line" x1="600" y1="1260" x2="600" y2="1300"/>
    <line class="trunk-line" x1="600" y1="1300" x2="600" y2="1420"/>
    <path class="branch-line" d="M 600 1300 C 600 1316, 1200 1324, 1200 1340"/>
    <path class="branch-line" d="M 1200 1340 C 1200 1372, 600 1388, 600 1420"/>
    <line class="trunk-line" x1="600" y1="1420" x2="600" y2="1460"/>
    <line class="trunk-line" x1="600" y1="1460" x2="600" y2="1500"/>
    <line class="trunk-line" x1="600" y1="1500" x2="600" y2="1620"/>
    <path class="branch-line" d="M 600 1500 C 600 1516, 0 1524, 0 1540"/>
    <path class="branch-line" d="M 0 1540 C 0 1620, 600 1660, 600 1740"/>
    <line class="trunk-line" x1="600" y1="1620" x2="600" y2="1740"/>
    <path class="branch-line" d="M 600 1620 C 600 1636, 1320 1644, 1320 1660"/>
    <path class="branch-line" d="M 1320 1660 C 1320 1692, 600 1708, 600 1740"/>
    <line class="trunk-line" x1="600" y1="1740" x2="600" y2="1780"/>
    <line class="trunk-line" x1="600" y1="1780" x2="600" y2="1820"/>
    <line class="trunk-line" x1="600" y1="1820" x2="600" y2="1860"/>
    <line class="trunk-line" x1="600" y1="1860" x2="600" y2="1900"/>
    <line class="trunk-line" x1="600" y1="1900" x2="600" y2="2660"/>
    <path class="branch-line" d="M 600 1900 C 600 1948, 1440 1972, 1440 2020"/>
    <path class="branch-line" d="M -120 1940 C -120 2244, 1920 2396, 1920 2700"/>
    <path class="branch-line" d="M -120 1940 C -120 2004, -240 2036, -240 2100"/>
    <path class="branch-line" d="M 1440 2020 C 1440 2084, 1560 2116, 1560 2180"/>
    <path class="branch-line" d="M -240 2100 C -240 2164, -360 2196, -360 2260"/>
    <path class="branch-line" d="M 1560 2180 C 1560 2244, 1680 2276, 1680 2340"/>
    <path class="branch-line" d="M -360 2260 C -360 2324, -480 2356, -480 2420"/>
    <path class="branch-line" d="M 1680 2340 C 1680 2404, 1800 2436, 1800 2500"/>
    <path class="branch-line" d="M -480 2420 C -480 2484, -600 2516, -600 2580"/>
    <path class="branch-line" d="M 1800 2500 C 1800 2564, 600 2596, 600 2660"/>
    <path class="branch-line" d="M -600 2580 C -600 2628, 1920 2652, 1920 2700"/>
    <line class="trunk-line" x1="600" y1="2660" x2="600" y2="3260"/>
    <path class="branch-line" d="M 600 2660 C 600 2708, -720 2732, -720 2780"/>
    <path class="branch-line" d="M 1920 2700 C 1920 2940, -1080 3060, -1080 3300"/>
    <path class="branch-line" d="M 1920 2700 C 1920 2764, 2040 2796, 2040 2860"/>
    <path class="branch-line" d="M -720 2780 C -720 2844, -840 2876, -840 2940"/>
    <path class="branch-line" d="M 2040 2860 C 2040 2924, 2160 2956, 2160 3020"/>
    <path class="branch-line" d="M -840 2940 C -840 3004, -960 3036, -960 3100"/>
    <path class="branch-line" d="M 2160 3020 C 2160 3084, 2280 3116, 2280 3180"/>
    <path class="branch-line" d="M -960 3100 C -960 3164, 600 3196, 600 3260"/>
    <path class="branch-line" d="M 2280 3180 C 2280 3228, -1080 3252, -1080 3300"/>
    <line class="trunk-line" x1="600" y1="3260" x2="600" y2="3380"/>
    <path class="branch-line" d="M -1080 3300 C -1080 3348, 2400 3372, 2400 3420"/>
    <line class="trunk-line" x1="600" y1="3380" x2="600" y2="3500"/>
    <path class="branch-line" d="M 2400 3420 C 2400 3468, -1200 3492, -1200 3540"/>
    <line class="trunk-line" x1="600" y1="3500" x2="600" y2="3620"/>
    <path class="branch-line" d="M -1200 3540 C -1200 3588, 2520 3612, 2520 3660"/>
    <line class="trunk-line" x1="600" y1="3620" x2="600" y2="3740"/>
    <path class="branch-line" d="M 2520 3660 C 2520 3708, -1320 3732, -1320 3780"/>
    <line class="trunk-line" x1="600" y1="3740" x2="600" y2="4500"/>
    <path class="branch-line" d="M 600 3740 C 600 3788, 2640 3812, 2640 3860"/>
    <path class="branch-line" d="M -1320 3780 C -1320 4084, 3120 4236, 3120 4540"/>
    <path class="branch-line" d="M -1320 3780 C -1320 3844, -1440 3876, -1440 3940"/>
    <path class="branch-line" d="M 2640 3860 C 2640 3924, 2760 3956, 2760 4020"/>
    <path class="branch-line" d="M -1440 3940 C -1440 4004, -1560 4036, -1560 4100"/>
    <path class="branch-line" d="M 2760 4020 C 2760 4084, 2880 4116, 2880 4180"/>
    <path class="branch-line" d="M -1560 4100 C -1560 4164, -1680 4196, -1680 4260"/>
    <path class="branch-line" d="M 2880 4180 C 2880 4244, 3000 4276, 3000 4340"/>
    <path class="branch-line" d="M -1680 4260 C -1680 4324, -1800 4356, -1800 4420"/>
    <path class="branch-line" d="M 3000 4340 C 3000 4404, 600 4436, 600 4500"/>
    <path class="branch-line" d="M -1800 4420 C -1800 4468, 3120 4492, 3120 4540"/>
    <line class="trunk-line" x1="600" y1="4500" x2="600" y2="7340"/>
    <path class="branch-line" d="M 600 4500 C 600 4548, -1920 4572, -1920 4620"/>
    <path class="branch-line" d="M 3120 4540 C 3120 5676, -3960 6244, -3960 7380"/>
    <path class="branch-line" d="M 3120 4540 C 3120 4604, 3240 4636, 3240 4700"/>
    <path class="branch-line" d="M -1920 4620 C -1920 4684, -2040 4716, -2040 4780"/>
    <path class="branch-line" d="M 3240 4700 C 3240 4764, 3360 4796, 3360 4860"/>
    <path class="branch-line" d="M -2040 4780 C -2040 4844, -2160 4876, -2160 4940"/>
    <path class="branch-line" d="M 3360 4860 C 3360 4924, 3480 4956, 3480 5020"/>
    <path class="branch-line" d="M -2160 4940 C -2160 5004, -2280 5036, -2280 5100"/>
    <path class="branch-line" d="M 3480 5020 C 3480 5084, 3600 5116, 3600 5180"/>
    <path class="branch-line" d="M -2280 5100 C -2280 5164, -2400 5196, -2400 5260"/>
    <path class="branch-line" d="M 3600 5180 C 3600 5244, 3720 5276, 3720 5340"/>
    <path class="branch-line" d="M -2400 5260 C -2400 5324, -2520 5356, -2520 5420"/>
    <path class="branch-line" d="M 3720 5340 C 3720 5404, 3840 5436, 3840 5500"/>
    <path class="branch-line" d="M -2520 5420 C -2520 5484, -2640 5516, -2640 5580"/>
    <path class="branch-line" d="M 3840 5500 C 3840 5564, 3960 5596, 3960 5660"/>
    <path class="branch-line" d="M -2640 5580 C -2640 5644, -2760 5676, -2760 5740"/>
    <path class="branch-line" d="M 3960 5660 C 3960 5724, 4080 5756, 4080 5820"/>
    <path class="branch-line" d="M -2760 5740 C -2760 5804, -2880 5836, -2880 5900"/>
    <path class="branch-line" d="M 4080 5820 C 4080 5884, 4200 5916, 4200 5980"/>
    <path class="branch-line" d="M -2880 5900 C -2880 5964, -3000 5996, -3000 6060"/>
    <path class="branch-line" d="M 4200 5980 C 4200 6044, 4320 6076, 4320 6140"/>
    <path class="branch-line" d="M -3000 6060 C -3000 6124, -3120 6156, -3120 6220"/>
    <path class="branch-line" d="M 4320 6140 C 4320 6204, 4440 6236, 4440 6300"/>
    <path class="branch-line" d="M -3120 6220 C -3120 6284, -3240 6316, -3240 6380"/>
    <path class="branch-line" d="M 4440 6300 C 4440 6364, 4560 6396, 4560 6460"/>
    <path class="branch-line" d="M -3240 6380 C -3240 6444, -3360 6476, -3360 6540"/>
    <path class="branch-line" d="M 4560 6460 C 4560 6524, 4680 6556, 4680 6620"/>
    <path class="branch-line" d="M -3360 6540 C -3360 6604, -3480 6636, -3480 6700"/>
    <path class="branch-line" d="M 4680 6620 C 4680 6684, 4800 6716, 4800 6780"/>
    <path class="branch-line" d="M -3480 6700 C -3480 6764, -3600 6796, -3600 6860"/>
    <path class="branch-line" d="M 4800 6780 C 4800 6844, 4920 6876, 4920 6940"/>
    <path class="branch-line" d="M -3600 6860 C -3600 6924, -3720 6956, -3720 7020"/>
    <path class="branch-line" d="M 4920 6940 C 4920 7004, 5040 7036, 5040 7100"/>
    <path class="branch-line" d="M -3720 7020 C -3720 7084, -3840 7116, -3840 7180"/>
    <path class="branch-line" d="M 5040 7100 C 5040 7164, 5160 7196, 5160 7260"/>
    <path class="branch-line" d="M -3840 7180 C -3840 7244, 600 7276, 600 7340"/>
    <path class="branch-line" d="M 5160 7260 C 5160 7308, -3960 7332, -3960 7380"/>
    <line class="trunk-line" x1="600" y1="7340" x2="600" y2="9540"/>
    <path class="branch-line" d="M 600 7340 C 600 7388, 5280 7412, 5280 7460"/>
    <path class="branch-line" d="M -3960 7380 C -3960 8260, 6840 8700, 6840 9580"/>
    <path class="branch-line" d="M -3960 7380 C -3960 7444, -4080 7476, -4080 7540"/>
    <path class="branch-line" d="M 5280 7460 C 5280 7524, 5400 7556, 5400 7620"/>
    <path class="branch-line" d="M -4080 7540 C -4080 7604, -4200 7636, -4200 7700"/>
    <path class="branch-line" d="M 5400 7620 C 5400 7684, 5520 7716, 5520 7780"/>
    <path class="branch-line" d="M -4200 7700 C -4200 7764, -4320 7796, -4320 7860"/>
    <path class="branch-line" d="M 5520 7780 C 5520 7844, 5640 7876, 5640 7940"/>
    <path class="branch-line" d="M -4320 7860 C -4320 7924, -4440 7956, -4440 8020"/>
    <path class="branch-line" d="M 5640 7940 C 5640 8004, 5760 8036, 5760 8100"/>
    <path class="branch-line" d="M -4440 8020 C -4440 8084, -4560 8116, -4560 8180"/>
    <path class="branch-line" d="M 5760 8100 C 5760 8164, 5880 8196, 5880 8260"/>
    <path class="branch-line" d="M -4560 8180 C -4560 8244, -4680 8276, -4680 8340"/>
    <path class="branch-line" d="M 5880 8260 C 5880 8324, 6000 8356, 6000 8420"/>
    <path class="branch-line" d="M -4680 8340 C -4680 8404, -4800 8436, -4800 8500"/>
    <path class="branch-line" d="M 6000 8420 C 6000 8484, 6120 8516, 6120 8580"/>
    <path class="branch-line" d="M -4800 8500 C -4800 8564, -4920 8596, -4920 8660"/>
    <path class="branch-line" d="M 6120 8580 C 6120 8644, 6240 8676, 6240 8740"/>
    <path class="branch-line" d="M -4920 8660 C -4920 8724, -5040 8756, -5040 8820"/>
    <path class="branch-line" d="M 6240 8740 C 6240 8804, 6360 8836, 6360 8900"/>
    <path class="branch-line" d="M -5040 8820 C -5040 8884, -5160 8916, -5160 8980"/>
    <path class="branch-line" d="M 6360 8900 C 6360 8964, 6480 8996, 6480 9060"/>
    <path class="branch-line" d="M -5160 8980 C -5160 9044, -5280 9076, -5280 9140"/>
    <path class="branch-line" d="M 6480 9060 C 6480 9124, 6600 9156, 6600 9220"/>
    <path class="branch-line" d="M -5280 9140 C -5280 9204, -5400 9236, -5400 9300"/>
    <path class="branch-line" d="M 6600 9220 C 6600 9284, 6720 9316, 6720 9380"/>
    <path class="branch-line" d="M -5400 9300 C -5400 9364, -5520 9396, -5520 9460"/>
    <path class="branch-line" d="M 6720 9380 C 6720 9444, 600 9476, 600 9540"/>
    <path class="branch-line" d="M -5520 9460 C -5520 9508, 6840 9532, 6840 9580"/>
    <line class="trunk-line" x1="600" y1="9540" x2="600" y2="9660"/>
    <path class="branch-line" d="M 600 9540 C 600 9924, 7440 10116, 7440 10500"/>
    <path class="branch-line" d="M 6840 9580 C 6840 9628, -5640 9652, -5640 9700"/>
    <path class="branch-line" d="M 6840 9580 C 6840 9980, -6240 10180, -6240 10580"/>
    <line class="trunk-line" x1="600" y1="9660" x2="600" y2="9780"/>
    <path class="branch-line" d="M 600 9660 C 600 9756, -5760 9804, -5760 9900"/>
    <path class="branch-line" d="M -5640 9700 C -5640 9748, 6960 9772, 6960 9820"/>
    <path class="branch-line" d="M -5640 9700 C -5640 9812, 7080 9868, 7080 9980"/>
    <line class="trunk-line" x1="600" y1="9780" x2="600" y2="10220"/>
    <path class="branch-line" d="M 600 9780 C 600 9892, -5880 9948, -5880 10060"/>
    <path class="branch-line" d="M 6960 9820 C 6960 9996, -6000 10084, -6000 10260"/>
    <path class="branch-line" d="M 6960 9820 C 6960 9948, 7200 10012, 7200 10140"/>
    <path class="branch-line" d="M -5760 9900 C -5760 10204, 600 10356, 600 10660"/>
    <path class="branch-line" d="M 7080 9980 C 7080 10268, 7560 10412, 7560 10700"/>
    <path class="branch-line" d="M -5880 10060 C -5880 10300, 600 10420, 600 10660"/>
    <path class="branch-line" d="M 7200 10140 C 7200 10364, 7560 10476, 7560 10700"/>
    <line class="trunk-line" x1="600" y1="10220" x2="600" y2="10660"/>
    <path class="branch-line" d="M 600 10220 C 600 10268, 7320 10292, 7320 10340"/>
    <path class="branch-line" d="M -6000 10260 C -6000 10436, 7560 10524, 7560 10700"/>
    <path class="branch-line" d="M -6000 10260 C -6000 10324, -6120 10356, -6120 10420"/>
    <path class="branch-line" d="M 7320 10340 C 7320 10468, 600 10532, 600 10660"/>
    <path class="branch-line" d="M -6120 10420 C -6120 10532, 7560 10588, 7560 10700"/>
    <path class="branch-line" d="M 7440 10500 C 7440 10564, 600 10596, 600 10660"/>
    <path class="branch-line" d="M -6240 10580 C -6240 10628, 7560 10652, 7560 10700"/>
  </g>
  <!-- Commit nodes -->
  <g id="commits">
    <circle class="commit-leaf" cx="600" cy="60" r="6" fill="url(#leafGradient)" stroke="#16a34a" stroke-width="1.5"><title>e63e639: chore: update git tree visualisation</title></circle>
    <circle class="commit-leaf" cx="600" cy="100" r="6" fill="url(#leafGradient)" stroke="#16a34a" stroke-width="1.5"><title>c473a69: chore: update git tree visualisation</title></circle>
    <circle class="commit-leaf" cx="600" cy="140" r="10" fill="url(#mergeGradient)" stroke="#7c3aed" stroke-width="1.5"><title>af40962: Merge pull request #23 from XAOSTECH/dependabot/github_actions/XAOSTECH/dev-control-379196e542149cc83181d41c9b173bc8eb197db8</title></circle>
    <circle class="commit-leaf" cx="720" cy="180" r="6" fill="url(#leafGradient)" stroke="#16a34a" stroke-width="1.5"><title>62e15ee: deps(deps): bump XAOSTECH/dev-control</title></circle>
    <circle class="commit-leaf" cx="600" cy="260" r="9" fill="url(#forkGradient)" stroke="#ea580c" stroke-width="1.5"><title>7d83b82: chore: update git tree visualisation</title></circle>
    <circle class="commit-leaf" cx="600" cy="300" r="10" fill="url(#mergeGradient)" stroke="#7c3aed" stroke-width="1.5"><title>8b4ada6: Merge pull request #22 from XAOSTECH/dependabot/github_actions/XAOSTECH/dev-control-9f305c1cb523dc7d832e58ac8af47c5ef5dba080</title></circle>
    <circle class="commit-leaf" cx="480" cy="340" r="6" fill="url(#leafGradient)" stroke="#16a34a" stroke-width="1.5"><title>65a94b5: deps(deps): bump XAOSTECH/dev-control</title></circle>
    <circle class="commit-leaf" cx="600" cy="420" r="9" fill="url(#forkGradient)" stroke="#ea580c" stroke-width="1.5"><title>06611bc: chore: update git tree visualisation</title></circle>
    <circle class="commit-leaf" cx="600" cy="460" r="6" fill="url(#leafGradient)" stroke="#16a34a" stroke-width="1.5"><title>e558194: chore: update git tree visualisation</title></circle>
    <circle class="commit-leaf" cx="600" cy="500" r="10" fill="url(#mergeGradient)" stroke="#7c3aed" stroke-width="1.5"><title>5be354a: Merge pull request #21 from XAOSTECH:dependabot/github_actions/XAOSTECH/dev-control-99c3e9aab76604c6a046e205f1a8e0dcf53fe935</title></circle>
    <circle class="commit-leaf" cx="600" cy="540" r="10" fill="url(#mergeGradient)" stroke="#7c3aed" stroke-width="1.5"><title>4da0166: Merge pull request #20 from XAOSTECH:dependabot/github_actions/actions/github-script-9</title></circle>
    <circle class="commit-leaf" cx="600" cy="580" r="10" fill="url(#mergeGradient)" stroke="#7c3aed" stroke-width="1.5"><title>c6d8f08: Merge pull request #19 from XAOSTECH/dependabot/github_actions/actions/upload-artifact-7</title></circle>
    <circle class="commit-leaf" cx="840" cy="620" r="6" fill="url(#leafGradient)" stroke="#16a34a" stroke-width="1.5"><title>6b8c9df: deps(deps): bump XAOSTECH/dev-control</title></circle>
    <circle class="commit-leaf" cx="360" cy="700" r="6" fill="url(#leafGradient)" stroke="#16a34a" stroke-width="1.5"><title>18c7254: deps(deps): bump actions/github-script from 8 to 9</title></circle>
    <circle class="commit-leaf" cx="960" cy="780" r="6" fill="url(#leafGradient)" stroke="#16a34a" stroke-width="1.5"><title>a6d15f2: deps(deps): bump actions/upload-artifact from 4 to 7</title></circle>
    <circle class="commit-leaf" cx="600" cy="860" r="9" fill="url(#forkGradient)" stroke="#ea580c" stroke-width="1.5"><title>495ff44: chore: update git tree visualisation</title></circle>
    <circle class="commit-leaf" cx="600" cy="900" r="10" fill="url(#mergeGradient)" stroke="#7c3aed" stroke-width="1.5"><title>6768ca5: Merge pull request #18 from XAOSTECH/dependabot/github_actions/XAOSTECH/dev-control-36d58407ebfb4ea31439818a87634315a0cebcad</title></circle>
    <circle class="commit-leaf" cx="600" cy="940" r="10" fill="url(#mergeGradient)" stroke="#7c3aed" stroke-width="1.5"><title>ab99e5c: Merge pull request #17 from XAOSTECH/dependabot/github_actions/actions/github-script-8</title></circle>
    <circle class="commit-leaf" cx="240" cy="980" r="6" fill="url(#leafGradient)" stroke="#16a34a" stroke-width="1.5"><title>105cc7b: deps(deps): bump XAOSTECH/dev-control</title></circle>
    <circle class="commit-leaf" cx="1080" cy="1060" r="6" fill="url(#leafGradient)" stroke="#16a34a" stroke-width="1.5"><title>d369dd8: deps(deps): bump actions/github-script from 6 to 8</title></circle>
    <circle class="commit-leaf" cx="600" cy="1140" r="10" fill="url(#mergeGradient)" stroke="#7c3aed" stroke-width="1.5"><title>a4da0d1: Merge pull request #16 from XAOSTECH/anglicise/20260401-020811</title></circle>
    <circle class="commit-leaf" cx="120" cy="1180" r="6" fill="url(#leafGradient)" stroke="#16a34a" stroke-width="1.5"><title>1c0269c: chore: convert American spellings to British English</title></circle>
    <circle class="commit-leaf" cx="600" cy="1260" r="9" fill="url(#forkGradient)" stroke="#ea580c" stroke-width="1.5"><title>07fea13: chore: update git tree visualisation</title></circle>
    <circle class="commit-leaf" cx="600" cy="1300" r="10" fill="url(#mergeGradient)" stroke="#7c3aed" stroke-width="1.5"><title>a2fa428: Merge pull request #14 from XAOSTECH/dependabot/github_actions/actions/create-github-app-token-3</title></circle>
    <circle class="commit-leaf" cx="1200" cy="1340" r="6" fill="url(#leafGradient)" stroke="#16a34a" stroke-width="1.5"><title>76e9b72: deps(deps): bump actions/create-github-app-token from 2 to 3</title></circle>
    <circle class="commit-leaf" cx="600" cy="1420" r="9" fill="url(#forkGradient)" stroke="#ea580c" stroke-width="1.5"><title>47b418a: chore(dc-init): load workflows,actions</title></circle>
    <circle class="commit-leaf" cx="600" cy="1460" r="6" fill="url(#leafGradient)" stroke="#16a34a" stroke-width="1.5"><title>8fa06ba: chore: update git tree visualisation</title></circle>
    <circle class="commit-leaf" cx="600" cy="1500" r="10" fill="url(#mergeGradient)" stroke="#7c3aed" stroke-width="1.5"><title>980f73b: Merge pull request #13 from XAOSTECH/dependabot/github_actions/actions/upload-artifact-7</title></circle>
    <circle class="commit-leaf" cx="0" cy="1540" r="6" fill="url(#leafGradient)" stroke="#16a34a" stroke-width="1.5"><title>07aa05a: deps(deps): bump actions/upload-artifact from 4 to 7</title></circle>
    <circle class="commit-leaf" cx="600" cy="1620" r="10" fill="url(#mergeGradient)" stroke="#7c3aed" stroke-width="1.5"><title>3eb93ad: Merge pull request #11 from XAOSTECH/dependabot/github_actions/actions/create-github-app-token-3</title></circle>
    <circle class="commit-leaf" cx="1320" cy="1660" r="6" fill="url(#leafGradient)" stroke="#16a34a" stroke-width="1.5"><title>ef2f3e6: deps(deps): bump actions/create-github-app-token from 2 to 3</title></circle>
    <circle class="commit-leaf" cx="600" cy="1740" r="9" fill="url(#forkGradient)" stroke="#ea580c" stroke-width="1.5"><title>a90053b: chore(dc-init+contain): update workflows + actions + container config</title></circle>
    <circle class="commit-leaf" cx="600" cy="1780" r="6" fill="url(#leafGradient)" stroke="#16a34a" stroke-width="1.5"><title>3f03000: chore(devcontainer): guard python installs in post-create.sh (SKIP_PYTHON=1 to skip)</title></circle>
    <circle class="commit-leaf" cx="600" cy="1820" r="6" fill="url(#leafGradient)" stroke="#16a34a" stroke-width="1.5"><title>5311755: chore(devcontainer): simplify Dockerfile.cuda to minimal CUDA+R base and MIRROR build-arg</title></circle>
    <circle class="commit-leaf" cx="600" cy="1860" r="6" fill="url(#leafGradient)" stroke="#16a34a" stroke-width="1.5"><title>49b4cec: chore(devcontainer): switch to minimal CUDA+R devcontainer (remove heavy python feature &amp; postCreate)</title></circle>
    <circle class="commit-leaf" cx="600" cy="1900" r="10" fill="url(#mergeGradient)" stroke="#7c3aed" stroke-width="1.5"><title>647e31b: Merge pull request #9 from xaoscience/short-term-vsearch-cuda</title></circle>
    <circle class="commit-leaf" cx="-120" cy="1940" r="10" fill="url(#mergeGradient)" stroke="#7c3aed" stroke-width="1.5"><title>376b852: Merge pull request #9 from xaoscience/short-term-vsearch-cuda</title></circle>
    <circle class="commit-leaf" cx="1440" cy="2020" r="6" fill="url(#leafGradient)" stroke="#16a34a" stroke-width="1.5"><title>8c43e83: docs: Add Phase 1 GPU implementation guide and validation checklist</title></circle>
    <circle class="commit-leaf" cx="-240" cy="2100" r="6" fill="url(#leafGradient)" stroke="#16a34a" stroke-width="1.5"><title>1965089: docs: Add Phase 1 GPU implementation guide and validation checklist</title></circle>
    <circle class="commit-leaf" cx="1560" cy="2180" r="6" fill="url(#leafGradient)" stroke="#16a34a" stroke-width="1.5"><title>d2a8038: feat: Add comprehensive CPU vs GPU benchmark test suite</title></circle>
    <circle class="commit-leaf" cx="-360" cy="2260" r="6" fill="url(#leafGradient)" stroke="#16a34a" stroke-width="1.5"><title>6f05151: feat: Add comprehensive CPU vs GPU benchmark test suite</title></circle>
    <circle class="commit-leaf" cx="1680" cy="2340" r="6" fill="url(#leafGradient)" stroke="#16a34a" stroke-width="1.5"><title>fd42f6f: feat: Add CUDA GPU acceleration support to chimera detection stage</title></circle>
    <circle class="commit-leaf" cx="-480" cy="2420" r="6" fill="url(#leafGradient)" stroke="#16a34a" stroke-width="1.5"><title>b68691b: feat: Add CUDA GPU acceleration support to chimera detection stage</title></circle>
    <circle class="commit-leaf" cx="1800" cy="2500" r="6" fill="url(#leafGradient)" stroke="#16a34a" stroke-width="1.5"><title>56fa902: feat: Update CLI orchestrator with CUDA flag support and enhanced logging</title></circle>
    <circle class="commit-leaf" cx="-600" cy="2580" r="6" fill="url(#leafGradient)" stroke="#16a34a" stroke-width="1.5"><title>d0ea104: feat: Update CLI orchestrator with CUDA flag support and enhanced logging</title></circle>
    <circle class="commit-leaf" cx="600" cy="2660" r="10" fill="url(#mergeGradient)" stroke="#7c3aed" stroke-width="1.5"><title>dde4570: Merge pull request #8 from xaoscience/cuda-expansion</title></circle>
    <circle class="commit-leaf" cx="1920" cy="2700" r="10" fill="url(#mergeGradient)" stroke="#7c3aed" stroke-width="1.5"><title>8ea4df1: Merge pull request #8 from xaoscience/cuda-expansion</title></circle>
    <circle class="commit-leaf" cx="-720" cy="2780" r="6" fill="url(#leafGradient)" stroke="#16a34a" stroke-width="1.5"><title>2fd2231: docs: Update README with CUDA acceleration options and GPU performance</title></circle>
    <circle class="commit-leaf" cx="2040" cy="2860" r="6" fill="url(#leafGradient)" stroke="#16a34a" stroke-width="1.5"><title>8752098: docs: Update README with CUDA acceleration options and GPU performance</title></circle>
    <circle class="commit-leaf" cx="-840" cy="2940" r="6" fill="url(#leafGradient)" stroke="#16a34a" stroke-width="1.5"><title>ac91cc4: feat: Add Dockerfile.cuda for GPU-accelerated amplicon analysis</title></circle>
    <circle class="commit-leaf" cx="2160" cy="3020" r="6" fill="url(#leafGradient)" stroke="#16a34a" stroke-width="1.5"><title>9d17c0c: feat: Add Dockerfile.cuda for GPU-accelerated amplicon analysis</title></circle>
    <circle class="commit-leaf" cx="-960" cy="3100" r="6" fill="url(#leafGradient)" stroke="#16a34a" stroke-width="1.5"><title>47b0efc: docs: Add CUDA acceleration guide for GPU-enabled amplicon analysis</title></circle>
    <circle class="commit-leaf" cx="2280" cy="3180" r="6" fill="url(#leafGradient)" stroke="#16a34a" stroke-width="1.5"><title>deb6692: docs: Add CUDA acceleration guide for GPU-enabled amplicon analysis</title></circle>
    <circle class="commit-leaf" cx="600" cy="3260" r="9" fill="url(#forkGradient)" stroke="#ea580c" stroke-width="1.5"><title>88201ac: adapt container</title></circle>
    <circle class="commit-leaf" cx="-1080" cy="3300" r="9" fill="url(#forkGradient)" stroke="#ea580c" stroke-width="1.5"><title>89aba31: adapt container</title></circle>
    <circle class="commit-leaf" cx="600" cy="3380" r="6" fill="url(#leafGradient)" stroke="#16a34a" stroke-width="1.5"><title>9b4ed2e: chore: Update status badge to experimental and license to GPL3</title></circle>
    <circle class="commit-leaf" cx="2400" cy="3420" r="6" fill="url(#leafGradient)" stroke="#16a34a" stroke-width="1.5"><title>b076780: chore: Update status badge to experimental and license to GPL3</title></circle>
    <circle class="commit-leaf" cx="600" cy="3500" r="6" fill="url(#leafGradient)" stroke="#16a34a" stroke-width="1.5"><title>d6a8bbc: cleanup: Remove all legacy documentation and example data</title></circle>
    <circle class="commit-leaf" cx="-1200" cy="3540" r="6" fill="url(#leafGradient)" stroke="#16a34a" stroke-width="1.5"><title>898414a: cleanup: Remove all legacy documentation and example data</title></circle>
    <circle class="commit-leaf" cx="600" cy="3620" r="6" fill="url(#leafGradient)" stroke="#16a34a" stroke-width="1.5"><title>1071586: manual cleanup</title></circle>
    <circle class="commit-leaf" cx="2520" cy="3660" r="6" fill="url(#leafGradient)" stroke="#16a34a" stroke-width="1.5"><title>2af1c22: manual cleanup</title></circle>
    <circle class="commit-leaf" cx="600" cy="3740" r="10" fill="url(#mergeGradient)" stroke="#7c3aed" stroke-width="1.5"><title>335804e: Merge pull request #7 from xaoscience/cleanup-refactor</title></circle>
    <circle class="commit-leaf" cx="-1320" cy="3780" r="10" fill="url(#mergeGradient)" stroke="#7c3aed" stroke-width="1.5"><title>84ab5f6: Merge pull request #7 from xaoscience/cleanup-refactor</title></circle>
    <circle class="commit-leaf" cx="2640" cy="3860" r="6" fill="url(#leafGradient)" stroke="#16a34a" stroke-width="1.5"><title>48ff6fa: cleanup: Remove legacy Python/R code and old infrastructure</title></circle>
    <circle class="commit-leaf" cx="-1440" cy="3940" r="6" fill="url(#leafGradient)" stroke="#16a34a" stroke-width="1.5"><title>dba7129: cleanup: Remove legacy Python/R code and old infrastructure</title></circle>
    <circle class="commit-leaf" cx="2760" cy="4020" r="6" fill="url(#leafGradient)" stroke="#16a34a" stroke-width="1.5"><title>c4c7d0b: cleanup: Remove legacy Python infrastructure</title></circle>
    <circle class="commit-leaf" cx="-1560" cy="4100" r="6" fill="url(#leafGradient)" stroke="#16a34a" stroke-width="1.5"><title>d716526: cleanup: Remove legacy Python infrastructure</title></circle>
    <circle class="commit-leaf" cx="2880" cy="4180" r="6" fill="url(#leafGradient)" stroke="#16a34a" stroke-width="1.5"><title>7861cf6: cleanup: Remove redundant documentation</title></circle>
    <circle class="commit-leaf" cx="-1680" cy="4260" r="6" fill="url(#leafGradient)" stroke="#16a34a" stroke-width="1.5"><title>49de8d6: cleanup: Remove redundant documentation</title></circle>
    <circle class="commit-leaf" cx="3000" cy="4340" r="6" fill="url(#leafGradient)" stroke="#16a34a" stroke-width="1.5"><title>0154828: refactor: Reorganize project structure and consolidate documentation</title></circle>
    <circle class="commit-leaf" cx="-1800" cy="4420" r="6" fill="url(#leafGradient)" stroke="#16a34a" stroke-width="1.5"><title>be8387c: refactor: Reorganize project structure and consolidate documentation</title></circle>
    <circle class="commit-leaf" cx="600" cy="4500" r="10" fill="url(#mergeGradient)" stroke="#7c3aed" stroke-width="1.5"><title>72d2cab: Merge pull request #6 from xaoscience/bash-refactor</title></circle>
    <circle class="commit-leaf" cx="3120" cy="4540" r="10" fill="url(#mergeGradient)" stroke="#7c3aed" stroke-width="1.5"><title>f28913d: Merge pull request #6 from xaoscience/bash-refactor</title></circle>
    <circle class="commit-leaf" cx="-1920" cy="4620" r="6" fill="url(#leafGradient)" stroke="#16a34a" stroke-width="1.5"><title>f65ee2f: Bash-Refactor: System architecture documentation</title></circle>
    <circle class="commit-leaf" cx="3240" cy="4700" r="6" fill="url(#leafGradient)" stroke="#16a34a" stroke-width="1.5"><title>f3e795e: Bash-Refactor: System architecture documentation</title></circle>
    <circle class="commit-leaf" cx="-2040" cy="4780" r="6" fill="url(#leafGradient)" stroke="#16a34a" stroke-width="1.5"><title>e847b5d: Bash-Refactor: Implementation summary &amp; delivery report</title></circle>
    <circle class="commit-leaf" cx="3360" cy="4860" r="6" fill="url(#leafGradient)" stroke="#16a34a" stroke-width="1.5"><title>0839e5f: Bash-Refactor: Implementation summary &amp; delivery report</title></circle>
    <circle class="commit-leaf" cx="-2160" cy="4940" r="6" fill="url(#leafGradient)" stroke="#16a34a" stroke-width="1.5"><title>0c069f8: Bash-Refactor: Quick reference guide with copy-paste recipes</title></circle>
    <circle class="commit-leaf" cx="3480" cy="5020" r="6" fill="url(#leafGradient)" stroke="#16a34a" stroke-width="1.5"><title>94340aa: Bash-Refactor: Quick reference guide with copy-paste recipes</title></circle>
    <circle class="commit-leaf" cx="-2280" cy="5100" r="6" fill="url(#leafGradient)" stroke="#16a34a" stroke-width="1.5"><title>ab00870: Bash-Refactor: Complete documentation with execution guide</title></circle>
    <circle class="commit-leaf" cx="3600" cy="5180" r="6" fill="url(#leafGradient)" stroke="#16a34a" stroke-width="1.5"><title>ab82520: Bash-Refactor: Complete documentation with execution guide</title></circle>
    <circle class="commit-leaf" cx="-2400" cy="5260" r="6" fill="url(#leafGradient)" stroke="#16a34a" stroke-width="1.5"><title>25936e6: Bash-Refactor: Test suite for pipeline validation</title></circle>
    <circle class="commit-leaf" cx="3720" cy="5340" r="6" fill="url(#leafGradient)" stroke="#16a34a" stroke-width="1.5"><title>66c7ad0: Bash-Refactor: Test suite for pipeline validation</title></circle>
    <circle class="commit-leaf" cx="-2520" cy="5420" r="6" fill="url(#leafGradient)" stroke="#16a34a" stroke-width="1.5"><title>1f8e399: Bash-Refactor: Pipeline Stage 06 - Krona visualization (final stage)</title></circle>
    <circle class="commit-leaf" cx="3840" cy="5500" r="6" fill="url(#leafGradient)" stroke="#16a34a" stroke-width="1.5"><title>81be338: Bash-Refactor: Pipeline Stage 06 - Krona visualization (final stage)</title></circle>
    <circle class="commit-leaf" cx="-2640" cy="5580" r="6" fill="url(#leafGradient)" stroke="#16a34a" stroke-width="1.5"><title>ecebb03: Bash-Refactor: Pipeline Stage 05 - FastTree phylogenetic inference</title></circle>
    <circle class="commit-leaf" cx="3960" cy="5660" r="6" fill="url(#leafGradient)" stroke="#16a34a" stroke-width="1.5"><title>fc056cb: Bash-Refactor: Pipeline Stage 05 - FastTree phylogenetic inference</title></circle>
    <circle class="commit-leaf" cx="-2760" cy="5740" r="6" fill="url(#leafGradient)" stroke="#16a34a" stroke-width="1.5"><title>40b2117: Bash-Refactor: Pipeline Stage 04 - RDP Classifier taxonomy</title></circle>
    <circle class="commit-leaf" cx="4080" cy="5820" r="6" fill="url(#leafGradient)" stroke="#16a34a" stroke-width="1.5"><title>d108853: Bash-Refactor: Pipeline Stage 04 - RDP Classifier taxonomy</title></circle>
    <circle class="commit-leaf" cx="-2880" cy="5900" r="6" fill="url(#leafGradient)" stroke="#16a34a" stroke-width="1.5"><title>8eaaea4: Bash-Refactor: Pipeline Stage 03 - Chimera detection (VSEARCH UCHIME)</title></circle>
    <circle class="commit-leaf" cx="4200" cy="5980" r="6" fill="url(#leafGradient)" stroke="#16a34a" stroke-width="1.5"><title>d279cc4: Bash-Refactor: Pipeline Stage 03 - Chimera detection (VSEARCH UCHIME)</title></circle>
    <circle class="commit-leaf" cx="-3000" cy="6060" r="6" fill="url(#leafGradient)" stroke="#16a34a" stroke-width="1.5"><title>d828cfb: Bash-Refactor: Pipeline Stage 02 - DADA2 denoising</title></circle>
    <circle class="commit-leaf" cx="4320" cy="6140" r="6" fill="url(#leafGradient)" stroke="#16a34a" stroke-width="1.5"><title>01e95e1: Bash-Refactor: Pipeline Stage 02 - DADA2 denoising</title></circle>
    <circle class="commit-leaf" cx="-3120" cy="6220" r="6" fill="url(#leafGradient)" stroke="#16a34a" stroke-width="1.5"><title>452d052: Bash-Refactor: Pipeline Stage 01 - Preprocess (QC, trim, filter)</title></circle>
    <circle class="commit-leaf" cx="4440" cy="6300" r="6" fill="url(#leafGradient)" stroke="#16a34a" stroke-width="1.5"><title>20f5019: Bash-Refactor: Pipeline Stage 01 - Preprocess (QC, trim, filter)</title></circle>
    <circle class="commit-leaf" cx="-3240" cy="6380" r="6" fill="url(#leafGradient)" stroke="#16a34a" stroke-width="1.5"><title>0e75302: Bash-Refactor: Dashboard JavaScript (real-time updates)</title></circle>
    <circle class="commit-leaf" cx="4560" cy="6460" r="6" fill="url(#leafGradient)" stroke="#16a34a" stroke-width="1.5"><title>bb26e14: Bash-Refactor: Dashboard JavaScript (real-time updates)</title></circle>
    <circle class="commit-leaf" cx="-3360" cy="6540" r="6" fill="url(#leafGradient)" stroke="#16a34a" stroke-width="1.5"><title>82f0fe0: Bash-Refactor: Dashboard CSS styling</title></circle>
    <circle class="commit-leaf" cx="4680" cy="6620" r="6" fill="url(#leafGradient)" stroke="#16a34a" stroke-width="1.5"><title>515aeed: Bash-Refactor: Dashboard CSS styling</title></circle>
    <circle class="commit-leaf" cx="-3480" cy="6700" r="6" fill="url(#leafGradient)" stroke="#16a34a" stroke-width="1.5"><title>e2661f5: Bash-Refactor: Web dashboard (HTML + D3/Plotly)</title></circle>
    <circle class="commit-leaf" cx="4800" cy="6780" r="6" fill="url(#leafGradient)" stroke="#16a34a" stroke-width="1.5"><title>95f5805: Bash-Refactor: Web dashboard (HTML + D3/Plotly)</title></circle>
    <circle class="commit-leaf" cx="-3600" cy="6860" r="6" fill="url(#leafGradient)" stroke="#16a34a" stroke-width="1.5"><title>f20698a: Bash-Refactor: C++ analytics server (WebSocket, live metrics)</title></circle>
    <circle class="commit-leaf" cx="4920" cy="6940" r="6" fill="url(#leafGradient)" stroke="#16a34a" stroke-width="1.5"><title>a187cbe: Bash-Refactor: C++ analytics server (WebSocket, live metrics)</title></circle>
    <circle class="commit-leaf" cx="-3720" cy="7020" r="6" fill="url(#leafGradient)" stroke="#16a34a" stroke-width="1.5"><title>73af8c2: Bash-Refactor: Main orchestrator CLI</title></circle>
    <circle class="commit-leaf" cx="5040" cy="7100" r="6" fill="url(#leafGradient)" stroke="#16a34a" stroke-width="1.5"><title>b81e005: Bash-Refactor: Main orchestrator CLI</title></circle>
    <circle class="commit-leaf" cx="-3840" cy="7180" r="6" fill="url(#leafGradient)" stroke="#16a34a" stroke-width="1.5"><title>1e6aac5: Bash-Refactor: Bleeding-edge native bioinformatics pipeline (2025)</title></circle>
    <circle class="commit-leaf" cx="5160" cy="7260" r="6" fill="url(#leafGradient)" stroke="#16a34a" stroke-width="1.5"><title>797a496: Bash-Refactor: Bleeding-edge native bioinformatics pipeline (2025)</title></circle>
    <circle class="commit-leaf" cx="600" cy="7340" r="10" fill="url(#mergeGradient)" stroke="#7c3aed" stroke-width="1.5"><title>614fcc1: Merge pull request #5 from xaoscience/refactor</title></circle>
    <circle class="commit-leaf" cx="-3960" cy="7380" r="10" fill="url(#mergeGradient)" stroke="#7c3aed" stroke-width="1.5"><title>7f51b95: Merge pull request #5 from xaoscience/refactor</title></circle>
    <circle class="commit-leaf" cx="5280" cy="7460" r="6" fill="url(#leafGradient)" stroke="#16a34a" stroke-width="1.5"><title>0efed4c: Refactor: Branch status and validation checklist</title></circle>
    <circle class="commit-leaf" cx="-4080" cy="7540" r="6" fill="url(#leafGradient)" stroke="#16a34a" stroke-width="1.5"><title>9243447: Refactor: Branch status and validation checklist</title></circle>
    <circle class="commit-leaf" cx="5400" cy="7620" r="6" fill="url(#leafGradient)" stroke="#16a34a" stroke-width="1.5"><title>b2d1461: Refactor: Comprehensive architecture &amp; implementation documentation</title></circle>
    <circle class="commit-leaf" cx="-4200" cy="7700" r="6" fill="url(#leafGradient)" stroke="#16a34a" stroke-width="1.5"><title>c0bd084: Refactor: Comprehensive architecture &amp; implementation documentation</title></circle>
    <circle class="commit-leaf" cx="5520" cy="7780" r="6" fill="url(#leafGradient)" stroke="#16a34a" stroke-width="1.5"><title>abf40d8: Refactor: CLI entrypoint with modular commands</title></circle>
    <circle class="commit-leaf" cx="-4320" cy="7860" r="6" fill="url(#leafGradient)" stroke="#16a34a" stroke-width="1.5"><title>2215b60: Refactor: CLI entrypoint with modular commands</title></circle>
    <circle class="commit-leaf" cx="5640" cy="7940" r="6" fill="url(#leafGradient)" stroke="#16a34a" stroke-width="1.5"><title>6a59793: Refactor: Phylogenetic module - neighbor-joining tree construction</title></circle>
    <circle class="commit-leaf" cx="-4440" cy="8020" r="6" fill="url(#leafGradient)" stroke="#16a34a" stroke-width="1.5"><title>b735e60: Refactor: Phylogenetic module - neighbor-joining tree construction</title></circle>
    <circle class="commit-leaf" cx="5760" cy="8100" r="6" fill="url(#leafGradient)" stroke="#16a34a" stroke-width="1.5"><title>dd64562: Refactor: Taxonomy assignment module (k-mer, exact match methods)</title></circle>
    <circle class="commit-leaf" cx="-4560" cy="8180" r="6" fill="url(#leafGradient)" stroke="#16a34a" stroke-width="1.5"><title>45622ca: Refactor: Taxonomy assignment module (k-mer, exact match methods)</title></circle>
    <circle class="commit-leaf" cx="5880" cy="8260" r="6" fill="url(#leafGradient)" stroke="#16a34a" stroke-width="1.5"><title>7d0db21: Refactor: Denoising module - pure Python ASV inference</title></circle>
    <circle class="commit-leaf" cx="-4680" cy="8340" r="6" fill="url(#leafGradient)" stroke="#16a34a" stroke-width="1.5"><title>a965be6: Refactor: Denoising module - pure Python ASV inference</title></circle>
    <circle class="commit-leaf" cx="6000" cy="8420" r="6" fill="url(#leafGradient)" stroke="#16a34a" stroke-width="1.5"><title>3b21685: Refactor: QC module - pure Python DADA2-inspired filtering</title></circle>
    <circle class="commit-leaf" cx="-4800" cy="8500" r="6" fill="url(#leafGradient)" stroke="#16a34a" stroke-width="1.5"><title>ab6ba30: Refactor: QC module - pure Python DADA2-inspired filtering</title></circle>
    <circle class="commit-leaf" cx="6120" cy="8580" r="6" fill="url(#leafGradient)" stroke="#16a34a" stroke-width="1.5"><title>ae7fac2: Refactor: Safe Entrez fetching with XXE protection</title></circle>
    <circle class="commit-leaf" cx="-4920" cy="8660" r="6" fill="url(#leafGradient)" stroke="#16a34a" stroke-width="1.5"><title>5d2042b: Refactor: Safe Entrez fetching with XXE protection</title></circle>
    <circle class="commit-leaf" cx="6240" cy="8740" r="6" fill="url(#leafGradient)" stroke="#16a34a" stroke-width="1.5"><title>085a561: Refactor: I/O module with documented bioinformatics methods</title></circle>
    <circle class="commit-leaf" cx="-5040" cy="8820" r="6" fill="url(#leafGradient)" stroke="#16a34a" stroke-width="1.5"><title>28169cc: Refactor: I/O module with documented bioinformatics methods</title></circle>
    <circle class="commit-leaf" cx="6360" cy="8900" r="6" fill="url(#leafGradient)" stroke="#16a34a" stroke-width="1.5"><title>7991f4b: Refactor: Nucleid profile configuration system (scalable)</title></circle>
    <circle class="commit-leaf" cx="-5160" cy="8980" r="6" fill="url(#leafGradient)" stroke="#16a34a" stroke-width="1.5"><title>d2a5106: Refactor: Nucleid profile configuration system (scalable)</title></circle>
    <circle class="commit-leaf" cx="6480" cy="9060" r="6" fill="url(#leafGradient)" stroke="#16a34a" stroke-width="1.5"><title>7b19390: Refactor: Core module with modular imports</title></circle>
    <circle class="commit-leaf" cx="-5280" cy="9140" r="6" fill="url(#leafGradient)" stroke="#16a34a" stroke-width="1.5"><title>2d4bc57: Refactor: Core module with modular imports</title></circle>
    <circle class="commit-leaf" cx="6600" cy="9220" r="6" fill="url(#leafGradient)" stroke="#16a34a" stroke-width="1.5"><title>1e5b139: Refactor: Update requirements - remove R, add defusedxml XXE fix, bump Biopython</title></circle>
    <circle class="commit-leaf" cx="-5400" cy="9300" r="6" fill="url(#leafGradient)" stroke="#16a34a" stroke-width="1.5"><title>94d8187: Refactor: Update requirements - remove R, add defusedxml XXE fix, bump Biopython</title></circle>
    <circle class="commit-leaf" cx="6720" cy="9380" r="6" fill="url(#leafGradient)" stroke="#16a34a" stroke-width="1.5"><title>c86f68c: Refactor: Setup package as installable Python application</title></circle>
    <circle class="commit-leaf" cx="-5520" cy="9460" r="6" fill="url(#leafGradient)" stroke="#16a34a" stroke-width="1.5"><title>180f5d6: Refactor: Setup package as installable Python application</title></circle>
    <circle class="commit-leaf" cx="600" cy="9540" r="10" fill="url(#mergeGradient)" stroke="#7c3aed" stroke-width="1.5"><title>a353a11: Merge pull request #1 from xaoscience/dependabot/github_actions/actions/checkout-6</title></circle>
    <circle class="commit-leaf" cx="6840" cy="9580" r="10" fill="url(#mergeGradient)" stroke="#7c3aed" stroke-width="1.5"><title>0ae62ba: Merge pull request #1 from xaoscience/dependabot/github_actions/actions/checkout-6</title></circle>
    <circle class="commit-leaf" cx="600" cy="9660" r="10" fill="url(#mergeGradient)" stroke="#7c3aed" stroke-width="1.5"><title>4e74dce: Merge pull request #4 from xaoscience/dependabot/pip/jupyter-68f4446fcb</title></circle>
    <circle class="commit-leaf" cx="-5640" cy="9700" r="10" fill="url(#mergeGradient)" stroke="#7c3aed" stroke-width="1.5"><title>6abd285: Merge pull request #4 from xaoscience/dependabot/pip/jupyter-68f4446fcb</title></circle>
    <circle class="commit-leaf" cx="600" cy="9780" r="10" fill="url(#mergeGradient)" stroke="#7c3aed" stroke-width="1.5"><title>6954cde: Merge pull request #3 from xaoscience/dependabot/pip/data-science-d96427fa6b</title></circle>
    <circle class="commit-leaf" cx="6960" cy="9820" r="10" fill="url(#mergeGradient)" stroke="#7c3aed" stroke-width="1.5"><title>90efd06: Merge pull request #3 from xaoscience/dependabot/pip/data-science-d96427fa6b</title></circle>
    <circle class="commit-leaf" cx="-5760" cy="9900" r="6" fill="url(#leafGradient)" stroke="#16a34a" stroke-width="1.5"><title>c20e75d: chore(deps)(deps): bump notebook in the jupyter group</title></circle>
    <circle class="commit-leaf" cx="7080" cy="9980" r="6" fill="url(#leafGradient)" stroke="#16a34a" stroke-width="1.5"><title>c2f9be1: chore(deps)(deps): bump notebook in the jupyter group</title></circle>
    <circle class="commit-leaf" cx="-5880" cy="10060" r="6" fill="url(#leafGradient)" stroke="#16a34a" stroke-width="1.5"><title>e228c45: chore(deps)(deps): bump numpy in the data-science group</title></circle>
    <circle class="commit-leaf" cx="7200" cy="10140" r="6" fill="url(#leafGradient)" stroke="#16a34a" stroke-width="1.5"><title>75b225f: chore(deps)(deps): bump numpy in the data-science group</title></circle>
    <circle class="commit-leaf" cx="600" cy="10220" r="10" fill="url(#mergeGradient)" stroke="#7c3aed" stroke-width="1.5"><title>f3b395d: Merge pull request #2 from xaoscience/dependabot/github_actions/actions/github-script-8</title></circle>
    <circle class="commit-leaf" cx="-6000" cy="10260" r="10" fill="url(#mergeGradient)" stroke="#7c3aed" stroke-width="1.5"><title>052c3f9: Merge pull request #2 from xaoscience/dependabot/github_actions/actions/github-script-8</title></circle>
    <circle class="commit-leaf" cx="7320" cy="10340" r="6" fill="url(#leafGradient)" stroke="#16a34a" stroke-width="1.5"><title>e157b67: deps(deps): bump actions/github-script from 7 to 8</title></circle>
    <circle class="commit-leaf" cx="-6120" cy="10420" r="6" fill="url(#leafGradient)" stroke="#16a34a" stroke-width="1.5"><title>62810a3: deps(deps): bump actions/github-script from 7 to 8</title></circle>
    <circle class="commit-leaf" cx="7440" cy="10500" r="6" fill="url(#leafGradient)" stroke="#16a34a" stroke-width="1.5"><title>cd7763e: deps(deps): bump actions/checkout from 4 to 6</title></circle>
    <circle class="commit-leaf" cx="-6240" cy="10580" r="6" fill="url(#leafGradient)" stroke="#16a34a" stroke-width="1.5"><title>4ee89f7: deps(deps): bump actions/checkout from 4 to 6</title></circle>
    <circle class="commit-leaf" cx="600" cy="10660" r="9" fill="url(#forkGradient)" stroke="#ea580c" stroke-width="1.5"><title>3049af8: Initial commit</title></circle>
    <circle class="commit-leaf" cx="7560" cy="10700" r="9" fill="url(#forkGradient)" stroke="#ea580c" stroke-width="1.5"><title>1fd560a: Initial commit</title></circle>
  </g>
  
  <!-- Legend -->
  <g id="legend" transform="translate(20, 20)">
    <rect width="200" height="110" fill="white" stroke="#cbd5e1" stroke-width="1" rx="4"/>
    <circle cx="20" cy="25" r="5" fill="url(#leafGradient)" stroke="#16a34a"/>
    <text x="32" y="30" class="branch-label" font-size="12">Regular Commit</text>
    <circle cx="20" cy="50" r="6" fill="url(#mergeGradient)" stroke="#7c3aed"/>
    <text x="32" y="55" class="branch-label" font-size="12">Merge Commit</text>
    <circle cx="20" cy="75" r="6" fill="url(#forkGradient)" stroke="#ea580c"/>
    <text x="32" y="80" class="branch-label" font-size="12">Fork Point</text>
    <circle cx="20" cy="100" r="6" fill="url(#tagGradient)" stroke="#0284c7"/>
    <text x="32" y="105" class="branch-label" font-size="12">Tagged</text>
  </g>
  
  <!-- Repository info -->
  <g id="info" transform="translate(20, 10780)">
    <text x="0" y="0" class="branch-label" font-size="12" fill="#666">
      Repository: NucleiTaxa
    </text>
    <text x="0" y="20" class="branch-label" font-size="10" fill="#999">
      Generated: 2026-05-18 04:01:41 UTC
    </text>
  </g>
</svg>
