<?xml version="1.0" encoding="UTF-8"?>
<svg xmlns="http://www.w3.org/2000/svg" 
     xmlns:xlink="http://www.w3.org/1999/xlink"
     width="13960" height="10380" 
     viewBox="0 0 13960 10380">
  <defs>
    <radialGradient id="leafGradient">
      <stop offset="0%" style="stop-color:#22c55e;stop-opacity:1" />
      <stop offset="100%" style="stop-color:#16a34a;stop-opacity:0.8" />
    </radialGradient>
    <radialGradient id="mergeGradient">
      <stop offset="0%" style="stop-color:#a78bfa;stop-opacity:1" />
      <stop offset="100%" style="stop-color:#7c3aed;stop-opacity:0.8" />
    </radialGradient>
    <radialGradient id="forkGradient">
      <stop offset="0%" style="stop-color:#fb923c;stop-opacity:1" />
      <stop offset="100%" style="stop-color:#ea580c;stop-opacity:0.8" />
    </radialGradient>
    <radialGradient id="tagGradient">
      <stop offset="0%" style="stop-color:#38bdf8;stop-opacity:1" />
      <stop offset="100%" style="stop-color:#0284c7;stop-opacity:0.8" />
    </radialGradient>
    <style>
      .branch-line { stroke: #64748b; stroke-width: 2; fill: none; opacity: 0.7; }
      .trunk-line { stroke: #22c55e; stroke-width: 2.5; fill: none; opacity: 0.6; }
      .commit-leaf { cursor: pointer; }
      .commit-leaf:hover { filter: brightness(1.5); }
      .branch-label { font-family: sans-serif; font-size: 12px; font-weight: bold; fill: #0f172a; }
    </style>
  </defs>
  
  <rect width="13960" height="10380" fill="#f8fafc"/>
  <defs>
    <pattern id="grid" width="100" height="100" patternUnits="userSpaceOnUse">
      <path d="M 100 0 L 0 0 0 100" fill="none" stroke="#e2e8f0" stroke-width="0.5" opacity="0.3"/>
    </pattern>
  </defs>
  <rect width="13960" height="10380" fill="url(#grid)"/>
  
  <!-- Branch connection lines -->
  <g id="branches">
    <line class="trunk-line" x1="600" y1="60" x2="600" y2="100"/>
    <path class="branch-line" d="M 600 60 C 600 108, 720 132, 720 180"/>
    <line class="trunk-line" x1="600" y1="100" x2="600" y2="140"/>
    <path class="branch-line" d="M 600 100 C 600 164, 480 196, 480 260"/>
    <line class="trunk-line" x1="600" y1="140" x2="600" y2="420"/>
    <path class="branch-line" d="M 600 140 C 600 220, 840 260, 840 340"/>
    <path class="branch-line" d="M 720 180 C 720 276, 600 324, 600 420"/>
    <path class="branch-line" d="M 480 260 C 480 324, 600 356, 600 420"/>
    <path class="branch-line" d="M 840 340 C 840 372, 600 388, 600 420"/>
    <line class="trunk-line" x1="600" y1="420" x2="600" y2="460"/>
    <line class="trunk-line" x1="600" y1="460" x2="600" y2="500"/>
    <path class="branch-line" d="M 600 460 C 600 492, 360 508, 360 540"/>
    <line class="trunk-line" x1="600" y1="500" x2="600" y2="700"/>
    <path class="branch-line" d="M 600 500 C 600 548, 960 572, 960 620"/>
    <path class="branch-line" d="M 360 540 C 360 604, 600 636, 600 700"/>
    <path class="branch-line" d="M 960 620 C 960 652, 600 668, 600 700"/>
    <line class="trunk-line" x1="600" y1="700" x2="600" y2="820"/>
    <path class="branch-line" d="M 600 700 C 600 716, 240 724, 240 740"/>
    <path class="branch-line" d="M 240 740 C 240 772, 600 788, 600 820"/>
    <line class="trunk-line" x1="600" y1="820" x2="600" y2="860"/>
    <line class="trunk-line" x1="600" y1="860" x2="600" y2="980"/>
    <path class="branch-line" d="M 600 860 C 600 876, 1080 884, 1080 900"/>
    <path class="branch-line" d="M 1080 900 C 1080 932, 600 948, 600 980"/>
    <line class="trunk-line" x1="600" y1="980" x2="600" y2="1020"/>
    <line class="trunk-line" x1="600" y1="1020" x2="600" y2="1060"/>
    <line class="trunk-line" x1="600" y1="1060" x2="600" y2="1180"/>
    <path class="branch-line" d="M 600 1060 C 600 1076, 120 1084, 120 1100"/>
    <path class="branch-line" d="M 120 1100 C 120 1180, 600 1220, 600 1300"/>
    <line class="trunk-line" x1="600" y1="1180" x2="600" y2="1300"/>
    <path class="branch-line" d="M 600 1180 C 600 1196, 1200 1204, 1200 1220"/>
    <path class="branch-line" d="M 1200 1220 C 1200 1252, 600 1268, 600 1300"/>
    <line class="trunk-line" x1="600" y1="1300" x2="600" y2="1340"/>
    <line class="trunk-line" x1="600" y1="1340" x2="600" y2="1380"/>
    <line class="trunk-line" x1="600" y1="1380" x2="600" y2="1420"/>
    <line class="trunk-line" x1="600" y1="1420" x2="600" y2="1460"/>
    <line class="trunk-line" x1="600" y1="1460" x2="600" y2="2220"/>
    <path class="branch-line" d="M 600 1460 C 600 1508, 1320 1532, 1320 1580"/>
    <path class="branch-line" d="M 0 1500 C 0 1804, 1800 1956, 1800 2260"/>
    <path class="branch-line" d="M 0 1500 C 0 1564, -120 1596, -120 1660"/>
    <path class="branch-line" d="M 1320 1580 C 1320 1644, 1440 1676, 1440 1740"/>
    <path class="branch-line" d="M -120 1660 C -120 1724, -240 1756, -240 1820"/>
    <path class="branch-line" d="M 1440 1740 C 1440 1804, 1560 1836, 1560 1900"/>
    <path class="branch-line" d="M -240 1820 C -240 1884, -360 1916, -360 1980"/>
    <path class="branch-line" d="M 1560 1900 C 1560 1964, 1680 1996, 1680 2060"/>
    <path class="branch-line" d="M -360 1980 C -360 2044, -480 2076, -480 2140"/>
    <path class="branch-line" d="M 1680 2060 C 1680 2124, 600 2156, 600 2220"/>
    <path class="branch-line" d="M -480 2140 C -480 2188, 1800 2212, 1800 2260"/>
    <line class="trunk-line" x1="600" y1="2220" x2="600" y2="2820"/>
    <path class="branch-line" d="M 600 2220 C 600 2268, -600 2292, -600 2340"/>
    <path class="branch-line" d="M 1800 2260 C 1800 2500, -960 2620, -960 2860"/>
    <path class="branch-line" d="M 1800 2260 C 1800 2324, 1920 2356, 1920 2420"/>
    <path class="branch-line" d="M -600 2340 C -600 2404, -720 2436, -720 2500"/>
    <path class="branch-line" d="M 1920 2420 C 1920 2484, 2040 2516, 2040 2580"/>
    <path class="branch-line" d="M -720 2500 C -720 2564, -840 2596, -840 2660"/>
    <path class="branch-line" d="M 2040 2580 C 2040 2644, 2160 2676, 2160 2740"/>
    <path class="branch-line" d="M -840 2660 C -840 2724, 600 2756, 600 2820"/>
    <path class="branch-line" d="M 2160 2740 C 2160 2788, -960 2812, -960 2860"/>
    <line class="trunk-line" x1="600" y1="2820" x2="600" y2="2940"/>
    <path class="branch-line" d="M -960 2860 C -960 2908, 2280 2932, 2280 2980"/>
    <line class="trunk-line" x1="600" y1="2940" x2="600" y2="3060"/>
    <path class="branch-line" d="M 2280 2980 C 2280 3028, -1080 3052, -1080 3100"/>
    <line class="trunk-line" x1="600" y1="3060" x2="600" y2="3180"/>
    <path class="branch-line" d="M -1080 3100 C -1080 3148, 2400 3172, 2400 3220"/>
    <line class="trunk-line" x1="600" y1="3180" x2="600" y2="3300"/>
    <path class="branch-line" d="M 2400 3220 C 2400 3268, -1200 3292, -1200 3340"/>
    <line class="trunk-line" x1="600" y1="3300" x2="600" y2="4060"/>
    <path class="branch-line" d="M 600 3300 C 600 3348, 2520 3372, 2520 3420"/>
    <path class="branch-line" d="M -1200 3340 C -1200 3644, 3000 3796, 3000 4100"/>
    <path class="branch-line" d="M -1200 3340 C -1200 3404, -1320 3436, -1320 3500"/>
    <path class="branch-line" d="M 2520 3420 C 2520 3484, 2640 3516, 2640 3580"/>
    <path class="branch-line" d="M -1320 3500 C -1320 3564, -1440 3596, -1440 3660"/>
    <path class="branch-line" d="M 2640 3580 C 2640 3644, 2760 3676, 2760 3740"/>
    <path class="branch-line" d="M -1440 3660 C -1440 3724, -1560 3756, -1560 3820"/>
    <path class="branch-line" d="M 2760 3740 C 2760 3804, 2880 3836, 2880 3900"/>
    <path class="branch-line" d="M -1560 3820 C -1560 3884, -1680 3916, -1680 3980"/>
    <path class="branch-line" d="M 2880 3900 C 2880 3964, 600 3996, 600 4060"/>
    <path class="branch-line" d="M -1680 3980 C -1680 4028, 3000 4052, 3000 4100"/>
    <line class="trunk-line" x1="600" y1="4060" x2="600" y2="6900"/>
    <path class="branch-line" d="M 600 4060 C 600 4108, -1800 4132, -1800 4180"/>
    <path class="branch-line" d="M 3000 4100 C 3000 5236, -3840 5804, -3840 6940"/>
    <path class="branch-line" d="M 3000 4100 C 3000 4164, 3120 4196, 3120 4260"/>
    <path class="branch-line" d="M -1800 4180 C -1800 4244, -1920 4276, -1920 4340"/>
    <path class="branch-line" d="M 3120 4260 C 3120 4324, 3240 4356, 3240 4420"/>
    <path class="branch-line" d="M -1920 4340 C -1920 4404, -2040 4436, -2040 4500"/>
    <path class="branch-line" d="M 3240 4420 C 3240 4484, 3360 4516, 3360 4580"/>
    <path class="branch-line" d="M -2040 4500 C -2040 4564, -2160 4596, -2160 4660"/>
    <path class="branch-line" d="M 3360 4580 C 3360 4644, 3480 4676, 3480 4740"/>
    <path class="branch-line" d="M -2160 4660 C -2160 4724, -2280 4756, -2280 4820"/>
    <path class="branch-line" d="M 3480 4740 C 3480 4804, 3600 4836, 3600 4900"/>
    <path class="branch-line" d="M -2280 4820 C -2280 4884, -2400 4916, -2400 4980"/>
    <path class="branch-line" d="M 3600 4900 C 3600 4964, 3720 4996, 3720 5060"/>
    <path class="branch-line" d="M -2400 4980 C -2400 5044, -2520 5076, -2520 5140"/>
    <path class="branch-line" d="M 3720 5060 C 3720 5124, 3840 5156, 3840 5220"/>
    <path class="branch-line" d="M -2520 5140 C -2520 5204, -2640 5236, -2640 5300"/>
    <path class="branch-line" d="M 3840 5220 C 3840 5284, 3960 5316, 3960 5380"/>
    <path class="branch-line" d="M -2640 5300 C -2640 5364, -2760 5396, -2760 5460"/>
    <path class="branch-line" d="M 3960 5380 C 3960 5444, 4080 5476, 4080 5540"/>
    <path class="branch-line" d="M -2760 5460 C -2760 5524, -2880 5556, -2880 5620"/>
    <path class="branch-line" d="M 4080 5540 C 4080 5604, 4200 5636, 4200 5700"/>
    <path class="branch-line" d="M -2880 5620 C -2880 5684, -3000 5716, -3000 5780"/>
    <path class="branch-line" d="M 4200 5700 C 4200 5764, 4320 5796, 4320 5860"/>
    <path class="branch-line" d="M -3000 5780 C -3000 5844, -3120 5876, -3120 5940"/>
    <path class="branch-line" d="M 4320 5860 C 4320 5924, 4440 5956, 4440 6020"/>
    <path class="branch-line" d="M -3120 5940 C -3120 6004, -3240 6036, -3240 6100"/>
    <path class="branch-line" d="M 4440 6020 C 4440 6084, 4560 6116, 4560 6180"/>
    <path class="branch-line" d="M -3240 6100 C -3240 6164, -3360 6196, -3360 6260"/>
    <path class="branch-line" d="M 4560 6180 C 4560 6244, 4680 6276, 4680 6340"/>
    <path class="branch-line" d="M -3360 6260 C -3360 6324, -3480 6356, -3480 6420"/>
    <path class="branch-line" d="M 4680 6340 C 4680 6404, 4800 6436, 4800 6500"/>
    <path class="branch-line" d="M -3480 6420 C -3480 6484, -3600 6516, -3600 6580"/>
    <path class="branch-line" d="M 4800 6500 C 4800 6564, 4920 6596, 4920 6660"/>
    <path class="branch-line" d="M -3600 6580 C -3600 6644, -3720 6676, -3720 6740"/>
    <path class="branch-line" d="M 4920 6660 C 4920 6724, 5040 6756, 5040 6820"/>
    <path class="branch-line" d="M -3720 6740 C -3720 6804, 600 6836, 600 6900"/>
    <path class="branch-line" d="M 5040 6820 C 5040 6868, -3840 6892, -3840 6940"/>
    <line class="trunk-line" x1="600" y1="6900" x2="600" y2="9100"/>
    <path class="branch-line" d="M 600 6900 C 600 6948, 5160 6972, 5160 7020"/>
    <path class="branch-line" d="M -3840 6940 C -3840 7820, 6720 8260, 6720 9140"/>
    <path class="branch-line" d="M -3840 6940 C -3840 7004, -3960 7036, -3960 7100"/>
    <path class="branch-line" d="M 5160 7020 C 5160 7084, 5280 7116, 5280 7180"/>
    <path class="branch-line" d="M -3960 7100 C -3960 7164, -4080 7196, -4080 7260"/>
    <path class="branch-line" d="M 5280 7180 C 5280 7244, 5400 7276, 5400 7340"/>
    <path class="branch-line" d="M -4080 7260 C -4080 7324, -4200 7356, -4200 7420"/>
    <path class="branch-line" d="M 5400 7340 C 5400 7404, 5520 7436, 5520 7500"/>
    <path class="branch-line" d="M -4200 7420 C -4200 7484, -4320 7516, -4320 7580"/>
    <path class="branch-line" d="M 5520 7500 C 5520 7564, 5640 7596, 5640 7660"/>
    <path class="branch-line" d="M -4320 7580 C -4320 7644, -4440 7676, -4440 7740"/>
    <path class="branch-line" d="M 5640 7660 C 5640 7724, 5760 7756, 5760 7820"/>
    <path class="branch-line" d="M -4440 7740 C -4440 7804, -4560 7836, -4560 7900"/>
    <path class="branch-line" d="M 5760 7820 C 5760 7884, 5880 7916, 5880 7980"/>
    <path class="branch-line" d="M -4560 7900 C -4560 7964, -4680 7996, -4680 8060"/>
    <path class="branch-line" d="M 5880 7980 C 5880 8044, 6000 8076, 6000 8140"/>
    <path class="branch-line" d="M -4680 8060 C -4680 8124, -4800 8156, -4800 8220"/>
    <path class="branch-line" d="M 6000 8140 C 6000 8204, 6120 8236, 6120 8300"/>
    <path class="branch-line" d="M -4800 8220 C -4800 8284, -4920 8316, -4920 8380"/>
    <path class="branch-line" d="M 6120 8300 C 6120 8364, 6240 8396, 6240 8460"/>
    <path class="branch-line" d="M -4920 8380 C -4920 8444, -5040 8476, -5040 8540"/>
    <path class="branch-line" d="M 6240 8460 C 6240 8524, 6360 8556, 6360 8620"/>
    <path class="branch-line" d="M -5040 8540 C -5040 8604, -5160 8636, -5160 8700"/>
    <path class="branch-line" d="M 6360 8620 C 6360 8684, 6480 8716, 6480 8780"/>
    <path class="branch-line" d="M -5160 8700 C -5160 8764, -5280 8796, -5280 8860"/>
    <path class="branch-line" d="M 6480 8780 C 6480 8844, 6600 8876, 6600 8940"/>
    <path class="branch-line" d="M -5280 8860 C -5280 8924, -5400 8956, -5400 9020"/>
    <path class="branch-line" d="M 6600 8940 C 6600 9004, 600 9036, 600 9100"/>
    <path class="branch-line" d="M -5400 9020 C -5400 9068, 6720 9092, 6720 9140"/>
    <line class="trunk-line" x1="600" y1="9100" x2="600" y2="9220"/>
    <path class="branch-line" d="M 600 9100 C 600 9484, 7320 9676, 7320 10060"/>
    <path class="branch-line" d="M 6720 9140 C 6720 9188, -5520 9212, -5520 9260"/>
    <path class="branch-line" d="M 6720 9140 C 6720 9540, -6120 9740, -6120 10140"/>
    <line class="trunk-line" x1="600" y1="9220" x2="600" y2="9340"/>
    <path class="branch-line" d="M 600 9220 C 600 9316, -5640 9364, -5640 9460"/>
    <path class="branch-line" d="M -5520 9260 C -5520 9308, 6840 9332, 6840 9380"/>
    <path class="branch-line" d="M -5520 9260 C -5520 9372, 6960 9428, 6960 9540"/>
    <line class="trunk-line" x1="600" y1="9340" x2="600" y2="9780"/>
    <path class="branch-line" d="M 600 9340 C 600 9452, -5760 9508, -5760 9620"/>
    <path class="branch-line" d="M 6840 9380 C 6840 9556, -5880 9644, -5880 9820"/>
    <path class="branch-line" d="M 6840 9380 C 6840 9508, 7080 9572, 7080 9700"/>
    <path class="branch-line" d="M -5640 9460 C -5640 9764, 600 9916, 600 10220"/>
    <path class="branch-line" d="M 6960 9540 C 6960 9828, 7440 9972, 7440 10260"/>
    <path class="branch-line" d="M -5760 9620 C -5760 9860, 600 9980, 600 10220"/>
    <path class="branch-line" d="M 7080 9700 C 7080 9924, 7440 10036, 7440 10260"/>
    <line class="trunk-line" x1="600" y1="9780" x2="600" y2="10220"/>
    <path class="branch-line" d="M 600 9780 C 600 9828, 7200 9852, 7200 9900"/>
    <path class="branch-line" d="M -5880 9820 C -5880 9996, 7440 10084, 7440 10260"/>
    <path class="branch-line" d="M -5880 9820 C -5880 9884, -6000 9916, -6000 9980"/>
    <path class="branch-line" d="M 7200 9900 C 7200 10028, 600 10092, 600 10220"/>
    <path class="branch-line" d="M -6000 9980 C -6000 10092, 7440 10148, 7440 10260"/>
    <path class="branch-line" d="M 7320 10060 C 7320 10124, 600 10156, 600 10220"/>
    <path class="branch-line" d="M -6120 10140 C -6120 10188, 7440 10212, 7440 10260"/>
  </g>
  <!-- Commit nodes -->
  <g id="commits">
    <circle class="commit-leaf" cx="600" cy="60" r="10" fill="url(#mergeGradient)" stroke="#7c3aed" stroke-width="1.5"><title>5be354a: Merge pull request #21 from XAOSTECH:dependabot/github_actions/XAOSTECH/dev-control-99c3e9aab76604c6a046e205f1a8e0dcf53fe935</title></circle>
    <circle class="commit-leaf" cx="600" cy="100" r="10" fill="url(#mergeGradient)" stroke="#7c3aed" stroke-width="1.5"><title>4da0166: Merge pull request #20 from XAOSTECH:dependabot/github_actions/actions/github-script-9</title></circle>
    <circle class="commit-leaf" cx="600" cy="140" r="10" fill="url(#mergeGradient)" stroke="#7c3aed" stroke-width="1.5"><title>c6d8f08: Merge pull request #19 from XAOSTECH/dependabot/github_actions/actions/upload-artifact-7</title></circle>
    <circle class="commit-leaf" cx="720" cy="180" r="6" fill="url(#leafGradient)" stroke="#16a34a" stroke-width="1.5"><title>6b8c9df: deps(deps): bump XAOSTECH/dev-control</title></circle>
    <circle class="commit-leaf" cx="480" cy="260" r="6" fill="url(#leafGradient)" stroke="#16a34a" stroke-width="1.5"><title>18c7254: deps(deps): bump actions/github-script from 8 to 9</title></circle>
    <circle class="commit-leaf" cx="840" cy="340" r="6" fill="url(#leafGradient)" stroke="#16a34a" stroke-width="1.5"><title>a6d15f2: deps(deps): bump actions/upload-artifact from 4 to 7</title></circle>
    <circle class="commit-leaf" cx="600" cy="420" r="9" fill="url(#forkGradient)" stroke="#ea580c" stroke-width="1.5"><title>495ff44: chore: update git tree visualisation</title></circle>
    <circle class="commit-leaf" cx="600" cy="460" r="10" fill="url(#mergeGradient)" stroke="#7c3aed" stroke-width="1.5"><title>6768ca5: Merge pull request #18 from XAOSTECH/dependabot/github_actions/XAOSTECH/dev-control-36d58407ebfb4ea31439818a87634315a0cebcad</title></circle>
    <circle class="commit-leaf" cx="600" cy="500" r="10" fill="url(#mergeGradient)" stroke="#7c3aed" stroke-width="1.5"><title>ab99e5c: Merge pull request #17 from XAOSTECH/dependabot/github_actions/actions/github-script-8</title></circle>
    <circle class="commit-leaf" cx="360" cy="540" r="6" fill="url(#leafGradient)" stroke="#16a34a" stroke-width="1.5"><title>105cc7b: deps(deps): bump XAOSTECH/dev-control</title></circle>
    <circle class="commit-leaf" cx="960" cy="620" r="6" fill="url(#leafGradient)" stroke="#16a34a" stroke-width="1.5"><title>d369dd8: deps(deps): bump actions/github-script from 6 to 8</title></circle>
    <circle class="commit-leaf" cx="600" cy="700" r="10" fill="url(#mergeGradient)" stroke="#7c3aed" stroke-width="1.5"><title>a4da0d1: Merge pull request #16 from XAOSTECH/anglicise/20260401-020811</title></circle>
    <circle class="commit-leaf" cx="240" cy="740" r="6" fill="url(#leafGradient)" stroke="#16a34a" stroke-width="1.5"><title>1c0269c: chore: convert American spellings to British English</title></circle>
    <circle class="commit-leaf" cx="600" cy="820" r="9" fill="url(#forkGradient)" stroke="#ea580c" stroke-width="1.5"><title>07fea13: chore: update git tree visualisation</title></circle>
    <circle class="commit-leaf" cx="600" cy="860" r="10" fill="url(#mergeGradient)" stroke="#7c3aed" stroke-width="1.5"><title>a2fa428: Merge pull request #14 from XAOSTECH/dependabot/github_actions/actions/create-github-app-token-3</title></circle>
    <circle class="commit-leaf" cx="1080" cy="900" r="6" fill="url(#leafGradient)" stroke="#16a34a" stroke-width="1.5"><title>76e9b72: deps(deps): bump actions/create-github-app-token from 2 to 3</title></circle>
    <circle class="commit-leaf" cx="600" cy="980" r="9" fill="url(#forkGradient)" stroke="#ea580c" stroke-width="1.5"><title>47b418a: chore(dc-init): load workflows,actions</title></circle>
    <circle class="commit-leaf" cx="600" cy="1020" r="6" fill="url(#leafGradient)" stroke="#16a34a" stroke-width="1.5"><title>8fa06ba: chore: update git tree visualisation</title></circle>
    <circle class="commit-leaf" cx="600" cy="1060" r="10" fill="url(#mergeGradient)" stroke="#7c3aed" stroke-width="1.5"><title>980f73b: Merge pull request #13 from XAOSTECH/dependabot/github_actions/actions/upload-artifact-7</title></circle>
    <circle class="commit-leaf" cx="120" cy="1100" r="6" fill="url(#leafGradient)" stroke="#16a34a" stroke-width="1.5"><title>07aa05a: deps(deps): bump actions/upload-artifact from 4 to 7</title></circle>
    <circle class="commit-leaf" cx="600" cy="1180" r="10" fill="url(#mergeGradient)" stroke="#7c3aed" stroke-width="1.5"><title>3eb93ad: Merge pull request #11 from XAOSTECH/dependabot/github_actions/actions/create-github-app-token-3</title></circle>
    <circle class="commit-leaf" cx="1200" cy="1220" r="6" fill="url(#leafGradient)" stroke="#16a34a" stroke-width="1.5"><title>ef2f3e6: deps(deps): bump actions/create-github-app-token from 2 to 3</title></circle>
    <circle class="commit-leaf" cx="600" cy="1300" r="9" fill="url(#forkGradient)" stroke="#ea580c" stroke-width="1.5"><title>a90053b: chore(dc-init+contain): update workflows + actions + container config</title></circle>
    <circle class="commit-leaf" cx="600" cy="1340" r="6" fill="url(#leafGradient)" stroke="#16a34a" stroke-width="1.5"><title>3f03000: chore(devcontainer): guard python installs in post-create.sh (SKIP_PYTHON=1 to skip)</title></circle>
    <circle class="commit-leaf" cx="600" cy="1380" r="6" fill="url(#leafGradient)" stroke="#16a34a" stroke-width="1.5"><title>5311755: chore(devcontainer): simplify Dockerfile.cuda to minimal CUDA+R base and MIRROR build-arg</title></circle>
    <circle class="commit-leaf" cx="600" cy="1420" r="6" fill="url(#leafGradient)" stroke="#16a34a" stroke-width="1.5"><title>49b4cec: chore(devcontainer): switch to minimal CUDA+R devcontainer (remove heavy python feature &amp; postCreate)</title></circle>
    <circle class="commit-leaf" cx="600" cy="1460" r="10" fill="url(#mergeGradient)" stroke="#7c3aed" stroke-width="1.5"><title>647e31b: Merge pull request #9 from xaoscience/short-term-vsearch-cuda</title></circle>
    <circle class="commit-leaf" cx="0" cy="1500" r="10" fill="url(#mergeGradient)" stroke="#7c3aed" stroke-width="1.5"><title>376b852: Merge pull request #9 from xaoscience/short-term-vsearch-cuda</title></circle>
    <circle class="commit-leaf" cx="1320" cy="1580" r="6" fill="url(#leafGradient)" stroke="#16a34a" stroke-width="1.5"><title>8c43e83: docs: Add Phase 1 GPU implementation guide and validation checklist</title></circle>
    <circle class="commit-leaf" cx="-120" cy="1660" r="6" fill="url(#leafGradient)" stroke="#16a34a" stroke-width="1.5"><title>1965089: docs: Add Phase 1 GPU implementation guide and validation checklist</title></circle>
    <circle class="commit-leaf" cx="1440" cy="1740" r="6" fill="url(#leafGradient)" stroke="#16a34a" stroke-width="1.5"><title>d2a8038: feat: Add comprehensive CPU vs GPU benchmark test suite</title></circle>
    <circle class="commit-leaf" cx="-240" cy="1820" r="6" fill="url(#leafGradient)" stroke="#16a34a" stroke-width="1.5"><title>6f05151: feat: Add comprehensive CPU vs GPU benchmark test suite</title></circle>
    <circle class="commit-leaf" cx="1560" cy="1900" r="6" fill="url(#leafGradient)" stroke="#16a34a" stroke-width="1.5"><title>fd42f6f: feat: Add CUDA GPU acceleration support to chimera detection stage</title></circle>
    <circle class="commit-leaf" cx="-360" cy="1980" r="6" fill="url(#leafGradient)" stroke="#16a34a" stroke-width="1.5"><title>b68691b: feat: Add CUDA GPU acceleration support to chimera detection stage</title></circle>
    <circle class="commit-leaf" cx="1680" cy="2060" r="6" fill="url(#leafGradient)" stroke="#16a34a" stroke-width="1.5"><title>56fa902: feat: Update CLI orchestrator with CUDA flag support and enhanced logging</title></circle>
    <circle class="commit-leaf" cx="-480" cy="2140" r="6" fill="url(#leafGradient)" stroke="#16a34a" stroke-width="1.5"><title>d0ea104: feat: Update CLI orchestrator with CUDA flag support and enhanced logging</title></circle>
    <circle class="commit-leaf" cx="600" cy="2220" r="10" fill="url(#mergeGradient)" stroke="#7c3aed" stroke-width="1.5"><title>dde4570: Merge pull request #8 from xaoscience/cuda-expansion</title></circle>
    <circle class="commit-leaf" cx="1800" cy="2260" r="10" fill="url(#mergeGradient)" stroke="#7c3aed" stroke-width="1.5"><title>8ea4df1: Merge pull request #8 from xaoscience/cuda-expansion</title></circle>
    <circle class="commit-leaf" cx="-600" cy="2340" r="6" fill="url(#leafGradient)" stroke="#16a34a" stroke-width="1.5"><title>2fd2231: docs: Update README with CUDA acceleration options and GPU performance</title></circle>
    <circle class="commit-leaf" cx="1920" cy="2420" r="6" fill="url(#leafGradient)" stroke="#16a34a" stroke-width="1.5"><title>8752098: docs: Update README with CUDA acceleration options and GPU performance</title></circle>
    <circle class="commit-leaf" cx="-720" cy="2500" r="6" fill="url(#leafGradient)" stroke="#16a34a" stroke-width="1.5"><title>ac91cc4: feat: Add Dockerfile.cuda for GPU-accelerated amplicon analysis</title></circle>
    <circle class="commit-leaf" cx="2040" cy="2580" r="6" fill="url(#leafGradient)" stroke="#16a34a" stroke-width="1.5"><title>9d17c0c: feat: Add Dockerfile.cuda for GPU-accelerated amplicon analysis</title></circle>
    <circle class="commit-leaf" cx="-840" cy="2660" r="6" fill="url(#leafGradient)" stroke="#16a34a" stroke-width="1.5"><title>47b0efc: docs: Add CUDA acceleration guide for GPU-enabled amplicon analysis</title></circle>
    <circle class="commit-leaf" cx="2160" cy="2740" r="6" fill="url(#leafGradient)" stroke="#16a34a" stroke-width="1.5"><title>deb6692: docs: Add CUDA acceleration guide for GPU-enabled amplicon analysis</title></circle>
    <circle class="commit-leaf" cx="600" cy="2820" r="9" fill="url(#forkGradient)" stroke="#ea580c" stroke-width="1.5"><title>88201ac: adapt container</title></circle>
    <circle class="commit-leaf" cx="-960" cy="2860" r="9" fill="url(#forkGradient)" stroke="#ea580c" stroke-width="1.5"><title>89aba31: adapt container</title></circle>
    <circle class="commit-leaf" cx="600" cy="2940" r="6" fill="url(#leafGradient)" stroke="#16a34a" stroke-width="1.5"><title>9b4ed2e: chore: Update status badge to experimental and license to GPL3</title></circle>
    <circle class="commit-leaf" cx="2280" cy="2980" r="6" fill="url(#leafGradient)" stroke="#16a34a" stroke-width="1.5"><title>b076780: chore: Update status badge to experimental and license to GPL3</title></circle>
    <circle class="commit-leaf" cx="600" cy="3060" r="6" fill="url(#leafGradient)" stroke="#16a34a" stroke-width="1.5"><title>d6a8bbc: cleanup: Remove all legacy documentation and example data</title></circle>
    <circle class="commit-leaf" cx="-1080" cy="3100" r="6" fill="url(#leafGradient)" stroke="#16a34a" stroke-width="1.5"><title>898414a: cleanup: Remove all legacy documentation and example data</title></circle>
    <circle class="commit-leaf" cx="600" cy="3180" r="6" fill="url(#leafGradient)" stroke="#16a34a" stroke-width="1.5"><title>1071586: manual cleanup</title></circle>
    <circle class="commit-leaf" cx="2400" cy="3220" r="6" fill="url(#leafGradient)" stroke="#16a34a" stroke-width="1.5"><title>2af1c22: manual cleanup</title></circle>
    <circle class="commit-leaf" cx="600" cy="3300" r="10" fill="url(#mergeGradient)" stroke="#7c3aed" stroke-width="1.5"><title>335804e: Merge pull request #7 from xaoscience/cleanup-refactor</title></circle>
    <circle class="commit-leaf" cx="-1200" cy="3340" r="10" fill="url(#mergeGradient)" stroke="#7c3aed" stroke-width="1.5"><title>84ab5f6: Merge pull request #7 from xaoscience/cleanup-refactor</title></circle>
    <circle class="commit-leaf" cx="2520" cy="3420" r="6" fill="url(#leafGradient)" stroke="#16a34a" stroke-width="1.5"><title>48ff6fa: cleanup: Remove legacy Python/R code and old infrastructure</title></circle>
    <circle class="commit-leaf" cx="-1320" cy="3500" r="6" fill="url(#leafGradient)" stroke="#16a34a" stroke-width="1.5"><title>dba7129: cleanup: Remove legacy Python/R code and old infrastructure</title></circle>
    <circle class="commit-leaf" cx="2640" cy="3580" r="6" fill="url(#leafGradient)" stroke="#16a34a" stroke-width="1.5"><title>c4c7d0b: cleanup: Remove legacy Python infrastructure</title></circle>
    <circle class="commit-leaf" cx="-1440" cy="3660" r="6" fill="url(#leafGradient)" stroke="#16a34a" stroke-width="1.5"><title>d716526: cleanup: Remove legacy Python infrastructure</title></circle>
    <circle class="commit-leaf" cx="2760" cy="3740" r="6" fill="url(#leafGradient)" stroke="#16a34a" stroke-width="1.5"><title>7861cf6: cleanup: Remove redundant documentation</title></circle>
    <circle class="commit-leaf" cx="-1560" cy="3820" r="6" fill="url(#leafGradient)" stroke="#16a34a" stroke-width="1.5"><title>49de8d6: cleanup: Remove redundant documentation</title></circle>
    <circle class="commit-leaf" cx="2880" cy="3900" r="6" fill="url(#leafGradient)" stroke="#16a34a" stroke-width="1.5"><title>0154828: refactor: Reorganize project structure and consolidate documentation</title></circle>
    <circle class="commit-leaf" cx="-1680" cy="3980" r="6" fill="url(#leafGradient)" stroke="#16a34a" stroke-width="1.5"><title>be8387c: refactor: Reorganize project structure and consolidate documentation</title></circle>
    <circle class="commit-leaf" cx="600" cy="4060" r="10" fill="url(#mergeGradient)" stroke="#7c3aed" stroke-width="1.5"><title>72d2cab: Merge pull request #6 from xaoscience/bash-refactor</title></circle>
    <circle class="commit-leaf" cx="3000" cy="4100" r="10" fill="url(#mergeGradient)" stroke="#7c3aed" stroke-width="1.5"><title>f28913d: Merge pull request #6 from xaoscience/bash-refactor</title></circle>
    <circle class="commit-leaf" cx="-1800" cy="4180" r="6" fill="url(#leafGradient)" stroke="#16a34a" stroke-width="1.5"><title>f65ee2f: Bash-Refactor: System architecture documentation</title></circle>
    <circle class="commit-leaf" cx="3120" cy="4260" r="6" fill="url(#leafGradient)" stroke="#16a34a" stroke-width="1.5"><title>f3e795e: Bash-Refactor: System architecture documentation</title></circle>
    <circle class="commit-leaf" cx="-1920" cy="4340" r="6" fill="url(#leafGradient)" stroke="#16a34a" stroke-width="1.5"><title>e847b5d: Bash-Refactor: Implementation summary &amp; delivery report</title></circle>
    <circle class="commit-leaf" cx="3240" cy="4420" r="6" fill="url(#leafGradient)" stroke="#16a34a" stroke-width="1.5"><title>0839e5f: Bash-Refactor: Implementation summary &amp; delivery report</title></circle>
    <circle class="commit-leaf" cx="-2040" cy="4500" r="6" fill="url(#leafGradient)" stroke="#16a34a" stroke-width="1.5"><title>0c069f8: Bash-Refactor: Quick reference guide with copy-paste recipes</title></circle>
    <circle class="commit-leaf" cx="3360" cy="4580" r="6" fill="url(#leafGradient)" stroke="#16a34a" stroke-width="1.5"><title>94340aa: Bash-Refactor: Quick reference guide with copy-paste recipes</title></circle>
    <circle class="commit-leaf" cx="-2160" cy="4660" r="6" fill="url(#leafGradient)" stroke="#16a34a" stroke-width="1.5"><title>ab00870: Bash-Refactor: Complete documentation with execution guide</title></circle>
    <circle class="commit-leaf" cx="3480" cy="4740" r="6" fill="url(#leafGradient)" stroke="#16a34a" stroke-width="1.5"><title>ab82520: Bash-Refactor: Complete documentation with execution guide</title></circle>
    <circle class="commit-leaf" cx="-2280" cy="4820" r="6" fill="url(#leafGradient)" stroke="#16a34a" stroke-width="1.5"><title>25936e6: Bash-Refactor: Test suite for pipeline validation</title></circle>
    <circle class="commit-leaf" cx="3600" cy="4900" r="6" fill="url(#leafGradient)" stroke="#16a34a" stroke-width="1.5"><title>66c7ad0: Bash-Refactor: Test suite for pipeline validation</title></circle>
    <circle class="commit-leaf" cx="-2400" cy="4980" r="6" fill="url(#leafGradient)" stroke="#16a34a" stroke-width="1.5"><title>1f8e399: Bash-Refactor: Pipeline Stage 06 - Krona visualization (final stage)</title></circle>
    <circle class="commit-leaf" cx="3720" cy="5060" r="6" fill="url(#leafGradient)" stroke="#16a34a" stroke-width="1.5"><title>81be338: Bash-Refactor: Pipeline Stage 06 - Krona visualization (final stage)</title></circle>
    <circle class="commit-leaf" cx="-2520" cy="5140" r="6" fill="url(#leafGradient)" stroke="#16a34a" stroke-width="1.5"><title>ecebb03: Bash-Refactor: Pipeline Stage 05 - FastTree phylogenetic inference</title></circle>
    <circle class="commit-leaf" cx="3840" cy="5220" r="6" fill="url(#leafGradient)" stroke="#16a34a" stroke-width="1.5"><title>fc056cb: Bash-Refactor: Pipeline Stage 05 - FastTree phylogenetic inference</title></circle>
    <circle class="commit-leaf" cx="-2640" cy="5300" r="6" fill="url(#leafGradient)" stroke="#16a34a" stroke-width="1.5"><title>40b2117: Bash-Refactor: Pipeline Stage 04 - RDP Classifier taxonomy</title></circle>
    <circle class="commit-leaf" cx="3960" cy="5380" r="6" fill="url(#leafGradient)" stroke="#16a34a" stroke-width="1.5"><title>d108853: Bash-Refactor: Pipeline Stage 04 - RDP Classifier taxonomy</title></circle>
    <circle class="commit-leaf" cx="-2760" cy="5460" r="6" fill="url(#leafGradient)" stroke="#16a34a" stroke-width="1.5"><title>8eaaea4: Bash-Refactor: Pipeline Stage 03 - Chimera detection (VSEARCH UCHIME)</title></circle>
    <circle class="commit-leaf" cx="4080" cy="5540" r="6" fill="url(#leafGradient)" stroke="#16a34a" stroke-width="1.5"><title>d279cc4: Bash-Refactor: Pipeline Stage 03 - Chimera detection (VSEARCH UCHIME)</title></circle>
    <circle class="commit-leaf" cx="-2880" cy="5620" r="6" fill="url(#leafGradient)" stroke="#16a34a" stroke-width="1.5"><title>d828cfb: Bash-Refactor: Pipeline Stage 02 - DADA2 denoising</title></circle>
    <circle class="commit-leaf" cx="4200" cy="5700" r="6" fill="url(#leafGradient)" stroke="#16a34a" stroke-width="1.5"><title>01e95e1: Bash-Refactor: Pipeline Stage 02 - DADA2 denoising</title></circle>
    <circle class="commit-leaf" cx="-3000" cy="5780" r="6" fill="url(#leafGradient)" stroke="#16a34a" stroke-width="1.5"><title>452d052: Bash-Refactor: Pipeline Stage 01 - Preprocess (QC, trim, filter)</title></circle>
    <circle class="commit-leaf" cx="4320" cy="5860" r="6" fill="url(#leafGradient)" stroke="#16a34a" stroke-width="1.5"><title>20f5019: Bash-Refactor: Pipeline Stage 01 - Preprocess (QC, trim, filter)</title></circle>
    <circle class="commit-leaf" cx="-3120" cy="5940" r="6" fill="url(#leafGradient)" stroke="#16a34a" stroke-width="1.5"><title>0e75302: Bash-Refactor: Dashboard JavaScript (real-time updates)</title></circle>
    <circle class="commit-leaf" cx="4440" cy="6020" r="6" fill="url(#leafGradient)" stroke="#16a34a" stroke-width="1.5"><title>bb26e14: Bash-Refactor: Dashboard JavaScript (real-time updates)</title></circle>
    <circle class="commit-leaf" cx="-3240" cy="6100" r="6" fill="url(#leafGradient)" stroke="#16a34a" stroke-width="1.5"><title>82f0fe0: Bash-Refactor: Dashboard CSS styling</title></circle>
    <circle class="commit-leaf" cx="4560" cy="6180" r="6" fill="url(#leafGradient)" stroke="#16a34a" stroke-width="1.5"><title>515aeed: Bash-Refactor: Dashboard CSS styling</title></circle>
    <circle class="commit-leaf" cx="-3360" cy="6260" r="6" fill="url(#leafGradient)" stroke="#16a34a" stroke-width="1.5"><title>e2661f5: Bash-Refactor: Web dashboard (HTML + D3/Plotly)</title></circle>
    <circle class="commit-leaf" cx="4680" cy="6340" r="6" fill="url(#leafGradient)" stroke="#16a34a" stroke-width="1.5"><title>95f5805: Bash-Refactor: Web dashboard (HTML + D3/Plotly)</title></circle>
    <circle class="commit-leaf" cx="-3480" cy="6420" r="6" fill="url(#leafGradient)" stroke="#16a34a" stroke-width="1.5"><title>f20698a: Bash-Refactor: C++ analytics server (WebSocket, live metrics)</title></circle>
    <circle class="commit-leaf" cx="4800" cy="6500" r="6" fill="url(#leafGradient)" stroke="#16a34a" stroke-width="1.5"><title>a187cbe: Bash-Refactor: C++ analytics server (WebSocket, live metrics)</title></circle>
    <circle class="commit-leaf" cx="-3600" cy="6580" r="6" fill="url(#leafGradient)" stroke="#16a34a" stroke-width="1.5"><title>73af8c2: Bash-Refactor: Main orchestrator CLI</title></circle>
    <circle class="commit-leaf" cx="4920" cy="6660" r="6" fill="url(#leafGradient)" stroke="#16a34a" stroke-width="1.5"><title>b81e005: Bash-Refactor: Main orchestrator CLI</title></circle>
    <circle class="commit-leaf" cx="-3720" cy="6740" r="6" fill="url(#leafGradient)" stroke="#16a34a" stroke-width="1.5"><title>1e6aac5: Bash-Refactor: Bleeding-edge native bioinformatics pipeline (2025)</title></circle>
    <circle class="commit-leaf" cx="5040" cy="6820" r="6" fill="url(#leafGradient)" stroke="#16a34a" stroke-width="1.5"><title>797a496: Bash-Refactor: Bleeding-edge native bioinformatics pipeline (2025)</title></circle>
    <circle class="commit-leaf" cx="600" cy="6900" r="10" fill="url(#mergeGradient)" stroke="#7c3aed" stroke-width="1.5"><title>614fcc1: Merge pull request #5 from xaoscience/refactor</title></circle>
    <circle class="commit-leaf" cx="-3840" cy="6940" r="10" fill="url(#mergeGradient)" stroke="#7c3aed" stroke-width="1.5"><title>7f51b95: Merge pull request #5 from xaoscience/refactor</title></circle>
    <circle class="commit-leaf" cx="5160" cy="7020" r="6" fill="url(#leafGradient)" stroke="#16a34a" stroke-width="1.5"><title>0efed4c: Refactor: Branch status and validation checklist</title></circle>
    <circle class="commit-leaf" cx="-3960" cy="7100" r="6" fill="url(#leafGradient)" stroke="#16a34a" stroke-width="1.5"><title>9243447: Refactor: Branch status and validation checklist</title></circle>
    <circle class="commit-leaf" cx="5280" cy="7180" r="6" fill="url(#leafGradient)" stroke="#16a34a" stroke-width="1.5"><title>b2d1461: Refactor: Comprehensive architecture &amp; implementation documentation</title></circle>
    <circle class="commit-leaf" cx="-4080" cy="7260" r="6" fill="url(#leafGradient)" stroke="#16a34a" stroke-width="1.5"><title>c0bd084: Refactor: Comprehensive architecture &amp; implementation documentation</title></circle>
    <circle class="commit-leaf" cx="5400" cy="7340" r="6" fill="url(#leafGradient)" stroke="#16a34a" stroke-width="1.5"><title>abf40d8: Refactor: CLI entrypoint with modular commands</title></circle>
    <circle class="commit-leaf" cx="-4200" cy="7420" r="6" fill="url(#leafGradient)" stroke="#16a34a" stroke-width="1.5"><title>2215b60: Refactor: CLI entrypoint with modular commands</title></circle>
    <circle class="commit-leaf" cx="5520" cy="7500" r="6" fill="url(#leafGradient)" stroke="#16a34a" stroke-width="1.5"><title>6a59793: Refactor: Phylogenetic module - neighbor-joining tree construction</title></circle>
    <circle class="commit-leaf" cx="-4320" cy="7580" r="6" fill="url(#leafGradient)" stroke="#16a34a" stroke-width="1.5"><title>b735e60: Refactor: Phylogenetic module - neighbor-joining tree construction</title></circle>
    <circle class="commit-leaf" cx="5640" cy="7660" r="6" fill="url(#leafGradient)" stroke="#16a34a" stroke-width="1.5"><title>dd64562: Refactor: Taxonomy assignment module (k-mer, exact match methods)</title></circle>
    <circle class="commit-leaf" cx="-4440" cy="7740" r="6" fill="url(#leafGradient)" stroke="#16a34a" stroke-width="1.5"><title>45622ca: Refactor: Taxonomy assignment module (k-mer, exact match methods)</title></circle>
    <circle class="commit-leaf" cx="5760" cy="7820" r="6" fill="url(#leafGradient)" stroke="#16a34a" stroke-width="1.5"><title>7d0db21: Refactor: Denoising module - pure Python ASV inference</title></circle>
    <circle class="commit-leaf" cx="-4560" cy="7900" r="6" fill="url(#leafGradient)" stroke="#16a34a" stroke-width="1.5"><title>a965be6: Refactor: Denoising module - pure Python ASV inference</title></circle>
    <circle class="commit-leaf" cx="5880" cy="7980" r="6" fill="url(#leafGradient)" stroke="#16a34a" stroke-width="1.5"><title>3b21685: Refactor: QC module - pure Python DADA2-inspired filtering</title></circle>
    <circle class="commit-leaf" cx="-4680" cy="8060" r="6" fill="url(#leafGradient)" stroke="#16a34a" stroke-width="1.5"><title>ab6ba30: Refactor: QC module - pure Python DADA2-inspired filtering</title></circle>
    <circle class="commit-leaf" cx="6000" cy="8140" r="6" fill="url(#leafGradient)" stroke="#16a34a" stroke-width="1.5"><title>ae7fac2: Refactor: Safe Entrez fetching with XXE protection</title></circle>
    <circle class="commit-leaf" cx="-4800" cy="8220" r="6" fill="url(#leafGradient)" stroke="#16a34a" stroke-width="1.5"><title>5d2042b: Refactor: Safe Entrez fetching with XXE protection</title></circle>
    <circle class="commit-leaf" cx="6120" cy="8300" r="6" fill="url(#leafGradient)" stroke="#16a34a" stroke-width="1.5"><title>085a561: Refactor: I/O module with documented bioinformatics methods</title></circle>
    <circle class="commit-leaf" cx="-4920" cy="8380" r="6" fill="url(#leafGradient)" stroke="#16a34a" stroke-width="1.5"><title>28169cc: Refactor: I/O module with documented bioinformatics methods</title></circle>
    <circle class="commit-leaf" cx="6240" cy="8460" r="6" fill="url(#leafGradient)" stroke="#16a34a" stroke-width="1.5"><title>7991f4b: Refactor: Nucleid profile configuration system (scalable)</title></circle>
    <circle class="commit-leaf" cx="-5040" cy="8540" r="6" fill="url(#leafGradient)" stroke="#16a34a" stroke-width="1.5"><title>d2a5106: Refactor: Nucleid profile configuration system (scalable)</title></circle>
    <circle class="commit-leaf" cx="6360" cy="8620" r="6" fill="url(#leafGradient)" stroke="#16a34a" stroke-width="1.5"><title>7b19390: Refactor: Core module with modular imports</title></circle>
    <circle class="commit-leaf" cx="-5160" cy="8700" r="6" fill="url(#leafGradient)" stroke="#16a34a" stroke-width="1.5"><title>2d4bc57: Refactor: Core module with modular imports</title></circle>
    <circle class="commit-leaf" cx="6480" cy="8780" r="6" fill="url(#leafGradient)" stroke="#16a34a" stroke-width="1.5"><title>1e5b139: Refactor: Update requirements - remove R, add defusedxml XXE fix, bump Biopython</title></circle>
    <circle class="commit-leaf" cx="-5280" cy="8860" r="6" fill="url(#leafGradient)" stroke="#16a34a" stroke-width="1.5"><title>94d8187: Refactor: Update requirements - remove R, add defusedxml XXE fix, bump Biopython</title></circle>
    <circle class="commit-leaf" cx="6600" cy="8940" r="6" fill="url(#leafGradient)" stroke="#16a34a" stroke-width="1.5"><title>c86f68c: Refactor: Setup package as installable Python application</title></circle>
    <circle class="commit-leaf" cx="-5400" cy="9020" r="6" fill="url(#leafGradient)" stroke="#16a34a" stroke-width="1.5"><title>180f5d6: Refactor: Setup package as installable Python application</title></circle>
    <circle class="commit-leaf" cx="600" cy="9100" r="10" fill="url(#mergeGradient)" stroke="#7c3aed" stroke-width="1.5"><title>a353a11: Merge pull request #1 from xaoscience/dependabot/github_actions/actions/checkout-6</title></circle>
    <circle class="commit-leaf" cx="6720" cy="9140" r="10" fill="url(#mergeGradient)" stroke="#7c3aed" stroke-width="1.5"><title>0ae62ba: Merge pull request #1 from xaoscience/dependabot/github_actions/actions/checkout-6</title></circle>
    <circle class="commit-leaf" cx="600" cy="9220" r="10" fill="url(#mergeGradient)" stroke="#7c3aed" stroke-width="1.5"><title>4e74dce: Merge pull request #4 from xaoscience/dependabot/pip/jupyter-68f4446fcb</title></circle>
    <circle class="commit-leaf" cx="-5520" cy="9260" r="10" fill="url(#mergeGradient)" stroke="#7c3aed" stroke-width="1.5"><title>6abd285: Merge pull request #4 from xaoscience/dependabot/pip/jupyter-68f4446fcb</title></circle>
    <circle class="commit-leaf" cx="600" cy="9340" r="10" fill="url(#mergeGradient)" stroke="#7c3aed" stroke-width="1.5"><title>6954cde: Merge pull request #3 from xaoscience/dependabot/pip/data-science-d96427fa6b</title></circle>
    <circle class="commit-leaf" cx="6840" cy="9380" r="10" fill="url(#mergeGradient)" stroke="#7c3aed" stroke-width="1.5"><title>90efd06: Merge pull request #3 from xaoscience/dependabot/pip/data-science-d96427fa6b</title></circle>
    <circle class="commit-leaf" cx="-5640" cy="9460" r="6" fill="url(#leafGradient)" stroke="#16a34a" stroke-width="1.5"><title>c20e75d: chore(deps)(deps): bump notebook in the jupyter group</title></circle>
    <circle class="commit-leaf" cx="6960" cy="9540" r="6" fill="url(#leafGradient)" stroke="#16a34a" stroke-width="1.5"><title>c2f9be1: chore(deps)(deps): bump notebook in the jupyter group</title></circle>
    <circle class="commit-leaf" cx="-5760" cy="9620" r="6" fill="url(#leafGradient)" stroke="#16a34a" stroke-width="1.5"><title>e228c45: chore(deps)(deps): bump numpy in the data-science group</title></circle>
    <circle class="commit-leaf" cx="7080" cy="9700" r="6" fill="url(#leafGradient)" stroke="#16a34a" stroke-width="1.5"><title>75b225f: chore(deps)(deps): bump numpy in the data-science group</title></circle>
    <circle class="commit-leaf" cx="600" cy="9780" r="10" fill="url(#mergeGradient)" stroke="#7c3aed" stroke-width="1.5"><title>f3b395d: Merge pull request #2 from xaoscience/dependabot/github_actions/actions/github-script-8</title></circle>
    <circle class="commit-leaf" cx="-5880" cy="9820" r="10" fill="url(#mergeGradient)" stroke="#7c3aed" stroke-width="1.5"><title>052c3f9: Merge pull request #2 from xaoscience/dependabot/github_actions/actions/github-script-8</title></circle>
    <circle class="commit-leaf" cx="7200" cy="9900" r="6" fill="url(#leafGradient)" stroke="#16a34a" stroke-width="1.5"><title>e157b67: deps(deps): bump actions/github-script from 7 to 8</title></circle>
    <circle class="commit-leaf" cx="-6000" cy="9980" r="6" fill="url(#leafGradient)" stroke="#16a34a" stroke-width="1.5"><title>62810a3: deps(deps): bump actions/github-script from 7 to 8</title></circle>
    <circle class="commit-leaf" cx="7320" cy="10060" r="6" fill="url(#leafGradient)" stroke="#16a34a" stroke-width="1.5"><title>cd7763e: deps(deps): bump actions/checkout from 4 to 6</title></circle>
    <circle class="commit-leaf" cx="-6120" cy="10140" r="6" fill="url(#leafGradient)" stroke="#16a34a" stroke-width="1.5"><title>4ee89f7: deps(deps): bump actions/checkout from 4 to 6</title></circle>
    <circle class="commit-leaf" cx="600" cy="10220" r="9" fill="url(#forkGradient)" stroke="#ea580c" stroke-width="1.5"><title>3049af8: Initial commit</title></circle>
    <circle class="commit-leaf" cx="7440" cy="10260" r="9" fill="url(#forkGradient)" stroke="#ea580c" stroke-width="1.5"><title>1fd560a: Initial commit</title></circle>
  </g>
  
  <!-- Legend -->
  <g id="legend" transform="translate(20, 20)">
    <rect width="200" height="110" fill="white" stroke="#cbd5e1" stroke-width="1" rx="4"/>
    <circle cx="20" cy="25" r="5" fill="url(#leafGradient)" stroke="#16a34a"/>
    <text x="32" y="30" class="branch-label" font-size="12">Regular Commit</text>
    <circle cx="20" cy="50" r="6" fill="url(#mergeGradient)" stroke="#7c3aed"/>
    <text x="32" y="55" class="branch-label" font-size="12">Merge Commit</text>
    <circle cx="20" cy="75" r="6" fill="url(#forkGradient)" stroke="#ea580c"/>
    <text x="32" y="80" class="branch-label" font-size="12">Fork Point</text>
    <circle cx="20" cy="100" r="6" fill="url(#tagGradient)" stroke="#0284c7"/>
    <text x="32" y="105" class="branch-label" font-size="12">Tagged</text>
  </g>
  
  <!-- Repository info -->
  <g id="info" transform="translate(20, 10340)">
    <text x="0" y="0" class="branch-label" font-size="12" fill="#666">
      Repository: NucleiTaxa
    </text>
    <text x="0" y="20" class="branch-label" font-size="10" fill="#999">
      Generated: 2026-04-13 03:21:18 UTC
    </text>
  </g>
</svg>
