<?xml version="1.0" encoding="UTF-8"?>
<svg xmlns="http://www.w3.org/2000/svg"
     width="300" height="219"
     viewBox="-5900 40 13000 9520">
  <style>
    @keyframes sway {
      0%   { transform: translateX(0); }
      25%  { transform: translateX(3px); }
      50%  { transform: translateX(-2px); }
      75%  { transform: translateX(4px); }
      100% { transform: translateX(0); }
    }
    .mini-node { animation: sway 4s ease-in-out infinite; }
    .mini-line { stroke-width: 1.5; fill: none; opacity: 0.5; }
  </style>
  <rect width="100%" height="100%" fill="#0a0a1a" rx="6"/>
  <g class="mini-node">
    <line class="mini-line" stroke="#4ade80" x1="600" y1="60" x2="600" y2="260"/>
    <path class="mini-line" stroke="#64748b" d="M 720 100 C 720 164, 600 196, 600 260"/>
    <path class="mini-line" stroke="#64748b" d="M 720 100 C 720 132, 480 148, 480 180"/>
    <path class="mini-line" stroke="#64748b" d="M 480 180 C 480 212, 600 228, 600 260"/>
    <line class="mini-line" stroke="#4ade80" x1="600" y1="260" x2="600" y2="300"/>
    <line class="mini-line" stroke="#4ade80" x1="600" y1="300" x2="600" y2="340"/>
    <line class="mini-line" stroke="#4ade80" x1="600" y1="340" x2="600" y2="460"/>
    <path class="mini-line" stroke="#64748b" d="M 600 340 C 600 356, 840 364, 840 380"/>
    <path class="mini-line" stroke="#64748b" d="M 840 380 C 840 460, 600 500, 600 580"/>
    <line class="mini-line" stroke="#4ade80" x1="600" y1="460" x2="600" y2="580"/>
    <path class="mini-line" stroke="#64748b" d="M 600 460 C 600 476, 360 484, 360 500"/>
    <path class="mini-line" stroke="#64748b" d="M 360 500 C 360 532, 600 548, 600 580"/>
    <line class="mini-line" stroke="#4ade80" x1="600" y1="580" x2="600" y2="620"/>
    <line class="mini-line" stroke="#4ade80" x1="600" y1="620" x2="600" y2="660"/>
    <line class="mini-line" stroke="#4ade80" x1="600" y1="660" x2="600" y2="700"/>
    <line class="mini-line" stroke="#4ade80" x1="600" y1="700" x2="600" y2="740"/>
    <line class="mini-line" stroke="#4ade80" x1="600" y1="740" x2="600" y2="1500"/>
    <path class="mini-line" stroke="#64748b" d="M 600 740 C 600 788, 240 812, 240 860"/>
    <path class="mini-line" stroke="#64748b" d="M 960 780 C 960 1084, -240 1236, -240 1540"/>
    <path class="mini-line" stroke="#64748b" d="M 960 780 C 960 844, 1080 876, 1080 940"/>
    <path class="mini-line" stroke="#64748b" d="M 240 860 C 240 924, 120 956, 120 1020"/>
    <path class="mini-line" stroke="#64748b" d="M 1080 940 C 1080 1004, 1200 1036, 1200 1100"/>
    <path class="mini-line" stroke="#64748b" d="M 120 1020 C 120 1084, 0 1116, 0 1180"/>
    <path class="mini-line" stroke="#64748b" d="M 1200 1100 C 1200 1164, 1320 1196, 1320 1260"/>
    <path class="mini-line" stroke="#64748b" d="M 0 1180 C 0 1244, -120 1276, -120 1340"/>
    <path class="mini-line" stroke="#64748b" d="M 1320 1260 C 1320 1324, 1440 1356, 1440 1420"/>
    <path class="mini-line" stroke="#64748b" d="M -120 1340 C -120 1404, 600 1436, 600 1500"/>
    <path class="mini-line" stroke="#64748b" d="M 1440 1420 C 1440 1468, -240 1492, -240 1540"/>
    <line class="mini-line" stroke="#4ade80" x1="600" y1="1500" x2="600" y2="2100"/>
    <path class="mini-line" stroke="#64748b" d="M 600 1500 C 600 1548, 1560 1572, 1560 1620"/>
    <path class="mini-line" stroke="#64748b" d="M -240 1540 C -240 1780, 1920 1900, 1920 2140"/>
    <path class="mini-line" stroke="#64748b" d="M -240 1540 C -240 1604, -360 1636, -360 1700"/>
    <path class="mini-line" stroke="#64748b" d="M 1560 1620 C 1560 1684, 1680 1716, 1680 1780"/>
    <path class="mini-line" stroke="#64748b" d="M -360 1700 C -360 1764, -480 1796, -480 1860"/>
    <path class="mini-line" stroke="#64748b" d="M 1680 1780 C 1680 1844, 1800 1876, 1800 1940"/>
    <path class="mini-line" stroke="#64748b" d="M -480 1860 C -480 1924, -600 1956, -600 2020"/>
    <path class="mini-line" stroke="#64748b" d="M 1800 1940 C 1800 2004, 600 2036, 600 2100"/>
    <path class="mini-line" stroke="#64748b" d="M -600 2020 C -600 2068, 1920 2092, 1920 2140"/>
    <line class="mini-line" stroke="#4ade80" x1="600" y1="2100" x2="600" y2="2220"/>
    <path class="mini-line" stroke="#64748b" d="M 1920 2140 C 1920 2188, -720 2212, -720 2260"/>
    <line class="mini-line" stroke="#4ade80" x1="600" y1="2220" x2="600" y2="2340"/>
    <path class="mini-line" stroke="#64748b" d="M -720 2260 C -720 2308, 2040 2332, 2040 2380"/>
    <line class="mini-line" stroke="#4ade80" x1="600" y1="2340" x2="600" y2="2460"/>
    <path class="mini-line" stroke="#64748b" d="M 2040 2380 C 2040 2428, -840 2452, -840 2500"/>
    <line class="mini-line" stroke="#4ade80" x1="600" y1="2460" x2="600" y2="2580"/>
    <path class="mini-line" stroke="#64748b" d="M -840 2500 C -840 2548, 2160 2572, 2160 2620"/>
    <line class="mini-line" stroke="#4ade80" x1="600" y1="2580" x2="600" y2="3340"/>
    <path class="mini-line" stroke="#64748b" d="M 600 2580 C 600 2628, -960 2652, -960 2700"/>
    <path class="mini-line" stroke="#64748b" d="M 2160 2620 C 2160 2924, -1440 3076, -1440 3380"/>
    <path class="mini-line" stroke="#64748b" d="M 2160 2620 C 2160 2684, 2280 2716, 2280 2780"/>
    <path class="mini-line" stroke="#64748b" d="M -960 2700 C -960 2764, -1080 2796, -1080 2860"/>
    <path class="mini-line" stroke="#64748b" d="M 2280 2780 C 2280 2844, 2400 2876, 2400 2940"/>
    <path class="mini-line" stroke="#64748b" d="M -1080 2860 C -1080 2924, -1200 2956, -1200 3020"/>
    <path class="mini-line" stroke="#64748b" d="M 2400 2940 C 2400 3004, 2520 3036, 2520 3100"/>
    <path class="mini-line" stroke="#64748b" d="M -1200 3020 C -1200 3084, -1320 3116, -1320 3180"/>
    <path class="mini-line" stroke="#64748b" d="M 2520 3100 C 2520 3164, 2640 3196, 2640 3260"/>
    <path class="mini-line" stroke="#64748b" d="M -1320 3180 C -1320 3244, 600 3276, 600 3340"/>
    <path class="mini-line" stroke="#64748b" d="M 2640 3260 C 2640 3308, -1440 3332, -1440 3380"/>
    <line class="mini-line" stroke="#4ade80" x1="600" y1="3340" x2="600" y2="6180"/>
    <path class="mini-line" stroke="#64748b" d="M 600 3340 C 600 3388, 2760 3412, 2760 3460"/>
    <path class="mini-line" stroke="#64748b" d="M -1440 3380 C -1440 4516, 4800 5084, 4800 6220"/>
    <path class="mini-line" stroke="#64748b" d="M -1440 3380 C -1440 3444, -1560 3476, -1560 3540"/>
    <path class="mini-line" stroke="#64748b" d="M 2760 3460 C 2760 3524, 2880 3556, 2880 3620"/>
    <path class="mini-line" stroke="#64748b" d="M -1560 3540 C -1560 3604, -1680 3636, -1680 3700"/>
    <path class="mini-line" stroke="#64748b" d="M 2880 3620 C 2880 3684, 3000 3716, 3000 3780"/>
    <path class="mini-line" stroke="#64748b" d="M -1680 3700 C -1680 3764, -1800 3796, -1800 3860"/>
    <path class="mini-line" stroke="#64748b" d="M 3000 3780 C 3000 3844, 3120 3876, 3120 3940"/>
    <path class="mini-line" stroke="#64748b" d="M -1800 3860 C -1800 3924, -1920 3956, -1920 4020"/>
    <path class="mini-line" stroke="#64748b" d="M 3120 3940 C 3120 4004, 3240 4036, 3240 4100"/>
    <path class="mini-line" stroke="#64748b" d="M -1920 4020 C -1920 4084, -2040 4116, -2040 4180"/>
    <path class="mini-line" stroke="#64748b" d="M 3240 4100 C 3240 4164, 3360 4196, 3360 4260"/>
    <path class="mini-line" stroke="#64748b" d="M -2040 4180 C -2040 4244, -2160 4276, -2160 4340"/>
    <path class="mini-line" stroke="#64748b" d="M 3360 4260 C 3360 4324, 3480 4356, 3480 4420"/>
    <path class="mini-line" stroke="#64748b" d="M -2160 4340 C -2160 4404, -2280 4436, -2280 4500"/>
    <path class="mini-line" stroke="#64748b" d="M 3480 4420 C 3480 4484, 3600 4516, 3600 4580"/>
    <path class="mini-line" stroke="#64748b" d="M -2280 4500 C -2280 4564, -2400 4596, -2400 4660"/>
    <path class="mini-line" stroke="#64748b" d="M 3600 4580 C 3600 4644, 3720 4676, 3720 4740"/>
    <path class="mini-line" stroke="#64748b" d="M -2400 4660 C -2400 4724, -2520 4756, -2520 4820"/>
    <path class="mini-line" stroke="#64748b" d="M 3720 4740 C 3720 4804, 3840 4836, 3840 4900"/>
    <path class="mini-line" stroke="#64748b" d="M -2520 4820 C -2520 4884, -2640 4916, -2640 4980"/>
    <path class="mini-line" stroke="#64748b" d="M 3840 4900 C 3840 4964, 3960 4996, 3960 5060"/>
    <path class="mini-line" stroke="#64748b" d="M -2640 4980 C -2640 5044, -2760 5076, -2760 5140"/>
    <path class="mini-line" stroke="#64748b" d="M 3960 5060 C 3960 5124, 4080 5156, 4080 5220"/>
    <path class="mini-line" stroke="#64748b" d="M -2760 5140 C -2760 5204, -2880 5236, -2880 5300"/>
    <path class="mini-line" stroke="#64748b" d="M 4080 5220 C 4080 5284, 4200 5316, 4200 5380"/>
    <path class="mini-line" stroke="#64748b" d="M -2880 5300 C -2880 5364, -3000 5396, -3000 5460"/>
    <path class="mini-line" stroke="#64748b" d="M 4200 5380 C 4200 5444, 4320 5476, 4320 5540"/>
    <path class="mini-line" stroke="#64748b" d="M -3000 5460 C -3000 5524, -3120 5556, -3120 5620"/>
    <path class="mini-line" stroke="#64748b" d="M 4320 5540 C 4320 5604, 4440 5636, 4440 5700"/>
    <path class="mini-line" stroke="#64748b" d="M -3120 5620 C -3120 5684, -3240 5716, -3240 5780"/>
    <path class="mini-line" stroke="#64748b" d="M 4440 5700 C 4440 5764, 4560 5796, 4560 5860"/>
    <path class="mini-line" stroke="#64748b" d="M -3240 5780 C -3240 5844, -3360 5876, -3360 5940"/>
    <path class="mini-line" stroke="#64748b" d="M 4560 5860 C 4560 5924, 4680 5956, 4680 6020"/>
    <path class="mini-line" stroke="#64748b" d="M -3360 5940 C -3360 6004, -3480 6036, -3480 6100"/>
    <path class="mini-line" stroke="#64748b" d="M 4680 6020 C 4680 6084, 600 6116, 600 6180"/>
    <path class="mini-line" stroke="#64748b" d="M -3480 6100 C -3480 6148, 4800 6172, 4800 6220"/>
    <line class="mini-line" stroke="#4ade80" x1="600" y1="6180" x2="600" y2="8380"/>
    <path class="mini-line" stroke="#64748b" d="M 600 6180 C 600 6228, -3600 6252, -3600 6300"/>
    <path class="mini-line" stroke="#64748b" d="M 4800 6220 C 4800 7100, -5160 7540, -5160 8420"/>
    <path class="mini-line" stroke="#64748b" d="M 4800 6220 C 4800 6284, 4920 6316, 4920 6380"/>
    <path class="mini-line" stroke="#64748b" d="M -3600 6300 C -3600 6364, -3720 6396, -3720 6460"/>
    <path class="mini-line" stroke="#64748b" d="M 4920 6380 C 4920 6444, 5040 6476, 5040 6540"/>
    <path class="mini-line" stroke="#64748b" d="M -3720 6460 C -3720 6524, -3840 6556, -3840 6620"/>
    <path class="mini-line" stroke="#64748b" d="M 5040 6540 C 5040 6604, 5160 6636, 5160 6700"/>
    <path class="mini-line" stroke="#64748b" d="M -3840 6620 C -3840 6684, -3960 6716, -3960 6780"/>
    <path class="mini-line" stroke="#64748b" d="M 5160 6700 C 5160 6764, 5280 6796, 5280 6860"/>
    <path class="mini-line" stroke="#64748b" d="M -3960 6780 C -3960 6844, -4080 6876, -4080 6940"/>
    <path class="mini-line" stroke="#64748b" d="M 5280 6860 C 5280 6924, 5400 6956, 5400 7020"/>
    <path class="mini-line" stroke="#64748b" d="M -4080 6940 C -4080 7004, -4200 7036, -4200 7100"/>
    <path class="mini-line" stroke="#64748b" d="M 5400 7020 C 5400 7084, 5520 7116, 5520 7180"/>
    <path class="mini-line" stroke="#64748b" d="M -4200 7100 C -4200 7164, -4320 7196, -4320 7260"/>
    <path class="mini-line" stroke="#64748b" d="M 5520 7180 C 5520 7244, 5640 7276, 5640 7340"/>
    <path class="mini-line" stroke="#64748b" d="M -4320 7260 C -4320 7324, -4440 7356, -4440 7420"/>
    <path class="mini-line" stroke="#64748b" d="M 5640 7340 C 5640 7404, 5760 7436, 5760 7500"/>
    <path class="mini-line" stroke="#64748b" d="M -4440 7420 C -4440 7484, -4560 7516, -4560 7580"/>
    <path class="mini-line" stroke="#64748b" d="M 5760 7500 C 5760 7564, 5880 7596, 5880 7660"/>
    <path class="mini-line" stroke="#64748b" d="M -4560 7580 C -4560 7644, -4680 7676, -4680 7740"/>
    <path class="mini-line" stroke="#64748b" d="M 5880 7660 C 5880 7724, 6000 7756, 6000 7820"/>
    <path class="mini-line" stroke="#64748b" d="M -4680 7740 C -4680 7804, -4800 7836, -4800 7900"/>
    <path class="mini-line" stroke="#64748b" d="M 6000 7820 C 6000 7884, 6120 7916, 6120 7980"/>
    <path class="mini-line" stroke="#64748b" d="M -4800 7900 C -4800 7964, -4920 7996, -4920 8060"/>
    <path class="mini-line" stroke="#64748b" d="M 6120 7980 C 6120 8044, 6240 8076, 6240 8140"/>
    <path class="mini-line" stroke="#64748b" d="M -4920 8060 C -4920 8124, -5040 8156, -5040 8220"/>
    <path class="mini-line" stroke="#64748b" d="M 6240 8140 C 6240 8204, 6360 8236, 6360 8300"/>
    <path class="mini-line" stroke="#64748b" d="M -5040 8220 C -5040 8284, 600 8316, 600 8380"/>
    <path class="mini-line" stroke="#64748b" d="M 6360 8300 C 6360 8348, -5160 8372, -5160 8420"/>
    <line class="mini-line" stroke="#4ade80" x1="600" y1="8380" x2="600" y2="8500"/>
    <path class="mini-line" stroke="#64748b" d="M 600 8380 C 600 8764, -5760 8956, -5760 9340"/>
    <path class="mini-line" stroke="#64748b" d="M -5160 8420 C -5160 8468, 6480 8492, 6480 8540"/>
    <path class="mini-line" stroke="#64748b" d="M -5160 8420 C -5160 8820, 7080 9020, 7080 9420"/>
    <line class="mini-line" stroke="#4ade80" x1="600" y1="8500" x2="600" y2="8620"/>
    <path class="mini-line" stroke="#64748b" d="M 600 8500 C 600 8596, 6600 8644, 6600 8740"/>
    <path class="mini-line" stroke="#64748b" d="M 6480 8540 C 6480 8588, -5280 8612, -5280 8660"/>
    <path class="mini-line" stroke="#64748b" d="M 6480 8540 C 6480 8652, -5400 8708, -5400 8820"/>
    <line class="mini-line" stroke="#4ade80" x1="600" y1="8620" x2="600" y2="9060"/>
    <path class="mini-line" stroke="#64748b" d="M 600 8620 C 600 8732, 6720 8788, 6720 8900"/>
    <path class="mini-line" stroke="#64748b" d="M -5280 8660 C -5280 8836, 6840 8924, 6840 9100"/>
    <path class="mini-line" stroke="#64748b" d="M -5280 8660 C -5280 8788, -5520 8852, -5520 8980"/>
    <path class="mini-line" stroke="#64748b" d="M 6600 8740 C 6600 9044, 600 9196, 600 9500"/>
    <path class="mini-line" stroke="#64748b" d="M -5400 8820 C -5400 9108, -5880 9252, -5880 9540"/>
    <path class="mini-line" stroke="#64748b" d="M 6720 8900 C 6720 9140, 600 9260, 600 9500"/>
    <path class="mini-line" stroke="#64748b" d="M -5520 8980 C -5520 9204, -5880 9316, -5880 9540"/>
    <line class="mini-line" stroke="#4ade80" x1="600" y1="9060" x2="600" y2="9500"/>
    <path class="mini-line" stroke="#64748b" d="M 600 9060 C 600 9108, -5640 9132, -5640 9180"/>
    <path class="mini-line" stroke="#64748b" d="M 6840 9100 C 6840 9276, -5880 9364, -5880 9540"/>
    <path class="mini-line" stroke="#64748b" d="M 6840 9100 C 6840 9164, 6960 9196, 6960 9260"/>
    <path class="mini-line" stroke="#64748b" d="M -5640 9180 C -5640 9308, 600 9372, 600 9500"/>
    <path class="mini-line" stroke="#64748b" d="M 6960 9260 C 6960 9372, -5880 9428, -5880 9540"/>
    <path class="mini-line" stroke="#64748b" d="M -5760 9340 C -5760 9404, 600 9436, 600 9500"/>
    <path class="mini-line" stroke="#64748b" d="M 7080 9420 C 7080 9468, -5880 9492, -5880 9540"/>
    <circle cx="600" cy="60" r="4" fill="#4ade80" opacity="0.9"/>
    <circle cx="720" cy="100" r="7" fill="#c084fc" opacity="0.9"/>
    <circle cx="480" cy="180" r="4" fill="#4ade80" opacity="0.9"/>
    <circle cx="600" cy="260" r="6" fill="#fb923c" opacity="0.9"/>
    <circle cx="600" cy="300" r="4" fill="#4ade80" opacity="0.9"/>
    <circle cx="600" cy="340" r="7" fill="#c084fc" opacity="0.9"/>
    <circle cx="840" cy="380" r="4" fill="#4ade80" opacity="0.9"/>
    <circle cx="600" cy="460" r="7" fill="#c084fc" opacity="0.9"/>
    <circle cx="360" cy="500" r="4" fill="#4ade80" opacity="0.9"/>
    <circle cx="600" cy="580" r="6" fill="#fb923c" opacity="0.9"/>
    <circle cx="600" cy="620" r="4" fill="#4ade80" opacity="0.9"/>
    <circle cx="600" cy="660" r="4" fill="#4ade80" opacity="0.9"/>
    <circle cx="600" cy="700" r="4" fill="#4ade80" opacity="0.9"/>
    <circle cx="600" cy="740" r="7" fill="#c084fc" opacity="0.9"/>
    <circle cx="960" cy="780" r="7" fill="#c084fc" opacity="0.9"/>
    <circle cx="240" cy="860" r="4" fill="#4ade80" opacity="0.9"/>
    <circle cx="1080" cy="940" r="4" fill="#4ade80" opacity="0.9"/>
    <circle cx="120" cy="1020" r="4" fill="#4ade80" opacity="0.9"/>
    <circle cx="1200" cy="1100" r="4" fill="#4ade80" opacity="0.9"/>
    <circle cx="0" cy="1180" r="4" fill="#4ade80" opacity="0.9"/>
    <circle cx="1320" cy="1260" r="4" fill="#4ade80" opacity="0.9"/>
    <circle cx="-120" cy="1340" r="4" fill="#4ade80" opacity="0.9"/>
    <circle cx="1440" cy="1420" r="4" fill="#4ade80" opacity="0.9"/>
    <circle cx="600" cy="1500" r="7" fill="#c084fc" opacity="0.9"/>
    <circle cx="-240" cy="1540" r="7" fill="#c084fc" opacity="0.9"/>
    <circle cx="1560" cy="1620" r="4" fill="#4ade80" opacity="0.9"/>
    <circle cx="-360" cy="1700" r="4" fill="#4ade80" opacity="0.9"/>
    <circle cx="1680" cy="1780" r="4" fill="#4ade80" opacity="0.9"/>
    <circle cx="-480" cy="1860" r="4" fill="#4ade80" opacity="0.9"/>
    <circle cx="1800" cy="1940" r="4" fill="#4ade80" opacity="0.9"/>
    <circle cx="-600" cy="2020" r="4" fill="#4ade80" opacity="0.9"/>
    <circle cx="600" cy="2100" r="6" fill="#fb923c" opacity="0.9"/>
    <circle cx="1920" cy="2140" r="6" fill="#fb923c" opacity="0.9"/>
    <circle cx="600" cy="2220" r="4" fill="#4ade80" opacity="0.9"/>
    <circle cx="-720" cy="2260" r="4" fill="#4ade80" opacity="0.9"/>
    <circle cx="600" cy="2340" r="4" fill="#4ade80" opacity="0.9"/>
    <circle cx="2040" cy="2380" r="4" fill="#4ade80" opacity="0.9"/>
    <circle cx="600" cy="2460" r="4" fill="#4ade80" opacity="0.9"/>
    <circle cx="-840" cy="2500" r="4" fill="#4ade80" opacity="0.9"/>
    <circle cx="600" cy="2580" r="7" fill="#c084fc" opacity="0.9"/>
    <circle cx="2160" cy="2620" r="7" fill="#c084fc" opacity="0.9"/>
    <circle cx="-960" cy="2700" r="4" fill="#4ade80" opacity="0.9"/>
    <circle cx="2280" cy="2780" r="4" fill="#4ade80" opacity="0.9"/>
    <circle cx="-1080" cy="2860" r="4" fill="#4ade80" opacity="0.9"/>
    <circle cx="2400" cy="2940" r="4" fill="#4ade80" opacity="0.9"/>
    <circle cx="-1200" cy="3020" r="4" fill="#4ade80" opacity="0.9"/>
    <circle cx="2520" cy="3100" r="4" fill="#4ade80" opacity="0.9"/>
    <circle cx="-1320" cy="3180" r="4" fill="#4ade80" opacity="0.9"/>
    <circle cx="2640" cy="3260" r="4" fill="#4ade80" opacity="0.9"/>
    <circle cx="600" cy="3340" r="7" fill="#c084fc" opacity="0.9"/>
    <circle cx="-1440" cy="3380" r="7" fill="#c084fc" opacity="0.9"/>
    <circle cx="2760" cy="3460" r="4" fill="#4ade80" opacity="0.9"/>
    <circle cx="-1560" cy="3540" r="4" fill="#4ade80" opacity="0.9"/>
    <circle cx="2880" cy="3620" r="4" fill="#4ade80" opacity="0.9"/>
    <circle cx="-1680" cy="3700" r="4" fill="#4ade80" opacity="0.9"/>
    <circle cx="3000" cy="3780" r="4" fill="#4ade80" opacity="0.9"/>
    <circle cx="-1800" cy="3860" r="4" fill="#4ade80" opacity="0.9"/>
    <circle cx="3120" cy="3940" r="4" fill="#4ade80" opacity="0.9"/>
    <circle cx="-1920" cy="4020" r="4" fill="#4ade80" opacity="0.9"/>
    <circle cx="3240" cy="4100" r="4" fill="#4ade80" opacity="0.9"/>
    <circle cx="-2040" cy="4180" r="4" fill="#4ade80" opacity="0.9"/>
    <circle cx="3360" cy="4260" r="4" fill="#4ade80" opacity="0.9"/>
    <circle cx="-2160" cy="4340" r="4" fill="#4ade80" opacity="0.9"/>
    <circle cx="3480" cy="4420" r="4" fill="#4ade80" opacity="0.9"/>
    <circle cx="-2280" cy="4500" r="4" fill="#4ade80" opacity="0.9"/>
    <circle cx="3600" cy="4580" r="4" fill="#4ade80" opacity="0.9"/>
    <circle cx="-2400" cy="4660" r="4" fill="#4ade80" opacity="0.9"/>
    <circle cx="3720" cy="4740" r="4" fill="#4ade80" opacity="0.9"/>
    <circle cx="-2520" cy="4820" r="4" fill="#4ade80" opacity="0.9"/>
    <circle cx="3840" cy="4900" r="4" fill="#4ade80" opacity="0.9"/>
    <circle cx="-2640" cy="4980" r="4" fill="#4ade80" opacity="0.9"/>
    <circle cx="3960" cy="5060" r="4" fill="#4ade80" opacity="0.9"/>
    <circle cx="-2760" cy="5140" r="4" fill="#4ade80" opacity="0.9"/>
    <circle cx="4080" cy="5220" r="4" fill="#4ade80" opacity="0.9"/>
    <circle cx="-2880" cy="5300" r="4" fill="#4ade80" opacity="0.9"/>
    <circle cx="4200" cy="5380" r="4" fill="#4ade80" opacity="0.9"/>
    <circle cx="-3000" cy="5460" r="4" fill="#4ade80" opacity="0.9"/>
    <circle cx="4320" cy="5540" r="4" fill="#4ade80" opacity="0.9"/>
    <circle cx="-3120" cy="5620" r="4" fill="#4ade80" opacity="0.9"/>
    <circle cx="4440" cy="5700" r="4" fill="#4ade80" opacity="0.9"/>
    <circle cx="-3240" cy="5780" r="4" fill="#4ade80" opacity="0.9"/>
    <circle cx="4560" cy="5860" r="4" fill="#4ade80" opacity="0.9"/>
    <circle cx="-3360" cy="5940" r="4" fill="#4ade80" opacity="0.9"/>
    <circle cx="4680" cy="6020" r="4" fill="#4ade80" opacity="0.9"/>
    <circle cx="-3480" cy="6100" r="4" fill="#4ade80" opacity="0.9"/>
    <circle cx="600" cy="6180" r="7" fill="#c084fc" opacity="0.9"/>
    <circle cx="4800" cy="6220" r="7" fill="#c084fc" opacity="0.9"/>
    <circle cx="-3600" cy="6300" r="4" fill="#4ade80" opacity="0.9"/>
    <circle cx="4920" cy="6380" r="4" fill="#4ade80" opacity="0.9"/>
    <circle cx="-3720" cy="6460" r="4" fill="#4ade80" opacity="0.9"/>
    <circle cx="5040" cy="6540" r="4" fill="#4ade80" opacity="0.9"/>
    <circle cx="-3840" cy="6620" r="4" fill="#4ade80" opacity="0.9"/>
    <circle cx="5160" cy="6700" r="4" fill="#4ade80" opacity="0.9"/>
    <circle cx="-3960" cy="6780" r="4" fill="#4ade80" opacity="0.9"/>
    <circle cx="5280" cy="6860" r="4" fill="#4ade80" opacity="0.9"/>
    <circle cx="-4080" cy="6940" r="4" fill="#4ade80" opacity="0.9"/>
    <circle cx="5400" cy="7020" r="4" fill="#4ade80" opacity="0.9"/>
    <circle cx="-4200" cy="7100" r="4" fill="#4ade80" opacity="0.9"/>
    <circle cx="5520" cy="7180" r="4" fill="#4ade80" opacity="0.9"/>
    <circle cx="-4320" cy="7260" r="4" fill="#4ade80" opacity="0.9"/>
    <circle cx="5640" cy="7340" r="4" fill="#4ade80" opacity="0.9"/>
    <circle cx="-4440" cy="7420" r="4" fill="#4ade80" opacity="0.9"/>
    <circle cx="5760" cy="7500" r="4" fill="#4ade80" opacity="0.9"/>
    <circle cx="-4560" cy="7580" r="4" fill="#4ade80" opacity="0.9"/>
    <circle cx="5880" cy="7660" r="4" fill="#4ade80" opacity="0.9"/>
    <circle cx="-4680" cy="7740" r="4" fill="#4ade80" opacity="0.9"/>
    <circle cx="6000" cy="7820" r="4" fill="#4ade80" opacity="0.9"/>
    <circle cx="-4800" cy="7900" r="4" fill="#4ade80" opacity="0.9"/>
    <circle cx="6120" cy="7980" r="4" fill="#4ade80" opacity="0.9"/>
    <circle cx="-4920" cy="8060" r="4" fill="#4ade80" opacity="0.9"/>
    <circle cx="6240" cy="8140" r="4" fill="#4ade80" opacity="0.9"/>
    <circle cx="-5040" cy="8220" r="4" fill="#4ade80" opacity="0.9"/>
    <circle cx="6360" cy="8300" r="4" fill="#4ade80" opacity="0.9"/>
    <circle cx="600" cy="8380" r="7" fill="#c084fc" opacity="0.9"/>
    <circle cx="-5160" cy="8420" r="7" fill="#c084fc" opacity="0.9"/>
    <circle cx="600" cy="8500" r="7" fill="#c084fc" opacity="0.9"/>
    <circle cx="6480" cy="8540" r="7" fill="#c084fc" opacity="0.9"/>
    <circle cx="600" cy="8620" r="7" fill="#c084fc" opacity="0.9"/>
    <circle cx="-5280" cy="8660" r="7" fill="#c084fc" opacity="0.9"/>
    <circle cx="6600" cy="8740" r="4" fill="#4ade80" opacity="0.9"/>
    <circle cx="-5400" cy="8820" r="4" fill="#4ade80" opacity="0.9"/>
    <circle cx="6720" cy="8900" r="4" fill="#4ade80" opacity="0.9"/>
    <circle cx="-5520" cy="8980" r="4" fill="#4ade80" opacity="0.9"/>
    <circle cx="600" cy="9060" r="7" fill="#c084fc" opacity="0.9"/>
    <circle cx="6840" cy="9100" r="7" fill="#c084fc" opacity="0.9"/>
    <circle cx="-5640" cy="9180" r="4" fill="#4ade80" opacity="0.9"/>
    <circle cx="6960" cy="9260" r="4" fill="#4ade80" opacity="0.9"/>
    <circle cx="-5760" cy="9340" r="4" fill="#4ade80" opacity="0.9"/>
    <circle cx="7080" cy="9420" r="4" fill="#4ade80" opacity="0.9"/>
    <circle cx="600" cy="9500" r="6" fill="#fb923c" opacity="0.9"/>
    <circle cx="-5880" cy="9540" r="6" fill="#fb923c" opacity="0.9"/>
  </g>
</svg>
