<?xml version="1.0" encoding="UTF-8"?>
<svg xmlns="http://www.w3.org/2000/svg" 
     xmlns:xlink="http://www.w3.org/1999/xlink"
     width="14200" height="10780" 
     viewBox="0 0 14200 10780">
  <defs>
    <radialGradient id="leafGradient">
      <stop offset="0%" style="stop-color:#22c55e;stop-opacity:1" />
      <stop offset="100%" style="stop-color:#16a34a;stop-opacity:0.8" />
    </radialGradient>
    <radialGradient id="mergeGradient">
      <stop offset="0%" style="stop-color:#a78bfa;stop-opacity:1" />
      <stop offset="100%" style="stop-color:#7c3aed;stop-opacity:0.8" />
    </radialGradient>
    <radialGradient id="forkGradient">
      <stop offset="0%" style="stop-color:#fb923c;stop-opacity:1" />
      <stop offset="100%" style="stop-color:#ea580c;stop-opacity:0.8" />
    </radialGradient>
    <radialGradient id="tagGradient">
      <stop offset="0%" style="stop-color:#38bdf8;stop-opacity:1" />
      <stop offset="100%" style="stop-color:#0284c7;stop-opacity:0.8" />
    </radialGradient>
    <style>
      .branch-line { stroke: #64748b; stroke-width: 2; fill: none; opacity: 0.7; }
      .trunk-line { stroke: #22c55e; stroke-width: 2.5; fill: none; opacity: 0.6; }
      .commit-leaf { cursor: pointer; }
      .commit-leaf:hover { filter: brightness(1.5); }
      .branch-label { font-family: sans-serif; font-size: 12px; font-weight: bold; fill: #0f172a; }
    </style>
  </defs>
  
  <rect width="14200" height="10780" fill="#f8fafc"/>
  <defs>
    <pattern id="grid" width="100" height="100" patternUnits="userSpaceOnUse">
      <path d="M 100 0 L 0 0 0 100" fill="none" stroke="#e2e8f0" stroke-width="0.5" opacity="0.3"/>
    </pattern>
  </defs>
  <rect width="14200" height="10780" fill="url(#grid)"/>
  
  <!-- Branch connection lines -->
  <g id="branches">
    <line class="trunk-line" x1="600" y1="60" x2="600" y2="100"/>
    <line class="trunk-line" x1="600" y1="100" x2="600" y2="220"/>
    <path class="branch-line" d="M 600 100 C 600 116, 720 124, 720 140"/>
    <path class="branch-line" d="M 720 140 C 720 172, 600 188, 600 220"/>
    <line class="trunk-line" x1="600" y1="220" x2="600" y2="260"/>
    <line class="trunk-line" x1="600" y1="260" x2="600" y2="380"/>
    <path class="branch-line" d="M 600 260 C 600 276, 480 284, 480 300"/>
    <path class="branch-line" d="M 480 300 C 480 332, 600 348, 600 380"/>
    <line class="trunk-line" x1="600" y1="380" x2="600" y2="420"/>
    <line class="trunk-line" x1="600" y1="420" x2="600" y2="460"/>
    <line class="trunk-line" x1="600" y1="460" x2="600" y2="500"/>
    <path class="branch-line" d="M 600 460 C 600 508, 840 532, 840 580"/>
    <line class="trunk-line" x1="600" y1="500" x2="600" y2="540"/>
    <path class="branch-line" d="M 600 500 C 600 564, 360 596, 360 660"/>
    <line class="trunk-line" x1="600" y1="540" x2="600" y2="820"/>
    <path class="branch-line" d="M 600 540 C 600 620, 960 660, 960 740"/>
    <path class="branch-line" d="M 840 580 C 840 676, 600 724, 600 820"/>
    <path class="branch-line" d="M 360 660 C 360 724, 600 756, 600 820"/>
    <path class="branch-line" d="M 960 740 C 960 772, 600 788, 600 820"/>
    <line class="trunk-line" x1="600" y1="820" x2="600" y2="860"/>
    <line class="trunk-line" x1="600" y1="860" x2="600" y2="900"/>
    <path class="branch-line" d="M 600 860 C 600 892, 240 908, 240 940"/>
    <line class="trunk-line" x1="600" y1="900" x2="600" y2="1100"/>
    <path class="branch-line" d="M 600 900 C 600 948, 1080 972, 1080 1020"/>
    <path class="branch-line" d="M 240 940 C 240 1004, 600 1036, 600 1100"/>
    <path class="branch-line" d="M 1080 1020 C 1080 1052, 600 1068, 600 1100"/>
    <line class="trunk-line" x1="600" y1="1100" x2="600" y2="1220"/>
    <path class="branch-line" d="M 600 1100 C 600 1116, 120 1124, 120 1140"/>
    <path class="branch-line" d="M 120 1140 C 120 1172, 600 1188, 600 1220"/>
    <line class="trunk-line" x1="600" y1="1220" x2="600" y2="1260"/>
    <line class="trunk-line" x1="600" y1="1260" x2="600" y2="1380"/>
    <path class="branch-line" d="M 600 1260 C 600 1276, 1200 1284, 1200 1300"/>
    <path class="branch-line" d="M 1200 1300 C 1200 1332, 600 1348, 600 1380"/>
    <line class="trunk-line" x1="600" y1="1380" x2="600" y2="1420"/>
    <line class="trunk-line" x1="600" y1="1420" x2="600" y2="1460"/>
    <line class="trunk-line" x1="600" y1="1460" x2="600" y2="1580"/>
    <path class="branch-line" d="M 600 1460 C 600 1476, 0 1484, 0 1500"/>
    <path class="branch-line" d="M 0 1500 C 0 1580, 600 1620, 600 1700"/>
    <line class="trunk-line" x1="600" y1="1580" x2="600" y2="1700"/>
    <path class="branch-line" d="M 600 1580 C 600 1596, 1320 1604, 1320 1620"/>
    <path class="branch-line" d="M 1320 1620 C 1320 1652, 600 1668, 600 1700"/>
    <line class="trunk-line" x1="600" y1="1700" x2="600" y2="1740"/>
    <line class="trunk-line" x1="600" y1="1740" x2="600" y2="1780"/>
    <line class="trunk-line" x1="600" y1="1780" x2="600" y2="1820"/>
    <line class="trunk-line" x1="600" y1="1820" x2="600" y2="1860"/>
    <line class="trunk-line" x1="600" y1="1860" x2="600" y2="2620"/>
    <path class="branch-line" d="M 600 1860 C 600 1908, 1440 1932, 1440 1980"/>
    <path class="branch-line" d="M -120 1900 C -120 2204, 1920 2356, 1920 2660"/>
    <path class="branch-line" d="M -120 1900 C -120 1964, -240 1996, -240 2060"/>
    <path class="branch-line" d="M 1440 1980 C 1440 2044, 1560 2076, 1560 2140"/>
    <path class="branch-line" d="M -240 2060 C -240 2124, -360 2156, -360 2220"/>
    <path class="branch-line" d="M 1560 2140 C 1560 2204, 1680 2236, 1680 2300"/>
    <path class="branch-line" d="M -360 2220 C -360 2284, -480 2316, -480 2380"/>
    <path class="branch-line" d="M 1680 2300 C 1680 2364, 1800 2396, 1800 2460"/>
    <path class="branch-line" d="M -480 2380 C -480 2444, -600 2476, -600 2540"/>
    <path class="branch-line" d="M 1800 2460 C 1800 2524, 600 2556, 600 2620"/>
    <path class="branch-line" d="M -600 2540 C -600 2588, 1920 2612, 1920 2660"/>
    <line class="trunk-line" x1="600" y1="2620" x2="600" y2="3220"/>
    <path class="branch-line" d="M 600 2620 C 600 2668, -720 2692, -720 2740"/>
    <path class="branch-line" d="M 1920 2660 C 1920 2900, -1080 3020, -1080 3260"/>
    <path class="branch-line" d="M 1920 2660 C 1920 2724, 2040 2756, 2040 2820"/>
    <path class="branch-line" d="M -720 2740 C -720 2804, -840 2836, -840 2900"/>
    <path class="branch-line" d="M 2040 2820 C 2040 2884, 2160 2916, 2160 2980"/>
    <path class="branch-line" d="M -840 2900 C -840 2964, -960 2996, -960 3060"/>
    <path class="branch-line" d="M 2160 2980 C 2160 3044, 2280 3076, 2280 3140"/>
    <path class="branch-line" d="M -960 3060 C -960 3124, 600 3156, 600 3220"/>
    <path class="branch-line" d="M 2280 3140 C 2280 3188, -1080 3212, -1080 3260"/>
    <line class="trunk-line" x1="600" y1="3220" x2="600" y2="3340"/>
    <path class="branch-line" d="M -1080 3260 C -1080 3308, 2400 3332, 2400 3380"/>
    <line class="trunk-line" x1="600" y1="3340" x2="600" y2="3460"/>
    <path class="branch-line" d="M 2400 3380 C 2400 3428, -1200 3452, -1200 3500"/>
    <line class="trunk-line" x1="600" y1="3460" x2="600" y2="3580"/>
    <path class="branch-line" d="M -1200 3500 C -1200 3548, 2520 3572, 2520 3620"/>
    <line class="trunk-line" x1="600" y1="3580" x2="600" y2="3700"/>
    <path class="branch-line" d="M 2520 3620 C 2520 3668, -1320 3692, -1320 3740"/>
    <line class="trunk-line" x1="600" y1="3700" x2="600" y2="4460"/>
    <path class="branch-line" d="M 600 3700 C 600 3748, 2640 3772, 2640 3820"/>
    <path class="branch-line" d="M -1320 3740 C -1320 4044, 3120 4196, 3120 4500"/>
    <path class="branch-line" d="M -1320 3740 C -1320 3804, -1440 3836, -1440 3900"/>
    <path class="branch-line" d="M 2640 3820 C 2640 3884, 2760 3916, 2760 3980"/>
    <path class="branch-line" d="M -1440 3900 C -1440 3964, -1560 3996, -1560 4060"/>
    <path class="branch-line" d="M 2760 3980 C 2760 4044, 2880 4076, 2880 4140"/>
    <path class="branch-line" d="M -1560 4060 C -1560 4124, -1680 4156, -1680 4220"/>
    <path class="branch-line" d="M 2880 4140 C 2880 4204, 3000 4236, 3000 4300"/>
    <path class="branch-line" d="M -1680 4220 C -1680 4284, -1800 4316, -1800 4380"/>
    <path class="branch-line" d="M 3000 4300 C 3000 4364, 600 4396, 600 4460"/>
    <path class="branch-line" d="M -1800 4380 C -1800 4428, 3120 4452, 3120 4500"/>
    <line class="trunk-line" x1="600" y1="4460" x2="600" y2="7300"/>
    <path class="branch-line" d="M 600 4460 C 600 4508, -1920 4532, -1920 4580"/>
    <path class="branch-line" d="M 3120 4500 C 3120 5636, -3960 6204, -3960 7340"/>
    <path class="branch-line" d="M 3120 4500 C 3120 4564, 3240 4596, 3240 4660"/>
    <path class="branch-line" d="M -1920 4580 C -1920 4644, -2040 4676, -2040 4740"/>
    <path class="branch-line" d="M 3240 4660 C 3240 4724, 3360 4756, 3360 4820"/>
    <path class="branch-line" d="M -2040 4740 C -2040 4804, -2160 4836, -2160 4900"/>
    <path class="branch-line" d="M 3360 4820 C 3360 4884, 3480 4916, 3480 4980"/>
    <path class="branch-line" d="M -2160 4900 C -2160 4964, -2280 4996, -2280 5060"/>
    <path class="branch-line" d="M 3480 4980 C 3480 5044, 3600 5076, 3600 5140"/>
    <path class="branch-line" d="M -2280 5060 C -2280 5124, -2400 5156, -2400 5220"/>
    <path class="branch-line" d="M 3600 5140 C 3600 5204, 3720 5236, 3720 5300"/>
    <path class="branch-line" d="M -2400 5220 C -2400 5284, -2520 5316, -2520 5380"/>
    <path class="branch-line" d="M 3720 5300 C 3720 5364, 3840 5396, 3840 5460"/>
    <path class="branch-line" d="M -2520 5380 C -2520 5444, -2640 5476, -2640 5540"/>
    <path class="branch-line" d="M 3840 5460 C 3840 5524, 3960 5556, 3960 5620"/>
    <path class="branch-line" d="M -2640 5540 C -2640 5604, -2760 5636, -2760 5700"/>
    <path class="branch-line" d="M 3960 5620 C 3960 5684, 4080 5716, 4080 5780"/>
    <path class="branch-line" d="M -2760 5700 C -2760 5764, -2880 5796, -2880 5860"/>
    <path class="branch-line" d="M 4080 5780 C 4080 5844, 4200 5876, 4200 5940"/>
    <path class="branch-line" d="M -2880 5860 C -2880 5924, -3000 5956, -3000 6020"/>
    <path class="branch-line" d="M 4200 5940 C 4200 6004, 4320 6036, 4320 6100"/>
    <path class="branch-line" d="M -3000 6020 C -3000 6084, -3120 6116, -3120 6180"/>
    <path class="branch-line" d="M 4320 6100 C 4320 6164, 4440 6196, 4440 6260"/>
    <path class="branch-line" d="M -3120 6180 C -3120 6244, -3240 6276, -3240 6340"/>
    <path class="branch-line" d="M 4440 6260 C 4440 6324, 4560 6356, 4560 6420"/>
    <path class="branch-line" d="M -3240 6340 C -3240 6404, -3360 6436, -3360 6500"/>
    <path class="branch-line" d="M 4560 6420 C 4560 6484, 4680 6516, 4680 6580"/>
    <path class="branch-line" d="M -3360 6500 C -3360 6564, -3480 6596, -3480 6660"/>
    <path class="branch-line" d="M 4680 6580 C 4680 6644, 4800 6676, 4800 6740"/>
    <path class="branch-line" d="M -3480 6660 C -3480 6724, -3600 6756, -3600 6820"/>
    <path class="branch-line" d="M 4800 6740 C 4800 6804, 4920 6836, 4920 6900"/>
    <path class="branch-line" d="M -3600 6820 C -3600 6884, -3720 6916, -3720 6980"/>
    <path class="branch-line" d="M 4920 6900 C 4920 6964, 5040 6996, 5040 7060"/>
    <path class="branch-line" d="M -3720 6980 C -3720 7044, -3840 7076, -3840 7140"/>
    <path class="branch-line" d="M 5040 7060 C 5040 7124, 5160 7156, 5160 7220"/>
    <path class="branch-line" d="M -3840 7140 C -3840 7204, 600 7236, 600 7300"/>
    <path class="branch-line" d="M 5160 7220 C 5160 7268, -3960 7292, -3960 7340"/>
    <line class="trunk-line" x1="600" y1="7300" x2="600" y2="9500"/>
    <path class="branch-line" d="M 600 7300 C 600 7348, 5280 7372, 5280 7420"/>
    <path class="branch-line" d="M -3960 7340 C -3960 8220, 6840 8660, 6840 9540"/>
    <path class="branch-line" d="M -3960 7340 C -3960 7404, -4080 7436, -4080 7500"/>
    <path class="branch-line" d="M 5280 7420 C 5280 7484, 5400 7516, 5400 7580"/>
    <path class="branch-line" d="M -4080 7500 C -4080 7564, -4200 7596, -4200 7660"/>
    <path class="branch-line" d="M 5400 7580 C 5400 7644, 5520 7676, 5520 7740"/>
    <path class="branch-line" d="M -4200 7660 C -4200 7724, -4320 7756, -4320 7820"/>
    <path class="branch-line" d="M 5520 7740 C 5520 7804, 5640 7836, 5640 7900"/>
    <path class="branch-line" d="M -4320 7820 C -4320 7884, -4440 7916, -4440 7980"/>
    <path class="branch-line" d="M 5640 7900 C 5640 7964, 5760 7996, 5760 8060"/>
    <path class="branch-line" d="M -4440 7980 C -4440 8044, -4560 8076, -4560 8140"/>
    <path class="branch-line" d="M 5760 8060 C 5760 8124, 5880 8156, 5880 8220"/>
    <path class="branch-line" d="M -4560 8140 C -4560 8204, -4680 8236, -4680 8300"/>
    <path class="branch-line" d="M 5880 8220 C 5880 8284, 6000 8316, 6000 8380"/>
    <path class="branch-line" d="M -4680 8300 C -4680 8364, -4800 8396, -4800 8460"/>
    <path class="branch-line" d="M 6000 8380 C 6000 8444, 6120 8476, 6120 8540"/>
    <path class="branch-line" d="M -4800 8460 C -4800 8524, -4920 8556, -4920 8620"/>
    <path class="branch-line" d="M 6120 8540 C 6120 8604, 6240 8636, 6240 8700"/>
    <path class="branch-line" d="M -4920 8620 C -4920 8684, -5040 8716, -5040 8780"/>
    <path class="branch-line" d="M 6240 8700 C 6240 8764, 6360 8796, 6360 8860"/>
    <path class="branch-line" d="M -5040 8780 C -5040 8844, -5160 8876, -5160 8940"/>
    <path class="branch-line" d="M 6360 8860 C 6360 8924, 6480 8956, 6480 9020"/>
    <path class="branch-line" d="M -5160 8940 C -5160 9004, -5280 9036, -5280 9100"/>
    <path class="branch-line" d="M 6480 9020 C 6480 9084, 6600 9116, 6600 9180"/>
    <path class="branch-line" d="M -5280 9100 C -5280 9164, -5400 9196, -5400 9260"/>
    <path class="branch-line" d="M 6600 9180 C 6600 9244, 6720 9276, 6720 9340"/>
    <path class="branch-line" d="M -5400 9260 C -5400 9324, -5520 9356, -5520 9420"/>
    <path class="branch-line" d="M 6720 9340 C 6720 9404, 600 9436, 600 9500"/>
    <path class="branch-line" d="M -5520 9420 C -5520 9468, 6840 9492, 6840 9540"/>
    <line class="trunk-line" x1="600" y1="9500" x2="600" y2="9620"/>
    <path class="branch-line" d="M 600 9500 C 600 9884, 7440 10076, 7440 10460"/>
    <path class="branch-line" d="M 6840 9540 C 6840 9588, -5640 9612, -5640 9660"/>
    <path class="branch-line" d="M 6840 9540 C 6840 9940, -6240 10140, -6240 10540"/>
    <line class="trunk-line" x1="600" y1="9620" x2="600" y2="9740"/>
    <path class="branch-line" d="M 600 9620 C 600 9716, -5760 9764, -5760 9860"/>
    <path class="branch-line" d="M -5640 9660 C -5640 9708, 6960 9732, 6960 9780"/>
    <path class="branch-line" d="M -5640 9660 C -5640 9772, 7080 9828, 7080 9940"/>
    <line class="trunk-line" x1="600" y1="9740" x2="600" y2="10180"/>
    <path class="branch-line" d="M 600 9740 C 600 9852, -5880 9908, -5880 10020"/>
    <path class="branch-line" d="M 6960 9780 C 6960 9956, -6000 10044, -6000 10220"/>
    <path class="branch-line" d="M 6960 9780 C 6960 9908, 7200 9972, 7200 10100"/>
    <path class="branch-line" d="M -5760 9860 C -5760 10164, 600 10316, 600 10620"/>
    <path class="branch-line" d="M 7080 9940 C 7080 10228, 7560 10372, 7560 10660"/>
    <path class="branch-line" d="M -5880 10020 C -5880 10260, 600 10380, 600 10620"/>
    <path class="branch-line" d="M 7200 10100 C 7200 10324, 7560 10436, 7560 10660"/>
    <line class="trunk-line" x1="600" y1="10180" x2="600" y2="10620"/>
    <path class="branch-line" d="M 600 10180 C 600 10228, 7320 10252, 7320 10300"/>
    <path class="branch-line" d="M -6000 10220 C -6000 10396, 7560 10484, 7560 10660"/>
    <path class="branch-line" d="M -6000 10220 C -6000 10284, -6120 10316, -6120 10380"/>
    <path class="branch-line" d="M 7320 10300 C 7320 10428, 600 10492, 600 10620"/>
    <path class="branch-line" d="M -6120 10380 C -6120 10492, 7560 10548, 7560 10660"/>
    <path class="branch-line" d="M 7440 10460 C 7440 10524, 600 10556, 600 10620"/>
    <path class="branch-line" d="M -6240 10540 C -6240 10588, 7560 10612, 7560 10660"/>
  </g>
  <!-- Commit nodes -->
  <g id="commits">
    <circle class="commit-leaf" cx="600" cy="60" r="6" fill="url(#leafGradient)" stroke="#16a34a" stroke-width="1.5"><title>c473a69: chore: update git tree visualisation</title></circle>
    <circle class="commit-leaf" cx="600" cy="100" r="10" fill="url(#mergeGradient)" stroke="#7c3aed" stroke-width="1.5"><title>af40962: Merge pull request #23 from XAOSTECH/dependabot/github_actions/XAOSTECH/dev-control-379196e542149cc83181d41c9b173bc8eb197db8</title></circle>
    <circle class="commit-leaf" cx="720" cy="140" r="6" fill="url(#leafGradient)" stroke="#16a34a" stroke-width="1.5"><title>62e15ee: deps(deps): bump XAOSTECH/dev-control</title></circle>
    <circle class="commit-leaf" cx="600" cy="220" r="9" fill="url(#forkGradient)" stroke="#ea580c" stroke-width="1.5"><title>7d83b82: chore: update git tree visualisation</title></circle>
    <circle class="commit-leaf" cx="600" cy="260" r="10" fill="url(#mergeGradient)" stroke="#7c3aed" stroke-width="1.5"><title>8b4ada6: Merge pull request #22 from XAOSTECH/dependabot/github_actions/XAOSTECH/dev-control-9f305c1cb523dc7d832e58ac8af47c5ef5dba080</title></circle>
    <circle class="commit-leaf" cx="480" cy="300" r="6" fill="url(#leafGradient)" stroke="#16a34a" stroke-width="1.5"><title>65a94b5: deps(deps): bump XAOSTECH/dev-control</title></circle>
    <circle class="commit-leaf" cx="600" cy="380" r="9" fill="url(#forkGradient)" stroke="#ea580c" stroke-width="1.5"><title>06611bc: chore: update git tree visualisation</title></circle>
    <circle class="commit-leaf" cx="600" cy="420" r="6" fill="url(#leafGradient)" stroke="#16a34a" stroke-width="1.5"><title>e558194: chore: update git tree visualisation</title></circle>
    <circle class="commit-leaf" cx="600" cy="460" r="10" fill="url(#mergeGradient)" stroke="#7c3aed" stroke-width="1.5"><title>5be354a: Merge pull request #21 from XAOSTECH:dependabot/github_actions/XAOSTECH/dev-control-99c3e9aab76604c6a046e205f1a8e0dcf53fe935</title></circle>
    <circle class="commit-leaf" cx="600" cy="500" r="10" fill="url(#mergeGradient)" stroke="#7c3aed" stroke-width="1.5"><title>4da0166: Merge pull request #20 from XAOSTECH:dependabot/github_actions/actions/github-script-9</title></circle>
    <circle class="commit-leaf" cx="600" cy="540" r="10" fill="url(#mergeGradient)" stroke="#7c3aed" stroke-width="1.5"><title>c6d8f08: Merge pull request #19 from XAOSTECH/dependabot/github_actions/actions/upload-artifact-7</title></circle>
    <circle class="commit-leaf" cx="840" cy="580" r="6" fill="url(#leafGradient)" stroke="#16a34a" stroke-width="1.5"><title>6b8c9df: deps(deps): bump XAOSTECH/dev-control</title></circle>
    <circle class="commit-leaf" cx="360" cy="660" r="6" fill="url(#leafGradient)" stroke="#16a34a" stroke-width="1.5"><title>18c7254: deps(deps): bump actions/github-script from 8 to 9</title></circle>
    <circle class="commit-leaf" cx="960" cy="740" r="6" fill="url(#leafGradient)" stroke="#16a34a" stroke-width="1.5"><title>a6d15f2: deps(deps): bump actions/upload-artifact from 4 to 7</title></circle>
    <circle class="commit-leaf" cx="600" cy="820" r="9" fill="url(#forkGradient)" stroke="#ea580c" stroke-width="1.5"><title>495ff44: chore: update git tree visualisation</title></circle>
    <circle class="commit-leaf" cx="600" cy="860" r="10" fill="url(#mergeGradient)" stroke="#7c3aed" stroke-width="1.5"><title>6768ca5: Merge pull request #18 from XAOSTECH/dependabot/github_actions/XAOSTECH/dev-control-36d58407ebfb4ea31439818a87634315a0cebcad</title></circle>
    <circle class="commit-leaf" cx="600" cy="900" r="10" fill="url(#mergeGradient)" stroke="#7c3aed" stroke-width="1.5"><title>ab99e5c: Merge pull request #17 from XAOSTECH/dependabot/github_actions/actions/github-script-8</title></circle>
    <circle class="commit-leaf" cx="240" cy="940" r="6" fill="url(#leafGradient)" stroke="#16a34a" stroke-width="1.5"><title>105cc7b: deps(deps): bump XAOSTECH/dev-control</title></circle>
    <circle class="commit-leaf" cx="1080" cy="1020" r="6" fill="url(#leafGradient)" stroke="#16a34a" stroke-width="1.5"><title>d369dd8: deps(deps): bump actions/github-script from 6 to 8</title></circle>
    <circle class="commit-leaf" cx="600" cy="1100" r="10" fill="url(#mergeGradient)" stroke="#7c3aed" stroke-width="1.5"><title>a4da0d1: Merge pull request #16 from XAOSTECH/anglicise/20260401-020811</title></circle>
    <circle class="commit-leaf" cx="120" cy="1140" r="6" fill="url(#leafGradient)" stroke="#16a34a" stroke-width="1.5"><title>1c0269c: chore: convert American spellings to British English</title></circle>
    <circle class="commit-leaf" cx="600" cy="1220" r="9" fill="url(#forkGradient)" stroke="#ea580c" stroke-width="1.5"><title>07fea13: chore: update git tree visualisation</title></circle>
    <circle class="commit-leaf" cx="600" cy="1260" r="10" fill="url(#mergeGradient)" stroke="#7c3aed" stroke-width="1.5"><title>a2fa428: Merge pull request #14 from XAOSTECH/dependabot/github_actions/actions/create-github-app-token-3</title></circle>
    <circle class="commit-leaf" cx="1200" cy="1300" r="6" fill="url(#leafGradient)" stroke="#16a34a" stroke-width="1.5"><title>76e9b72: deps(deps): bump actions/create-github-app-token from 2 to 3</title></circle>
    <circle class="commit-leaf" cx="600" cy="1380" r="9" fill="url(#forkGradient)" stroke="#ea580c" stroke-width="1.5"><title>47b418a: chore(dc-init): load workflows,actions</title></circle>
    <circle class="commit-leaf" cx="600" cy="1420" r="6" fill="url(#leafGradient)" stroke="#16a34a" stroke-width="1.5"><title>8fa06ba: chore: update git tree visualisation</title></circle>
    <circle class="commit-leaf" cx="600" cy="1460" r="10" fill="url(#mergeGradient)" stroke="#7c3aed" stroke-width="1.5"><title>980f73b: Merge pull request #13 from XAOSTECH/dependabot/github_actions/actions/upload-artifact-7</title></circle>
    <circle class="commit-leaf" cx="0" cy="1500" r="6" fill="url(#leafGradient)" stroke="#16a34a" stroke-width="1.5"><title>07aa05a: deps(deps): bump actions/upload-artifact from 4 to 7</title></circle>
    <circle class="commit-leaf" cx="600" cy="1580" r="10" fill="url(#mergeGradient)" stroke="#7c3aed" stroke-width="1.5"><title>3eb93ad: Merge pull request #11 from XAOSTECH/dependabot/github_actions/actions/create-github-app-token-3</title></circle>
    <circle class="commit-leaf" cx="1320" cy="1620" r="6" fill="url(#leafGradient)" stroke="#16a34a" stroke-width="1.5"><title>ef2f3e6: deps(deps): bump actions/create-github-app-token from 2 to 3</title></circle>
    <circle class="commit-leaf" cx="600" cy="1700" r="9" fill="url(#forkGradient)" stroke="#ea580c" stroke-width="1.5"><title>a90053b: chore(dc-init+contain): update workflows + actions + container config</title></circle>
    <circle class="commit-leaf" cx="600" cy="1740" r="6" fill="url(#leafGradient)" stroke="#16a34a" stroke-width="1.5"><title>3f03000: chore(devcontainer): guard python installs in post-create.sh (SKIP_PYTHON=1 to skip)</title></circle>
    <circle class="commit-leaf" cx="600" cy="1780" r="6" fill="url(#leafGradient)" stroke="#16a34a" stroke-width="1.5"><title>5311755: chore(devcontainer): simplify Dockerfile.cuda to minimal CUDA+R base and MIRROR build-arg</title></circle>
    <circle class="commit-leaf" cx="600" cy="1820" r="6" fill="url(#leafGradient)" stroke="#16a34a" stroke-width="1.5"><title>49b4cec: chore(devcontainer): switch to minimal CUDA+R devcontainer (remove heavy python feature &amp; postCreate)</title></circle>
    <circle class="commit-leaf" cx="600" cy="1860" r="10" fill="url(#mergeGradient)" stroke="#7c3aed" stroke-width="1.5"><title>647e31b: Merge pull request #9 from xaoscience/short-term-vsearch-cuda</title></circle>
    <circle class="commit-leaf" cx="-120" cy="1900" r="10" fill="url(#mergeGradient)" stroke="#7c3aed" stroke-width="1.5"><title>376b852: Merge pull request #9 from xaoscience/short-term-vsearch-cuda</title></circle>
    <circle class="commit-leaf" cx="1440" cy="1980" r="6" fill="url(#leafGradient)" stroke="#16a34a" stroke-width="1.5"><title>8c43e83: docs: Add Phase 1 GPU implementation guide and validation checklist</title></circle>
    <circle class="commit-leaf" cx="-240" cy="2060" r="6" fill="url(#leafGradient)" stroke="#16a34a" stroke-width="1.5"><title>1965089: docs: Add Phase 1 GPU implementation guide and validation checklist</title></circle>
    <circle class="commit-leaf" cx="1560" cy="2140" r="6" fill="url(#leafGradient)" stroke="#16a34a" stroke-width="1.5"><title>d2a8038: feat: Add comprehensive CPU vs GPU benchmark test suite</title></circle>
    <circle class="commit-leaf" cx="-360" cy="2220" r="6" fill="url(#leafGradient)" stroke="#16a34a" stroke-width="1.5"><title>6f05151: feat: Add comprehensive CPU vs GPU benchmark test suite</title></circle>
    <circle class="commit-leaf" cx="1680" cy="2300" r="6" fill="url(#leafGradient)" stroke="#16a34a" stroke-width="1.5"><title>fd42f6f: feat: Add CUDA GPU acceleration support to chimera detection stage</title></circle>
    <circle class="commit-leaf" cx="-480" cy="2380" r="6" fill="url(#leafGradient)" stroke="#16a34a" stroke-width="1.5"><title>b68691b: feat: Add CUDA GPU acceleration support to chimera detection stage</title></circle>
    <circle class="commit-leaf" cx="1800" cy="2460" r="6" fill="url(#leafGradient)" stroke="#16a34a" stroke-width="1.5"><title>56fa902: feat: Update CLI orchestrator with CUDA flag support and enhanced logging</title></circle>
    <circle class="commit-leaf" cx="-600" cy="2540" r="6" fill="url(#leafGradient)" stroke="#16a34a" stroke-width="1.5"><title>d0ea104: feat: Update CLI orchestrator with CUDA flag support and enhanced logging</title></circle>
    <circle class="commit-leaf" cx="600" cy="2620" r="10" fill="url(#mergeGradient)" stroke="#7c3aed" stroke-width="1.5"><title>dde4570: Merge pull request #8 from xaoscience/cuda-expansion</title></circle>
    <circle class="commit-leaf" cx="1920" cy="2660" r="10" fill="url(#mergeGradient)" stroke="#7c3aed" stroke-width="1.5"><title>8ea4df1: Merge pull request #8 from xaoscience/cuda-expansion</title></circle>
    <circle class="commit-leaf" cx="-720" cy="2740" r="6" fill="url(#leafGradient)" stroke="#16a34a" stroke-width="1.5"><title>2fd2231: docs: Update README with CUDA acceleration options and GPU performance</title></circle>
    <circle class="commit-leaf" cx="2040" cy="2820" r="6" fill="url(#leafGradient)" stroke="#16a34a" stroke-width="1.5"><title>8752098: docs: Update README with CUDA acceleration options and GPU performance</title></circle>
    <circle class="commit-leaf" cx="-840" cy="2900" r="6" fill="url(#leafGradient)" stroke="#16a34a" stroke-width="1.5"><title>ac91cc4: feat: Add Dockerfile.cuda for GPU-accelerated amplicon analysis</title></circle>
    <circle class="commit-leaf" cx="2160" cy="2980" r="6" fill="url(#leafGradient)" stroke="#16a34a" stroke-width="1.5"><title>9d17c0c: feat: Add Dockerfile.cuda for GPU-accelerated amplicon analysis</title></circle>
    <circle class="commit-leaf" cx="-960" cy="3060" r="6" fill="url(#leafGradient)" stroke="#16a34a" stroke-width="1.5"><title>47b0efc: docs: Add CUDA acceleration guide for GPU-enabled amplicon analysis</title></circle>
    <circle class="commit-leaf" cx="2280" cy="3140" r="6" fill="url(#leafGradient)" stroke="#16a34a" stroke-width="1.5"><title>deb6692: docs: Add CUDA acceleration guide for GPU-enabled amplicon analysis</title></circle>
    <circle class="commit-leaf" cx="600" cy="3220" r="9" fill="url(#forkGradient)" stroke="#ea580c" stroke-width="1.5"><title>88201ac: adapt container</title></circle>
    <circle class="commit-leaf" cx="-1080" cy="3260" r="9" fill="url(#forkGradient)" stroke="#ea580c" stroke-width="1.5"><title>89aba31: adapt container</title></circle>
    <circle class="commit-leaf" cx="600" cy="3340" r="6" fill="url(#leafGradient)" stroke="#16a34a" stroke-width="1.5"><title>9b4ed2e: chore: Update status badge to experimental and license to GPL3</title></circle>
    <circle class="commit-leaf" cx="2400" cy="3380" r="6" fill="url(#leafGradient)" stroke="#16a34a" stroke-width="1.5"><title>b076780: chore: Update status badge to experimental and license to GPL3</title></circle>
    <circle class="commit-leaf" cx="600" cy="3460" r="6" fill="url(#leafGradient)" stroke="#16a34a" stroke-width="1.5"><title>d6a8bbc: cleanup: Remove all legacy documentation and example data</title></circle>
    <circle class="commit-leaf" cx="-1200" cy="3500" r="6" fill="url(#leafGradient)" stroke="#16a34a" stroke-width="1.5"><title>898414a: cleanup: Remove all legacy documentation and example data</title></circle>
    <circle class="commit-leaf" cx="600" cy="3580" r="6" fill="url(#leafGradient)" stroke="#16a34a" stroke-width="1.5"><title>1071586: manual cleanup</title></circle>
    <circle class="commit-leaf" cx="2520" cy="3620" r="6" fill="url(#leafGradient)" stroke="#16a34a" stroke-width="1.5"><title>2af1c22: manual cleanup</title></circle>
    <circle class="commit-leaf" cx="600" cy="3700" r="10" fill="url(#mergeGradient)" stroke="#7c3aed" stroke-width="1.5"><title>335804e: Merge pull request #7 from xaoscience/cleanup-refactor</title></circle>
    <circle class="commit-leaf" cx="-1320" cy="3740" r="10" fill="url(#mergeGradient)" stroke="#7c3aed" stroke-width="1.5"><title>84ab5f6: Merge pull request #7 from xaoscience/cleanup-refactor</title></circle>
    <circle class="commit-leaf" cx="2640" cy="3820" r="6" fill="url(#leafGradient)" stroke="#16a34a" stroke-width="1.5"><title>48ff6fa: cleanup: Remove legacy Python/R code and old infrastructure</title></circle>
    <circle class="commit-leaf" cx="-1440" cy="3900" r="6" fill="url(#leafGradient)" stroke="#16a34a" stroke-width="1.5"><title>dba7129: cleanup: Remove legacy Python/R code and old infrastructure</title></circle>
    <circle class="commit-leaf" cx="2760" cy="3980" r="6" fill="url(#leafGradient)" stroke="#16a34a" stroke-width="1.5"><title>c4c7d0b: cleanup: Remove legacy Python infrastructure</title></circle>
    <circle class="commit-leaf" cx="-1560" cy="4060" r="6" fill="url(#leafGradient)" stroke="#16a34a" stroke-width="1.5"><title>d716526: cleanup: Remove legacy Python infrastructure</title></circle>
    <circle class="commit-leaf" cx="2880" cy="4140" r="6" fill="url(#leafGradient)" stroke="#16a34a" stroke-width="1.5"><title>7861cf6: cleanup: Remove redundant documentation</title></circle>
    <circle class="commit-leaf" cx="-1680" cy="4220" r="6" fill="url(#leafGradient)" stroke="#16a34a" stroke-width="1.5"><title>49de8d6: cleanup: Remove redundant documentation</title></circle>
    <circle class="commit-leaf" cx="3000" cy="4300" r="6" fill="url(#leafGradient)" stroke="#16a34a" stroke-width="1.5"><title>0154828: refactor: Reorganize project structure and consolidate documentation</title></circle>
    <circle class="commit-leaf" cx="-1800" cy="4380" r="6" fill="url(#leafGradient)" stroke="#16a34a" stroke-width="1.5"><title>be8387c: refactor: Reorganize project structure and consolidate documentation</title></circle>
    <circle class="commit-leaf" cx="600" cy="4460" r="10" fill="url(#mergeGradient)" stroke="#7c3aed" stroke-width="1.5"><title>72d2cab: Merge pull request #6 from xaoscience/bash-refactor</title></circle>
    <circle class="commit-leaf" cx="3120" cy="4500" r="10" fill="url(#mergeGradient)" stroke="#7c3aed" stroke-width="1.5"><title>f28913d: Merge pull request #6 from xaoscience/bash-refactor</title></circle>
    <circle class="commit-leaf" cx="-1920" cy="4580" r="6" fill="url(#leafGradient)" stroke="#16a34a" stroke-width="1.5"><title>f65ee2f: Bash-Refactor: System architecture documentation</title></circle>
    <circle class="commit-leaf" cx="3240" cy="4660" r="6" fill="url(#leafGradient)" stroke="#16a34a" stroke-width="1.5"><title>f3e795e: Bash-Refactor: System architecture documentation</title></circle>
    <circle class="commit-leaf" cx="-2040" cy="4740" r="6" fill="url(#leafGradient)" stroke="#16a34a" stroke-width="1.5"><title>e847b5d: Bash-Refactor: Implementation summary &amp; delivery report</title></circle>
    <circle class="commit-leaf" cx="3360" cy="4820" r="6" fill="url(#leafGradient)" stroke="#16a34a" stroke-width="1.5"><title>0839e5f: Bash-Refactor: Implementation summary &amp; delivery report</title></circle>
    <circle class="commit-leaf" cx="-2160" cy="4900" r="6" fill="url(#leafGradient)" stroke="#16a34a" stroke-width="1.5"><title>0c069f8: Bash-Refactor: Quick reference guide with copy-paste recipes</title></circle>
    <circle class="commit-leaf" cx="3480" cy="4980" r="6" fill="url(#leafGradient)" stroke="#16a34a" stroke-width="1.5"><title>94340aa: Bash-Refactor: Quick reference guide with copy-paste recipes</title></circle>
    <circle class="commit-leaf" cx="-2280" cy="5060" r="6" fill="url(#leafGradient)" stroke="#16a34a" stroke-width="1.5"><title>ab00870: Bash-Refactor: Complete documentation with execution guide</title></circle>
    <circle class="commit-leaf" cx="3600" cy="5140" r="6" fill="url(#leafGradient)" stroke="#16a34a" stroke-width="1.5"><title>ab82520: Bash-Refactor: Complete documentation with execution guide</title></circle>
    <circle class="commit-leaf" cx="-2400" cy="5220" r="6" fill="url(#leafGradient)" stroke="#16a34a" stroke-width="1.5"><title>25936e6: Bash-Refactor: Test suite for pipeline validation</title></circle>
    <circle class="commit-leaf" cx="3720" cy="5300" r="6" fill="url(#leafGradient)" stroke="#16a34a" stroke-width="1.5"><title>66c7ad0: Bash-Refactor: Test suite for pipeline validation</title></circle>
    <circle class="commit-leaf" cx="-2520" cy="5380" r="6" fill="url(#leafGradient)" stroke="#16a34a" stroke-width="1.5"><title>1f8e399: Bash-Refactor: Pipeline Stage 06 - Krona visualization (final stage)</title></circle>
    <circle class="commit-leaf" cx="3840" cy="5460" r="6" fill="url(#leafGradient)" stroke="#16a34a" stroke-width="1.5"><title>81be338: Bash-Refactor: Pipeline Stage 06 - Krona visualization (final stage)</title></circle>
    <circle class="commit-leaf" cx="-2640" cy="5540" r="6" fill="url(#leafGradient)" stroke="#16a34a" stroke-width="1.5"><title>ecebb03: Bash-Refactor: Pipeline Stage 05 - FastTree phylogenetic inference</title></circle>
    <circle class="commit-leaf" cx="3960" cy="5620" r="6" fill="url(#leafGradient)" stroke="#16a34a" stroke-width="1.5"><title>fc056cb: Bash-Refactor: Pipeline Stage 05 - FastTree phylogenetic inference</title></circle>
    <circle class="commit-leaf" cx="-2760" cy="5700" r="6" fill="url(#leafGradient)" stroke="#16a34a" stroke-width="1.5"><title>40b2117: Bash-Refactor: Pipeline Stage 04 - RDP Classifier taxonomy</title></circle>
    <circle class="commit-leaf" cx="4080" cy="5780" r="6" fill="url(#leafGradient)" stroke="#16a34a" stroke-width="1.5"><title>d108853: Bash-Refactor: Pipeline Stage 04 - RDP Classifier taxonomy</title></circle>
    <circle class="commit-leaf" cx="-2880" cy="5860" r="6" fill="url(#leafGradient)" stroke="#16a34a" stroke-width="1.5"><title>8eaaea4: Bash-Refactor: Pipeline Stage 03 - Chimera detection (VSEARCH UCHIME)</title></circle>
    <circle class="commit-leaf" cx="4200" cy="5940" r="6" fill="url(#leafGradient)" stroke="#16a34a" stroke-width="1.5"><title>d279cc4: Bash-Refactor: Pipeline Stage 03 - Chimera detection (VSEARCH UCHIME)</title></circle>
    <circle class="commit-leaf" cx="-3000" cy="6020" r="6" fill="url(#leafGradient)" stroke="#16a34a" stroke-width="1.5"><title>d828cfb: Bash-Refactor: Pipeline Stage 02 - DADA2 denoising</title></circle>
    <circle class="commit-leaf" cx="4320" cy="6100" r="6" fill="url(#leafGradient)" stroke="#16a34a" stroke-width="1.5"><title>01e95e1: Bash-Refactor: Pipeline Stage 02 - DADA2 denoising</title></circle>
    <circle class="commit-leaf" cx="-3120" cy="6180" r="6" fill="url(#leafGradient)" stroke="#16a34a" stroke-width="1.5"><title>452d052: Bash-Refactor: Pipeline Stage 01 - Preprocess (QC, trim, filter)</title></circle>
    <circle class="commit-leaf" cx="4440" cy="6260" r="6" fill="url(#leafGradient)" stroke="#16a34a" stroke-width="1.5"><title>20f5019: Bash-Refactor: Pipeline Stage 01 - Preprocess (QC, trim, filter)</title></circle>
    <circle class="commit-leaf" cx="-3240" cy="6340" r="6" fill="url(#leafGradient)" stroke="#16a34a" stroke-width="1.5"><title>0e75302: Bash-Refactor: Dashboard JavaScript (real-time updates)</title></circle>
    <circle class="commit-leaf" cx="4560" cy="6420" r="6" fill="url(#leafGradient)" stroke="#16a34a" stroke-width="1.5"><title>bb26e14: Bash-Refactor: Dashboard JavaScript (real-time updates)</title></circle>
    <circle class="commit-leaf" cx="-3360" cy="6500" r="6" fill="url(#leafGradient)" stroke="#16a34a" stroke-width="1.5"><title>82f0fe0: Bash-Refactor: Dashboard CSS styling</title></circle>
    <circle class="commit-leaf" cx="4680" cy="6580" r="6" fill="url(#leafGradient)" stroke="#16a34a" stroke-width="1.5"><title>515aeed: Bash-Refactor: Dashboard CSS styling</title></circle>
    <circle class="commit-leaf" cx="-3480" cy="6660" r="6" fill="url(#leafGradient)" stroke="#16a34a" stroke-width="1.5"><title>e2661f5: Bash-Refactor: Web dashboard (HTML + D3/Plotly)</title></circle>
    <circle class="commit-leaf" cx="4800" cy="6740" r="6" fill="url(#leafGradient)" stroke="#16a34a" stroke-width="1.5"><title>95f5805: Bash-Refactor: Web dashboard (HTML + D3/Plotly)</title></circle>
    <circle class="commit-leaf" cx="-3600" cy="6820" r="6" fill="url(#leafGradient)" stroke="#16a34a" stroke-width="1.5"><title>f20698a: Bash-Refactor: C++ analytics server (WebSocket, live metrics)</title></circle>
    <circle class="commit-leaf" cx="4920" cy="6900" r="6" fill="url(#leafGradient)" stroke="#16a34a" stroke-width="1.5"><title>a187cbe: Bash-Refactor: C++ analytics server (WebSocket, live metrics)</title></circle>
    <circle class="commit-leaf" cx="-3720" cy="6980" r="6" fill="url(#leafGradient)" stroke="#16a34a" stroke-width="1.5"><title>73af8c2: Bash-Refactor: Main orchestrator CLI</title></circle>
    <circle class="commit-leaf" cx="5040" cy="7060" r="6" fill="url(#leafGradient)" stroke="#16a34a" stroke-width="1.5"><title>b81e005: Bash-Refactor: Main orchestrator CLI</title></circle>
    <circle class="commit-leaf" cx="-3840" cy="7140" r="6" fill="url(#leafGradient)" stroke="#16a34a" stroke-width="1.5"><title>1e6aac5: Bash-Refactor: Bleeding-edge native bioinformatics pipeline (2025)</title></circle>
    <circle class="commit-leaf" cx="5160" cy="7220" r="6" fill="url(#leafGradient)" stroke="#16a34a" stroke-width="1.5"><title>797a496: Bash-Refactor: Bleeding-edge native bioinformatics pipeline (2025)</title></circle>
    <circle class="commit-leaf" cx="600" cy="7300" r="10" fill="url(#mergeGradient)" stroke="#7c3aed" stroke-width="1.5"><title>614fcc1: Merge pull request #5 from xaoscience/refactor</title></circle>
    <circle class="commit-leaf" cx="-3960" cy="7340" r="10" fill="url(#mergeGradient)" stroke="#7c3aed" stroke-width="1.5"><title>7f51b95: Merge pull request #5 from xaoscience/refactor</title></circle>
    <circle class="commit-leaf" cx="5280" cy="7420" r="6" fill="url(#leafGradient)" stroke="#16a34a" stroke-width="1.5"><title>0efed4c: Refactor: Branch status and validation checklist</title></circle>
    <circle class="commit-leaf" cx="-4080" cy="7500" r="6" fill="url(#leafGradient)" stroke="#16a34a" stroke-width="1.5"><title>9243447: Refactor: Branch status and validation checklist</title></circle>
    <circle class="commit-leaf" cx="5400" cy="7580" r="6" fill="url(#leafGradient)" stroke="#16a34a" stroke-width="1.5"><title>b2d1461: Refactor: Comprehensive architecture &amp; implementation documentation</title></circle>
    <circle class="commit-leaf" cx="-4200" cy="7660" r="6" fill="url(#leafGradient)" stroke="#16a34a" stroke-width="1.5"><title>c0bd084: Refactor: Comprehensive architecture &amp; implementation documentation</title></circle>
    <circle class="commit-leaf" cx="5520" cy="7740" r="6" fill="url(#leafGradient)" stroke="#16a34a" stroke-width="1.5"><title>abf40d8: Refactor: CLI entrypoint with modular commands</title></circle>
    <circle class="commit-leaf" cx="-4320" cy="7820" r="6" fill="url(#leafGradient)" stroke="#16a34a" stroke-width="1.5"><title>2215b60: Refactor: CLI entrypoint with modular commands</title></circle>
    <circle class="commit-leaf" cx="5640" cy="7900" r="6" fill="url(#leafGradient)" stroke="#16a34a" stroke-width="1.5"><title>6a59793: Refactor: Phylogenetic module - neighbor-joining tree construction</title></circle>
    <circle class="commit-leaf" cx="-4440" cy="7980" r="6" fill="url(#leafGradient)" stroke="#16a34a" stroke-width="1.5"><title>b735e60: Refactor: Phylogenetic module - neighbor-joining tree construction</title></circle>
    <circle class="commit-leaf" cx="5760" cy="8060" r="6" fill="url(#leafGradient)" stroke="#16a34a" stroke-width="1.5"><title>dd64562: Refactor: Taxonomy assignment module (k-mer, exact match methods)</title></circle>
    <circle class="commit-leaf" cx="-4560" cy="8140" r="6" fill="url(#leafGradient)" stroke="#16a34a" stroke-width="1.5"><title>45622ca: Refactor: Taxonomy assignment module (k-mer, exact match methods)</title></circle>
    <circle class="commit-leaf" cx="5880" cy="8220" r="6" fill="url(#leafGradient)" stroke="#16a34a" stroke-width="1.5"><title>7d0db21: Refactor: Denoising module - pure Python ASV inference</title></circle>
    <circle class="commit-leaf" cx="-4680" cy="8300" r="6" fill="url(#leafGradient)" stroke="#16a34a" stroke-width="1.5"><title>a965be6: Refactor: Denoising module - pure Python ASV inference</title></circle>
    <circle class="commit-leaf" cx="6000" cy="8380" r="6" fill="url(#leafGradient)" stroke="#16a34a" stroke-width="1.5"><title>3b21685: Refactor: QC module - pure Python DADA2-inspired filtering</title></circle>
    <circle class="commit-leaf" cx="-4800" cy="8460" r="6" fill="url(#leafGradient)" stroke="#16a34a" stroke-width="1.5"><title>ab6ba30: Refactor: QC module - pure Python DADA2-inspired filtering</title></circle>
    <circle class="commit-leaf" cx="6120" cy="8540" r="6" fill="url(#leafGradient)" stroke="#16a34a" stroke-width="1.5"><title>ae7fac2: Refactor: Safe Entrez fetching with XXE protection</title></circle>
    <circle class="commit-leaf" cx="-4920" cy="8620" r="6" fill="url(#leafGradient)" stroke="#16a34a" stroke-width="1.5"><title>5d2042b: Refactor: Safe Entrez fetching with XXE protection</title></circle>
    <circle class="commit-leaf" cx="6240" cy="8700" r="6" fill="url(#leafGradient)" stroke="#16a34a" stroke-width="1.5"><title>085a561: Refactor: I/O module with documented bioinformatics methods</title></circle>
    <circle class="commit-leaf" cx="-5040" cy="8780" r="6" fill="url(#leafGradient)" stroke="#16a34a" stroke-width="1.5"><title>28169cc: Refactor: I/O module with documented bioinformatics methods</title></circle>
    <circle class="commit-leaf" cx="6360" cy="8860" r="6" fill="url(#leafGradient)" stroke="#16a34a" stroke-width="1.5"><title>7991f4b: Refactor: Nucleid profile configuration system (scalable)</title></circle>
    <circle class="commit-leaf" cx="-5160" cy="8940" r="6" fill="url(#leafGradient)" stroke="#16a34a" stroke-width="1.5"><title>d2a5106: Refactor: Nucleid profile configuration system (scalable)</title></circle>
    <circle class="commit-leaf" cx="6480" cy="9020" r="6" fill="url(#leafGradient)" stroke="#16a34a" stroke-width="1.5"><title>7b19390: Refactor: Core module with modular imports</title></circle>
    <circle class="commit-leaf" cx="-5280" cy="9100" r="6" fill="url(#leafGradient)" stroke="#16a34a" stroke-width="1.5"><title>2d4bc57: Refactor: Core module with modular imports</title></circle>
    <circle class="commit-leaf" cx="6600" cy="9180" r="6" fill="url(#leafGradient)" stroke="#16a34a" stroke-width="1.5"><title>1e5b139: Refactor: Update requirements - remove R, add defusedxml XXE fix, bump Biopython</title></circle>
    <circle class="commit-leaf" cx="-5400" cy="9260" r="6" fill="url(#leafGradient)" stroke="#16a34a" stroke-width="1.5"><title>94d8187: Refactor: Update requirements - remove R, add defusedxml XXE fix, bump Biopython</title></circle>
    <circle class="commit-leaf" cx="6720" cy="9340" r="6" fill="url(#leafGradient)" stroke="#16a34a" stroke-width="1.5"><title>c86f68c: Refactor: Setup package as installable Python application</title></circle>
    <circle class="commit-leaf" cx="-5520" cy="9420" r="6" fill="url(#leafGradient)" stroke="#16a34a" stroke-width="1.5"><title>180f5d6: Refactor: Setup package as installable Python application</title></circle>
    <circle class="commit-leaf" cx="600" cy="9500" r="10" fill="url(#mergeGradient)" stroke="#7c3aed" stroke-width="1.5"><title>a353a11: Merge pull request #1 from xaoscience/dependabot/github_actions/actions/checkout-6</title></circle>
    <circle class="commit-leaf" cx="6840" cy="9540" r="10" fill="url(#mergeGradient)" stroke="#7c3aed" stroke-width="1.5"><title>0ae62ba: Merge pull request #1 from xaoscience/dependabot/github_actions/actions/checkout-6</title></circle>
    <circle class="commit-leaf" cx="600" cy="9620" r="10" fill="url(#mergeGradient)" stroke="#7c3aed" stroke-width="1.5"><title>4e74dce: Merge pull request #4 from xaoscience/dependabot/pip/jupyter-68f4446fcb</title></circle>
    <circle class="commit-leaf" cx="-5640" cy="9660" r="10" fill="url(#mergeGradient)" stroke="#7c3aed" stroke-width="1.5"><title>6abd285: Merge pull request #4 from xaoscience/dependabot/pip/jupyter-68f4446fcb</title></circle>
    <circle class="commit-leaf" cx="600" cy="9740" r="10" fill="url(#mergeGradient)" stroke="#7c3aed" stroke-width="1.5"><title>6954cde: Merge pull request #3 from xaoscience/dependabot/pip/data-science-d96427fa6b</title></circle>
    <circle class="commit-leaf" cx="6960" cy="9780" r="10" fill="url(#mergeGradient)" stroke="#7c3aed" stroke-width="1.5"><title>90efd06: Merge pull request #3 from xaoscience/dependabot/pip/data-science-d96427fa6b</title></circle>
    <circle class="commit-leaf" cx="-5760" cy="9860" r="6" fill="url(#leafGradient)" stroke="#16a34a" stroke-width="1.5"><title>c20e75d: chore(deps)(deps): bump notebook in the jupyter group</title></circle>
    <circle class="commit-leaf" cx="7080" cy="9940" r="6" fill="url(#leafGradient)" stroke="#16a34a" stroke-width="1.5"><title>c2f9be1: chore(deps)(deps): bump notebook in the jupyter group</title></circle>
    <circle class="commit-leaf" cx="-5880" cy="10020" r="6" fill="url(#leafGradient)" stroke="#16a34a" stroke-width="1.5"><title>e228c45: chore(deps)(deps): bump numpy in the data-science group</title></circle>
    <circle class="commit-leaf" cx="7200" cy="10100" r="6" fill="url(#leafGradient)" stroke="#16a34a" stroke-width="1.5"><title>75b225f: chore(deps)(deps): bump numpy in the data-science group</title></circle>
    <circle class="commit-leaf" cx="600" cy="10180" r="10" fill="url(#mergeGradient)" stroke="#7c3aed" stroke-width="1.5"><title>f3b395d: Merge pull request #2 from xaoscience/dependabot/github_actions/actions/github-script-8</title></circle>
    <circle class="commit-leaf" cx="-6000" cy="10220" r="10" fill="url(#mergeGradient)" stroke="#7c3aed" stroke-width="1.5"><title>052c3f9: Merge pull request #2 from xaoscience/dependabot/github_actions/actions/github-script-8</title></circle>
    <circle class="commit-leaf" cx="7320" cy="10300" r="6" fill="url(#leafGradient)" stroke="#16a34a" stroke-width="1.5"><title>e157b67: deps(deps): bump actions/github-script from 7 to 8</title></circle>
    <circle class="commit-leaf" cx="-6120" cy="10380" r="6" fill="url(#leafGradient)" stroke="#16a34a" stroke-width="1.5"><title>62810a3: deps(deps): bump actions/github-script from 7 to 8</title></circle>
    <circle class="commit-leaf" cx="7440" cy="10460" r="6" fill="url(#leafGradient)" stroke="#16a34a" stroke-width="1.5"><title>cd7763e: deps(deps): bump actions/checkout from 4 to 6</title></circle>
    <circle class="commit-leaf" cx="-6240" cy="10540" r="6" fill="url(#leafGradient)" stroke="#16a34a" stroke-width="1.5"><title>4ee89f7: deps(deps): bump actions/checkout from 4 to 6</title></circle>
    <circle class="commit-leaf" cx="600" cy="10620" r="9" fill="url(#forkGradient)" stroke="#ea580c" stroke-width="1.5"><title>3049af8: Initial commit</title></circle>
    <circle class="commit-leaf" cx="7560" cy="10660" r="9" fill="url(#forkGradient)" stroke="#ea580c" stroke-width="1.5"><title>1fd560a: Initial commit</title></circle>
  </g>
  
  <!-- Legend -->
  <g id="legend" transform="translate(20, 20)">
    <rect width="200" height="110" fill="white" stroke="#cbd5e1" stroke-width="1" rx="4"/>
    <circle cx="20" cy="25" r="5" fill="url(#leafGradient)" stroke="#16a34a"/>
    <text x="32" y="30" class="branch-label" font-size="12">Regular Commit</text>
    <circle cx="20" cy="50" r="6" fill="url(#mergeGradient)" stroke="#7c3aed"/>
    <text x="32" y="55" class="branch-label" font-size="12">Merge Commit</text>
    <circle cx="20" cy="75" r="6" fill="url(#forkGradient)" stroke="#ea580c"/>
    <text x="32" y="80" class="branch-label" font-size="12">Fork Point</text>
    <circle cx="20" cy="100" r="6" fill="url(#tagGradient)" stroke="#0284c7"/>
    <text x="32" y="105" class="branch-label" font-size="12">Tagged</text>
  </g>
  
  <!-- Repository info -->
  <g id="info" transform="translate(20, 10740)">
    <text x="0" y="0" class="branch-label" font-size="12" fill="#666">
      Repository: NucleiTaxa
    </text>
    <text x="0" y="20" class="branch-label" font-size="10" fill="#999">
      Generated: 2026-05-11 03:53:28 UTC
    </text>
  </g>
</svg>
