<?xml version="1.0" encoding="UTF-8"?>
<svg xmlns="http://www.w3.org/2000/svg" 
     xmlns:xlink="http://www.w3.org/1999/xlink"
     width="13960" height="10420" 
     viewBox="0 0 13960 10420">
  <defs>
    <radialGradient id="leafGradient">
      <stop offset="0%" style="stop-color:#22c55e;stop-opacity:1" />
      <stop offset="100%" style="stop-color:#16a34a;stop-opacity:0.8" />
    </radialGradient>
    <radialGradient id="mergeGradient">
      <stop offset="0%" style="stop-color:#a78bfa;stop-opacity:1" />
      <stop offset="100%" style="stop-color:#7c3aed;stop-opacity:0.8" />
    </radialGradient>
    <radialGradient id="forkGradient">
      <stop offset="0%" style="stop-color:#fb923c;stop-opacity:1" />
      <stop offset="100%" style="stop-color:#ea580c;stop-opacity:0.8" />
    </radialGradient>
    <radialGradient id="tagGradient">
      <stop offset="0%" style="stop-color:#38bdf8;stop-opacity:1" />
      <stop offset="100%" style="stop-color:#0284c7;stop-opacity:0.8" />
    </radialGradient>
    <style>
      .branch-line { stroke: #64748b; stroke-width: 2; fill: none; opacity: 0.7; }
      .trunk-line { stroke: #22c55e; stroke-width: 2.5; fill: none; opacity: 0.6; }
      .commit-leaf { cursor: pointer; }
      .commit-leaf:hover { filter: brightness(1.5); }
      .branch-label { font-family: sans-serif; font-size: 12px; font-weight: bold; fill: #0f172a; }
    </style>
  </defs>
  
  <rect width="13960" height="10420" fill="#f8fafc"/>
  <defs>
    <pattern id="grid" width="100" height="100" patternUnits="userSpaceOnUse">
      <path d="M 100 0 L 0 0 0 100" fill="none" stroke="#e2e8f0" stroke-width="0.5" opacity="0.3"/>
    </pattern>
  </defs>
  <rect width="13960" height="10420" fill="url(#grid)"/>
  
  <!-- Branch connection lines -->
  <g id="branches">
    <line class="trunk-line" x1="600" y1="60" x2="600" y2="100"/>
    <line class="trunk-line" x1="600" y1="100" x2="600" y2="140"/>
    <path class="branch-line" d="M 600 100 C 600 148, 720 172, 720 220"/>
    <line class="trunk-line" x1="600" y1="140" x2="600" y2="180"/>
    <path class="branch-line" d="M 600 140 C 600 204, 480 236, 480 300"/>
    <line class="trunk-line" x1="600" y1="180" x2="600" y2="460"/>
    <path class="branch-line" d="M 600 180 C 600 260, 840 300, 840 380"/>
    <path class="branch-line" d="M 720 220 C 720 316, 600 364, 600 460"/>
    <path class="branch-line" d="M 480 300 C 480 364, 600 396, 600 460"/>
    <path class="branch-line" d="M 840 380 C 840 412, 600 428, 600 460"/>
    <line class="trunk-line" x1="600" y1="460" x2="600" y2="500"/>
    <line class="trunk-line" x1="600" y1="500" x2="600" y2="540"/>
    <path class="branch-line" d="M 600 500 C 600 532, 360 548, 360 580"/>
    <line class="trunk-line" x1="600" y1="540" x2="600" y2="740"/>
    <path class="branch-line" d="M 600 540 C 600 588, 960 612, 960 660"/>
    <path class="branch-line" d="M 360 580 C 360 644, 600 676, 600 740"/>
    <path class="branch-line" d="M 960 660 C 960 692, 600 708, 600 740"/>
    <line class="trunk-line" x1="600" y1="740" x2="600" y2="860"/>
    <path class="branch-line" d="M 600 740 C 600 756, 240 764, 240 780"/>
    <path class="branch-line" d="M 240 780 C 240 812, 600 828, 600 860"/>
    <line class="trunk-line" x1="600" y1="860" x2="600" y2="900"/>
    <line class="trunk-line" x1="600" y1="900" x2="600" y2="1020"/>
    <path class="branch-line" d="M 600 900 C 600 916, 1080 924, 1080 940"/>
    <path class="branch-line" d="M 1080 940 C 1080 972, 600 988, 600 1020"/>
    <line class="trunk-line" x1="600" y1="1020" x2="600" y2="1060"/>
    <line class="trunk-line" x1="600" y1="1060" x2="600" y2="1100"/>
    <line class="trunk-line" x1="600" y1="1100" x2="600" y2="1220"/>
    <path class="branch-line" d="M 600 1100 C 600 1116, 120 1124, 120 1140"/>
    <path class="branch-line" d="M 120 1140 C 120 1220, 600 1260, 600 1340"/>
    <line class="trunk-line" x1="600" y1="1220" x2="600" y2="1340"/>
    <path class="branch-line" d="M 600 1220 C 600 1236, 1200 1244, 1200 1260"/>
    <path class="branch-line" d="M 1200 1260 C 1200 1292, 600 1308, 600 1340"/>
    <line class="trunk-line" x1="600" y1="1340" x2="600" y2="1380"/>
    <line class="trunk-line" x1="600" y1="1380" x2="600" y2="1420"/>
    <line class="trunk-line" x1="600" y1="1420" x2="600" y2="1460"/>
    <line class="trunk-line" x1="600" y1="1460" x2="600" y2="1500"/>
    <line class="trunk-line" x1="600" y1="1500" x2="600" y2="2260"/>
    <path class="branch-line" d="M 600 1500 C 600 1548, 1320 1572, 1320 1620"/>
    <path class="branch-line" d="M 0 1540 C 0 1844, 1800 1996, 1800 2300"/>
    <path class="branch-line" d="M 0 1540 C 0 1604, -120 1636, -120 1700"/>
    <path class="branch-line" d="M 1320 1620 C 1320 1684, 1440 1716, 1440 1780"/>
    <path class="branch-line" d="M -120 1700 C -120 1764, -240 1796, -240 1860"/>
    <path class="branch-line" d="M 1440 1780 C 1440 1844, 1560 1876, 1560 1940"/>
    <path class="branch-line" d="M -240 1860 C -240 1924, -360 1956, -360 2020"/>
    <path class="branch-line" d="M 1560 1940 C 1560 2004, 1680 2036, 1680 2100"/>
    <path class="branch-line" d="M -360 2020 C -360 2084, -480 2116, -480 2180"/>
    <path class="branch-line" d="M 1680 2100 C 1680 2164, 600 2196, 600 2260"/>
    <path class="branch-line" d="M -480 2180 C -480 2228, 1800 2252, 1800 2300"/>
    <line class="trunk-line" x1="600" y1="2260" x2="600" y2="2860"/>
    <path class="branch-line" d="M 600 2260 C 600 2308, -600 2332, -600 2380"/>
    <path class="branch-line" d="M 1800 2300 C 1800 2540, -960 2660, -960 2900"/>
    <path class="branch-line" d="M 1800 2300 C 1800 2364, 1920 2396, 1920 2460"/>
    <path class="branch-line" d="M -600 2380 C -600 2444, -720 2476, -720 2540"/>
    <path class="branch-line" d="M 1920 2460 C 1920 2524, 2040 2556, 2040 2620"/>
    <path class="branch-line" d="M -720 2540 C -720 2604, -840 2636, -840 2700"/>
    <path class="branch-line" d="M 2040 2620 C 2040 2684, 2160 2716, 2160 2780"/>
    <path class="branch-line" d="M -840 2700 C -840 2764, 600 2796, 600 2860"/>
    <path class="branch-line" d="M 2160 2780 C 2160 2828, -960 2852, -960 2900"/>
    <line class="trunk-line" x1="600" y1="2860" x2="600" y2="2980"/>
    <path class="branch-line" d="M -960 2900 C -960 2948, 2280 2972, 2280 3020"/>
    <line class="trunk-line" x1="600" y1="2980" x2="600" y2="3100"/>
    <path class="branch-line" d="M 2280 3020 C 2280 3068, -1080 3092, -1080 3140"/>
    <line class="trunk-line" x1="600" y1="3100" x2="600" y2="3220"/>
    <path class="branch-line" d="M -1080 3140 C -1080 3188, 2400 3212, 2400 3260"/>
    <line class="trunk-line" x1="600" y1="3220" x2="600" y2="3340"/>
    <path class="branch-line" d="M 2400 3260 C 2400 3308, -1200 3332, -1200 3380"/>
    <line class="trunk-line" x1="600" y1="3340" x2="600" y2="4100"/>
    <path class="branch-line" d="M 600 3340 C 600 3388, 2520 3412, 2520 3460"/>
    <path class="branch-line" d="M -1200 3380 C -1200 3684, 3000 3836, 3000 4140"/>
    <path class="branch-line" d="M -1200 3380 C -1200 3444, -1320 3476, -1320 3540"/>
    <path class="branch-line" d="M 2520 3460 C 2520 3524, 2640 3556, 2640 3620"/>
    <path class="branch-line" d="M -1320 3540 C -1320 3604, -1440 3636, -1440 3700"/>
    <path class="branch-line" d="M 2640 3620 C 2640 3684, 2760 3716, 2760 3780"/>
    <path class="branch-line" d="M -1440 3700 C -1440 3764, -1560 3796, -1560 3860"/>
    <path class="branch-line" d="M 2760 3780 C 2760 3844, 2880 3876, 2880 3940"/>
    <path class="branch-line" d="M -1560 3860 C -1560 3924, -1680 3956, -1680 4020"/>
    <path class="branch-line" d="M 2880 3940 C 2880 4004, 600 4036, 600 4100"/>
    <path class="branch-line" d="M -1680 4020 C -1680 4068, 3000 4092, 3000 4140"/>
    <line class="trunk-line" x1="600" y1="4100" x2="600" y2="6940"/>
    <path class="branch-line" d="M 600 4100 C 600 4148, -1800 4172, -1800 4220"/>
    <path class="branch-line" d="M 3000 4140 C 3000 5276, -3840 5844, -3840 6980"/>
    <path class="branch-line" d="M 3000 4140 C 3000 4204, 3120 4236, 3120 4300"/>
    <path class="branch-line" d="M -1800 4220 C -1800 4284, -1920 4316, -1920 4380"/>
    <path class="branch-line" d="M 3120 4300 C 3120 4364, 3240 4396, 3240 4460"/>
    <path class="branch-line" d="M -1920 4380 C -1920 4444, -2040 4476, -2040 4540"/>
    <path class="branch-line" d="M 3240 4460 C 3240 4524, 3360 4556, 3360 4620"/>
    <path class="branch-line" d="M -2040 4540 C -2040 4604, -2160 4636, -2160 4700"/>
    <path class="branch-line" d="M 3360 4620 C 3360 4684, 3480 4716, 3480 4780"/>
    <path class="branch-line" d="M -2160 4700 C -2160 4764, -2280 4796, -2280 4860"/>
    <path class="branch-line" d="M 3480 4780 C 3480 4844, 3600 4876, 3600 4940"/>
    <path class="branch-line" d="M -2280 4860 C -2280 4924, -2400 4956, -2400 5020"/>
    <path class="branch-line" d="M 3600 4940 C 3600 5004, 3720 5036, 3720 5100"/>
    <path class="branch-line" d="M -2400 5020 C -2400 5084, -2520 5116, -2520 5180"/>
    <path class="branch-line" d="M 3720 5100 C 3720 5164, 3840 5196, 3840 5260"/>
    <path class="branch-line" d="M -2520 5180 C -2520 5244, -2640 5276, -2640 5340"/>
    <path class="branch-line" d="M 3840 5260 C 3840 5324, 3960 5356, 3960 5420"/>
    <path class="branch-line" d="M -2640 5340 C -2640 5404, -2760 5436, -2760 5500"/>
    <path class="branch-line" d="M 3960 5420 C 3960 5484, 4080 5516, 4080 5580"/>
    <path class="branch-line" d="M -2760 5500 C -2760 5564, -2880 5596, -2880 5660"/>
    <path class="branch-line" d="M 4080 5580 C 4080 5644, 4200 5676, 4200 5740"/>
    <path class="branch-line" d="M -2880 5660 C -2880 5724, -3000 5756, -3000 5820"/>
    <path class="branch-line" d="M 4200 5740 C 4200 5804, 4320 5836, 4320 5900"/>
    <path class="branch-line" d="M -3000 5820 C -3000 5884, -3120 5916, -3120 5980"/>
    <path class="branch-line" d="M 4320 5900 C 4320 5964, 4440 5996, 4440 6060"/>
    <path class="branch-line" d="M -3120 5980 C -3120 6044, -3240 6076, -3240 6140"/>
    <path class="branch-line" d="M 4440 6060 C 4440 6124, 4560 6156, 4560 6220"/>
    <path class="branch-line" d="M -3240 6140 C -3240 6204, -3360 6236, -3360 6300"/>
    <path class="branch-line" d="M 4560 6220 C 4560 6284, 4680 6316, 4680 6380"/>
    <path class="branch-line" d="M -3360 6300 C -3360 6364, -3480 6396, -3480 6460"/>
    <path class="branch-line" d="M 4680 6380 C 4680 6444, 4800 6476, 4800 6540"/>
    <path class="branch-line" d="M -3480 6460 C -3480 6524, -3600 6556, -3600 6620"/>
    <path class="branch-line" d="M 4800 6540 C 4800 6604, 4920 6636, 4920 6700"/>
    <path class="branch-line" d="M -3600 6620 C -3600 6684, -3720 6716, -3720 6780"/>
    <path class="branch-line" d="M 4920 6700 C 4920 6764, 5040 6796, 5040 6860"/>
    <path class="branch-line" d="M -3720 6780 C -3720 6844, 600 6876, 600 6940"/>
    <path class="branch-line" d="M 5040 6860 C 5040 6908, -3840 6932, -3840 6980"/>
    <line class="trunk-line" x1="600" y1="6940" x2="600" y2="9140"/>
    <path class="branch-line" d="M 600 6940 C 600 6988, 5160 7012, 5160 7060"/>
    <path class="branch-line" d="M -3840 6980 C -3840 7860, 6720 8300, 6720 9180"/>
    <path class="branch-line" d="M -3840 6980 C -3840 7044, -3960 7076, -3960 7140"/>
    <path class="branch-line" d="M 5160 7060 C 5160 7124, 5280 7156, 5280 7220"/>
    <path class="branch-line" d="M -3960 7140 C -3960 7204, -4080 7236, -4080 7300"/>
    <path class="branch-line" d="M 5280 7220 C 5280 7284, 5400 7316, 5400 7380"/>
    <path class="branch-line" d="M -4080 7300 C -4080 7364, -4200 7396, -4200 7460"/>
    <path class="branch-line" d="M 5400 7380 C 5400 7444, 5520 7476, 5520 7540"/>
    <path class="branch-line" d="M -4200 7460 C -4200 7524, -4320 7556, -4320 7620"/>
    <path class="branch-line" d="M 5520 7540 C 5520 7604, 5640 7636, 5640 7700"/>
    <path class="branch-line" d="M -4320 7620 C -4320 7684, -4440 7716, -4440 7780"/>
    <path class="branch-line" d="M 5640 7700 C 5640 7764, 5760 7796, 5760 7860"/>
    <path class="branch-line" d="M -4440 7780 C -4440 7844, -4560 7876, -4560 7940"/>
    <path class="branch-line" d="M 5760 7860 C 5760 7924, 5880 7956, 5880 8020"/>
    <path class="branch-line" d="M -4560 7940 C -4560 8004, -4680 8036, -4680 8100"/>
    <path class="branch-line" d="M 5880 8020 C 5880 8084, 6000 8116, 6000 8180"/>
    <path class="branch-line" d="M -4680 8100 C -4680 8164, -4800 8196, -4800 8260"/>
    <path class="branch-line" d="M 6000 8180 C 6000 8244, 6120 8276, 6120 8340"/>
    <path class="branch-line" d="M -4800 8260 C -4800 8324, -4920 8356, -4920 8420"/>
    <path class="branch-line" d="M 6120 8340 C 6120 8404, 6240 8436, 6240 8500"/>
    <path class="branch-line" d="M -4920 8420 C -4920 8484, -5040 8516, -5040 8580"/>
    <path class="branch-line" d="M 6240 8500 C 6240 8564, 6360 8596, 6360 8660"/>
    <path class="branch-line" d="M -5040 8580 C -5040 8644, -5160 8676, -5160 8740"/>
    <path class="branch-line" d="M 6360 8660 C 6360 8724, 6480 8756, 6480 8820"/>
    <path class="branch-line" d="M -5160 8740 C -5160 8804, -5280 8836, -5280 8900"/>
    <path class="branch-line" d="M 6480 8820 C 6480 8884, 6600 8916, 6600 8980"/>
    <path class="branch-line" d="M -5280 8900 C -5280 8964, -5400 8996, -5400 9060"/>
    <path class="branch-line" d="M 6600 8980 C 6600 9044, 600 9076, 600 9140"/>
    <path class="branch-line" d="M -5400 9060 C -5400 9108, 6720 9132, 6720 9180"/>
    <line class="trunk-line" x1="600" y1="9140" x2="600" y2="9260"/>
    <path class="branch-line" d="M 600 9140 C 600 9524, 7320 9716, 7320 10100"/>
    <path class="branch-line" d="M 6720 9180 C 6720 9228, -5520 9252, -5520 9300"/>
    <path class="branch-line" d="M 6720 9180 C 6720 9580, -6120 9780, -6120 10180"/>
    <line class="trunk-line" x1="600" y1="9260" x2="600" y2="9380"/>
    <path class="branch-line" d="M 600 9260 C 600 9356, -5640 9404, -5640 9500"/>
    <path class="branch-line" d="M -5520 9300 C -5520 9348, 6840 9372, 6840 9420"/>
    <path class="branch-line" d="M -5520 9300 C -5520 9412, 6960 9468, 6960 9580"/>
    <line class="trunk-line" x1="600" y1="9380" x2="600" y2="9820"/>
    <path class="branch-line" d="M 600 9380 C 600 9492, -5760 9548, -5760 9660"/>
    <path class="branch-line" d="M 6840 9420 C 6840 9596, -5880 9684, -5880 9860"/>
    <path class="branch-line" d="M 6840 9420 C 6840 9548, 7080 9612, 7080 9740"/>
    <path class="branch-line" d="M -5640 9500 C -5640 9804, 600 9956, 600 10260"/>
    <path class="branch-line" d="M 6960 9580 C 6960 9868, 7440 10012, 7440 10300"/>
    <path class="branch-line" d="M -5760 9660 C -5760 9900, 600 10020, 600 10260"/>
    <path class="branch-line" d="M 7080 9740 C 7080 9964, 7440 10076, 7440 10300"/>
    <line class="trunk-line" x1="600" y1="9820" x2="600" y2="10260"/>
    <path class="branch-line" d="M 600 9820 C 600 9868, 7200 9892, 7200 9940"/>
    <path class="branch-line" d="M -5880 9860 C -5880 10036, 7440 10124, 7440 10300"/>
    <path class="branch-line" d="M -5880 9860 C -5880 9924, -6000 9956, -6000 10020"/>
    <path class="branch-line" d="M 7200 9940 C 7200 10068, 600 10132, 600 10260"/>
    <path class="branch-line" d="M -6000 10020 C -6000 10132, 7440 10188, 7440 10300"/>
    <path class="branch-line" d="M 7320 10100 C 7320 10164, 600 10196, 600 10260"/>
    <path class="branch-line" d="M -6120 10180 C -6120 10228, 7440 10252, 7440 10300"/>
  </g>
  <!-- Commit nodes -->
  <g id="commits">
    <circle class="commit-leaf" cx="600" cy="60" r="6" fill="url(#leafGradient)" stroke="#16a34a" stroke-width="1.5"><title>e558194: chore: update git tree visualisation</title></circle>
    <circle class="commit-leaf" cx="600" cy="100" r="10" fill="url(#mergeGradient)" stroke="#7c3aed" stroke-width="1.5"><title>5be354a: Merge pull request #21 from XAOSTECH:dependabot/github_actions/XAOSTECH/dev-control-99c3e9aab76604c6a046e205f1a8e0dcf53fe935</title></circle>
    <circle class="commit-leaf" cx="600" cy="140" r="10" fill="url(#mergeGradient)" stroke="#7c3aed" stroke-width="1.5"><title>4da0166: Merge pull request #20 from XAOSTECH:dependabot/github_actions/actions/github-script-9</title></circle>
    <circle class="commit-leaf" cx="600" cy="180" r="10" fill="url(#mergeGradient)" stroke="#7c3aed" stroke-width="1.5"><title>c6d8f08: Merge pull request #19 from XAOSTECH/dependabot/github_actions/actions/upload-artifact-7</title></circle>
    <circle class="commit-leaf" cx="720" cy="220" r="6" fill="url(#leafGradient)" stroke="#16a34a" stroke-width="1.5"><title>6b8c9df: deps(deps): bump XAOSTECH/dev-control</title></circle>
    <circle class="commit-leaf" cx="480" cy="300" r="6" fill="url(#leafGradient)" stroke="#16a34a" stroke-width="1.5"><title>18c7254: deps(deps): bump actions/github-script from 8 to 9</title></circle>
    <circle class="commit-leaf" cx="840" cy="380" r="6" fill="url(#leafGradient)" stroke="#16a34a" stroke-width="1.5"><title>a6d15f2: deps(deps): bump actions/upload-artifact from 4 to 7</title></circle>
    <circle class="commit-leaf" cx="600" cy="460" r="9" fill="url(#forkGradient)" stroke="#ea580c" stroke-width="1.5"><title>495ff44: chore: update git tree visualisation</title></circle>
    <circle class="commit-leaf" cx="600" cy="500" r="10" fill="url(#mergeGradient)" stroke="#7c3aed" stroke-width="1.5"><title>6768ca5: Merge pull request #18 from XAOSTECH/dependabot/github_actions/XAOSTECH/dev-control-36d58407ebfb4ea31439818a87634315a0cebcad</title></circle>
    <circle class="commit-leaf" cx="600" cy="540" r="10" fill="url(#mergeGradient)" stroke="#7c3aed" stroke-width="1.5"><title>ab99e5c: Merge pull request #17 from XAOSTECH/dependabot/github_actions/actions/github-script-8</title></circle>
    <circle class="commit-leaf" cx="360" cy="580" r="6" fill="url(#leafGradient)" stroke="#16a34a" stroke-width="1.5"><title>105cc7b: deps(deps): bump XAOSTECH/dev-control</title></circle>
    <circle class="commit-leaf" cx="960" cy="660" r="6" fill="url(#leafGradient)" stroke="#16a34a" stroke-width="1.5"><title>d369dd8: deps(deps): bump actions/github-script from 6 to 8</title></circle>
    <circle class="commit-leaf" cx="600" cy="740" r="10" fill="url(#mergeGradient)" stroke="#7c3aed" stroke-width="1.5"><title>a4da0d1: Merge pull request #16 from XAOSTECH/anglicise/20260401-020811</title></circle>
    <circle class="commit-leaf" cx="240" cy="780" r="6" fill="url(#leafGradient)" stroke="#16a34a" stroke-width="1.5"><title>1c0269c: chore: convert American spellings to British English</title></circle>
    <circle class="commit-leaf" cx="600" cy="860" r="9" fill="url(#forkGradient)" stroke="#ea580c" stroke-width="1.5"><title>07fea13: chore: update git tree visualisation</title></circle>
    <circle class="commit-leaf" cx="600" cy="900" r="10" fill="url(#mergeGradient)" stroke="#7c3aed" stroke-width="1.5"><title>a2fa428: Merge pull request #14 from XAOSTECH/dependabot/github_actions/actions/create-github-app-token-3</title></circle>
    <circle class="commit-leaf" cx="1080" cy="940" r="6" fill="url(#leafGradient)" stroke="#16a34a" stroke-width="1.5"><title>76e9b72: deps(deps): bump actions/create-github-app-token from 2 to 3</title></circle>
    <circle class="commit-leaf" cx="600" cy="1020" r="9" fill="url(#forkGradient)" stroke="#ea580c" stroke-width="1.5"><title>47b418a: chore(dc-init): load workflows,actions</title></circle>
    <circle class="commit-leaf" cx="600" cy="1060" r="6" fill="url(#leafGradient)" stroke="#16a34a" stroke-width="1.5"><title>8fa06ba: chore: update git tree visualisation</title></circle>
    <circle class="commit-leaf" cx="600" cy="1100" r="10" fill="url(#mergeGradient)" stroke="#7c3aed" stroke-width="1.5"><title>980f73b: Merge pull request #13 from XAOSTECH/dependabot/github_actions/actions/upload-artifact-7</title></circle>
    <circle class="commit-leaf" cx="120" cy="1140" r="6" fill="url(#leafGradient)" stroke="#16a34a" stroke-width="1.5"><title>07aa05a: deps(deps): bump actions/upload-artifact from 4 to 7</title></circle>
    <circle class="commit-leaf" cx="600" cy="1220" r="10" fill="url(#mergeGradient)" stroke="#7c3aed" stroke-width="1.5"><title>3eb93ad: Merge pull request #11 from XAOSTECH/dependabot/github_actions/actions/create-github-app-token-3</title></circle>
    <circle class="commit-leaf" cx="1200" cy="1260" r="6" fill="url(#leafGradient)" stroke="#16a34a" stroke-width="1.5"><title>ef2f3e6: deps(deps): bump actions/create-github-app-token from 2 to 3</title></circle>
    <circle class="commit-leaf" cx="600" cy="1340" r="9" fill="url(#forkGradient)" stroke="#ea580c" stroke-width="1.5"><title>a90053b: chore(dc-init+contain): update workflows + actions + container config</title></circle>
    <circle class="commit-leaf" cx="600" cy="1380" r="6" fill="url(#leafGradient)" stroke="#16a34a" stroke-width="1.5"><title>3f03000: chore(devcontainer): guard python installs in post-create.sh (SKIP_PYTHON=1 to skip)</title></circle>
    <circle class="commit-leaf" cx="600" cy="1420" r="6" fill="url(#leafGradient)" stroke="#16a34a" stroke-width="1.5"><title>5311755: chore(devcontainer): simplify Dockerfile.cuda to minimal CUDA+R base and MIRROR build-arg</title></circle>
    <circle class="commit-leaf" cx="600" cy="1460" r="6" fill="url(#leafGradient)" stroke="#16a34a" stroke-width="1.5"><title>49b4cec: chore(devcontainer): switch to minimal CUDA+R devcontainer (remove heavy python feature &amp; postCreate)</title></circle>
    <circle class="commit-leaf" cx="600" cy="1500" r="10" fill="url(#mergeGradient)" stroke="#7c3aed" stroke-width="1.5"><title>647e31b: Merge pull request #9 from xaoscience/short-term-vsearch-cuda</title></circle>
    <circle class="commit-leaf" cx="0" cy="1540" r="10" fill="url(#mergeGradient)" stroke="#7c3aed" stroke-width="1.5"><title>376b852: Merge pull request #9 from xaoscience/short-term-vsearch-cuda</title></circle>
    <circle class="commit-leaf" cx="1320" cy="1620" r="6" fill="url(#leafGradient)" stroke="#16a34a" stroke-width="1.5"><title>8c43e83: docs: Add Phase 1 GPU implementation guide and validation checklist</title></circle>
    <circle class="commit-leaf" cx="-120" cy="1700" r="6" fill="url(#leafGradient)" stroke="#16a34a" stroke-width="1.5"><title>1965089: docs: Add Phase 1 GPU implementation guide and validation checklist</title></circle>
    <circle class="commit-leaf" cx="1440" cy="1780" r="6" fill="url(#leafGradient)" stroke="#16a34a" stroke-width="1.5"><title>d2a8038: feat: Add comprehensive CPU vs GPU benchmark test suite</title></circle>
    <circle class="commit-leaf" cx="-240" cy="1860" r="6" fill="url(#leafGradient)" stroke="#16a34a" stroke-width="1.5"><title>6f05151: feat: Add comprehensive CPU vs GPU benchmark test suite</title></circle>
    <circle class="commit-leaf" cx="1560" cy="1940" r="6" fill="url(#leafGradient)" stroke="#16a34a" stroke-width="1.5"><title>fd42f6f: feat: Add CUDA GPU acceleration support to chimera detection stage</title></circle>
    <circle class="commit-leaf" cx="-360" cy="2020" r="6" fill="url(#leafGradient)" stroke="#16a34a" stroke-width="1.5"><title>b68691b: feat: Add CUDA GPU acceleration support to chimera detection stage</title></circle>
    <circle class="commit-leaf" cx="1680" cy="2100" r="6" fill="url(#leafGradient)" stroke="#16a34a" stroke-width="1.5"><title>56fa902: feat: Update CLI orchestrator with CUDA flag support and enhanced logging</title></circle>
    <circle class="commit-leaf" cx="-480" cy="2180" r="6" fill="url(#leafGradient)" stroke="#16a34a" stroke-width="1.5"><title>d0ea104: feat: Update CLI orchestrator with CUDA flag support and enhanced logging</title></circle>
    <circle class="commit-leaf" cx="600" cy="2260" r="10" fill="url(#mergeGradient)" stroke="#7c3aed" stroke-width="1.5"><title>dde4570: Merge pull request #8 from xaoscience/cuda-expansion</title></circle>
    <circle class="commit-leaf" cx="1800" cy="2300" r="10" fill="url(#mergeGradient)" stroke="#7c3aed" stroke-width="1.5"><title>8ea4df1: Merge pull request #8 from xaoscience/cuda-expansion</title></circle>
    <circle class="commit-leaf" cx="-600" cy="2380" r="6" fill="url(#leafGradient)" stroke="#16a34a" stroke-width="1.5"><title>2fd2231: docs: Update README with CUDA acceleration options and GPU performance</title></circle>
    <circle class="commit-leaf" cx="1920" cy="2460" r="6" fill="url(#leafGradient)" stroke="#16a34a" stroke-width="1.5"><title>8752098: docs: Update README with CUDA acceleration options and GPU performance</title></circle>
    <circle class="commit-leaf" cx="-720" cy="2540" r="6" fill="url(#leafGradient)" stroke="#16a34a" stroke-width="1.5"><title>ac91cc4: feat: Add Dockerfile.cuda for GPU-accelerated amplicon analysis</title></circle>
    <circle class="commit-leaf" cx="2040" cy="2620" r="6" fill="url(#leafGradient)" stroke="#16a34a" stroke-width="1.5"><title>9d17c0c: feat: Add Dockerfile.cuda for GPU-accelerated amplicon analysis</title></circle>
    <circle class="commit-leaf" cx="-840" cy="2700" r="6" fill="url(#leafGradient)" stroke="#16a34a" stroke-width="1.5"><title>47b0efc: docs: Add CUDA acceleration guide for GPU-enabled amplicon analysis</title></circle>
    <circle class="commit-leaf" cx="2160" cy="2780" r="6" fill="url(#leafGradient)" stroke="#16a34a" stroke-width="1.5"><title>deb6692: docs: Add CUDA acceleration guide for GPU-enabled amplicon analysis</title></circle>
    <circle class="commit-leaf" cx="600" cy="2860" r="9" fill="url(#forkGradient)" stroke="#ea580c" stroke-width="1.5"><title>88201ac: adapt container</title></circle>
    <circle class="commit-leaf" cx="-960" cy="2900" r="9" fill="url(#forkGradient)" stroke="#ea580c" stroke-width="1.5"><title>89aba31: adapt container</title></circle>
    <circle class="commit-leaf" cx="600" cy="2980" r="6" fill="url(#leafGradient)" stroke="#16a34a" stroke-width="1.5"><title>9b4ed2e: chore: Update status badge to experimental and license to GPL3</title></circle>
    <circle class="commit-leaf" cx="2280" cy="3020" r="6" fill="url(#leafGradient)" stroke="#16a34a" stroke-width="1.5"><title>b076780: chore: Update status badge to experimental and license to GPL3</title></circle>
    <circle class="commit-leaf" cx="600" cy="3100" r="6" fill="url(#leafGradient)" stroke="#16a34a" stroke-width="1.5"><title>d6a8bbc: cleanup: Remove all legacy documentation and example data</title></circle>
    <circle class="commit-leaf" cx="-1080" cy="3140" r="6" fill="url(#leafGradient)" stroke="#16a34a" stroke-width="1.5"><title>898414a: cleanup: Remove all legacy documentation and example data</title></circle>
    <circle class="commit-leaf" cx="600" cy="3220" r="6" fill="url(#leafGradient)" stroke="#16a34a" stroke-width="1.5"><title>1071586: manual cleanup</title></circle>
    <circle class="commit-leaf" cx="2400" cy="3260" r="6" fill="url(#leafGradient)" stroke="#16a34a" stroke-width="1.5"><title>2af1c22: manual cleanup</title></circle>
    <circle class="commit-leaf" cx="600" cy="3340" r="10" fill="url(#mergeGradient)" stroke="#7c3aed" stroke-width="1.5"><title>335804e: Merge pull request #7 from xaoscience/cleanup-refactor</title></circle>
    <circle class="commit-leaf" cx="-1200" cy="3380" r="10" fill="url(#mergeGradient)" stroke="#7c3aed" stroke-width="1.5"><title>84ab5f6: Merge pull request #7 from xaoscience/cleanup-refactor</title></circle>
    <circle class="commit-leaf" cx="2520" cy="3460" r="6" fill="url(#leafGradient)" stroke="#16a34a" stroke-width="1.5"><title>48ff6fa: cleanup: Remove legacy Python/R code and old infrastructure</title></circle>
    <circle class="commit-leaf" cx="-1320" cy="3540" r="6" fill="url(#leafGradient)" stroke="#16a34a" stroke-width="1.5"><title>dba7129: cleanup: Remove legacy Python/R code and old infrastructure</title></circle>
    <circle class="commit-leaf" cx="2640" cy="3620" r="6" fill="url(#leafGradient)" stroke="#16a34a" stroke-width="1.5"><title>c4c7d0b: cleanup: Remove legacy Python infrastructure</title></circle>
    <circle class="commit-leaf" cx="-1440" cy="3700" r="6" fill="url(#leafGradient)" stroke="#16a34a" stroke-width="1.5"><title>d716526: cleanup: Remove legacy Python infrastructure</title></circle>
    <circle class="commit-leaf" cx="2760" cy="3780" r="6" fill="url(#leafGradient)" stroke="#16a34a" stroke-width="1.5"><title>7861cf6: cleanup: Remove redundant documentation</title></circle>
    <circle class="commit-leaf" cx="-1560" cy="3860" r="6" fill="url(#leafGradient)" stroke="#16a34a" stroke-width="1.5"><title>49de8d6: cleanup: Remove redundant documentation</title></circle>
    <circle class="commit-leaf" cx="2880" cy="3940" r="6" fill="url(#leafGradient)" stroke="#16a34a" stroke-width="1.5"><title>0154828: refactor: Reorganize project structure and consolidate documentation</title></circle>
    <circle class="commit-leaf" cx="-1680" cy="4020" r="6" fill="url(#leafGradient)" stroke="#16a34a" stroke-width="1.5"><title>be8387c: refactor: Reorganize project structure and consolidate documentation</title></circle>
    <circle class="commit-leaf" cx="600" cy="4100" r="10" fill="url(#mergeGradient)" stroke="#7c3aed" stroke-width="1.5"><title>72d2cab: Merge pull request #6 from xaoscience/bash-refactor</title></circle>
    <circle class="commit-leaf" cx="3000" cy="4140" r="10" fill="url(#mergeGradient)" stroke="#7c3aed" stroke-width="1.5"><title>f28913d: Merge pull request #6 from xaoscience/bash-refactor</title></circle>
    <circle class="commit-leaf" cx="-1800" cy="4220" r="6" fill="url(#leafGradient)" stroke="#16a34a" stroke-width="1.5"><title>f65ee2f: Bash-Refactor: System architecture documentation</title></circle>
    <circle class="commit-leaf" cx="3120" cy="4300" r="6" fill="url(#leafGradient)" stroke="#16a34a" stroke-width="1.5"><title>f3e795e: Bash-Refactor: System architecture documentation</title></circle>
    <circle class="commit-leaf" cx="-1920" cy="4380" r="6" fill="url(#leafGradient)" stroke="#16a34a" stroke-width="1.5"><title>e847b5d: Bash-Refactor: Implementation summary &amp; delivery report</title></circle>
    <circle class="commit-leaf" cx="3240" cy="4460" r="6" fill="url(#leafGradient)" stroke="#16a34a" stroke-width="1.5"><title>0839e5f: Bash-Refactor: Implementation summary &amp; delivery report</title></circle>
    <circle class="commit-leaf" cx="-2040" cy="4540" r="6" fill="url(#leafGradient)" stroke="#16a34a" stroke-width="1.5"><title>0c069f8: Bash-Refactor: Quick reference guide with copy-paste recipes</title></circle>
    <circle class="commit-leaf" cx="3360" cy="4620" r="6" fill="url(#leafGradient)" stroke="#16a34a" stroke-width="1.5"><title>94340aa: Bash-Refactor: Quick reference guide with copy-paste recipes</title></circle>
    <circle class="commit-leaf" cx="-2160" cy="4700" r="6" fill="url(#leafGradient)" stroke="#16a34a" stroke-width="1.5"><title>ab00870: Bash-Refactor: Complete documentation with execution guide</title></circle>
    <circle class="commit-leaf" cx="3480" cy="4780" r="6" fill="url(#leafGradient)" stroke="#16a34a" stroke-width="1.5"><title>ab82520: Bash-Refactor: Complete documentation with execution guide</title></circle>
    <circle class="commit-leaf" cx="-2280" cy="4860" r="6" fill="url(#leafGradient)" stroke="#16a34a" stroke-width="1.5"><title>25936e6: Bash-Refactor: Test suite for pipeline validation</title></circle>
    <circle class="commit-leaf" cx="3600" cy="4940" r="6" fill="url(#leafGradient)" stroke="#16a34a" stroke-width="1.5"><title>66c7ad0: Bash-Refactor: Test suite for pipeline validation</title></circle>
    <circle class="commit-leaf" cx="-2400" cy="5020" r="6" fill="url(#leafGradient)" stroke="#16a34a" stroke-width="1.5"><title>1f8e399: Bash-Refactor: Pipeline Stage 06 - Krona visualization (final stage)</title></circle>
    <circle class="commit-leaf" cx="3720" cy="5100" r="6" fill="url(#leafGradient)" stroke="#16a34a" stroke-width="1.5"><title>81be338: Bash-Refactor: Pipeline Stage 06 - Krona visualization (final stage)</title></circle>
    <circle class="commit-leaf" cx="-2520" cy="5180" r="6" fill="url(#leafGradient)" stroke="#16a34a" stroke-width="1.5"><title>ecebb03: Bash-Refactor: Pipeline Stage 05 - FastTree phylogenetic inference</title></circle>
    <circle class="commit-leaf" cx="3840" cy="5260" r="6" fill="url(#leafGradient)" stroke="#16a34a" stroke-width="1.5"><title>fc056cb: Bash-Refactor: Pipeline Stage 05 - FastTree phylogenetic inference</title></circle>
    <circle class="commit-leaf" cx="-2640" cy="5340" r="6" fill="url(#leafGradient)" stroke="#16a34a" stroke-width="1.5"><title>40b2117: Bash-Refactor: Pipeline Stage 04 - RDP Classifier taxonomy</title></circle>
    <circle class="commit-leaf" cx="3960" cy="5420" r="6" fill="url(#leafGradient)" stroke="#16a34a" stroke-width="1.5"><title>d108853: Bash-Refactor: Pipeline Stage 04 - RDP Classifier taxonomy</title></circle>
    <circle class="commit-leaf" cx="-2760" cy="5500" r="6" fill="url(#leafGradient)" stroke="#16a34a" stroke-width="1.5"><title>8eaaea4: Bash-Refactor: Pipeline Stage 03 - Chimera detection (VSEARCH UCHIME)</title></circle>
    <circle class="commit-leaf" cx="4080" cy="5580" r="6" fill="url(#leafGradient)" stroke="#16a34a" stroke-width="1.5"><title>d279cc4: Bash-Refactor: Pipeline Stage 03 - Chimera detection (VSEARCH UCHIME)</title></circle>
    <circle class="commit-leaf" cx="-2880" cy="5660" r="6" fill="url(#leafGradient)" stroke="#16a34a" stroke-width="1.5"><title>d828cfb: Bash-Refactor: Pipeline Stage 02 - DADA2 denoising</title></circle>
    <circle class="commit-leaf" cx="4200" cy="5740" r="6" fill="url(#leafGradient)" stroke="#16a34a" stroke-width="1.5"><title>01e95e1: Bash-Refactor: Pipeline Stage 02 - DADA2 denoising</title></circle>
    <circle class="commit-leaf" cx="-3000" cy="5820" r="6" fill="url(#leafGradient)" stroke="#16a34a" stroke-width="1.5"><title>452d052: Bash-Refactor: Pipeline Stage 01 - Preprocess (QC, trim, filter)</title></circle>
    <circle class="commit-leaf" cx="4320" cy="5900" r="6" fill="url(#leafGradient)" stroke="#16a34a" stroke-width="1.5"><title>20f5019: Bash-Refactor: Pipeline Stage 01 - Preprocess (QC, trim, filter)</title></circle>
    <circle class="commit-leaf" cx="-3120" cy="5980" r="6" fill="url(#leafGradient)" stroke="#16a34a" stroke-width="1.5"><title>0e75302: Bash-Refactor: Dashboard JavaScript (real-time updates)</title></circle>
    <circle class="commit-leaf" cx="4440" cy="6060" r="6" fill="url(#leafGradient)" stroke="#16a34a" stroke-width="1.5"><title>bb26e14: Bash-Refactor: Dashboard JavaScript (real-time updates)</title></circle>
    <circle class="commit-leaf" cx="-3240" cy="6140" r="6" fill="url(#leafGradient)" stroke="#16a34a" stroke-width="1.5"><title>82f0fe0: Bash-Refactor: Dashboard CSS styling</title></circle>
    <circle class="commit-leaf" cx="4560" cy="6220" r="6" fill="url(#leafGradient)" stroke="#16a34a" stroke-width="1.5"><title>515aeed: Bash-Refactor: Dashboard CSS styling</title></circle>
    <circle class="commit-leaf" cx="-3360" cy="6300" r="6" fill="url(#leafGradient)" stroke="#16a34a" stroke-width="1.5"><title>e2661f5: Bash-Refactor: Web dashboard (HTML + D3/Plotly)</title></circle>
    <circle class="commit-leaf" cx="4680" cy="6380" r="6" fill="url(#leafGradient)" stroke="#16a34a" stroke-width="1.5"><title>95f5805: Bash-Refactor: Web dashboard (HTML + D3/Plotly)</title></circle>
    <circle class="commit-leaf" cx="-3480" cy="6460" r="6" fill="url(#leafGradient)" stroke="#16a34a" stroke-width="1.5"><title>f20698a: Bash-Refactor: C++ analytics server (WebSocket, live metrics)</title></circle>
    <circle class="commit-leaf" cx="4800" cy="6540" r="6" fill="url(#leafGradient)" stroke="#16a34a" stroke-width="1.5"><title>a187cbe: Bash-Refactor: C++ analytics server (WebSocket, live metrics)</title></circle>
    <circle class="commit-leaf" cx="-3600" cy="6620" r="6" fill="url(#leafGradient)" stroke="#16a34a" stroke-width="1.5"><title>73af8c2: Bash-Refactor: Main orchestrator CLI</title></circle>
    <circle class="commit-leaf" cx="4920" cy="6700" r="6" fill="url(#leafGradient)" stroke="#16a34a" stroke-width="1.5"><title>b81e005: Bash-Refactor: Main orchestrator CLI</title></circle>
    <circle class="commit-leaf" cx="-3720" cy="6780" r="6" fill="url(#leafGradient)" stroke="#16a34a" stroke-width="1.5"><title>1e6aac5: Bash-Refactor: Bleeding-edge native bioinformatics pipeline (2025)</title></circle>
    <circle class="commit-leaf" cx="5040" cy="6860" r="6" fill="url(#leafGradient)" stroke="#16a34a" stroke-width="1.5"><title>797a496: Bash-Refactor: Bleeding-edge native bioinformatics pipeline (2025)</title></circle>
    <circle class="commit-leaf" cx="600" cy="6940" r="10" fill="url(#mergeGradient)" stroke="#7c3aed" stroke-width="1.5"><title>614fcc1: Merge pull request #5 from xaoscience/refactor</title></circle>
    <circle class="commit-leaf" cx="-3840" cy="6980" r="10" fill="url(#mergeGradient)" stroke="#7c3aed" stroke-width="1.5"><title>7f51b95: Merge pull request #5 from xaoscience/refactor</title></circle>
    <circle class="commit-leaf" cx="5160" cy="7060" r="6" fill="url(#leafGradient)" stroke="#16a34a" stroke-width="1.5"><title>0efed4c: Refactor: Branch status and validation checklist</title></circle>
    <circle class="commit-leaf" cx="-3960" cy="7140" r="6" fill="url(#leafGradient)" stroke="#16a34a" stroke-width="1.5"><title>9243447: Refactor: Branch status and validation checklist</title></circle>
    <circle class="commit-leaf" cx="5280" cy="7220" r="6" fill="url(#leafGradient)" stroke="#16a34a" stroke-width="1.5"><title>b2d1461: Refactor: Comprehensive architecture &amp; implementation documentation</title></circle>
    <circle class="commit-leaf" cx="-4080" cy="7300" r="6" fill="url(#leafGradient)" stroke="#16a34a" stroke-width="1.5"><title>c0bd084: Refactor: Comprehensive architecture &amp; implementation documentation</title></circle>
    <circle class="commit-leaf" cx="5400" cy="7380" r="6" fill="url(#leafGradient)" stroke="#16a34a" stroke-width="1.5"><title>abf40d8: Refactor: CLI entrypoint with modular commands</title></circle>
    <circle class="commit-leaf" cx="-4200" cy="7460" r="6" fill="url(#leafGradient)" stroke="#16a34a" stroke-width="1.5"><title>2215b60: Refactor: CLI entrypoint with modular commands</title></circle>
    <circle class="commit-leaf" cx="5520" cy="7540" r="6" fill="url(#leafGradient)" stroke="#16a34a" stroke-width="1.5"><title>6a59793: Refactor: Phylogenetic module - neighbor-joining tree construction</title></circle>
    <circle class="commit-leaf" cx="-4320" cy="7620" r="6" fill="url(#leafGradient)" stroke="#16a34a" stroke-width="1.5"><title>b735e60: Refactor: Phylogenetic module - neighbor-joining tree construction</title></circle>
    <circle class="commit-leaf" cx="5640" cy="7700" r="6" fill="url(#leafGradient)" stroke="#16a34a" stroke-width="1.5"><title>dd64562: Refactor: Taxonomy assignment module (k-mer, exact match methods)</title></circle>
    <circle class="commit-leaf" cx="-4440" cy="7780" r="6" fill="url(#leafGradient)" stroke="#16a34a" stroke-width="1.5"><title>45622ca: Refactor: Taxonomy assignment module (k-mer, exact match methods)</title></circle>
    <circle class="commit-leaf" cx="5760" cy="7860" r="6" fill="url(#leafGradient)" stroke="#16a34a" stroke-width="1.5"><title>7d0db21: Refactor: Denoising module - pure Python ASV inference</title></circle>
    <circle class="commit-leaf" cx="-4560" cy="7940" r="6" fill="url(#leafGradient)" stroke="#16a34a" stroke-width="1.5"><title>a965be6: Refactor: Denoising module - pure Python ASV inference</title></circle>
    <circle class="commit-leaf" cx="5880" cy="8020" r="6" fill="url(#leafGradient)" stroke="#16a34a" stroke-width="1.5"><title>3b21685: Refactor: QC module - pure Python DADA2-inspired filtering</title></circle>
    <circle class="commit-leaf" cx="-4680" cy="8100" r="6" fill="url(#leafGradient)" stroke="#16a34a" stroke-width="1.5"><title>ab6ba30: Refactor: QC module - pure Python DADA2-inspired filtering</title></circle>
    <circle class="commit-leaf" cx="6000" cy="8180" r="6" fill="url(#leafGradient)" stroke="#16a34a" stroke-width="1.5"><title>ae7fac2: Refactor: Safe Entrez fetching with XXE protection</title></circle>
    <circle class="commit-leaf" cx="-4800" cy="8260" r="6" fill="url(#leafGradient)" stroke="#16a34a" stroke-width="1.5"><title>5d2042b: Refactor: Safe Entrez fetching with XXE protection</title></circle>
    <circle class="commit-leaf" cx="6120" cy="8340" r="6" fill="url(#leafGradient)" stroke="#16a34a" stroke-width="1.5"><title>085a561: Refactor: I/O module with documented bioinformatics methods</title></circle>
    <circle class="commit-leaf" cx="-4920" cy="8420" r="6" fill="url(#leafGradient)" stroke="#16a34a" stroke-width="1.5"><title>28169cc: Refactor: I/O module with documented bioinformatics methods</title></circle>
    <circle class="commit-leaf" cx="6240" cy="8500" r="6" fill="url(#leafGradient)" stroke="#16a34a" stroke-width="1.5"><title>7991f4b: Refactor: Nucleid profile configuration system (scalable)</title></circle>
    <circle class="commit-leaf" cx="-5040" cy="8580" r="6" fill="url(#leafGradient)" stroke="#16a34a" stroke-width="1.5"><title>d2a5106: Refactor: Nucleid profile configuration system (scalable)</title></circle>
    <circle class="commit-leaf" cx="6360" cy="8660" r="6" fill="url(#leafGradient)" stroke="#16a34a" stroke-width="1.5"><title>7b19390: Refactor: Core module with modular imports</title></circle>
    <circle class="commit-leaf" cx="-5160" cy="8740" r="6" fill="url(#leafGradient)" stroke="#16a34a" stroke-width="1.5"><title>2d4bc57: Refactor: Core module with modular imports</title></circle>
    <circle class="commit-leaf" cx="6480" cy="8820" r="6" fill="url(#leafGradient)" stroke="#16a34a" stroke-width="1.5"><title>1e5b139: Refactor: Update requirements - remove R, add defusedxml XXE fix, bump Biopython</title></circle>
    <circle class="commit-leaf" cx="-5280" cy="8900" r="6" fill="url(#leafGradient)" stroke="#16a34a" stroke-width="1.5"><title>94d8187: Refactor: Update requirements - remove R, add defusedxml XXE fix, bump Biopython</title></circle>
    <circle class="commit-leaf" cx="6600" cy="8980" r="6" fill="url(#leafGradient)" stroke="#16a34a" stroke-width="1.5"><title>c86f68c: Refactor: Setup package as installable Python application</title></circle>
    <circle class="commit-leaf" cx="-5400" cy="9060" r="6" fill="url(#leafGradient)" stroke="#16a34a" stroke-width="1.5"><title>180f5d6: Refactor: Setup package as installable Python application</title></circle>
    <circle class="commit-leaf" cx="600" cy="9140" r="10" fill="url(#mergeGradient)" stroke="#7c3aed" stroke-width="1.5"><title>a353a11: Merge pull request #1 from xaoscience/dependabot/github_actions/actions/checkout-6</title></circle>
    <circle class="commit-leaf" cx="6720" cy="9180" r="10" fill="url(#mergeGradient)" stroke="#7c3aed" stroke-width="1.5"><title>0ae62ba: Merge pull request #1 from xaoscience/dependabot/github_actions/actions/checkout-6</title></circle>
    <circle class="commit-leaf" cx="600" cy="9260" r="10" fill="url(#mergeGradient)" stroke="#7c3aed" stroke-width="1.5"><title>4e74dce: Merge pull request #4 from xaoscience/dependabot/pip/jupyter-68f4446fcb</title></circle>
    <circle class="commit-leaf" cx="-5520" cy="9300" r="10" fill="url(#mergeGradient)" stroke="#7c3aed" stroke-width="1.5"><title>6abd285: Merge pull request #4 from xaoscience/dependabot/pip/jupyter-68f4446fcb</title></circle>
    <circle class="commit-leaf" cx="600" cy="9380" r="10" fill="url(#mergeGradient)" stroke="#7c3aed" stroke-width="1.5"><title>6954cde: Merge pull request #3 from xaoscience/dependabot/pip/data-science-d96427fa6b</title></circle>
    <circle class="commit-leaf" cx="6840" cy="9420" r="10" fill="url(#mergeGradient)" stroke="#7c3aed" stroke-width="1.5"><title>90efd06: Merge pull request #3 from xaoscience/dependabot/pip/data-science-d96427fa6b</title></circle>
    <circle class="commit-leaf" cx="-5640" cy="9500" r="6" fill="url(#leafGradient)" stroke="#16a34a" stroke-width="1.5"><title>c20e75d: chore(deps)(deps): bump notebook in the jupyter group</title></circle>
    <circle class="commit-leaf" cx="6960" cy="9580" r="6" fill="url(#leafGradient)" stroke="#16a34a" stroke-width="1.5"><title>c2f9be1: chore(deps)(deps): bump notebook in the jupyter group</title></circle>
    <circle class="commit-leaf" cx="-5760" cy="9660" r="6" fill="url(#leafGradient)" stroke="#16a34a" stroke-width="1.5"><title>e228c45: chore(deps)(deps): bump numpy in the data-science group</title></circle>
    <circle class="commit-leaf" cx="7080" cy="9740" r="6" fill="url(#leafGradient)" stroke="#16a34a" stroke-width="1.5"><title>75b225f: chore(deps)(deps): bump numpy in the data-science group</title></circle>
    <circle class="commit-leaf" cx="600" cy="9820" r="10" fill="url(#mergeGradient)" stroke="#7c3aed" stroke-width="1.5"><title>f3b395d: Merge pull request #2 from xaoscience/dependabot/github_actions/actions/github-script-8</title></circle>
    <circle class="commit-leaf" cx="-5880" cy="9860" r="10" fill="url(#mergeGradient)" stroke="#7c3aed" stroke-width="1.5"><title>052c3f9: Merge pull request #2 from xaoscience/dependabot/github_actions/actions/github-script-8</title></circle>
    <circle class="commit-leaf" cx="7200" cy="9940" r="6" fill="url(#leafGradient)" stroke="#16a34a" stroke-width="1.5"><title>e157b67: deps(deps): bump actions/github-script from 7 to 8</title></circle>
    <circle class="commit-leaf" cx="-6000" cy="10020" r="6" fill="url(#leafGradient)" stroke="#16a34a" stroke-width="1.5"><title>62810a3: deps(deps): bump actions/github-script from 7 to 8</title></circle>
    <circle class="commit-leaf" cx="7320" cy="10100" r="6" fill="url(#leafGradient)" stroke="#16a34a" stroke-width="1.5"><title>cd7763e: deps(deps): bump actions/checkout from 4 to 6</title></circle>
    <circle class="commit-leaf" cx="-6120" cy="10180" r="6" fill="url(#leafGradient)" stroke="#16a34a" stroke-width="1.5"><title>4ee89f7: deps(deps): bump actions/checkout from 4 to 6</title></circle>
    <circle class="commit-leaf" cx="600" cy="10260" r="9" fill="url(#forkGradient)" stroke="#ea580c" stroke-width="1.5"><title>3049af8: Initial commit</title></circle>
    <circle class="commit-leaf" cx="7440" cy="10300" r="9" fill="url(#forkGradient)" stroke="#ea580c" stroke-width="1.5"><title>1fd560a: Initial commit</title></circle>
  </g>
  
  <!-- Legend -->
  <g id="legend" transform="translate(20, 20)">
    <rect width="200" height="110" fill="white" stroke="#cbd5e1" stroke-width="1" rx="4"/>
    <circle cx="20" cy="25" r="5" fill="url(#leafGradient)" stroke="#16a34a"/>
    <text x="32" y="30" class="branch-label" font-size="12">Regular Commit</text>
    <circle cx="20" cy="50" r="6" fill="url(#mergeGradient)" stroke="#7c3aed"/>
    <text x="32" y="55" class="branch-label" font-size="12">Merge Commit</text>
    <circle cx="20" cy="75" r="6" fill="url(#forkGradient)" stroke="#ea580c"/>
    <text x="32" y="80" class="branch-label" font-size="12">Fork Point</text>
    <circle cx="20" cy="100" r="6" fill="url(#tagGradient)" stroke="#0284c7"/>
    <text x="32" y="105" class="branch-label" font-size="12">Tagged</text>
  </g>
  
  <!-- Repository info -->
  <g id="info" transform="translate(20, 10380)">
    <text x="0" y="0" class="branch-label" font-size="12" fill="#666">
      Repository: NucleiTaxa
    </text>
    <text x="0" y="20" class="branch-label" font-size="10" fill="#999">
      Generated: 2026-04-20 03:22:00 UTC
    </text>
  </g>
</svg>
