<?xml version="1.0" encoding="UTF-8"?>
<svg xmlns="http://www.w3.org/2000/svg"
     width="300" height="232"
     viewBox="-6260 40 13840 10720">
  <style>
    @keyframes sway {
      0%   { transform: translateX(0); }
      25%  { transform: translateX(3px); }
      50%  { transform: translateX(-2px); }
      75%  { transform: translateX(4px); }
      100% { transform: translateX(0); }
    }
    .mini-node { animation: sway 4s ease-in-out infinite; }
    .mini-line { stroke-width: 1.5; fill: none; opacity: 0.5; }
  </style>
  <rect width="100%" height="100%" fill="#0a0a1a" rx="6"/>
  <g class="mini-node">
    <line class="mini-line" stroke="#4ade80" x1="600" y1="60" x2="600" y2="100"/>
    <line class="mini-line" stroke="#4ade80" x1="600" y1="100" x2="600" y2="140"/>
    <line class="mini-line" stroke="#4ade80" x1="600" y1="140" x2="600" y2="180"/>
    <line class="mini-line" stroke="#4ade80" x1="600" y1="180" x2="600" y2="300"/>
    <path class="mini-line" stroke="#64748b" d="M 600 180 C 600 196, 720 204, 720 220"/>
    <path class="mini-line" stroke="#64748b" d="M 720 220 C 720 252, 600 268, 600 300"/>
    <line class="mini-line" stroke="#4ade80" x1="600" y1="300" x2="600" y2="340"/>
    <line class="mini-line" stroke="#4ade80" x1="600" y1="340" x2="600" y2="460"/>
    <path class="mini-line" stroke="#64748b" d="M 600 340 C 600 356, 480 364, 480 380"/>
    <path class="mini-line" stroke="#64748b" d="M 480 380 C 480 412, 600 428, 600 460"/>
    <line class="mini-line" stroke="#4ade80" x1="600" y1="460" x2="600" y2="500"/>
    <line class="mini-line" stroke="#4ade80" x1="600" y1="500" x2="600" y2="540"/>
    <line class="mini-line" stroke="#4ade80" x1="600" y1="540" x2="600" y2="580"/>
    <path class="mini-line" stroke="#64748b" d="M 600 540 C 600 588, 840 612, 840 660"/>
    <line class="mini-line" stroke="#4ade80" x1="600" y1="580" x2="600" y2="620"/>
    <path class="mini-line" stroke="#64748b" d="M 600 580 C 600 644, 360 676, 360 740"/>
    <line class="mini-line" stroke="#4ade80" x1="600" y1="620" x2="600" y2="900"/>
    <path class="mini-line" stroke="#64748b" d="M 600 620 C 600 700, 960 740, 960 820"/>
    <path class="mini-line" stroke="#64748b" d="M 840 660 C 840 756, 600 804, 600 900"/>
    <path class="mini-line" stroke="#64748b" d="M 360 740 C 360 804, 600 836, 600 900"/>
    <path class="mini-line" stroke="#64748b" d="M 960 820 C 960 852, 600 868, 600 900"/>
    <line class="mini-line" stroke="#4ade80" x1="600" y1="900" x2="600" y2="940"/>
    <line class="mini-line" stroke="#4ade80" x1="600" y1="940" x2="600" y2="980"/>
    <path class="mini-line" stroke="#64748b" d="M 600 940 C 600 972, 240 988, 240 1020"/>
    <line class="mini-line" stroke="#4ade80" x1="600" y1="980" x2="600" y2="1180"/>
    <path class="mini-line" stroke="#64748b" d="M 600 980 C 600 1028, 1080 1052, 1080 1100"/>
    <path class="mini-line" stroke="#64748b" d="M 240 1020 C 240 1084, 600 1116, 600 1180"/>
    <path class="mini-line" stroke="#64748b" d="M 1080 1100 C 1080 1132, 600 1148, 600 1180"/>
    <line class="mini-line" stroke="#4ade80" x1="600" y1="1180" x2="600" y2="1300"/>
    <path class="mini-line" stroke="#64748b" d="M 600 1180 C 600 1196, 120 1204, 120 1220"/>
    <path class="mini-line" stroke="#64748b" d="M 120 1220 C 120 1252, 600 1268, 600 1300"/>
    <line class="mini-line" stroke="#4ade80" x1="600" y1="1300" x2="600" y2="1340"/>
    <line class="mini-line" stroke="#4ade80" x1="600" y1="1340" x2="600" y2="1460"/>
    <path class="mini-line" stroke="#64748b" d="M 600 1340 C 600 1356, 1200 1364, 1200 1380"/>
    <path class="mini-line" stroke="#64748b" d="M 1200 1380 C 1200 1412, 600 1428, 600 1460"/>
    <line class="mini-line" stroke="#4ade80" x1="600" y1="1460" x2="600" y2="1500"/>
    <line class="mini-line" stroke="#4ade80" x1="600" y1="1500" x2="600" y2="1540"/>
    <line class="mini-line" stroke="#4ade80" x1="600" y1="1540" x2="600" y2="1660"/>
    <path class="mini-line" stroke="#64748b" d="M 600 1540 C 600 1556, 0 1564, 0 1580"/>
    <path class="mini-line" stroke="#64748b" d="M 0 1580 C 0 1660, 600 1700, 600 1780"/>
    <line class="mini-line" stroke="#4ade80" x1="600" y1="1660" x2="600" y2="1780"/>
    <path class="mini-line" stroke="#64748b" d="M 600 1660 C 600 1676, 1320 1684, 1320 1700"/>
    <path class="mini-line" stroke="#64748b" d="M 1320 1700 C 1320 1732, 600 1748, 600 1780"/>
    <line class="mini-line" stroke="#4ade80" x1="600" y1="1780" x2="600" y2="1820"/>
    <line class="mini-line" stroke="#4ade80" x1="600" y1="1820" x2="600" y2="1860"/>
    <line class="mini-line" stroke="#4ade80" x1="600" y1="1860" x2="600" y2="1900"/>
    <line class="mini-line" stroke="#4ade80" x1="600" y1="1900" x2="600" y2="1940"/>
    <line class="mini-line" stroke="#4ade80" x1="600" y1="1940" x2="600" y2="2700"/>
    <path class="mini-line" stroke="#64748b" d="M 600 1940 C 600 1988, 1440 2012, 1440 2060"/>
    <path class="mini-line" stroke="#64748b" d="M -120 1980 C -120 2284, 1920 2436, 1920 2740"/>
    <path class="mini-line" stroke="#64748b" d="M -120 1980 C -120 2044, -240 2076, -240 2140"/>
    <path class="mini-line" stroke="#64748b" d="M 1440 2060 C 1440 2124, 1560 2156, 1560 2220"/>
    <path class="mini-line" stroke="#64748b" d="M -240 2140 C -240 2204, -360 2236, -360 2300"/>
    <path class="mini-line" stroke="#64748b" d="M 1560 2220 C 1560 2284, 1680 2316, 1680 2380"/>
    <path class="mini-line" stroke="#64748b" d="M -360 2300 C -360 2364, -480 2396, -480 2460"/>
    <path class="mini-line" stroke="#64748b" d="M 1680 2380 C 1680 2444, 1800 2476, 1800 2540"/>
    <path class="mini-line" stroke="#64748b" d="M -480 2460 C -480 2524, -600 2556, -600 2620"/>
    <path class="mini-line" stroke="#64748b" d="M 1800 2540 C 1800 2604, 600 2636, 600 2700"/>
    <path class="mini-line" stroke="#64748b" d="M -600 2620 C -600 2668, 1920 2692, 1920 2740"/>
    <line class="mini-line" stroke="#4ade80" x1="600" y1="2700" x2="600" y2="3300"/>
    <path class="mini-line" stroke="#64748b" d="M 600 2700 C 600 2748, -720 2772, -720 2820"/>
    <path class="mini-line" stroke="#64748b" d="M 1920 2740 C 1920 2980, -1080 3100, -1080 3340"/>
    <path class="mini-line" stroke="#64748b" d="M 1920 2740 C 1920 2804, 2040 2836, 2040 2900"/>
    <path class="mini-line" stroke="#64748b" d="M -720 2820 C -720 2884, -840 2916, -840 2980"/>
    <path class="mini-line" stroke="#64748b" d="M 2040 2900 C 2040 2964, 2160 2996, 2160 3060"/>
    <path class="mini-line" stroke="#64748b" d="M -840 2980 C -840 3044, -960 3076, -960 3140"/>
    <path class="mini-line" stroke="#64748b" d="M 2160 3060 C 2160 3124, 2280 3156, 2280 3220"/>
    <path class="mini-line" stroke="#64748b" d="M -960 3140 C -960 3204, 600 3236, 600 3300"/>
    <path class="mini-line" stroke="#64748b" d="M 2280 3220 C 2280 3268, -1080 3292, -1080 3340"/>
    <line class="mini-line" stroke="#4ade80" x1="600" y1="3300" x2="600" y2="3420"/>
    <path class="mini-line" stroke="#64748b" d="M -1080 3340 C -1080 3388, 2400 3412, 2400 3460"/>
    <line class="mini-line" stroke="#4ade80" x1="600" y1="3420" x2="600" y2="3540"/>
    <path class="mini-line" stroke="#64748b" d="M 2400 3460 C 2400 3508, -1200 3532, -1200 3580"/>
    <line class="mini-line" stroke="#4ade80" x1="600" y1="3540" x2="600" y2="3660"/>
    <path class="mini-line" stroke="#64748b" d="M -1200 3580 C -1200 3628, 2520 3652, 2520 3700"/>
    <line class="mini-line" stroke="#4ade80" x1="600" y1="3660" x2="600" y2="3780"/>
    <path class="mini-line" stroke="#64748b" d="M 2520 3700 C 2520 3748, -1320 3772, -1320 3820"/>
    <line class="mini-line" stroke="#4ade80" x1="600" y1="3780" x2="600" y2="4540"/>
    <path class="mini-line" stroke="#64748b" d="M 600 3780 C 600 3828, 2640 3852, 2640 3900"/>
    <path class="mini-line" stroke="#64748b" d="M -1320 3820 C -1320 4124, 3120 4276, 3120 4580"/>
    <path class="mini-line" stroke="#64748b" d="M -1320 3820 C -1320 3884, -1440 3916, -1440 3980"/>
    <path class="mini-line" stroke="#64748b" d="M 2640 3900 C 2640 3964, 2760 3996, 2760 4060"/>
    <path class="mini-line" stroke="#64748b" d="M -1440 3980 C -1440 4044, -1560 4076, -1560 4140"/>
    <path class="mini-line" stroke="#64748b" d="M 2760 4060 C 2760 4124, 2880 4156, 2880 4220"/>
    <path class="mini-line" stroke="#64748b" d="M -1560 4140 C -1560 4204, -1680 4236, -1680 4300"/>
    <path class="mini-line" stroke="#64748b" d="M 2880 4220 C 2880 4284, 3000 4316, 3000 4380"/>
    <path class="mini-line" stroke="#64748b" d="M -1680 4300 C -1680 4364, -1800 4396, -1800 4460"/>
    <path class="mini-line" stroke="#64748b" d="M 3000 4380 C 3000 4444, 600 4476, 600 4540"/>
    <path class="mini-line" stroke="#64748b" d="M -1800 4460 C -1800 4508, 3120 4532, 3120 4580"/>
    <line class="mini-line" stroke="#4ade80" x1="600" y1="4540" x2="600" y2="7380"/>
    <path class="mini-line" stroke="#64748b" d="M 600 4540 C 600 4588, -1920 4612, -1920 4660"/>
    <path class="mini-line" stroke="#64748b" d="M 3120 4580 C 3120 5716, -3960 6284, -3960 7420"/>
    <path class="mini-line" stroke="#64748b" d="M 3120 4580 C 3120 4644, 3240 4676, 3240 4740"/>
    <path class="mini-line" stroke="#64748b" d="M -1920 4660 C -1920 4724, -2040 4756, -2040 4820"/>
    <path class="mini-line" stroke="#64748b" d="M 3240 4740 C 3240 4804, 3360 4836, 3360 4900"/>
    <path class="mini-line" stroke="#64748b" d="M -2040 4820 C -2040 4884, -2160 4916, -2160 4980"/>
    <path class="mini-line" stroke="#64748b" d="M 3360 4900 C 3360 4964, 3480 4996, 3480 5060"/>
    <path class="mini-line" stroke="#64748b" d="M -2160 4980 C -2160 5044, -2280 5076, -2280 5140"/>
    <path class="mini-line" stroke="#64748b" d="M 3480 5060 C 3480 5124, 3600 5156, 3600 5220"/>
    <path class="mini-line" stroke="#64748b" d="M -2280 5140 C -2280 5204, -2400 5236, -2400 5300"/>
    <path class="mini-line" stroke="#64748b" d="M 3600 5220 C 3600 5284, 3720 5316, 3720 5380"/>
    <path class="mini-line" stroke="#64748b" d="M -2400 5300 C -2400 5364, -2520 5396, -2520 5460"/>
    <path class="mini-line" stroke="#64748b" d="M 3720 5380 C 3720 5444, 3840 5476, 3840 5540"/>
    <path class="mini-line" stroke="#64748b" d="M -2520 5460 C -2520 5524, -2640 5556, -2640 5620"/>
    <path class="mini-line" stroke="#64748b" d="M 3840 5540 C 3840 5604, 3960 5636, 3960 5700"/>
    <path class="mini-line" stroke="#64748b" d="M -2640 5620 C -2640 5684, -2760 5716, -2760 5780"/>
    <path class="mini-line" stroke="#64748b" d="M 3960 5700 C 3960 5764, 4080 5796, 4080 5860"/>
    <path class="mini-line" stroke="#64748b" d="M -2760 5780 C -2760 5844, -2880 5876, -2880 5940"/>
    <path class="mini-line" stroke="#64748b" d="M 4080 5860 C 4080 5924, 4200 5956, 4200 6020"/>
    <path class="mini-line" stroke="#64748b" d="M -2880 5940 C -2880 6004, -3000 6036, -3000 6100"/>
    <path class="mini-line" stroke="#64748b" d="M 4200 6020 C 4200 6084, 4320 6116, 4320 6180"/>
    <path class="mini-line" stroke="#64748b" d="M -3000 6100 C -3000 6164, -3120 6196, -3120 6260"/>
    <path class="mini-line" stroke="#64748b" d="M 4320 6180 C 4320 6244, 4440 6276, 4440 6340"/>
    <path class="mini-line" stroke="#64748b" d="M -3120 6260 C -3120 6324, -3240 6356, -3240 6420"/>
    <path class="mini-line" stroke="#64748b" d="M 4440 6340 C 4440 6404, 4560 6436, 4560 6500"/>
    <path class="mini-line" stroke="#64748b" d="M -3240 6420 C -3240 6484, -3360 6516, -3360 6580"/>
    <path class="mini-line" stroke="#64748b" d="M 4560 6500 C 4560 6564, 4680 6596, 4680 6660"/>
    <path class="mini-line" stroke="#64748b" d="M -3360 6580 C -3360 6644, -3480 6676, -3480 6740"/>
    <path class="mini-line" stroke="#64748b" d="M 4680 6660 C 4680 6724, 4800 6756, 4800 6820"/>
    <path class="mini-line" stroke="#64748b" d="M -3480 6740 C -3480 6804, -3600 6836, -3600 6900"/>
    <path class="mini-line" stroke="#64748b" d="M 4800 6820 C 4800 6884, 4920 6916, 4920 6980"/>
    <path class="mini-line" stroke="#64748b" d="M -3600 6900 C -3600 6964, -3720 6996, -3720 7060"/>
    <path class="mini-line" stroke="#64748b" d="M 4920 6980 C 4920 7044, 5040 7076, 5040 7140"/>
    <path class="mini-line" stroke="#64748b" d="M -3720 7060 C -3720 7124, -3840 7156, -3840 7220"/>
    <path class="mini-line" stroke="#64748b" d="M 5040 7140 C 5040 7204, 5160 7236, 5160 7300"/>
    <path class="mini-line" stroke="#64748b" d="M -3840 7220 C -3840 7284, 600 7316, 600 7380"/>
    <path class="mini-line" stroke="#64748b" d="M 5160 7300 C 5160 7348, -3960 7372, -3960 7420"/>
    <line class="mini-line" stroke="#4ade80" x1="600" y1="7380" x2="600" y2="9580"/>
    <path class="mini-line" stroke="#64748b" d="M 600 7380 C 600 7428, 5280 7452, 5280 7500"/>
    <path class="mini-line" stroke="#64748b" d="M -3960 7420 C -3960 8300, 6840 8740, 6840 9620"/>
    <path class="mini-line" stroke="#64748b" d="M -3960 7420 C -3960 7484, -4080 7516, -4080 7580"/>
    <path class="mini-line" stroke="#64748b" d="M 5280 7500 C 5280 7564, 5400 7596, 5400 7660"/>
    <path class="mini-line" stroke="#64748b" d="M -4080 7580 C -4080 7644, -4200 7676, -4200 7740"/>
    <path class="mini-line" stroke="#64748b" d="M 5400 7660 C 5400 7724, 5520 7756, 5520 7820"/>
    <path class="mini-line" stroke="#64748b" d="M -4200 7740 C -4200 7804, -4320 7836, -4320 7900"/>
    <path class="mini-line" stroke="#64748b" d="M 5520 7820 C 5520 7884, 5640 7916, 5640 7980"/>
    <path class="mini-line" stroke="#64748b" d="M -4320 7900 C -4320 7964, -4440 7996, -4440 8060"/>
    <path class="mini-line" stroke="#64748b" d="M 5640 7980 C 5640 8044, 5760 8076, 5760 8140"/>
    <path class="mini-line" stroke="#64748b" d="M -4440 8060 C -4440 8124, -4560 8156, -4560 8220"/>
    <path class="mini-line" stroke="#64748b" d="M 5760 8140 C 5760 8204, 5880 8236, 5880 8300"/>
    <path class="mini-line" stroke="#64748b" d="M -4560 8220 C -4560 8284, -4680 8316, -4680 8380"/>
    <path class="mini-line" stroke="#64748b" d="M 5880 8300 C 5880 8364, 6000 8396, 6000 8460"/>
    <path class="mini-line" stroke="#64748b" d="M -4680 8380 C -4680 8444, -4800 8476, -4800 8540"/>
    <path class="mini-line" stroke="#64748b" d="M 6000 8460 C 6000 8524, 6120 8556, 6120 8620"/>
    <path class="mini-line" stroke="#64748b" d="M -4800 8540 C -4800 8604, -4920 8636, -4920 8700"/>
    <path class="mini-line" stroke="#64748b" d="M 6120 8620 C 6120 8684, 6240 8716, 6240 8780"/>
    <path class="mini-line" stroke="#64748b" d="M -4920 8700 C -4920 8764, -5040 8796, -5040 8860"/>
    <path class="mini-line" stroke="#64748b" d="M 6240 8780 C 6240 8844, 6360 8876, 6360 8940"/>
    <path class="mini-line" stroke="#64748b" d="M -5040 8860 C -5040 8924, -5160 8956, -5160 9020"/>
    <path class="mini-line" stroke="#64748b" d="M 6360 8940 C 6360 9004, 6480 9036, 6480 9100"/>
    <path class="mini-line" stroke="#64748b" d="M -5160 9020 C -5160 9084, -5280 9116, -5280 9180"/>
    <path class="mini-line" stroke="#64748b" d="M 6480 9100 C 6480 9164, 6600 9196, 6600 9260"/>
    <path class="mini-line" stroke="#64748b" d="M -5280 9180 C -5280 9244, -5400 9276, -5400 9340"/>
    <path class="mini-line" stroke="#64748b" d="M 6600 9260 C 6600 9324, 6720 9356, 6720 9420"/>
    <path class="mini-line" stroke="#64748b" d="M -5400 9340 C -5400 9404, -5520 9436, -5520 9500"/>
    <path class="mini-line" stroke="#64748b" d="M 6720 9420 C 6720 9484, 600 9516, 600 9580"/>
    <path class="mini-line" stroke="#64748b" d="M -5520 9500 C -5520 9548, 6840 9572, 6840 9620"/>
    <line class="mini-line" stroke="#4ade80" x1="600" y1="9580" x2="600" y2="9700"/>
    <path class="mini-line" stroke="#64748b" d="M 600 9580 C 600 9964, 7440 10156, 7440 10540"/>
    <path class="mini-line" stroke="#64748b" d="M 6840 9620 C 6840 9668, -5640 9692, -5640 9740"/>
    <path class="mini-line" stroke="#64748b" d="M 6840 9620 C 6840 10020, -6240 10220, -6240 10620"/>
    <line class="mini-line" stroke="#4ade80" x1="600" y1="9700" x2="600" y2="9820"/>
    <path class="mini-line" stroke="#64748b" d="M 600 9700 C 600 9796, -5760 9844, -5760 9940"/>
    <path class="mini-line" stroke="#64748b" d="M -5640 9740 C -5640 9788, 6960 9812, 6960 9860"/>
    <path class="mini-line" stroke="#64748b" d="M -5640 9740 C -5640 9852, 7080 9908, 7080 10020"/>
    <line class="mini-line" stroke="#4ade80" x1="600" y1="9820" x2="600" y2="10260"/>
    <path class="mini-line" stroke="#64748b" d="M 600 9820 C 600 9932, -5880 9988, -5880 10100"/>
    <path class="mini-line" stroke="#64748b" d="M 6960 9860 C 6960 10036, -6000 10124, -6000 10300"/>
    <path class="mini-line" stroke="#64748b" d="M 6960 9860 C 6960 9988, 7200 10052, 7200 10180"/>
    <path class="mini-line" stroke="#64748b" d="M -5760 9940 C -5760 10244, 600 10396, 600 10700"/>
    <path class="mini-line" stroke="#64748b" d="M 7080 10020 C 7080 10308, 7560 10452, 7560 10740"/>
    <path class="mini-line" stroke="#64748b" d="M -5880 10100 C -5880 10340, 600 10460, 600 10700"/>
    <path class="mini-line" stroke="#64748b" d="M 7200 10180 C 7200 10404, 7560 10516, 7560 10740"/>
    <line class="mini-line" stroke="#4ade80" x1="600" y1="10260" x2="600" y2="10700"/>
    <path class="mini-line" stroke="#64748b" d="M 600 10260 C 600 10308, 7320 10332, 7320 10380"/>
    <path class="mini-line" stroke="#64748b" d="M -6000 10300 C -6000 10476, 7560 10564, 7560 10740"/>
    <path class="mini-line" stroke="#64748b" d="M -6000 10300 C -6000 10364, -6120 10396, -6120 10460"/>
    <path class="mini-line" stroke="#64748b" d="M 7320 10380 C 7320 10508, 600 10572, 600 10700"/>
    <path class="mini-line" stroke="#64748b" d="M -6120 10460 C -6120 10572, 7560 10628, 7560 10740"/>
    <path class="mini-line" stroke="#64748b" d="M 7440 10540 C 7440 10604, 600 10636, 600 10700"/>
    <path class="mini-line" stroke="#64748b" d="M -6240 10620 C -6240 10668, 7560 10692, 7560 10740"/>
    <circle cx="600" cy="60" r="4" fill="#4ade80" opacity="0.9"/>
    <circle cx="600" cy="100" r="4" fill="#4ade80" opacity="0.9"/>
    <circle cx="600" cy="140" r="4" fill="#4ade80" opacity="0.9"/>
    <circle cx="600" cy="180" r="7" fill="#c084fc" opacity="0.9"/>
    <circle cx="720" cy="220" r="4" fill="#4ade80" opacity="0.9"/>
    <circle cx="600" cy="300" r="6" fill="#fb923c" opacity="0.9"/>
    <circle cx="600" cy="340" r="7" fill="#c084fc" opacity="0.9"/>
    <circle cx="480" cy="380" r="4" fill="#4ade80" opacity="0.9"/>
    <circle cx="600" cy="460" r="6" fill="#fb923c" opacity="0.9"/>
    <circle cx="600" cy="500" r="4" fill="#4ade80" opacity="0.9"/>
    <circle cx="600" cy="540" r="7" fill="#c084fc" opacity="0.9"/>
    <circle cx="600" cy="580" r="7" fill="#c084fc" opacity="0.9"/>
    <circle cx="600" cy="620" r="7" fill="#c084fc" opacity="0.9"/>
    <circle cx="840" cy="660" r="4" fill="#4ade80" opacity="0.9"/>
    <circle cx="360" cy="740" r="4" fill="#4ade80" opacity="0.9"/>
    <circle cx="960" cy="820" r="4" fill="#4ade80" opacity="0.9"/>
    <circle cx="600" cy="900" r="6" fill="#fb923c" opacity="0.9"/>
    <circle cx="600" cy="940" r="7" fill="#c084fc" opacity="0.9"/>
    <circle cx="600" cy="980" r="7" fill="#c084fc" opacity="0.9"/>
    <circle cx="240" cy="1020" r="4" fill="#4ade80" opacity="0.9"/>
    <circle cx="1080" cy="1100" r="4" fill="#4ade80" opacity="0.9"/>
    <circle cx="600" cy="1180" r="7" fill="#c084fc" opacity="0.9"/>
    <circle cx="120" cy="1220" r="4" fill="#4ade80" opacity="0.9"/>
    <circle cx="600" cy="1300" r="6" fill="#fb923c" opacity="0.9"/>
    <circle cx="600" cy="1340" r="7" fill="#c084fc" opacity="0.9"/>
    <circle cx="1200" cy="1380" r="4" fill="#4ade80" opacity="0.9"/>
    <circle cx="600" cy="1460" r="6" fill="#fb923c" opacity="0.9"/>
    <circle cx="600" cy="1500" r="4" fill="#4ade80" opacity="0.9"/>
    <circle cx="600" cy="1540" r="7" fill="#c084fc" opacity="0.9"/>
    <circle cx="0" cy="1580" r="4" fill="#4ade80" opacity="0.9"/>
    <circle cx="600" cy="1660" r="7" fill="#c084fc" opacity="0.9"/>
    <circle cx="1320" cy="1700" r="4" fill="#4ade80" opacity="0.9"/>
    <circle cx="600" cy="1780" r="6" fill="#fb923c" opacity="0.9"/>
    <circle cx="600" cy="1820" r="4" fill="#4ade80" opacity="0.9"/>
    <circle cx="600" cy="1860" r="4" fill="#4ade80" opacity="0.9"/>
    <circle cx="600" cy="1900" r="4" fill="#4ade80" opacity="0.9"/>
    <circle cx="600" cy="1940" r="7" fill="#c084fc" opacity="0.9"/>
    <circle cx="-120" cy="1980" r="7" fill="#c084fc" opacity="0.9"/>
    <circle cx="1440" cy="2060" r="4" fill="#4ade80" opacity="0.9"/>
    <circle cx="-240" cy="2140" r="4" fill="#4ade80" opacity="0.9"/>
    <circle cx="1560" cy="2220" r="4" fill="#4ade80" opacity="0.9"/>
    <circle cx="-360" cy="2300" r="4" fill="#4ade80" opacity="0.9"/>
    <circle cx="1680" cy="2380" r="4" fill="#4ade80" opacity="0.9"/>
    <circle cx="-480" cy="2460" r="4" fill="#4ade80" opacity="0.9"/>
    <circle cx="1800" cy="2540" r="4" fill="#4ade80" opacity="0.9"/>
    <circle cx="-600" cy="2620" r="4" fill="#4ade80" opacity="0.9"/>
    <circle cx="600" cy="2700" r="7" fill="#c084fc" opacity="0.9"/>
    <circle cx="1920" cy="2740" r="7" fill="#c084fc" opacity="0.9"/>
    <circle cx="-720" cy="2820" r="4" fill="#4ade80" opacity="0.9"/>
    <circle cx="2040" cy="2900" r="4" fill="#4ade80" opacity="0.9"/>
    <circle cx="-840" cy="2980" r="4" fill="#4ade80" opacity="0.9"/>
    <circle cx="2160" cy="3060" r="4" fill="#4ade80" opacity="0.9"/>
    <circle cx="-960" cy="3140" r="4" fill="#4ade80" opacity="0.9"/>
    <circle cx="2280" cy="3220" r="4" fill="#4ade80" opacity="0.9"/>
    <circle cx="600" cy="3300" r="6" fill="#fb923c" opacity="0.9"/>
    <circle cx="-1080" cy="3340" r="6" fill="#fb923c" opacity="0.9"/>
    <circle cx="600" cy="3420" r="4" fill="#4ade80" opacity="0.9"/>
    <circle cx="2400" cy="3460" r="4" fill="#4ade80" opacity="0.9"/>
    <circle cx="600" cy="3540" r="4" fill="#4ade80" opacity="0.9"/>
    <circle cx="-1200" cy="3580" r="4" fill="#4ade80" opacity="0.9"/>
    <circle cx="600" cy="3660" r="4" fill="#4ade80" opacity="0.9"/>
    <circle cx="2520" cy="3700" r="4" fill="#4ade80" opacity="0.9"/>
    <circle cx="600" cy="3780" r="7" fill="#c084fc" opacity="0.9"/>
    <circle cx="-1320" cy="3820" r="7" fill="#c084fc" opacity="0.9"/>
    <circle cx="2640" cy="3900" r="4" fill="#4ade80" opacity="0.9"/>
    <circle cx="-1440" cy="3980" r="4" fill="#4ade80" opacity="0.9"/>
    <circle cx="2760" cy="4060" r="4" fill="#4ade80" opacity="0.9"/>
    <circle cx="-1560" cy="4140" r="4" fill="#4ade80" opacity="0.9"/>
    <circle cx="2880" cy="4220" r="4" fill="#4ade80" opacity="0.9"/>
    <circle cx="-1680" cy="4300" r="4" fill="#4ade80" opacity="0.9"/>
    <circle cx="3000" cy="4380" r="4" fill="#4ade80" opacity="0.9"/>
    <circle cx="-1800" cy="4460" r="4" fill="#4ade80" opacity="0.9"/>
    <circle cx="600" cy="4540" r="7" fill="#c084fc" opacity="0.9"/>
    <circle cx="3120" cy="4580" r="7" fill="#c084fc" opacity="0.9"/>
    <circle cx="-1920" cy="4660" r="4" fill="#4ade80" opacity="0.9"/>
    <circle cx="3240" cy="4740" r="4" fill="#4ade80" opacity="0.9"/>
    <circle cx="-2040" cy="4820" r="4" fill="#4ade80" opacity="0.9"/>
    <circle cx="3360" cy="4900" r="4" fill="#4ade80" opacity="0.9"/>
    <circle cx="-2160" cy="4980" r="4" fill="#4ade80" opacity="0.9"/>
    <circle cx="3480" cy="5060" r="4" fill="#4ade80" opacity="0.9"/>
    <circle cx="-2280" cy="5140" r="4" fill="#4ade80" opacity="0.9"/>
    <circle cx="3600" cy="5220" r="4" fill="#4ade80" opacity="0.9"/>
    <circle cx="-2400" cy="5300" r="4" fill="#4ade80" opacity="0.9"/>
    <circle cx="3720" cy="5380" r="4" fill="#4ade80" opacity="0.9"/>
    <circle cx="-2520" cy="5460" r="4" fill="#4ade80" opacity="0.9"/>
    <circle cx="3840" cy="5540" r="4" fill="#4ade80" opacity="0.9"/>
    <circle cx="-2640" cy="5620" r="4" fill="#4ade80" opacity="0.9"/>
    <circle cx="3960" cy="5700" r="4" fill="#4ade80" opacity="0.9"/>
    <circle cx="-2760" cy="5780" r="4" fill="#4ade80" opacity="0.9"/>
    <circle cx="4080" cy="5860" r="4" fill="#4ade80" opacity="0.9"/>
    <circle cx="-2880" cy="5940" r="4" fill="#4ade80" opacity="0.9"/>
    <circle cx="4200" cy="6020" r="4" fill="#4ade80" opacity="0.9"/>
    <circle cx="-3000" cy="6100" r="4" fill="#4ade80" opacity="0.9"/>
    <circle cx="4320" cy="6180" r="4" fill="#4ade80" opacity="0.9"/>
    <circle cx="-3120" cy="6260" r="4" fill="#4ade80" opacity="0.9"/>
    <circle cx="4440" cy="6340" r="4" fill="#4ade80" opacity="0.9"/>
    <circle cx="-3240" cy="6420" r="4" fill="#4ade80" opacity="0.9"/>
    <circle cx="4560" cy="6500" r="4" fill="#4ade80" opacity="0.9"/>
    <circle cx="-3360" cy="6580" r="4" fill="#4ade80" opacity="0.9"/>
    <circle cx="4680" cy="6660" r="4" fill="#4ade80" opacity="0.9"/>
    <circle cx="-3480" cy="6740" r="4" fill="#4ade80" opacity="0.9"/>
    <circle cx="4800" cy="6820" r="4" fill="#4ade80" opacity="0.9"/>
    <circle cx="-3600" cy="6900" r="4" fill="#4ade80" opacity="0.9"/>
    <circle cx="4920" cy="6980" r="4" fill="#4ade80" opacity="0.9"/>
    <circle cx="-3720" cy="7060" r="4" fill="#4ade80" opacity="0.9"/>
    <circle cx="5040" cy="7140" r="4" fill="#4ade80" opacity="0.9"/>
    <circle cx="-3840" cy="7220" r="4" fill="#4ade80" opacity="0.9"/>
    <circle cx="5160" cy="7300" r="4" fill="#4ade80" opacity="0.9"/>
    <circle cx="600" cy="7380" r="7" fill="#c084fc" opacity="0.9"/>
    <circle cx="-3960" cy="7420" r="7" fill="#c084fc" opacity="0.9"/>
    <circle cx="5280" cy="7500" r="4" fill="#4ade80" opacity="0.9"/>
    <circle cx="-4080" cy="7580" r="4" fill="#4ade80" opacity="0.9"/>
    <circle cx="5400" cy="7660" r="4" fill="#4ade80" opacity="0.9"/>
    <circle cx="-4200" cy="7740" r="4" fill="#4ade80" opacity="0.9"/>
    <circle cx="5520" cy="7820" r="4" fill="#4ade80" opacity="0.9"/>
    <circle cx="-4320" cy="7900" r="4" fill="#4ade80" opacity="0.9"/>
    <circle cx="5640" cy="7980" r="4" fill="#4ade80" opacity="0.9"/>
    <circle cx="-4440" cy="8060" r="4" fill="#4ade80" opacity="0.9"/>
    <circle cx="5760" cy="8140" r="4" fill="#4ade80" opacity="0.9"/>
    <circle cx="-4560" cy="8220" r="4" fill="#4ade80" opacity="0.9"/>
    <circle cx="5880" cy="8300" r="4" fill="#4ade80" opacity="0.9"/>
    <circle cx="-4680" cy="8380" r="4" fill="#4ade80" opacity="0.9"/>
    <circle cx="6000" cy="8460" r="4" fill="#4ade80" opacity="0.9"/>
    <circle cx="-4800" cy="8540" r="4" fill="#4ade80" opacity="0.9"/>
    <circle cx="6120" cy="8620" r="4" fill="#4ade80" opacity="0.9"/>
    <circle cx="-4920" cy="8700" r="4" fill="#4ade80" opacity="0.9"/>
    <circle cx="6240" cy="8780" r="4" fill="#4ade80" opacity="0.9"/>
    <circle cx="-5040" cy="8860" r="4" fill="#4ade80" opacity="0.9"/>
    <circle cx="6360" cy="8940" r="4" fill="#4ade80" opacity="0.9"/>
    <circle cx="-5160" cy="9020" r="4" fill="#4ade80" opacity="0.9"/>
    <circle cx="6480" cy="9100" r="4" fill="#4ade80" opacity="0.9"/>
    <circle cx="-5280" cy="9180" r="4" fill="#4ade80" opacity="0.9"/>
    <circle cx="6600" cy="9260" r="4" fill="#4ade80" opacity="0.9"/>
    <circle cx="-5400" cy="9340" r="4" fill="#4ade80" opacity="0.9"/>
    <circle cx="6720" cy="9420" r="4" fill="#4ade80" opacity="0.9"/>
    <circle cx="-5520" cy="9500" r="4" fill="#4ade80" opacity="0.9"/>
    <circle cx="600" cy="9580" r="7" fill="#c084fc" opacity="0.9"/>
    <circle cx="6840" cy="9620" r="7" fill="#c084fc" opacity="0.9"/>
    <circle cx="600" cy="9700" r="7" fill="#c084fc" opacity="0.9"/>
    <circle cx="-5640" cy="9740" r="7" fill="#c084fc" opacity="0.9"/>
    <circle cx="600" cy="9820" r="7" fill="#c084fc" opacity="0.9"/>
    <circle cx="6960" cy="9860" r="7" fill="#c084fc" opacity="0.9"/>
    <circle cx="-5760" cy="9940" r="4" fill="#4ade80" opacity="0.9"/>
    <circle cx="7080" cy="10020" r="4" fill="#4ade80" opacity="0.9"/>
    <circle cx="-5880" cy="10100" r="4" fill="#4ade80" opacity="0.9"/>
    <circle cx="7200" cy="10180" r="4" fill="#4ade80" opacity="0.9"/>
    <circle cx="600" cy="10260" r="7" fill="#c084fc" opacity="0.9"/>
    <circle cx="-6000" cy="10300" r="7" fill="#c084fc" opacity="0.9"/>
    <circle cx="7320" cy="10380" r="4" fill="#4ade80" opacity="0.9"/>
    <circle cx="-6120" cy="10460" r="4" fill="#4ade80" opacity="0.9"/>
    <circle cx="7440" cy="10540" r="4" fill="#4ade80" opacity="0.9"/>
    <circle cx="-6240" cy="10620" r="4" fill="#4ade80" opacity="0.9"/>
    <circle cx="600" cy="10700" r="6" fill="#fb923c" opacity="0.9"/>
    <circle cx="7560" cy="10740" r="6" fill="#fb923c" opacity="0.9"/>
  </g>
</svg>
