<?xml version="1.0" encoding="UTF-8"?>
<svg xmlns="http://www.w3.org/2000/svg"
     width="300" height="237"
     viewBox="-6380 40 14080 11160">
  <style>
    @keyframes sway {
      0%   { transform: translateX(0); }
      25%  { transform: translateX(3px); }
      50%  { transform: translateX(-2px); }
      75%  { transform: translateX(4px); }
      100% { transform: translateX(0); }
    }
    .mini-node { animation: sway 4s ease-in-out infinite; }
    .mini-line { stroke-width: 1.5; fill: none; opacity: 0.5; }
  </style>
  <rect width="100%" height="100%" fill="#0a0a1a" rx="6"/>
  <g class="mini-node">
    <line class="mini-line" stroke="#4ade80" x1="600" y1="60" x2="600" y2="180"/>
    <path class="mini-line" stroke="#64748b" d="M 600 60 C 600 76, 720 84, 720 100"/>
    <path class="mini-line" stroke="#64748b" d="M 720 100 C 720 132, 600 148, 600 180"/>
    <line class="mini-line" stroke="#4ade80" x1="600" y1="180" x2="600" y2="220"/>
    <line class="mini-line" stroke="#4ade80" x1="600" y1="220" x2="600" y2="340"/>
    <path class="mini-line" stroke="#64748b" d="M 600 220 C 600 236, 480 244, 480 260"/>
    <path class="mini-line" stroke="#64748b" d="M 480 260 C 480 292, 600 308, 600 340"/>
    <line class="mini-line" stroke="#4ade80" x1="600" y1="340" x2="600" y2="380"/>
    <line class="mini-line" stroke="#4ade80" x1="600" y1="380" x2="600" y2="420"/>
    <line class="mini-line" stroke="#4ade80" x1="600" y1="420" x2="600" y2="460"/>
    <line class="mini-line" stroke="#4ade80" x1="600" y1="460" x2="600" y2="500"/>
    <line class="mini-line" stroke="#4ade80" x1="600" y1="500" x2="600" y2="540"/>
    <line class="mini-line" stroke="#4ade80" x1="600" y1="540" x2="600" y2="580"/>
    <line class="mini-line" stroke="#4ade80" x1="600" y1="580" x2="600" y2="620"/>
    <line class="mini-line" stroke="#4ade80" x1="600" y1="620" x2="600" y2="740"/>
    <path class="mini-line" stroke="#64748b" d="M 600 620 C 600 636, 840 644, 840 660"/>
    <path class="mini-line" stroke="#64748b" d="M 840 660 C 840 692, 600 708, 600 740"/>
    <line class="mini-line" stroke="#4ade80" x1="600" y1="740" x2="600" y2="780"/>
    <line class="mini-line" stroke="#4ade80" x1="600" y1="780" x2="600" y2="900"/>
    <path class="mini-line" stroke="#64748b" d="M 600 780 C 600 796, 360 804, 360 820"/>
    <path class="mini-line" stroke="#64748b" d="M 360 820 C 360 852, 600 868, 600 900"/>
    <line class="mini-line" stroke="#4ade80" x1="600" y1="900" x2="600" y2="940"/>
    <line class="mini-line" stroke="#4ade80" x1="600" y1="940" x2="600" y2="980"/>
    <line class="mini-line" stroke="#4ade80" x1="600" y1="980" x2="600" y2="1020"/>
    <path class="mini-line" stroke="#64748b" d="M 600 980 C 600 1028, 960 1052, 960 1100"/>
    <line class="mini-line" stroke="#4ade80" x1="600" y1="1020" x2="600" y2="1060"/>
    <path class="mini-line" stroke="#64748b" d="M 600 1020 C 600 1084, 240 1116, 240 1180"/>
    <line class="mini-line" stroke="#4ade80" x1="600" y1="1060" x2="600" y2="1340"/>
    <path class="mini-line" stroke="#64748b" d="M 600 1060 C 600 1140, 1080 1180, 1080 1260"/>
    <path class="mini-line" stroke="#64748b" d="M 960 1100 C 960 1196, 600 1244, 600 1340"/>
    <path class="mini-line" stroke="#64748b" d="M 240 1180 C 240 1244, 600 1276, 600 1340"/>
    <path class="mini-line" stroke="#64748b" d="M 1080 1260 C 1080 1292, 600 1308, 600 1340"/>
    <line class="mini-line" stroke="#4ade80" x1="600" y1="1340" x2="600" y2="1380"/>
    <line class="mini-line" stroke="#4ade80" x1="600" y1="1380" x2="600" y2="1420"/>
    <path class="mini-line" stroke="#64748b" d="M 600 1380 C 600 1412, 120 1428, 120 1460"/>
    <line class="mini-line" stroke="#4ade80" x1="600" y1="1420" x2="600" y2="1620"/>
    <path class="mini-line" stroke="#64748b" d="M 600 1420 C 600 1468, 1200 1492, 1200 1540"/>
    <path class="mini-line" stroke="#64748b" d="M 120 1460 C 120 1524, 600 1556, 600 1620"/>
    <path class="mini-line" stroke="#64748b" d="M 1200 1540 C 1200 1572, 600 1588, 600 1620"/>
    <line class="mini-line" stroke="#4ade80" x1="600" y1="1620" x2="600" y2="1740"/>
    <path class="mini-line" stroke="#64748b" d="M 600 1620 C 600 1636, 0 1644, 0 1660"/>
    <path class="mini-line" stroke="#64748b" d="M 0 1660 C 0 1692, 600 1708, 600 1740"/>
    <line class="mini-line" stroke="#4ade80" x1="600" y1="1740" x2="600" y2="1780"/>
    <line class="mini-line" stroke="#4ade80" x1="600" y1="1780" x2="600" y2="1900"/>
    <path class="mini-line" stroke="#64748b" d="M 600 1780 C 600 1796, 1320 1804, 1320 1820"/>
    <path class="mini-line" stroke="#64748b" d="M 1320 1820 C 1320 1852, 600 1868, 600 1900"/>
    <line class="mini-line" stroke="#4ade80" x1="600" y1="1900" x2="600" y2="1940"/>
    <line class="mini-line" stroke="#4ade80" x1="600" y1="1940" x2="600" y2="1980"/>
    <line class="mini-line" stroke="#4ade80" x1="600" y1="1980" x2="600" y2="2100"/>
    <path class="mini-line" stroke="#64748b" d="M 600 1980 C 600 1996, -120 2004, -120 2020"/>
    <path class="mini-line" stroke="#64748b" d="M -120 2020 C -120 2100, 600 2140, 600 2220"/>
    <line class="mini-line" stroke="#4ade80" x1="600" y1="2100" x2="600" y2="2220"/>
    <path class="mini-line" stroke="#64748b" d="M 600 2100 C 600 2116, 1440 2124, 1440 2140"/>
    <path class="mini-line" stroke="#64748b" d="M 1440 2140 C 1440 2172, 600 2188, 600 2220"/>
    <line class="mini-line" stroke="#4ade80" x1="600" y1="2220" x2="600" y2="2260"/>
    <line class="mini-line" stroke="#4ade80" x1="600" y1="2260" x2="600" y2="2300"/>
    <line class="mini-line" stroke="#4ade80" x1="600" y1="2300" x2="600" y2="2340"/>
    <line class="mini-line" stroke="#4ade80" x1="600" y1="2340" x2="600" y2="2380"/>
    <line class="mini-line" stroke="#4ade80" x1="600" y1="2380" x2="600" y2="3140"/>
    <path class="mini-line" stroke="#64748b" d="M 600 2380 C 600 2428, 1560 2452, 1560 2500"/>
    <path class="mini-line" stroke="#64748b" d="M -240 2420 C -240 2724, 2040 2876, 2040 3180"/>
    <path class="mini-line" stroke="#64748b" d="M -240 2420 C -240 2484, -360 2516, -360 2580"/>
    <path class="mini-line" stroke="#64748b" d="M 1560 2500 C 1560 2564, 1680 2596, 1680 2660"/>
    <path class="mini-line" stroke="#64748b" d="M -360 2580 C -360 2644, -480 2676, -480 2740"/>
    <path class="mini-line" stroke="#64748b" d="M 1680 2660 C 1680 2724, 1800 2756, 1800 2820"/>
    <path class="mini-line" stroke="#64748b" d="M -480 2740 C -480 2804, -600 2836, -600 2900"/>
    <path class="mini-line" stroke="#64748b" d="M 1800 2820 C 1800 2884, 1920 2916, 1920 2980"/>
    <path class="mini-line" stroke="#64748b" d="M -600 2900 C -600 2964, -720 2996, -720 3060"/>
    <path class="mini-line" stroke="#64748b" d="M 1920 2980 C 1920 3044, 600 3076, 600 3140"/>
    <path class="mini-line" stroke="#64748b" d="M -720 3060 C -720 3108, 2040 3132, 2040 3180"/>
    <line class="mini-line" stroke="#4ade80" x1="600" y1="3140" x2="600" y2="3740"/>
    <path class="mini-line" stroke="#64748b" d="M 600 3140 C 600 3188, -840 3212, -840 3260"/>
    <path class="mini-line" stroke="#64748b" d="M 2040 3180 C 2040 3420, -1200 3540, -1200 3780"/>
    <path class="mini-line" stroke="#64748b" d="M 2040 3180 C 2040 3244, 2160 3276, 2160 3340"/>
    <path class="mini-line" stroke="#64748b" d="M -840 3260 C -840 3324, -960 3356, -960 3420"/>
    <path class="mini-line" stroke="#64748b" d="M 2160 3340 C 2160 3404, 2280 3436, 2280 3500"/>
    <path class="mini-line" stroke="#64748b" d="M -960 3420 C -960 3484, -1080 3516, -1080 3580"/>
    <path class="mini-line" stroke="#64748b" d="M 2280 3500 C 2280 3564, 2400 3596, 2400 3660"/>
    <path class="mini-line" stroke="#64748b" d="M -1080 3580 C -1080 3644, 600 3676, 600 3740"/>
    <path class="mini-line" stroke="#64748b" d="M 2400 3660 C 2400 3708, -1200 3732, -1200 3780"/>
    <line class="mini-line" stroke="#4ade80" x1="600" y1="3740" x2="600" y2="3860"/>
    <path class="mini-line" stroke="#64748b" d="M -1200 3780 C -1200 3828, 2520 3852, 2520 3900"/>
    <line class="mini-line" stroke="#4ade80" x1="600" y1="3860" x2="600" y2="3980"/>
    <path class="mini-line" stroke="#64748b" d="M 2520 3900 C 2520 3948, -1320 3972, -1320 4020"/>
    <line class="mini-line" stroke="#4ade80" x1="600" y1="3980" x2="600" y2="4100"/>
    <path class="mini-line" stroke="#64748b" d="M -1320 4020 C -1320 4068, 2640 4092, 2640 4140"/>
    <line class="mini-line" stroke="#4ade80" x1="600" y1="4100" x2="600" y2="4220"/>
    <path class="mini-line" stroke="#64748b" d="M 2640 4140 C 2640 4188, -1440 4212, -1440 4260"/>
    <line class="mini-line" stroke="#4ade80" x1="600" y1="4220" x2="600" y2="4980"/>
    <path class="mini-line" stroke="#64748b" d="M 600 4220 C 600 4268, 2760 4292, 2760 4340"/>
    <path class="mini-line" stroke="#64748b" d="M -1440 4260 C -1440 4564, 3240 4716, 3240 5020"/>
    <path class="mini-line" stroke="#64748b" d="M -1440 4260 C -1440 4324, -1560 4356, -1560 4420"/>
    <path class="mini-line" stroke="#64748b" d="M 2760 4340 C 2760 4404, 2880 4436, 2880 4500"/>
    <path class="mini-line" stroke="#64748b" d="M -1560 4420 C -1560 4484, -1680 4516, -1680 4580"/>
    <path class="mini-line" stroke="#64748b" d="M 2880 4500 C 2880 4564, 3000 4596, 3000 4660"/>
    <path class="mini-line" stroke="#64748b" d="M -1680 4580 C -1680 4644, -1800 4676, -1800 4740"/>
    <path class="mini-line" stroke="#64748b" d="M 3000 4660 C 3000 4724, 3120 4756, 3120 4820"/>
    <path class="mini-line" stroke="#64748b" d="M -1800 4740 C -1800 4804, -1920 4836, -1920 4900"/>
    <path class="mini-line" stroke="#64748b" d="M 3120 4820 C 3120 4884, 600 4916, 600 4980"/>
    <path class="mini-line" stroke="#64748b" d="M -1920 4900 C -1920 4948, 3240 4972, 3240 5020"/>
    <line class="mini-line" stroke="#4ade80" x1="600" y1="4980" x2="600" y2="7820"/>
    <path class="mini-line" stroke="#64748b" d="M 600 4980 C 600 5028, -2040 5052, -2040 5100"/>
    <path class="mini-line" stroke="#64748b" d="M 3240 5020 C 3240 6156, -4080 6724, -4080 7860"/>
    <path class="mini-line" stroke="#64748b" d="M 3240 5020 C 3240 5084, 3360 5116, 3360 5180"/>
    <path class="mini-line" stroke="#64748b" d="M -2040 5100 C -2040 5164, -2160 5196, -2160 5260"/>
    <path class="mini-line" stroke="#64748b" d="M 3360 5180 C 3360 5244, 3480 5276, 3480 5340"/>
    <path class="mini-line" stroke="#64748b" d="M -2160 5260 C -2160 5324, -2280 5356, -2280 5420"/>
    <path class="mini-line" stroke="#64748b" d="M 3480 5340 C 3480 5404, 3600 5436, 3600 5500"/>
    <path class="mini-line" stroke="#64748b" d="M -2280 5420 C -2280 5484, -2400 5516, -2400 5580"/>
    <path class="mini-line" stroke="#64748b" d="M 3600 5500 C 3600 5564, 3720 5596, 3720 5660"/>
    <path class="mini-line" stroke="#64748b" d="M -2400 5580 C -2400 5644, -2520 5676, -2520 5740"/>
    <path class="mini-line" stroke="#64748b" d="M 3720 5660 C 3720 5724, 3840 5756, 3840 5820"/>
    <path class="mini-line" stroke="#64748b" d="M -2520 5740 C -2520 5804, -2640 5836, -2640 5900"/>
    <path class="mini-line" stroke="#64748b" d="M 3840 5820 C 3840 5884, 3960 5916, 3960 5980"/>
    <path class="mini-line" stroke="#64748b" d="M -2640 5900 C -2640 5964, -2760 5996, -2760 6060"/>
    <path class="mini-line" stroke="#64748b" d="M 3960 5980 C 3960 6044, 4080 6076, 4080 6140"/>
    <path class="mini-line" stroke="#64748b" d="M -2760 6060 C -2760 6124, -2880 6156, -2880 6220"/>
    <path class="mini-line" stroke="#64748b" d="M 4080 6140 C 4080 6204, 4200 6236, 4200 6300"/>
    <path class="mini-line" stroke="#64748b" d="M -2880 6220 C -2880 6284, -3000 6316, -3000 6380"/>
    <path class="mini-line" stroke="#64748b" d="M 4200 6300 C 4200 6364, 4320 6396, 4320 6460"/>
    <path class="mini-line" stroke="#64748b" d="M -3000 6380 C -3000 6444, -3120 6476, -3120 6540"/>
    <path class="mini-line" stroke="#64748b" d="M 4320 6460 C 4320 6524, 4440 6556, 4440 6620"/>
    <path class="mini-line" stroke="#64748b" d="M -3120 6540 C -3120 6604, -3240 6636, -3240 6700"/>
    <path class="mini-line" stroke="#64748b" d="M 4440 6620 C 4440 6684, 4560 6716, 4560 6780"/>
    <path class="mini-line" stroke="#64748b" d="M -3240 6700 C -3240 6764, -3360 6796, -3360 6860"/>
    <path class="mini-line" stroke="#64748b" d="M 4560 6780 C 4560 6844, 4680 6876, 4680 6940"/>
    <path class="mini-line" stroke="#64748b" d="M -3360 6860 C -3360 6924, -3480 6956, -3480 7020"/>
    <path class="mini-line" stroke="#64748b" d="M 4680 6940 C 4680 7004, 4800 7036, 4800 7100"/>
    <path class="mini-line" stroke="#64748b" d="M -3480 7020 C -3480 7084, -3600 7116, -3600 7180"/>
    <path class="mini-line" stroke="#64748b" d="M 4800 7100 C 4800 7164, 4920 7196, 4920 7260"/>
    <path class="mini-line" stroke="#64748b" d="M -3600 7180 C -3600 7244, -3720 7276, -3720 7340"/>
    <path class="mini-line" stroke="#64748b" d="M 4920 7260 C 4920 7324, 5040 7356, 5040 7420"/>
    <path class="mini-line" stroke="#64748b" d="M -3720 7340 C -3720 7404, -3840 7436, -3840 7500"/>
    <path class="mini-line" stroke="#64748b" d="M 5040 7420 C 5040 7484, 5160 7516, 5160 7580"/>
    <path class="mini-line" stroke="#64748b" d="M -3840 7500 C -3840 7564, -3960 7596, -3960 7660"/>
    <path class="mini-line" stroke="#64748b" d="M 5160 7580 C 5160 7644, 5280 7676, 5280 7740"/>
    <path class="mini-line" stroke="#64748b" d="M -3960 7660 C -3960 7724, 600 7756, 600 7820"/>
    <path class="mini-line" stroke="#64748b" d="M 5280 7740 C 5280 7788, -4080 7812, -4080 7860"/>
    <line class="mini-line" stroke="#4ade80" x1="600" y1="7820" x2="600" y2="10020"/>
    <path class="mini-line" stroke="#64748b" d="M 600 7820 C 600 7868, 5400 7892, 5400 7940"/>
    <path class="mini-line" stroke="#64748b" d="M -4080 7860 C -4080 8740, 6960 9180, 6960 10060"/>
    <path class="mini-line" stroke="#64748b" d="M -4080 7860 C -4080 7924, -4200 7956, -4200 8020"/>
    <path class="mini-line" stroke="#64748b" d="M 5400 7940 C 5400 8004, 5520 8036, 5520 8100"/>
    <path class="mini-line" stroke="#64748b" d="M -4200 8020 C -4200 8084, -4320 8116, -4320 8180"/>
    <path class="mini-line" stroke="#64748b" d="M 5520 8100 C 5520 8164, 5640 8196, 5640 8260"/>
    <path class="mini-line" stroke="#64748b" d="M -4320 8180 C -4320 8244, -4440 8276, -4440 8340"/>
    <path class="mini-line" stroke="#64748b" d="M 5640 8260 C 5640 8324, 5760 8356, 5760 8420"/>
    <path class="mini-line" stroke="#64748b" d="M -4440 8340 C -4440 8404, -4560 8436, -4560 8500"/>
    <path class="mini-line" stroke="#64748b" d="M 5760 8420 C 5760 8484, 5880 8516, 5880 8580"/>
    <path class="mini-line" stroke="#64748b" d="M -4560 8500 C -4560 8564, -4680 8596, -4680 8660"/>
    <path class="mini-line" stroke="#64748b" d="M 5880 8580 C 5880 8644, 6000 8676, 6000 8740"/>
    <path class="mini-line" stroke="#64748b" d="M -4680 8660 C -4680 8724, -4800 8756, -4800 8820"/>
    <path class="mini-line" stroke="#64748b" d="M 6000 8740 C 6000 8804, 6120 8836, 6120 8900"/>
    <path class="mini-line" stroke="#64748b" d="M -4800 8820 C -4800 8884, -4920 8916, -4920 8980"/>
    <path class="mini-line" stroke="#64748b" d="M 6120 8900 C 6120 8964, 6240 8996, 6240 9060"/>
    <path class="mini-line" stroke="#64748b" d="M -4920 8980 C -4920 9044, -5040 9076, -5040 9140"/>
    <path class="mini-line" stroke="#64748b" d="M 6240 9060 C 6240 9124, 6360 9156, 6360 9220"/>
    <path class="mini-line" stroke="#64748b" d="M -5040 9140 C -5040 9204, -5160 9236, -5160 9300"/>
    <path class="mini-line" stroke="#64748b" d="M 6360 9220 C 6360 9284, 6480 9316, 6480 9380"/>
    <path class="mini-line" stroke="#64748b" d="M -5160 9300 C -5160 9364, -5280 9396, -5280 9460"/>
    <path class="mini-line" stroke="#64748b" d="M 6480 9380 C 6480 9444, 6600 9476, 6600 9540"/>
    <path class="mini-line" stroke="#64748b" d="M -5280 9460 C -5280 9524, -5400 9556, -5400 9620"/>
    <path class="mini-line" stroke="#64748b" d="M 6600 9540 C 6600 9604, 6720 9636, 6720 9700"/>
    <path class="mini-line" stroke="#64748b" d="M -5400 9620 C -5400 9684, -5520 9716, -5520 9780"/>
    <path class="mini-line" stroke="#64748b" d="M 6720 9700 C 6720 9764, 6840 9796, 6840 9860"/>
    <path class="mini-line" stroke="#64748b" d="M -5520 9780 C -5520 9844, -5640 9876, -5640 9940"/>
    <path class="mini-line" stroke="#64748b" d="M 6840 9860 C 6840 9924, 600 9956, 600 10020"/>
    <path class="mini-line" stroke="#64748b" d="M -5640 9940 C -5640 9988, 6960 10012, 6960 10060"/>
    <line class="mini-line" stroke="#4ade80" x1="600" y1="10020" x2="600" y2="10140"/>
    <path class="mini-line" stroke="#64748b" d="M 600 10020 C 600 10404, 7560 10596, 7560 10980"/>
    <path class="mini-line" stroke="#64748b" d="M 6960 10060 C 6960 10108, -5760 10132, -5760 10180"/>
    <path class="mini-line" stroke="#64748b" d="M 6960 10060 C 6960 10460, -6360 10660, -6360 11060"/>
    <line class="mini-line" stroke="#4ade80" x1="600" y1="10140" x2="600" y2="10260"/>
    <path class="mini-line" stroke="#64748b" d="M 600 10140 C 600 10236, -5880 10284, -5880 10380"/>
    <path class="mini-line" stroke="#64748b" d="M -5760 10180 C -5760 10228, 7080 10252, 7080 10300"/>
    <path class="mini-line" stroke="#64748b" d="M -5760 10180 C -5760 10292, 7200 10348, 7200 10460"/>
    <line class="mini-line" stroke="#4ade80" x1="600" y1="10260" x2="600" y2="10700"/>
    <path class="mini-line" stroke="#64748b" d="M 600 10260 C 600 10372, -6000 10428, -6000 10540"/>
    <path class="mini-line" stroke="#64748b" d="M 7080 10300 C 7080 10476, -6120 10564, -6120 10740"/>
    <path class="mini-line" stroke="#64748b" d="M 7080 10300 C 7080 10428, 7320 10492, 7320 10620"/>
    <path class="mini-line" stroke="#64748b" d="M -5880 10380 C -5880 10684, 600 10836, 600 11140"/>
    <path class="mini-line" stroke="#64748b" d="M 7200 10460 C 7200 10748, 7680 10892, 7680 11180"/>
    <path class="mini-line" stroke="#64748b" d="M -6000 10540 C -6000 10780, 600 10900, 600 11140"/>
    <path class="mini-line" stroke="#64748b" d="M 7320 10620 C 7320 10844, 7680 10956, 7680 11180"/>
    <line class="mini-line" stroke="#4ade80" x1="600" y1="10700" x2="600" y2="11140"/>
    <path class="mini-line" stroke="#64748b" d="M 600 10700 C 600 10748, 7440 10772, 7440 10820"/>
    <path class="mini-line" stroke="#64748b" d="M -6120 10740 C -6120 10916, 7680 11004, 7680 11180"/>
    <path class="mini-line" stroke="#64748b" d="M -6120 10740 C -6120 10804, -6240 10836, -6240 10900"/>
    <path class="mini-line" stroke="#64748b" d="M 7440 10820 C 7440 10948, 600 11012, 600 11140"/>
    <path class="mini-line" stroke="#64748b" d="M -6240 10900 C -6240 11012, 7680 11068, 7680 11180"/>
    <path class="mini-line" stroke="#64748b" d="M 7560 10980 C 7560 11044, 600 11076, 600 11140"/>
    <path class="mini-line" stroke="#64748b" d="M -6360 11060 C -6360 11108, 7680 11132, 7680 11180"/>
    <circle cx="600" cy="60" r="7" fill="#c084fc" opacity="0.9"/>
    <circle cx="720" cy="100" r="4" fill="#4ade80" opacity="0.9"/>
    <circle cx="600" cy="180" r="6" fill="#fb923c" opacity="0.9"/>
    <circle cx="600" cy="220" r="7" fill="#c084fc" opacity="0.9"/>
    <circle cx="480" cy="260" r="4" fill="#4ade80" opacity="0.9"/>
    <circle cx="600" cy="340" r="6" fill="#fb923c" opacity="0.9"/>
    <circle cx="600" cy="380" r="4" fill="#4ade80" opacity="0.9"/>
    <circle cx="600" cy="420" r="4" fill="#4ade80" opacity="0.9"/>
    <circle cx="600" cy="460" r="4" fill="#4ade80" opacity="0.9"/>
    <circle cx="600" cy="500" r="4" fill="#4ade80" opacity="0.9"/>
    <circle cx="600" cy="540" r="4" fill="#4ade80" opacity="0.9"/>
    <circle cx="600" cy="580" r="4" fill="#4ade80" opacity="0.9"/>
    <circle cx="600" cy="620" r="7" fill="#c084fc" opacity="0.9"/>
    <circle cx="840" cy="660" r="4" fill="#4ade80" opacity="0.9"/>
    <circle cx="600" cy="740" r="6" fill="#fb923c" opacity="0.9"/>
    <circle cx="600" cy="780" r="7" fill="#c084fc" opacity="0.9"/>
    <circle cx="360" cy="820" r="4" fill="#4ade80" opacity="0.9"/>
    <circle cx="600" cy="900" r="6" fill="#fb923c" opacity="0.9"/>
    <circle cx="600" cy="940" r="4" fill="#4ade80" opacity="0.9"/>
    <circle cx="600" cy="980" r="7" fill="#c084fc" opacity="0.9"/>
    <circle cx="600" cy="1020" r="7" fill="#c084fc" opacity="0.9"/>
    <circle cx="600" cy="1060" r="7" fill="#c084fc" opacity="0.9"/>
    <circle cx="960" cy="1100" r="4" fill="#4ade80" opacity="0.9"/>
    <circle cx="240" cy="1180" r="4" fill="#4ade80" opacity="0.9"/>
    <circle cx="1080" cy="1260" r="4" fill="#4ade80" opacity="0.9"/>
    <circle cx="600" cy="1340" r="6" fill="#fb923c" opacity="0.9"/>
    <circle cx="600" cy="1380" r="7" fill="#c084fc" opacity="0.9"/>
    <circle cx="600" cy="1420" r="7" fill="#c084fc" opacity="0.9"/>
    <circle cx="120" cy="1460" r="4" fill="#4ade80" opacity="0.9"/>
    <circle cx="1200" cy="1540" r="4" fill="#4ade80" opacity="0.9"/>
    <circle cx="600" cy="1620" r="7" fill="#c084fc" opacity="0.9"/>
    <circle cx="0" cy="1660" r="4" fill="#4ade80" opacity="0.9"/>
    <circle cx="600" cy="1740" r="6" fill="#fb923c" opacity="0.9"/>
    <circle cx="600" cy="1780" r="7" fill="#c084fc" opacity="0.9"/>
    <circle cx="1320" cy="1820" r="4" fill="#4ade80" opacity="0.9"/>
    <circle cx="600" cy="1900" r="6" fill="#fb923c" opacity="0.9"/>
    <circle cx="600" cy="1940" r="4" fill="#4ade80" opacity="0.9"/>
    <circle cx="600" cy="1980" r="7" fill="#c084fc" opacity="0.9"/>
    <circle cx="-120" cy="2020" r="4" fill="#4ade80" opacity="0.9"/>
    <circle cx="600" cy="2100" r="7" fill="#c084fc" opacity="0.9"/>
    <circle cx="1440" cy="2140" r="4" fill="#4ade80" opacity="0.9"/>
    <circle cx="600" cy="2220" r="6" fill="#fb923c" opacity="0.9"/>
    <circle cx="600" cy="2260" r="4" fill="#4ade80" opacity="0.9"/>
    <circle cx="600" cy="2300" r="4" fill="#4ade80" opacity="0.9"/>
    <circle cx="600" cy="2340" r="4" fill="#4ade80" opacity="0.9"/>
    <circle cx="600" cy="2380" r="7" fill="#c084fc" opacity="0.9"/>
    <circle cx="-240" cy="2420" r="7" fill="#c084fc" opacity="0.9"/>
    <circle cx="1560" cy="2500" r="4" fill="#4ade80" opacity="0.9"/>
    <circle cx="-360" cy="2580" r="4" fill="#4ade80" opacity="0.9"/>
    <circle cx="1680" cy="2660" r="4" fill="#4ade80" opacity="0.9"/>
    <circle cx="-480" cy="2740" r="4" fill="#4ade80" opacity="0.9"/>
    <circle cx="1800" cy="2820" r="4" fill="#4ade80" opacity="0.9"/>
    <circle cx="-600" cy="2900" r="4" fill="#4ade80" opacity="0.9"/>
    <circle cx="1920" cy="2980" r="4" fill="#4ade80" opacity="0.9"/>
    <circle cx="-720" cy="3060" r="4" fill="#4ade80" opacity="0.9"/>
    <circle cx="600" cy="3140" r="7" fill="#c084fc" opacity="0.9"/>
    <circle cx="2040" cy="3180" r="7" fill="#c084fc" opacity="0.9"/>
    <circle cx="-840" cy="3260" r="4" fill="#4ade80" opacity="0.9"/>
    <circle cx="2160" cy="3340" r="4" fill="#4ade80" opacity="0.9"/>
    <circle cx="-960" cy="3420" r="4" fill="#4ade80" opacity="0.9"/>
    <circle cx="2280" cy="3500" r="4" fill="#4ade80" opacity="0.9"/>
    <circle cx="-1080" cy="3580" r="4" fill="#4ade80" opacity="0.9"/>
    <circle cx="2400" cy="3660" r="4" fill="#4ade80" opacity="0.9"/>
    <circle cx="600" cy="3740" r="6" fill="#fb923c" opacity="0.9"/>
    <circle cx="-1200" cy="3780" r="6" fill="#fb923c" opacity="0.9"/>
    <circle cx="600" cy="3860" r="4" fill="#4ade80" opacity="0.9"/>
    <circle cx="2520" cy="3900" r="4" fill="#4ade80" opacity="0.9"/>
    <circle cx="600" cy="3980" r="4" fill="#4ade80" opacity="0.9"/>
    <circle cx="-1320" cy="4020" r="4" fill="#4ade80" opacity="0.9"/>
    <circle cx="600" cy="4100" r="4" fill="#4ade80" opacity="0.9"/>
    <circle cx="2640" cy="4140" r="4" fill="#4ade80" opacity="0.9"/>
    <circle cx="600" cy="4220" r="7" fill="#c084fc" opacity="0.9"/>
    <circle cx="-1440" cy="4260" r="7" fill="#c084fc" opacity="0.9"/>
    <circle cx="2760" cy="4340" r="4" fill="#4ade80" opacity="0.9"/>
    <circle cx="-1560" cy="4420" r="4" fill="#4ade80" opacity="0.9"/>
    <circle cx="2880" cy="4500" r="4" fill="#4ade80" opacity="0.9"/>
    <circle cx="-1680" cy="4580" r="4" fill="#4ade80" opacity="0.9"/>
    <circle cx="3000" cy="4660" r="4" fill="#4ade80" opacity="0.9"/>
    <circle cx="-1800" cy="4740" r="4" fill="#4ade80" opacity="0.9"/>
    <circle cx="3120" cy="4820" r="4" fill="#4ade80" opacity="0.9"/>
    <circle cx="-1920" cy="4900" r="4" fill="#4ade80" opacity="0.9"/>
    <circle cx="600" cy="4980" r="7" fill="#c084fc" opacity="0.9"/>
    <circle cx="3240" cy="5020" r="7" fill="#c084fc" opacity="0.9"/>
    <circle cx="-2040" cy="5100" r="4" fill="#4ade80" opacity="0.9"/>
    <circle cx="3360" cy="5180" r="4" fill="#4ade80" opacity="0.9"/>
    <circle cx="-2160" cy="5260" r="4" fill="#4ade80" opacity="0.9"/>
    <circle cx="3480" cy="5340" r="4" fill="#4ade80" opacity="0.9"/>
    <circle cx="-2280" cy="5420" r="4" fill="#4ade80" opacity="0.9"/>
    <circle cx="3600" cy="5500" r="4" fill="#4ade80" opacity="0.9"/>
    <circle cx="-2400" cy="5580" r="4" fill="#4ade80" opacity="0.9"/>
    <circle cx="3720" cy="5660" r="4" fill="#4ade80" opacity="0.9"/>
    <circle cx="-2520" cy="5740" r="4" fill="#4ade80" opacity="0.9"/>
    <circle cx="3840" cy="5820" r="4" fill="#4ade80" opacity="0.9"/>
    <circle cx="-2640" cy="5900" r="4" fill="#4ade80" opacity="0.9"/>
    <circle cx="3960" cy="5980" r="4" fill="#4ade80" opacity="0.9"/>
    <circle cx="-2760" cy="6060" r="4" fill="#4ade80" opacity="0.9"/>
    <circle cx="4080" cy="6140" r="4" fill="#4ade80" opacity="0.9"/>
    <circle cx="-2880" cy="6220" r="4" fill="#4ade80" opacity="0.9"/>
    <circle cx="4200" cy="6300" r="4" fill="#4ade80" opacity="0.9"/>
    <circle cx="-3000" cy="6380" r="4" fill="#4ade80" opacity="0.9"/>
    <circle cx="4320" cy="6460" r="4" fill="#4ade80" opacity="0.9"/>
    <circle cx="-3120" cy="6540" r="4" fill="#4ade80" opacity="0.9"/>
    <circle cx="4440" cy="6620" r="4" fill="#4ade80" opacity="0.9"/>
    <circle cx="-3240" cy="6700" r="4" fill="#4ade80" opacity="0.9"/>
    <circle cx="4560" cy="6780" r="4" fill="#4ade80" opacity="0.9"/>
    <circle cx="-3360" cy="6860" r="4" fill="#4ade80" opacity="0.9"/>
    <circle cx="4680" cy="6940" r="4" fill="#4ade80" opacity="0.9"/>
    <circle cx="-3480" cy="7020" r="4" fill="#4ade80" opacity="0.9"/>
    <circle cx="4800" cy="7100" r="4" fill="#4ade80" opacity="0.9"/>
    <circle cx="-3600" cy="7180" r="4" fill="#4ade80" opacity="0.9"/>
    <circle cx="4920" cy="7260" r="4" fill="#4ade80" opacity="0.9"/>
    <circle cx="-3720" cy="7340" r="4" fill="#4ade80" opacity="0.9"/>
    <circle cx="5040" cy="7420" r="4" fill="#4ade80" opacity="0.9"/>
    <circle cx="-3840" cy="7500" r="4" fill="#4ade80" opacity="0.9"/>
    <circle cx="5160" cy="7580" r="4" fill="#4ade80" opacity="0.9"/>
    <circle cx="-3960" cy="7660" r="4" fill="#4ade80" opacity="0.9"/>
    <circle cx="5280" cy="7740" r="4" fill="#4ade80" opacity="0.9"/>
    <circle cx="600" cy="7820" r="7" fill="#c084fc" opacity="0.9"/>
    <circle cx="-4080" cy="7860" r="7" fill="#c084fc" opacity="0.9"/>
    <circle cx="5400" cy="7940" r="4" fill="#4ade80" opacity="0.9"/>
    <circle cx="-4200" cy="8020" r="4" fill="#4ade80" opacity="0.9"/>
    <circle cx="5520" cy="8100" r="4" fill="#4ade80" opacity="0.9"/>
    <circle cx="-4320" cy="8180" r="4" fill="#4ade80" opacity="0.9"/>
    <circle cx="5640" cy="8260" r="4" fill="#4ade80" opacity="0.9"/>
    <circle cx="-4440" cy="8340" r="4" fill="#4ade80" opacity="0.9"/>
    <circle cx="5760" cy="8420" r="4" fill="#4ade80" opacity="0.9"/>
    <circle cx="-4560" cy="8500" r="4" fill="#4ade80" opacity="0.9"/>
    <circle cx="5880" cy="8580" r="4" fill="#4ade80" opacity="0.9"/>
    <circle cx="-4680" cy="8660" r="4" fill="#4ade80" opacity="0.9"/>
    <circle cx="6000" cy="8740" r="4" fill="#4ade80" opacity="0.9"/>
    <circle cx="-4800" cy="8820" r="4" fill="#4ade80" opacity="0.9"/>
    <circle cx="6120" cy="8900" r="4" fill="#4ade80" opacity="0.9"/>
    <circle cx="-4920" cy="8980" r="4" fill="#4ade80" opacity="0.9"/>
    <circle cx="6240" cy="9060" r="4" fill="#4ade80" opacity="0.9"/>
    <circle cx="-5040" cy="9140" r="4" fill="#4ade80" opacity="0.9"/>
    <circle cx="6360" cy="9220" r="4" fill="#4ade80" opacity="0.9"/>
    <circle cx="-5160" cy="9300" r="4" fill="#4ade80" opacity="0.9"/>
    <circle cx="6480" cy="9380" r="4" fill="#4ade80" opacity="0.9"/>
    <circle cx="-5280" cy="9460" r="4" fill="#4ade80" opacity="0.9"/>
    <circle cx="6600" cy="9540" r="4" fill="#4ade80" opacity="0.9"/>
    <circle cx="-5400" cy="9620" r="4" fill="#4ade80" opacity="0.9"/>
    <circle cx="6720" cy="9700" r="4" fill="#4ade80" opacity="0.9"/>
    <circle cx="-5520" cy="9780" r="4" fill="#4ade80" opacity="0.9"/>
    <circle cx="6840" cy="9860" r="4" fill="#4ade80" opacity="0.9"/>
    <circle cx="-5640" cy="9940" r="4" fill="#4ade80" opacity="0.9"/>
    <circle cx="600" cy="10020" r="7" fill="#c084fc" opacity="0.9"/>
    <circle cx="6960" cy="10060" r="7" fill="#c084fc" opacity="0.9"/>
    <circle cx="600" cy="10140" r="7" fill="#c084fc" opacity="0.9"/>
    <circle cx="-5760" cy="10180" r="7" fill="#c084fc" opacity="0.9"/>
    <circle cx="600" cy="10260" r="7" fill="#c084fc" opacity="0.9"/>
    <circle cx="7080" cy="10300" r="7" fill="#c084fc" opacity="0.9"/>
    <circle cx="-5880" cy="10380" r="4" fill="#4ade80" opacity="0.9"/>
    <circle cx="7200" cy="10460" r="4" fill="#4ade80" opacity="0.9"/>
    <circle cx="-6000" cy="10540" r="4" fill="#4ade80" opacity="0.9"/>
    <circle cx="7320" cy="10620" r="4" fill="#4ade80" opacity="0.9"/>
    <circle cx="600" cy="10700" r="7" fill="#c084fc" opacity="0.9"/>
    <circle cx="-6120" cy="10740" r="7" fill="#c084fc" opacity="0.9"/>
    <circle cx="7440" cy="10820" r="4" fill="#4ade80" opacity="0.9"/>
    <circle cx="-6240" cy="10900" r="4" fill="#4ade80" opacity="0.9"/>
    <circle cx="7560" cy="10980" r="4" fill="#4ade80" opacity="0.9"/>
    <circle cx="-6360" cy="11060" r="4" fill="#4ade80" opacity="0.9"/>
    <circle cx="600" cy="11140" r="6" fill="#fb923c" opacity="0.9"/>
    <circle cx="7680" cy="11180" r="6" fill="#fb923c" opacity="0.9"/>
  </g>
</svg>
