<?xml version="1.0" encoding="UTF-8"?>
<svg xmlns="http://www.w3.org/2000/svg"
     width="300" height="231"
     viewBox="-6260 40 13840 10680">
  <style>
    @keyframes sway {
      0%   { transform: translateX(0); }
      25%  { transform: translateX(3px); }
      50%  { transform: translateX(-2px); }
      75%  { transform: translateX(4px); }
      100% { transform: translateX(0); }
    }
    .mini-node { animation: sway 4s ease-in-out infinite; }
    .mini-line { stroke-width: 1.5; fill: none; opacity: 0.5; }
  </style>
  <rect width="100%" height="100%" fill="#0a0a1a" rx="6"/>
  <g class="mini-node">
    <line class="mini-line" stroke="#4ade80" x1="600" y1="60" x2="600" y2="100"/>
    <line class="mini-line" stroke="#4ade80" x1="600" y1="100" x2="600" y2="140"/>
    <line class="mini-line" stroke="#4ade80" x1="600" y1="140" x2="600" y2="260"/>
    <path class="mini-line" stroke="#64748b" d="M 600 140 C 600 156, 720 164, 720 180"/>
    <path class="mini-line" stroke="#64748b" d="M 720 180 C 720 212, 600 228, 600 260"/>
    <line class="mini-line" stroke="#4ade80" x1="600" y1="260" x2="600" y2="300"/>
    <line class="mini-line" stroke="#4ade80" x1="600" y1="300" x2="600" y2="420"/>
    <path class="mini-line" stroke="#64748b" d="M 600 300 C 600 316, 480 324, 480 340"/>
    <path class="mini-line" stroke="#64748b" d="M 480 340 C 480 372, 600 388, 600 420"/>
    <line class="mini-line" stroke="#4ade80" x1="600" y1="420" x2="600" y2="460"/>
    <line class="mini-line" stroke="#4ade80" x1="600" y1="460" x2="600" y2="500"/>
    <line class="mini-line" stroke="#4ade80" x1="600" y1="500" x2="600" y2="540"/>
    <path class="mini-line" stroke="#64748b" d="M 600 500 C 600 548, 840 572, 840 620"/>
    <line class="mini-line" stroke="#4ade80" x1="600" y1="540" x2="600" y2="580"/>
    <path class="mini-line" stroke="#64748b" d="M 600 540 C 600 604, 360 636, 360 700"/>
    <line class="mini-line" stroke="#4ade80" x1="600" y1="580" x2="600" y2="860"/>
    <path class="mini-line" stroke="#64748b" d="M 600 580 C 600 660, 960 700, 960 780"/>
    <path class="mini-line" stroke="#64748b" d="M 840 620 C 840 716, 600 764, 600 860"/>
    <path class="mini-line" stroke="#64748b" d="M 360 700 C 360 764, 600 796, 600 860"/>
    <path class="mini-line" stroke="#64748b" d="M 960 780 C 960 812, 600 828, 600 860"/>
    <line class="mini-line" stroke="#4ade80" x1="600" y1="860" x2="600" y2="900"/>
    <line class="mini-line" stroke="#4ade80" x1="600" y1="900" x2="600" y2="940"/>
    <path class="mini-line" stroke="#64748b" d="M 600 900 C 600 932, 240 948, 240 980"/>
    <line class="mini-line" stroke="#4ade80" x1="600" y1="940" x2="600" y2="1140"/>
    <path class="mini-line" stroke="#64748b" d="M 600 940 C 600 988, 1080 1012, 1080 1060"/>
    <path class="mini-line" stroke="#64748b" d="M 240 980 C 240 1044, 600 1076, 600 1140"/>
    <path class="mini-line" stroke="#64748b" d="M 1080 1060 C 1080 1092, 600 1108, 600 1140"/>
    <line class="mini-line" stroke="#4ade80" x1="600" y1="1140" x2="600" y2="1260"/>
    <path class="mini-line" stroke="#64748b" d="M 600 1140 C 600 1156, 120 1164, 120 1180"/>
    <path class="mini-line" stroke="#64748b" d="M 120 1180 C 120 1212, 600 1228, 600 1260"/>
    <line class="mini-line" stroke="#4ade80" x1="600" y1="1260" x2="600" y2="1300"/>
    <line class="mini-line" stroke="#4ade80" x1="600" y1="1300" x2="600" y2="1420"/>
    <path class="mini-line" stroke="#64748b" d="M 600 1300 C 600 1316, 1200 1324, 1200 1340"/>
    <path class="mini-line" stroke="#64748b" d="M 1200 1340 C 1200 1372, 600 1388, 600 1420"/>
    <line class="mini-line" stroke="#4ade80" x1="600" y1="1420" x2="600" y2="1460"/>
    <line class="mini-line" stroke="#4ade80" x1="600" y1="1460" x2="600" y2="1500"/>
    <line class="mini-line" stroke="#4ade80" x1="600" y1="1500" x2="600" y2="1620"/>
    <path class="mini-line" stroke="#64748b" d="M 600 1500 C 600 1516, 0 1524, 0 1540"/>
    <path class="mini-line" stroke="#64748b" d="M 0 1540 C 0 1620, 600 1660, 600 1740"/>
    <line class="mini-line" stroke="#4ade80" x1="600" y1="1620" x2="600" y2="1740"/>
    <path class="mini-line" stroke="#64748b" d="M 600 1620 C 600 1636, 1320 1644, 1320 1660"/>
    <path class="mini-line" stroke="#64748b" d="M 1320 1660 C 1320 1692, 600 1708, 600 1740"/>
    <line class="mini-line" stroke="#4ade80" x1="600" y1="1740" x2="600" y2="1780"/>
    <line class="mini-line" stroke="#4ade80" x1="600" y1="1780" x2="600" y2="1820"/>
    <line class="mini-line" stroke="#4ade80" x1="600" y1="1820" x2="600" y2="1860"/>
    <line class="mini-line" stroke="#4ade80" x1="600" y1="1860" x2="600" y2="1900"/>
    <line class="mini-line" stroke="#4ade80" x1="600" y1="1900" x2="600" y2="2660"/>
    <path class="mini-line" stroke="#64748b" d="M 600 1900 C 600 1948, 1440 1972, 1440 2020"/>
    <path class="mini-line" stroke="#64748b" d="M -120 1940 C -120 2244, 1920 2396, 1920 2700"/>
    <path class="mini-line" stroke="#64748b" d="M -120 1940 C -120 2004, -240 2036, -240 2100"/>
    <path class="mini-line" stroke="#64748b" d="M 1440 2020 C 1440 2084, 1560 2116, 1560 2180"/>
    <path class="mini-line" stroke="#64748b" d="M -240 2100 C -240 2164, -360 2196, -360 2260"/>
    <path class="mini-line" stroke="#64748b" d="M 1560 2180 C 1560 2244, 1680 2276, 1680 2340"/>
    <path class="mini-line" stroke="#64748b" d="M -360 2260 C -360 2324, -480 2356, -480 2420"/>
    <path class="mini-line" stroke="#64748b" d="M 1680 2340 C 1680 2404, 1800 2436, 1800 2500"/>
    <path class="mini-line" stroke="#64748b" d="M -480 2420 C -480 2484, -600 2516, -600 2580"/>
    <path class="mini-line" stroke="#64748b" d="M 1800 2500 C 1800 2564, 600 2596, 600 2660"/>
    <path class="mini-line" stroke="#64748b" d="M -600 2580 C -600 2628, 1920 2652, 1920 2700"/>
    <line class="mini-line" stroke="#4ade80" x1="600" y1="2660" x2="600" y2="3260"/>
    <path class="mini-line" stroke="#64748b" d="M 600 2660 C 600 2708, -720 2732, -720 2780"/>
    <path class="mini-line" stroke="#64748b" d="M 1920 2700 C 1920 2940, -1080 3060, -1080 3300"/>
    <path class="mini-line" stroke="#64748b" d="M 1920 2700 C 1920 2764, 2040 2796, 2040 2860"/>
    <path class="mini-line" stroke="#64748b" d="M -720 2780 C -720 2844, -840 2876, -840 2940"/>
    <path class="mini-line" stroke="#64748b" d="M 2040 2860 C 2040 2924, 2160 2956, 2160 3020"/>
    <path class="mini-line" stroke="#64748b" d="M -840 2940 C -840 3004, -960 3036, -960 3100"/>
    <path class="mini-line" stroke="#64748b" d="M 2160 3020 C 2160 3084, 2280 3116, 2280 3180"/>
    <path class="mini-line" stroke="#64748b" d="M -960 3100 C -960 3164, 600 3196, 600 3260"/>
    <path class="mini-line" stroke="#64748b" d="M 2280 3180 C 2280 3228, -1080 3252, -1080 3300"/>
    <line class="mini-line" stroke="#4ade80" x1="600" y1="3260" x2="600" y2="3380"/>
    <path class="mini-line" stroke="#64748b" d="M -1080 3300 C -1080 3348, 2400 3372, 2400 3420"/>
    <line class="mini-line" stroke="#4ade80" x1="600" y1="3380" x2="600" y2="3500"/>
    <path class="mini-line" stroke="#64748b" d="M 2400 3420 C 2400 3468, -1200 3492, -1200 3540"/>
    <line class="mini-line" stroke="#4ade80" x1="600" y1="3500" x2="600" y2="3620"/>
    <path class="mini-line" stroke="#64748b" d="M -1200 3540 C -1200 3588, 2520 3612, 2520 3660"/>
    <line class="mini-line" stroke="#4ade80" x1="600" y1="3620" x2="600" y2="3740"/>
    <path class="mini-line" stroke="#64748b" d="M 2520 3660 C 2520 3708, -1320 3732, -1320 3780"/>
    <line class="mini-line" stroke="#4ade80" x1="600" y1="3740" x2="600" y2="4500"/>
    <path class="mini-line" stroke="#64748b" d="M 600 3740 C 600 3788, 2640 3812, 2640 3860"/>
    <path class="mini-line" stroke="#64748b" d="M -1320 3780 C -1320 4084, 3120 4236, 3120 4540"/>
    <path class="mini-line" stroke="#64748b" d="M -1320 3780 C -1320 3844, -1440 3876, -1440 3940"/>
    <path class="mini-line" stroke="#64748b" d="M 2640 3860 C 2640 3924, 2760 3956, 2760 4020"/>
    <path class="mini-line" stroke="#64748b" d="M -1440 3940 C -1440 4004, -1560 4036, -1560 4100"/>
    <path class="mini-line" stroke="#64748b" d="M 2760 4020 C 2760 4084, 2880 4116, 2880 4180"/>
    <path class="mini-line" stroke="#64748b" d="M -1560 4100 C -1560 4164, -1680 4196, -1680 4260"/>
    <path class="mini-line" stroke="#64748b" d="M 2880 4180 C 2880 4244, 3000 4276, 3000 4340"/>
    <path class="mini-line" stroke="#64748b" d="M -1680 4260 C -1680 4324, -1800 4356, -1800 4420"/>
    <path class="mini-line" stroke="#64748b" d="M 3000 4340 C 3000 4404, 600 4436, 600 4500"/>
    <path class="mini-line" stroke="#64748b" d="M -1800 4420 C -1800 4468, 3120 4492, 3120 4540"/>
    <line class="mini-line" stroke="#4ade80" x1="600" y1="4500" x2="600" y2="7340"/>
    <path class="mini-line" stroke="#64748b" d="M 600 4500 C 600 4548, -1920 4572, -1920 4620"/>
    <path class="mini-line" stroke="#64748b" d="M 3120 4540 C 3120 5676, -3960 6244, -3960 7380"/>
    <path class="mini-line" stroke="#64748b" d="M 3120 4540 C 3120 4604, 3240 4636, 3240 4700"/>
    <path class="mini-line" stroke="#64748b" d="M -1920 4620 C -1920 4684, -2040 4716, -2040 4780"/>
    <path class="mini-line" stroke="#64748b" d="M 3240 4700 C 3240 4764, 3360 4796, 3360 4860"/>
    <path class="mini-line" stroke="#64748b" d="M -2040 4780 C -2040 4844, -2160 4876, -2160 4940"/>
    <path class="mini-line" stroke="#64748b" d="M 3360 4860 C 3360 4924, 3480 4956, 3480 5020"/>
    <path class="mini-line" stroke="#64748b" d="M -2160 4940 C -2160 5004, -2280 5036, -2280 5100"/>
    <path class="mini-line" stroke="#64748b" d="M 3480 5020 C 3480 5084, 3600 5116, 3600 5180"/>
    <path class="mini-line" stroke="#64748b" d="M -2280 5100 C -2280 5164, -2400 5196, -2400 5260"/>
    <path class="mini-line" stroke="#64748b" d="M 3600 5180 C 3600 5244, 3720 5276, 3720 5340"/>
    <path class="mini-line" stroke="#64748b" d="M -2400 5260 C -2400 5324, -2520 5356, -2520 5420"/>
    <path class="mini-line" stroke="#64748b" d="M 3720 5340 C 3720 5404, 3840 5436, 3840 5500"/>
    <path class="mini-line" stroke="#64748b" d="M -2520 5420 C -2520 5484, -2640 5516, -2640 5580"/>
    <path class="mini-line" stroke="#64748b" d="M 3840 5500 C 3840 5564, 3960 5596, 3960 5660"/>
    <path class="mini-line" stroke="#64748b" d="M -2640 5580 C -2640 5644, -2760 5676, -2760 5740"/>
    <path class="mini-line" stroke="#64748b" d="M 3960 5660 C 3960 5724, 4080 5756, 4080 5820"/>
    <path class="mini-line" stroke="#64748b" d="M -2760 5740 C -2760 5804, -2880 5836, -2880 5900"/>
    <path class="mini-line" stroke="#64748b" d="M 4080 5820 C 4080 5884, 4200 5916, 4200 5980"/>
    <path class="mini-line" stroke="#64748b" d="M -2880 5900 C -2880 5964, -3000 5996, -3000 6060"/>
    <path class="mini-line" stroke="#64748b" d="M 4200 5980 C 4200 6044, 4320 6076, 4320 6140"/>
    <path class="mini-line" stroke="#64748b" d="M -3000 6060 C -3000 6124, -3120 6156, -3120 6220"/>
    <path class="mini-line" stroke="#64748b" d="M 4320 6140 C 4320 6204, 4440 6236, 4440 6300"/>
    <path class="mini-line" stroke="#64748b" d="M -3120 6220 C -3120 6284, -3240 6316, -3240 6380"/>
    <path class="mini-line" stroke="#64748b" d="M 4440 6300 C 4440 6364, 4560 6396, 4560 6460"/>
    <path class="mini-line" stroke="#64748b" d="M -3240 6380 C -3240 6444, -3360 6476, -3360 6540"/>
    <path class="mini-line" stroke="#64748b" d="M 4560 6460 C 4560 6524, 4680 6556, 4680 6620"/>
    <path class="mini-line" stroke="#64748b" d="M -3360 6540 C -3360 6604, -3480 6636, -3480 6700"/>
    <path class="mini-line" stroke="#64748b" d="M 4680 6620 C 4680 6684, 4800 6716, 4800 6780"/>
    <path class="mini-line" stroke="#64748b" d="M -3480 6700 C -3480 6764, -3600 6796, -3600 6860"/>
    <path class="mini-line" stroke="#64748b" d="M 4800 6780 C 4800 6844, 4920 6876, 4920 6940"/>
    <path class="mini-line" stroke="#64748b" d="M -3600 6860 C -3600 6924, -3720 6956, -3720 7020"/>
    <path class="mini-line" stroke="#64748b" d="M 4920 6940 C 4920 7004, 5040 7036, 5040 7100"/>
    <path class="mini-line" stroke="#64748b" d="M -3720 7020 C -3720 7084, -3840 7116, -3840 7180"/>
    <path class="mini-line" stroke="#64748b" d="M 5040 7100 C 5040 7164, 5160 7196, 5160 7260"/>
    <path class="mini-line" stroke="#64748b" d="M -3840 7180 C -3840 7244, 600 7276, 600 7340"/>
    <path class="mini-line" stroke="#64748b" d="M 5160 7260 C 5160 7308, -3960 7332, -3960 7380"/>
    <line class="mini-line" stroke="#4ade80" x1="600" y1="7340" x2="600" y2="9540"/>
    <path class="mini-line" stroke="#64748b" d="M 600 7340 C 600 7388, 5280 7412, 5280 7460"/>
    <path class="mini-line" stroke="#64748b" d="M -3960 7380 C -3960 8260, 6840 8700, 6840 9580"/>
    <path class="mini-line" stroke="#64748b" d="M -3960 7380 C -3960 7444, -4080 7476, -4080 7540"/>
    <path class="mini-line" stroke="#64748b" d="M 5280 7460 C 5280 7524, 5400 7556, 5400 7620"/>
    <path class="mini-line" stroke="#64748b" d="M -4080 7540 C -4080 7604, -4200 7636, -4200 7700"/>
    <path class="mini-line" stroke="#64748b" d="M 5400 7620 C 5400 7684, 5520 7716, 5520 7780"/>
    <path class="mini-line" stroke="#64748b" d="M -4200 7700 C -4200 7764, -4320 7796, -4320 7860"/>
    <path class="mini-line" stroke="#64748b" d="M 5520 7780 C 5520 7844, 5640 7876, 5640 7940"/>
    <path class="mini-line" stroke="#64748b" d="M -4320 7860 C -4320 7924, -4440 7956, -4440 8020"/>
    <path class="mini-line" stroke="#64748b" d="M 5640 7940 C 5640 8004, 5760 8036, 5760 8100"/>
    <path class="mini-line" stroke="#64748b" d="M -4440 8020 C -4440 8084, -4560 8116, -4560 8180"/>
    <path class="mini-line" stroke="#64748b" d="M 5760 8100 C 5760 8164, 5880 8196, 5880 8260"/>
    <path class="mini-line" stroke="#64748b" d="M -4560 8180 C -4560 8244, -4680 8276, -4680 8340"/>
    <path class="mini-line" stroke="#64748b" d="M 5880 8260 C 5880 8324, 6000 8356, 6000 8420"/>
    <path class="mini-line" stroke="#64748b" d="M -4680 8340 C -4680 8404, -4800 8436, -4800 8500"/>
    <path class="mini-line" stroke="#64748b" d="M 6000 8420 C 6000 8484, 6120 8516, 6120 8580"/>
    <path class="mini-line" stroke="#64748b" d="M -4800 8500 C -4800 8564, -4920 8596, -4920 8660"/>
    <path class="mini-line" stroke="#64748b" d="M 6120 8580 C 6120 8644, 6240 8676, 6240 8740"/>
    <path class="mini-line" stroke="#64748b" d="M -4920 8660 C -4920 8724, -5040 8756, -5040 8820"/>
    <path class="mini-line" stroke="#64748b" d="M 6240 8740 C 6240 8804, 6360 8836, 6360 8900"/>
    <path class="mini-line" stroke="#64748b" d="M -5040 8820 C -5040 8884, -5160 8916, -5160 8980"/>
    <path class="mini-line" stroke="#64748b" d="M 6360 8900 C 6360 8964, 6480 8996, 6480 9060"/>
    <path class="mini-line" stroke="#64748b" d="M -5160 8980 C -5160 9044, -5280 9076, -5280 9140"/>
    <path class="mini-line" stroke="#64748b" d="M 6480 9060 C 6480 9124, 6600 9156, 6600 9220"/>
    <path class="mini-line" stroke="#64748b" d="M -5280 9140 C -5280 9204, -5400 9236, -5400 9300"/>
    <path class="mini-line" stroke="#64748b" d="M 6600 9220 C 6600 9284, 6720 9316, 6720 9380"/>
    <path class="mini-line" stroke="#64748b" d="M -5400 9300 C -5400 9364, -5520 9396, -5520 9460"/>
    <path class="mini-line" stroke="#64748b" d="M 6720 9380 C 6720 9444, 600 9476, 600 9540"/>
    <path class="mini-line" stroke="#64748b" d="M -5520 9460 C -5520 9508, 6840 9532, 6840 9580"/>
    <line class="mini-line" stroke="#4ade80" x1="600" y1="9540" x2="600" y2="9660"/>
    <path class="mini-line" stroke="#64748b" d="M 600 9540 C 600 9924, 7440 10116, 7440 10500"/>
    <path class="mini-line" stroke="#64748b" d="M 6840 9580 C 6840 9628, -5640 9652, -5640 9700"/>
    <path class="mini-line" stroke="#64748b" d="M 6840 9580 C 6840 9980, -6240 10180, -6240 10580"/>
    <line class="mini-line" stroke="#4ade80" x1="600" y1="9660" x2="600" y2="9780"/>
    <path class="mini-line" stroke="#64748b" d="M 600 9660 C 600 9756, -5760 9804, -5760 9900"/>
    <path class="mini-line" stroke="#64748b" d="M -5640 9700 C -5640 9748, 6960 9772, 6960 9820"/>
    <path class="mini-line" stroke="#64748b" d="M -5640 9700 C -5640 9812, 7080 9868, 7080 9980"/>
    <line class="mini-line" stroke="#4ade80" x1="600" y1="9780" x2="600" y2="10220"/>
    <path class="mini-line" stroke="#64748b" d="M 600 9780 C 600 9892, -5880 9948, -5880 10060"/>
    <path class="mini-line" stroke="#64748b" d="M 6960 9820 C 6960 9996, -6000 10084, -6000 10260"/>
    <path class="mini-line" stroke="#64748b" d="M 6960 9820 C 6960 9948, 7200 10012, 7200 10140"/>
    <path class="mini-line" stroke="#64748b" d="M -5760 9900 C -5760 10204, 600 10356, 600 10660"/>
    <path class="mini-line" stroke="#64748b" d="M 7080 9980 C 7080 10268, 7560 10412, 7560 10700"/>
    <path class="mini-line" stroke="#64748b" d="M -5880 10060 C -5880 10300, 600 10420, 600 10660"/>
    <path class="mini-line" stroke="#64748b" d="M 7200 10140 C 7200 10364, 7560 10476, 7560 10700"/>
    <line class="mini-line" stroke="#4ade80" x1="600" y1="10220" x2="600" y2="10660"/>
    <path class="mini-line" stroke="#64748b" d="M 600 10220 C 600 10268, 7320 10292, 7320 10340"/>
    <path class="mini-line" stroke="#64748b" d="M -6000 10260 C -6000 10436, 7560 10524, 7560 10700"/>
    <path class="mini-line" stroke="#64748b" d="M -6000 10260 C -6000 10324, -6120 10356, -6120 10420"/>
    <path class="mini-line" stroke="#64748b" d="M 7320 10340 C 7320 10468, 600 10532, 600 10660"/>
    <path class="mini-line" stroke="#64748b" d="M -6120 10420 C -6120 10532, 7560 10588, 7560 10700"/>
    <path class="mini-line" stroke="#64748b" d="M 7440 10500 C 7440 10564, 600 10596, 600 10660"/>
    <path class="mini-line" stroke="#64748b" d="M -6240 10580 C -6240 10628, 7560 10652, 7560 10700"/>
    <circle cx="600" cy="60" r="4" fill="#4ade80" opacity="0.9"/>
    <circle cx="600" cy="100" r="4" fill="#4ade80" opacity="0.9"/>
    <circle cx="600" cy="140" r="7" fill="#c084fc" opacity="0.9"/>
    <circle cx="720" cy="180" r="4" fill="#4ade80" opacity="0.9"/>
    <circle cx="600" cy="260" r="6" fill="#fb923c" opacity="0.9"/>
    <circle cx="600" cy="300" r="7" fill="#c084fc" opacity="0.9"/>
    <circle cx="480" cy="340" r="4" fill="#4ade80" opacity="0.9"/>
    <circle cx="600" cy="420" r="6" fill="#fb923c" opacity="0.9"/>
    <circle cx="600" cy="460" r="4" fill="#4ade80" opacity="0.9"/>
    <circle cx="600" cy="500" r="7" fill="#c084fc" opacity="0.9"/>
    <circle cx="600" cy="540" r="7" fill="#c084fc" opacity="0.9"/>
    <circle cx="600" cy="580" r="7" fill="#c084fc" opacity="0.9"/>
    <circle cx="840" cy="620" r="4" fill="#4ade80" opacity="0.9"/>
    <circle cx="360" cy="700" r="4" fill="#4ade80" opacity="0.9"/>
    <circle cx="960" cy="780" r="4" fill="#4ade80" opacity="0.9"/>
    <circle cx="600" cy="860" r="6" fill="#fb923c" opacity="0.9"/>
    <circle cx="600" cy="900" r="7" fill="#c084fc" opacity="0.9"/>
    <circle cx="600" cy="940" r="7" fill="#c084fc" opacity="0.9"/>
    <circle cx="240" cy="980" r="4" fill="#4ade80" opacity="0.9"/>
    <circle cx="1080" cy="1060" r="4" fill="#4ade80" opacity="0.9"/>
    <circle cx="600" cy="1140" r="7" fill="#c084fc" opacity="0.9"/>
    <circle cx="120" cy="1180" r="4" fill="#4ade80" opacity="0.9"/>
    <circle cx="600" cy="1260" r="6" fill="#fb923c" opacity="0.9"/>
    <circle cx="600" cy="1300" r="7" fill="#c084fc" opacity="0.9"/>
    <circle cx="1200" cy="1340" r="4" fill="#4ade80" opacity="0.9"/>
    <circle cx="600" cy="1420" r="6" fill="#fb923c" opacity="0.9"/>
    <circle cx="600" cy="1460" r="4" fill="#4ade80" opacity="0.9"/>
    <circle cx="600" cy="1500" r="7" fill="#c084fc" opacity="0.9"/>
    <circle cx="0" cy="1540" r="4" fill="#4ade80" opacity="0.9"/>
    <circle cx="600" cy="1620" r="7" fill="#c084fc" opacity="0.9"/>
    <circle cx="1320" cy="1660" r="4" fill="#4ade80" opacity="0.9"/>
    <circle cx="600" cy="1740" r="6" fill="#fb923c" opacity="0.9"/>
    <circle cx="600" cy="1780" r="4" fill="#4ade80" opacity="0.9"/>
    <circle cx="600" cy="1820" r="4" fill="#4ade80" opacity="0.9"/>
    <circle cx="600" cy="1860" r="4" fill="#4ade80" opacity="0.9"/>
    <circle cx="600" cy="1900" r="7" fill="#c084fc" opacity="0.9"/>
    <circle cx="-120" cy="1940" r="7" fill="#c084fc" opacity="0.9"/>
    <circle cx="1440" cy="2020" r="4" fill="#4ade80" opacity="0.9"/>
    <circle cx="-240" cy="2100" r="4" fill="#4ade80" opacity="0.9"/>
    <circle cx="1560" cy="2180" r="4" fill="#4ade80" opacity="0.9"/>
    <circle cx="-360" cy="2260" r="4" fill="#4ade80" opacity="0.9"/>
    <circle cx="1680" cy="2340" r="4" fill="#4ade80" opacity="0.9"/>
    <circle cx="-480" cy="2420" r="4" fill="#4ade80" opacity="0.9"/>
    <circle cx="1800" cy="2500" r="4" fill="#4ade80" opacity="0.9"/>
    <circle cx="-600" cy="2580" r="4" fill="#4ade80" opacity="0.9"/>
    <circle cx="600" cy="2660" r="7" fill="#c084fc" opacity="0.9"/>
    <circle cx="1920" cy="2700" r="7" fill="#c084fc" opacity="0.9"/>
    <circle cx="-720" cy="2780" r="4" fill="#4ade80" opacity="0.9"/>
    <circle cx="2040" cy="2860" r="4" fill="#4ade80" opacity="0.9"/>
    <circle cx="-840" cy="2940" r="4" fill="#4ade80" opacity="0.9"/>
    <circle cx="2160" cy="3020" r="4" fill="#4ade80" opacity="0.9"/>
    <circle cx="-960" cy="3100" r="4" fill="#4ade80" opacity="0.9"/>
    <circle cx="2280" cy="3180" r="4" fill="#4ade80" opacity="0.9"/>
    <circle cx="600" cy="3260" r="6" fill="#fb923c" opacity="0.9"/>
    <circle cx="-1080" cy="3300" r="6" fill="#fb923c" opacity="0.9"/>
    <circle cx="600" cy="3380" r="4" fill="#4ade80" opacity="0.9"/>
    <circle cx="2400" cy="3420" r="4" fill="#4ade80" opacity="0.9"/>
    <circle cx="600" cy="3500" r="4" fill="#4ade80" opacity="0.9"/>
    <circle cx="-1200" cy="3540" r="4" fill="#4ade80" opacity="0.9"/>
    <circle cx="600" cy="3620" r="4" fill="#4ade80" opacity="0.9"/>
    <circle cx="2520" cy="3660" r="4" fill="#4ade80" opacity="0.9"/>
    <circle cx="600" cy="3740" r="7" fill="#c084fc" opacity="0.9"/>
    <circle cx="-1320" cy="3780" r="7" fill="#c084fc" opacity="0.9"/>
    <circle cx="2640" cy="3860" r="4" fill="#4ade80" opacity="0.9"/>
    <circle cx="-1440" cy="3940" r="4" fill="#4ade80" opacity="0.9"/>
    <circle cx="2760" cy="4020" r="4" fill="#4ade80" opacity="0.9"/>
    <circle cx="-1560" cy="4100" r="4" fill="#4ade80" opacity="0.9"/>
    <circle cx="2880" cy="4180" r="4" fill="#4ade80" opacity="0.9"/>
    <circle cx="-1680" cy="4260" r="4" fill="#4ade80" opacity="0.9"/>
    <circle cx="3000" cy="4340" r="4" fill="#4ade80" opacity="0.9"/>
    <circle cx="-1800" cy="4420" r="4" fill="#4ade80" opacity="0.9"/>
    <circle cx="600" cy="4500" r="7" fill="#c084fc" opacity="0.9"/>
    <circle cx="3120" cy="4540" r="7" fill="#c084fc" opacity="0.9"/>
    <circle cx="-1920" cy="4620" r="4" fill="#4ade80" opacity="0.9"/>
    <circle cx="3240" cy="4700" r="4" fill="#4ade80" opacity="0.9"/>
    <circle cx="-2040" cy="4780" r="4" fill="#4ade80" opacity="0.9"/>
    <circle cx="3360" cy="4860" r="4" fill="#4ade80" opacity="0.9"/>
    <circle cx="-2160" cy="4940" r="4" fill="#4ade80" opacity="0.9"/>
    <circle cx="3480" cy="5020" r="4" fill="#4ade80" opacity="0.9"/>
    <circle cx="-2280" cy="5100" r="4" fill="#4ade80" opacity="0.9"/>
    <circle cx="3600" cy="5180" r="4" fill="#4ade80" opacity="0.9"/>
    <circle cx="-2400" cy="5260" r="4" fill="#4ade80" opacity="0.9"/>
    <circle cx="3720" cy="5340" r="4" fill="#4ade80" opacity="0.9"/>
    <circle cx="-2520" cy="5420" r="4" fill="#4ade80" opacity="0.9"/>
    <circle cx="3840" cy="5500" r="4" fill="#4ade80" opacity="0.9"/>
    <circle cx="-2640" cy="5580" r="4" fill="#4ade80" opacity="0.9"/>
    <circle cx="3960" cy="5660" r="4" fill="#4ade80" opacity="0.9"/>
    <circle cx="-2760" cy="5740" r="4" fill="#4ade80" opacity="0.9"/>
    <circle cx="4080" cy="5820" r="4" fill="#4ade80" opacity="0.9"/>
    <circle cx="-2880" cy="5900" r="4" fill="#4ade80" opacity="0.9"/>
    <circle cx="4200" cy="5980" r="4" fill="#4ade80" opacity="0.9"/>
    <circle cx="-3000" cy="6060" r="4" fill="#4ade80" opacity="0.9"/>
    <circle cx="4320" cy="6140" r="4" fill="#4ade80" opacity="0.9"/>
    <circle cx="-3120" cy="6220" r="4" fill="#4ade80" opacity="0.9"/>
    <circle cx="4440" cy="6300" r="4" fill="#4ade80" opacity="0.9"/>
    <circle cx="-3240" cy="6380" r="4" fill="#4ade80" opacity="0.9"/>
    <circle cx="4560" cy="6460" r="4" fill="#4ade80" opacity="0.9"/>
    <circle cx="-3360" cy="6540" r="4" fill="#4ade80" opacity="0.9"/>
    <circle cx="4680" cy="6620" r="4" fill="#4ade80" opacity="0.9"/>
    <circle cx="-3480" cy="6700" r="4" fill="#4ade80" opacity="0.9"/>
    <circle cx="4800" cy="6780" r="4" fill="#4ade80" opacity="0.9"/>
    <circle cx="-3600" cy="6860" r="4" fill="#4ade80" opacity="0.9"/>
    <circle cx="4920" cy="6940" r="4" fill="#4ade80" opacity="0.9"/>
    <circle cx="-3720" cy="7020" r="4" fill="#4ade80" opacity="0.9"/>
    <circle cx="5040" cy="7100" r="4" fill="#4ade80" opacity="0.9"/>
    <circle cx="-3840" cy="7180" r="4" fill="#4ade80" opacity="0.9"/>
    <circle cx="5160" cy="7260" r="4" fill="#4ade80" opacity="0.9"/>
    <circle cx="600" cy="7340" r="7" fill="#c084fc" opacity="0.9"/>
    <circle cx="-3960" cy="7380" r="7" fill="#c084fc" opacity="0.9"/>
    <circle cx="5280" cy="7460" r="4" fill="#4ade80" opacity="0.9"/>
    <circle cx="-4080" cy="7540" r="4" fill="#4ade80" opacity="0.9"/>
    <circle cx="5400" cy="7620" r="4" fill="#4ade80" opacity="0.9"/>
    <circle cx="-4200" cy="7700" r="4" fill="#4ade80" opacity="0.9"/>
    <circle cx="5520" cy="7780" r="4" fill="#4ade80" opacity="0.9"/>
    <circle cx="-4320" cy="7860" r="4" fill="#4ade80" opacity="0.9"/>
    <circle cx="5640" cy="7940" r="4" fill="#4ade80" opacity="0.9"/>
    <circle cx="-4440" cy="8020" r="4" fill="#4ade80" opacity="0.9"/>
    <circle cx="5760" cy="8100" r="4" fill="#4ade80" opacity="0.9"/>
    <circle cx="-4560" cy="8180" r="4" fill="#4ade80" opacity="0.9"/>
    <circle cx="5880" cy="8260" r="4" fill="#4ade80" opacity="0.9"/>
    <circle cx="-4680" cy="8340" r="4" fill="#4ade80" opacity="0.9"/>
    <circle cx="6000" cy="8420" r="4" fill="#4ade80" opacity="0.9"/>
    <circle cx="-4800" cy="8500" r="4" fill="#4ade80" opacity="0.9"/>
    <circle cx="6120" cy="8580" r="4" fill="#4ade80" opacity="0.9"/>
    <circle cx="-4920" cy="8660" r="4" fill="#4ade80" opacity="0.9"/>
    <circle cx="6240" cy="8740" r="4" fill="#4ade80" opacity="0.9"/>
    <circle cx="-5040" cy="8820" r="4" fill="#4ade80" opacity="0.9"/>
    <circle cx="6360" cy="8900" r="4" fill="#4ade80" opacity="0.9"/>
    <circle cx="-5160" cy="8980" r="4" fill="#4ade80" opacity="0.9"/>
    <circle cx="6480" cy="9060" r="4" fill="#4ade80" opacity="0.9"/>
    <circle cx="-5280" cy="9140" r="4" fill="#4ade80" opacity="0.9"/>
    <circle cx="6600" cy="9220" r="4" fill="#4ade80" opacity="0.9"/>
    <circle cx="-5400" cy="9300" r="4" fill="#4ade80" opacity="0.9"/>
    <circle cx="6720" cy="9380" r="4" fill="#4ade80" opacity="0.9"/>
    <circle cx="-5520" cy="9460" r="4" fill="#4ade80" opacity="0.9"/>
    <circle cx="600" cy="9540" r="7" fill="#c084fc" opacity="0.9"/>
    <circle cx="6840" cy="9580" r="7" fill="#c084fc" opacity="0.9"/>
    <circle cx="600" cy="9660" r="7" fill="#c084fc" opacity="0.9"/>
    <circle cx="-5640" cy="9700" r="7" fill="#c084fc" opacity="0.9"/>
    <circle cx="600" cy="9780" r="7" fill="#c084fc" opacity="0.9"/>
    <circle cx="6960" cy="9820" r="7" fill="#c084fc" opacity="0.9"/>
    <circle cx="-5760" cy="9900" r="4" fill="#4ade80" opacity="0.9"/>
    <circle cx="7080" cy="9980" r="4" fill="#4ade80" opacity="0.9"/>
    <circle cx="-5880" cy="10060" r="4" fill="#4ade80" opacity="0.9"/>
    <circle cx="7200" cy="10140" r="4" fill="#4ade80" opacity="0.9"/>
    <circle cx="600" cy="10220" r="7" fill="#c084fc" opacity="0.9"/>
    <circle cx="-6000" cy="10260" r="7" fill="#c084fc" opacity="0.9"/>
    <circle cx="7320" cy="10340" r="4" fill="#4ade80" opacity="0.9"/>
    <circle cx="-6120" cy="10420" r="4" fill="#4ade80" opacity="0.9"/>
    <circle cx="7440" cy="10500" r="4" fill="#4ade80" opacity="0.9"/>
    <circle cx="-6240" cy="10580" r="4" fill="#4ade80" opacity="0.9"/>
    <circle cx="600" cy="10660" r="6" fill="#fb923c" opacity="0.9"/>
    <circle cx="7560" cy="10700" r="6" fill="#fb923c" opacity="0.9"/>
  </g>
</svg>
