<?xml version="1.0" encoding="UTF-8"?>
<svg xmlns="http://www.w3.org/2000/svg" 
     xmlns:xlink="http://www.w3.org/1999/xlink"
     width="14080" height="10580" 
     viewBox="0 0 14080 10580">
  <defs>
    <radialGradient id="leafGradient">
      <stop offset="0%" style="stop-color:#22c55e;stop-opacity:1" />
      <stop offset="100%" style="stop-color:#16a34a;stop-opacity:0.8" />
    </radialGradient>
    <radialGradient id="mergeGradient">
      <stop offset="0%" style="stop-color:#a78bfa;stop-opacity:1" />
      <stop offset="100%" style="stop-color:#7c3aed;stop-opacity:0.8" />
    </radialGradient>
    <radialGradient id="forkGradient">
      <stop offset="0%" style="stop-color:#fb923c;stop-opacity:1" />
      <stop offset="100%" style="stop-color:#ea580c;stop-opacity:0.8" />
    </radialGradient>
    <radialGradient id="tagGradient">
      <stop offset="0%" style="stop-color:#38bdf8;stop-opacity:1" />
      <stop offset="100%" style="stop-color:#0284c7;stop-opacity:0.8" />
    </radialGradient>
    <style>
      .branch-line { stroke: #64748b; stroke-width: 2; fill: none; opacity: 0.7; }
      .trunk-line { stroke: #22c55e; stroke-width: 2.5; fill: none; opacity: 0.6; }
      .commit-leaf { cursor: pointer; }
      .commit-leaf:hover { filter: brightness(1.5); }
      .branch-label { font-family: sans-serif; font-size: 12px; font-weight: bold; fill: #0f172a; }
    </style>
  </defs>
  
  <rect width="14080" height="10580" fill="#f8fafc"/>
  <defs>
    <pattern id="grid" width="100" height="100" patternUnits="userSpaceOnUse">
      <path d="M 100 0 L 0 0 0 100" fill="none" stroke="#e2e8f0" stroke-width="0.5" opacity="0.3"/>
    </pattern>
  </defs>
  <rect width="14080" height="10580" fill="url(#grid)"/>
  
  <!-- Branch connection lines -->
  <g id="branches">
    <line class="trunk-line" x1="600" y1="60" x2="600" y2="180"/>
    <path class="branch-line" d="M 600 60 C 600 76, 720 84, 720 100"/>
    <path class="branch-line" d="M 720 100 C 720 132, 600 148, 600 180"/>
    <line class="trunk-line" x1="600" y1="180" x2="600" y2="220"/>
    <line class="trunk-line" x1="600" y1="220" x2="600" y2="260"/>
    <line class="trunk-line" x1="600" y1="260" x2="600" y2="300"/>
    <path class="branch-line" d="M 600 260 C 600 308, 480 332, 480 380"/>
    <line class="trunk-line" x1="600" y1="300" x2="600" y2="340"/>
    <path class="branch-line" d="M 600 300 C 600 364, 840 396, 840 460"/>
    <line class="trunk-line" x1="600" y1="340" x2="600" y2="620"/>
    <path class="branch-line" d="M 600 340 C 600 420, 360 460, 360 540"/>
    <path class="branch-line" d="M 480 380 C 480 476, 600 524, 600 620"/>
    <path class="branch-line" d="M 840 460 C 840 524, 600 556, 600 620"/>
    <path class="branch-line" d="M 360 540 C 360 572, 600 588, 600 620"/>
    <line class="trunk-line" x1="600" y1="620" x2="600" y2="660"/>
    <line class="trunk-line" x1="600" y1="660" x2="600" y2="700"/>
    <path class="branch-line" d="M 600 660 C 600 692, 960 708, 960 740"/>
    <line class="trunk-line" x1="600" y1="700" x2="600" y2="900"/>
    <path class="branch-line" d="M 600 700 C 600 748, 240 772, 240 820"/>
    <path class="branch-line" d="M 960 740 C 960 804, 600 836, 600 900"/>
    <path class="branch-line" d="M 240 820 C 240 852, 600 868, 600 900"/>
    <line class="trunk-line" x1="600" y1="900" x2="600" y2="1020"/>
    <path class="branch-line" d="M 600 900 C 600 916, 1080 924, 1080 940"/>
    <path class="branch-line" d="M 1080 940 C 1080 972, 600 988, 600 1020"/>
    <line class="trunk-line" x1="600" y1="1020" x2="600" y2="1060"/>
    <line class="trunk-line" x1="600" y1="1060" x2="600" y2="1180"/>
    <path class="branch-line" d="M 600 1060 C 600 1076, 120 1084, 120 1100"/>
    <path class="branch-line" d="M 120 1100 C 120 1132, 600 1148, 600 1180"/>
    <line class="trunk-line" x1="600" y1="1180" x2="600" y2="1220"/>
    <line class="trunk-line" x1="600" y1="1220" x2="600" y2="1260"/>
    <line class="trunk-line" x1="600" y1="1260" x2="600" y2="1380"/>
    <path class="branch-line" d="M 600 1260 C 600 1276, 1200 1284, 1200 1300"/>
    <path class="branch-line" d="M 1200 1300 C 1200 1380, 600 1420, 600 1500"/>
    <line class="trunk-line" x1="600" y1="1380" x2="600" y2="1500"/>
    <path class="branch-line" d="M 600 1380 C 600 1396, 0 1404, 0 1420"/>
    <path class="branch-line" d="M 0 1420 C 0 1452, 600 1468, 600 1500"/>
    <line class="trunk-line" x1="600" y1="1500" x2="600" y2="1540"/>
    <line class="trunk-line" x1="600" y1="1540" x2="600" y2="1580"/>
    <line class="trunk-line" x1="600" y1="1580" x2="600" y2="1620"/>
    <line class="trunk-line" x1="600" y1="1620" x2="600" y2="1660"/>
    <line class="trunk-line" x1="600" y1="1660" x2="600" y2="2420"/>
    <path class="branch-line" d="M 600 1660 C 600 1708, -120 1732, -120 1780"/>
    <path class="branch-line" d="M 1320 1700 C 1320 2004, -600 2156, -600 2460"/>
    <path class="branch-line" d="M 1320 1700 C 1320 1764, 1440 1796, 1440 1860"/>
    <path class="branch-line" d="M -120 1780 C -120 1844, -240 1876, -240 1940"/>
    <path class="branch-line" d="M 1440 1860 C 1440 1924, 1560 1956, 1560 2020"/>
    <path class="branch-line" d="M -240 1940 C -240 2004, -360 2036, -360 2100"/>
    <path class="branch-line" d="M 1560 2020 C 1560 2084, 1680 2116, 1680 2180"/>
    <path class="branch-line" d="M -360 2100 C -360 2164, -480 2196, -480 2260"/>
    <path class="branch-line" d="M 1680 2180 C 1680 2244, 1800 2276, 1800 2340"/>
    <path class="branch-line" d="M -480 2260 C -480 2324, 600 2356, 600 2420"/>
    <path class="branch-line" d="M 1800 2340 C 1800 2388, -600 2412, -600 2460"/>
    <line class="trunk-line" x1="600" y1="2420" x2="600" y2="3020"/>
    <path class="branch-line" d="M 600 2420 C 600 2468, 1920 2492, 1920 2540"/>
    <path class="branch-line" d="M -600 2460 C -600 2700, 2280 2820, 2280 3060"/>
    <path class="branch-line" d="M -600 2460 C -600 2524, -720 2556, -720 2620"/>
    <path class="branch-line" d="M 1920 2540 C 1920 2604, 2040 2636, 2040 2700"/>
    <path class="branch-line" d="M -720 2620 C -720 2684, -840 2716, -840 2780"/>
    <path class="branch-line" d="M 2040 2700 C 2040 2764, 2160 2796, 2160 2860"/>
    <path class="branch-line" d="M -840 2780 C -840 2844, -960 2876, -960 2940"/>
    <path class="branch-line" d="M 2160 2860 C 2160 2924, 600 2956, 600 3020"/>
    <path class="branch-line" d="M -960 2940 C -960 2988, 2280 3012, 2280 3060"/>
    <line class="trunk-line" x1="600" y1="3020" x2="600" y2="3140"/>
    <path class="branch-line" d="M 2280 3060 C 2280 3108, -1080 3132, -1080 3180"/>
    <line class="trunk-line" x1="600" y1="3140" x2="600" y2="3260"/>
    <path class="branch-line" d="M -1080 3180 C -1080 3228, 2400 3252, 2400 3300"/>
    <line class="trunk-line" x1="600" y1="3260" x2="600" y2="3380"/>
    <path class="branch-line" d="M 2400 3300 C 2400 3348, -1200 3372, -1200 3420"/>
    <line class="trunk-line" x1="600" y1="3380" x2="600" y2="3500"/>
    <path class="branch-line" d="M -1200 3420 C -1200 3468, 2520 3492, 2520 3540"/>
    <line class="trunk-line" x1="600" y1="3500" x2="600" y2="4260"/>
    <path class="branch-line" d="M 600 3500 C 600 3548, -1320 3572, -1320 3620"/>
    <path class="branch-line" d="M 2520 3540 C 2520 3844, -1800 3996, -1800 4300"/>
    <path class="branch-line" d="M 2520 3540 C 2520 3604, 2640 3636, 2640 3700"/>
    <path class="branch-line" d="M -1320 3620 C -1320 3684, -1440 3716, -1440 3780"/>
    <path class="branch-line" d="M 2640 3700 C 2640 3764, 2760 3796, 2760 3860"/>
    <path class="branch-line" d="M -1440 3780 C -1440 3844, -1560 3876, -1560 3940"/>
    <path class="branch-line" d="M 2760 3860 C 2760 3924, 2880 3956, 2880 4020"/>
    <path class="branch-line" d="M -1560 3940 C -1560 4004, -1680 4036, -1680 4100"/>
    <path class="branch-line" d="M 2880 4020 C 2880 4084, 3000 4116, 3000 4180"/>
    <path class="branch-line" d="M -1680 4100 C -1680 4164, 600 4196, 600 4260"/>
    <path class="branch-line" d="M 3000 4180 C 3000 4228, -1800 4252, -1800 4300"/>
    <line class="trunk-line" x1="600" y1="4260" x2="600" y2="7100"/>
    <path class="branch-line" d="M 600 4260 C 600 4308, 3120 4332, 3120 4380"/>
    <path class="branch-line" d="M -1800 4300 C -1800 5436, 5160 6004, 5160 7140"/>
    <path class="branch-line" d="M -1800 4300 C -1800 4364, -1920 4396, -1920 4460"/>
    <path class="branch-line" d="M 3120 4380 C 3120 4444, 3240 4476, 3240 4540"/>
    <path class="branch-line" d="M -1920 4460 C -1920 4524, -2040 4556, -2040 4620"/>
    <path class="branch-line" d="M 3240 4540 C 3240 4604, 3360 4636, 3360 4700"/>
    <path class="branch-line" d="M -2040 4620 C -2040 4684, -2160 4716, -2160 4780"/>
    <path class="branch-line" d="M 3360 4700 C 3360 4764, 3480 4796, 3480 4860"/>
    <path class="branch-line" d="M -2160 4780 C -2160 4844, -2280 4876, -2280 4940"/>
    <path class="branch-line" d="M 3480 4860 C 3480 4924, 3600 4956, 3600 5020"/>
    <path class="branch-line" d="M -2280 4940 C -2280 5004, -2400 5036, -2400 5100"/>
    <path class="branch-line" d="M 3600 5020 C 3600 5084, 3720 5116, 3720 5180"/>
    <path class="branch-line" d="M -2400 5100 C -2400 5164, -2520 5196, -2520 5260"/>
    <path class="branch-line" d="M 3720 5180 C 3720 5244, 3840 5276, 3840 5340"/>
    <path class="branch-line" d="M -2520 5260 C -2520 5324, -2640 5356, -2640 5420"/>
    <path class="branch-line" d="M 3840 5340 C 3840 5404, 3960 5436, 3960 5500"/>
    <path class="branch-line" d="M -2640 5420 C -2640 5484, -2760 5516, -2760 5580"/>
    <path class="branch-line" d="M 3960 5500 C 3960 5564, 4080 5596, 4080 5660"/>
    <path class="branch-line" d="M -2760 5580 C -2760 5644, -2880 5676, -2880 5740"/>
    <path class="branch-line" d="M 4080 5660 C 4080 5724, 4200 5756, 4200 5820"/>
    <path class="branch-line" d="M -2880 5740 C -2880 5804, -3000 5836, -3000 5900"/>
    <path class="branch-line" d="M 4200 5820 C 4200 5884, 4320 5916, 4320 5980"/>
    <path class="branch-line" d="M -3000 5900 C -3000 5964, -3120 5996, -3120 6060"/>
    <path class="branch-line" d="M 4320 5980 C 4320 6044, 4440 6076, 4440 6140"/>
    <path class="branch-line" d="M -3120 6060 C -3120 6124, -3240 6156, -3240 6220"/>
    <path class="branch-line" d="M 4440 6140 C 4440 6204, 4560 6236, 4560 6300"/>
    <path class="branch-line" d="M -3240 6220 C -3240 6284, -3360 6316, -3360 6380"/>
    <path class="branch-line" d="M 4560 6300 C 4560 6364, 4680 6396, 4680 6460"/>
    <path class="branch-line" d="M -3360 6380 C -3360 6444, -3480 6476, -3480 6540"/>
    <path class="branch-line" d="M 4680 6460 C 4680 6524, 4800 6556, 4800 6620"/>
    <path class="branch-line" d="M -3480 6540 C -3480 6604, -3600 6636, -3600 6700"/>
    <path class="branch-line" d="M 4800 6620 C 4800 6684, 4920 6716, 4920 6780"/>
    <path class="branch-line" d="M -3600 6700 C -3600 6764, -3720 6796, -3720 6860"/>
    <path class="branch-line" d="M 4920 6780 C 4920 6844, 5040 6876, 5040 6940"/>
    <path class="branch-line" d="M -3720 6860 C -3720 6924, -3840 6956, -3840 7020"/>
    <path class="branch-line" d="M 5040 6940 C 5040 7004, 600 7036, 600 7100"/>
    <path class="branch-line" d="M -3840 7020 C -3840 7068, 5160 7092, 5160 7140"/>
    <line class="trunk-line" x1="600" y1="7100" x2="600" y2="9300"/>
    <path class="branch-line" d="M 600 7100 C 600 7148, -3960 7172, -3960 7220"/>
    <path class="branch-line" d="M 5160 7140 C 5160 8020, -5520 8460, -5520 9340"/>
    <path class="branch-line" d="M 5160 7140 C 5160 7204, 5280 7236, 5280 7300"/>
    <path class="branch-line" d="M -3960 7220 C -3960 7284, -4080 7316, -4080 7380"/>
    <path class="branch-line" d="M 5280 7300 C 5280 7364, 5400 7396, 5400 7460"/>
    <path class="branch-line" d="M -4080 7380 C -4080 7444, -4200 7476, -4200 7540"/>
    <path class="branch-line" d="M 5400 7460 C 5400 7524, 5520 7556, 5520 7620"/>
    <path class="branch-line" d="M -4200 7540 C -4200 7604, -4320 7636, -4320 7700"/>
    <path class="branch-line" d="M 5520 7620 C 5520 7684, 5640 7716, 5640 7780"/>
    <path class="branch-line" d="M -4320 7700 C -4320 7764, -4440 7796, -4440 7860"/>
    <path class="branch-line" d="M 5640 7780 C 5640 7844, 5760 7876, 5760 7940"/>
    <path class="branch-line" d="M -4440 7860 C -4440 7924, -4560 7956, -4560 8020"/>
    <path class="branch-line" d="M 5760 7940 C 5760 8004, 5880 8036, 5880 8100"/>
    <path class="branch-line" d="M -4560 8020 C -4560 8084, -4680 8116, -4680 8180"/>
    <path class="branch-line" d="M 5880 8100 C 5880 8164, 6000 8196, 6000 8260"/>
    <path class="branch-line" d="M -4680 8180 C -4680 8244, -4800 8276, -4800 8340"/>
    <path class="branch-line" d="M 6000 8260 C 6000 8324, 6120 8356, 6120 8420"/>
    <path class="branch-line" d="M -4800 8340 C -4800 8404, -4920 8436, -4920 8500"/>
    <path class="branch-line" d="M 6120 8420 C 6120 8484, 6240 8516, 6240 8580"/>
    <path class="branch-line" d="M -4920 8500 C -4920 8564, -5040 8596, -5040 8660"/>
    <path class="branch-line" d="M 6240 8580 C 6240 8644, 6360 8676, 6360 8740"/>
    <path class="branch-line" d="M -5040 8660 C -5040 8724, -5160 8756, -5160 8820"/>
    <path class="branch-line" d="M 6360 8740 C 6360 8804, 6480 8836, 6480 8900"/>
    <path class="branch-line" d="M -5160 8820 C -5160 8884, -5280 8916, -5280 8980"/>
    <path class="branch-line" d="M 6480 8900 C 6480 8964, 6600 8996, 6600 9060"/>
    <path class="branch-line" d="M -5280 8980 C -5280 9044, -5400 9076, -5400 9140"/>
    <path class="branch-line" d="M 6600 9060 C 6600 9124, 6720 9156, 6720 9220"/>
    <path class="branch-line" d="M -5400 9140 C -5400 9204, 600 9236, 600 9300"/>
    <path class="branch-line" d="M 6720 9220 C 6720 9268, -5520 9292, -5520 9340"/>
    <line class="trunk-line" x1="600" y1="9300" x2="600" y2="9420"/>
    <path class="branch-line" d="M 600 9300 C 600 9684, -6120 9876, -6120 10260"/>
    <path class="branch-line" d="M -5520 9340 C -5520 9388, 6840 9412, 6840 9460"/>
    <path class="branch-line" d="M -5520 9340 C -5520 9740, 7440 9940, 7440 10340"/>
    <line class="trunk-line" x1="600" y1="9420" x2="600" y2="9540"/>
    <path class="branch-line" d="M 600 9420 C 600 9516, 6960 9564, 6960 9660"/>
    <path class="branch-line" d="M 6840 9460 C 6840 9508, -5640 9532, -5640 9580"/>
    <path class="branch-line" d="M 6840 9460 C 6840 9572, -5760 9628, -5760 9740"/>
    <line class="trunk-line" x1="600" y1="9540" x2="600" y2="9980"/>
    <path class="branch-line" d="M 600 9540 C 600 9652, 7080 9708, 7080 9820"/>
    <path class="branch-line" d="M -5640 9580 C -5640 9756, 7200 9844, 7200 10020"/>
    <path class="branch-line" d="M -5640 9580 C -5640 9708, -5880 9772, -5880 9900"/>
    <path class="branch-line" d="M 6960 9660 C 6960 9964, 600 10116, 600 10420"/>
    <path class="branch-line" d="M -5760 9740 C -5760 10028, -6240 10172, -6240 10460"/>
    <path class="branch-line" d="M 7080 9820 C 7080 10060, 600 10180, 600 10420"/>
    <path class="branch-line" d="M -5880 9900 C -5880 10124, -6240 10236, -6240 10460"/>
    <line class="trunk-line" x1="600" y1="9980" x2="600" y2="10420"/>
    <path class="branch-line" d="M 600 9980 C 600 10028, -6000 10052, -6000 10100"/>
    <path class="branch-line" d="M 7200 10020 C 7200 10196, -6240 10284, -6240 10460"/>
    <path class="branch-line" d="M 7200 10020 C 7200 10084, 7320 10116, 7320 10180"/>
    <path class="branch-line" d="M -6000 10100 C -6000 10228, 600 10292, 600 10420"/>
    <path class="branch-line" d="M 7320 10180 C 7320 10292, -6240 10348, -6240 10460"/>
    <path class="branch-line" d="M -6120 10260 C -6120 10324, 600 10356, 600 10420"/>
    <path class="branch-line" d="M 7440 10340 C 7440 10388, -6240 10412, -6240 10460"/>
  </g>
  <!-- Commit nodes -->
  <g id="commits">
    <circle class="commit-leaf" cx="600" cy="60" r="10" fill="url(#mergeGradient)" stroke="#7c3aed" stroke-width="1.5"><title>8b4ada6: Merge pull request #22 from XAOSTECH/dependabot/github_actions/XAOSTECH/dev-control-9f305c1cb523dc7d832e58ac8af47c5ef5dba080</title></circle>
    <circle class="commit-leaf" cx="720" cy="100" r="6" fill="url(#leafGradient)" stroke="#16a34a" stroke-width="1.5"><title>65a94b5: deps(deps): bump XAOSTECH/dev-control</title></circle>
    <circle class="commit-leaf" cx="600" cy="180" r="9" fill="url(#forkGradient)" stroke="#ea580c" stroke-width="1.5"><title>06611bc: chore: update git tree visualisation</title></circle>
    <circle class="commit-leaf" cx="600" cy="220" r="6" fill="url(#leafGradient)" stroke="#16a34a" stroke-width="1.5"><title>e558194: chore: update git tree visualisation</title></circle>
    <circle class="commit-leaf" cx="600" cy="260" r="10" fill="url(#mergeGradient)" stroke="#7c3aed" stroke-width="1.5"><title>5be354a: Merge pull request #21 from XAOSTECH:dependabot/github_actions/XAOSTECH/dev-control-99c3e9aab76604c6a046e205f1a8e0dcf53fe935</title></circle>
    <circle class="commit-leaf" cx="600" cy="300" r="10" fill="url(#mergeGradient)" stroke="#7c3aed" stroke-width="1.5"><title>4da0166: Merge pull request #20 from XAOSTECH:dependabot/github_actions/actions/github-script-9</title></circle>
    <circle class="commit-leaf" cx="600" cy="340" r="10" fill="url(#mergeGradient)" stroke="#7c3aed" stroke-width="1.5"><title>c6d8f08: Merge pull request #19 from XAOSTECH/dependabot/github_actions/actions/upload-artifact-7</title></circle>
    <circle class="commit-leaf" cx="480" cy="380" r="6" fill="url(#leafGradient)" stroke="#16a34a" stroke-width="1.5"><title>6b8c9df: deps(deps): bump XAOSTECH/dev-control</title></circle>
    <circle class="commit-leaf" cx="840" cy="460" r="6" fill="url(#leafGradient)" stroke="#16a34a" stroke-width="1.5"><title>18c7254: deps(deps): bump actions/github-script from 8 to 9</title></circle>
    <circle class="commit-leaf" cx="360" cy="540" r="6" fill="url(#leafGradient)" stroke="#16a34a" stroke-width="1.5"><title>a6d15f2: deps(deps): bump actions/upload-artifact from 4 to 7</title></circle>
    <circle class="commit-leaf" cx="600" cy="620" r="9" fill="url(#forkGradient)" stroke="#ea580c" stroke-width="1.5"><title>495ff44: chore: update git tree visualisation</title></circle>
    <circle class="commit-leaf" cx="600" cy="660" r="10" fill="url(#mergeGradient)" stroke="#7c3aed" stroke-width="1.5"><title>6768ca5: Merge pull request #18 from XAOSTECH/dependabot/github_actions/XAOSTECH/dev-control-36d58407ebfb4ea31439818a87634315a0cebcad</title></circle>
    <circle class="commit-leaf" cx="600" cy="700" r="10" fill="url(#mergeGradient)" stroke="#7c3aed" stroke-width="1.5"><title>ab99e5c: Merge pull request #17 from XAOSTECH/dependabot/github_actions/actions/github-script-8</title></circle>
    <circle class="commit-leaf" cx="960" cy="740" r="6" fill="url(#leafGradient)" stroke="#16a34a" stroke-width="1.5"><title>105cc7b: deps(deps): bump XAOSTECH/dev-control</title></circle>
    <circle class="commit-leaf" cx="240" cy="820" r="6" fill="url(#leafGradient)" stroke="#16a34a" stroke-width="1.5"><title>d369dd8: deps(deps): bump actions/github-script from 6 to 8</title></circle>
    <circle class="commit-leaf" cx="600" cy="900" r="10" fill="url(#mergeGradient)" stroke="#7c3aed" stroke-width="1.5"><title>a4da0d1: Merge pull request #16 from XAOSTECH/anglicise/20260401-020811</title></circle>
    <circle class="commit-leaf" cx="1080" cy="940" r="6" fill="url(#leafGradient)" stroke="#16a34a" stroke-width="1.5"><title>1c0269c: chore: convert American spellings to British English</title></circle>
    <circle class="commit-leaf" cx="600" cy="1020" r="9" fill="url(#forkGradient)" stroke="#ea580c" stroke-width="1.5"><title>07fea13: chore: update git tree visualisation</title></circle>
    <circle class="commit-leaf" cx="600" cy="1060" r="10" fill="url(#mergeGradient)" stroke="#7c3aed" stroke-width="1.5"><title>a2fa428: Merge pull request #14 from XAOSTECH/dependabot/github_actions/actions/create-github-app-token-3</title></circle>
    <circle class="commit-leaf" cx="120" cy="1100" r="6" fill="url(#leafGradient)" stroke="#16a34a" stroke-width="1.5"><title>76e9b72: deps(deps): bump actions/create-github-app-token from 2 to 3</title></circle>
    <circle class="commit-leaf" cx="600" cy="1180" r="9" fill="url(#forkGradient)" stroke="#ea580c" stroke-width="1.5"><title>47b418a: chore(dc-init): load workflows,actions</title></circle>
    <circle class="commit-leaf" cx="600" cy="1220" r="6" fill="url(#leafGradient)" stroke="#16a34a" stroke-width="1.5"><title>8fa06ba: chore: update git tree visualisation</title></circle>
    <circle class="commit-leaf" cx="600" cy="1260" r="10" fill="url(#mergeGradient)" stroke="#7c3aed" stroke-width="1.5"><title>980f73b: Merge pull request #13 from XAOSTECH/dependabot/github_actions/actions/upload-artifact-7</title></circle>
    <circle class="commit-leaf" cx="1200" cy="1300" r="6" fill="url(#leafGradient)" stroke="#16a34a" stroke-width="1.5"><title>07aa05a: deps(deps): bump actions/upload-artifact from 4 to 7</title></circle>
    <circle class="commit-leaf" cx="600" cy="1380" r="10" fill="url(#mergeGradient)" stroke="#7c3aed" stroke-width="1.5"><title>3eb93ad: Merge pull request #11 from XAOSTECH/dependabot/github_actions/actions/create-github-app-token-3</title></circle>
    <circle class="commit-leaf" cx="0" cy="1420" r="6" fill="url(#leafGradient)" stroke="#16a34a" stroke-width="1.5"><title>ef2f3e6: deps(deps): bump actions/create-github-app-token from 2 to 3</title></circle>
    <circle class="commit-leaf" cx="600" cy="1500" r="9" fill="url(#forkGradient)" stroke="#ea580c" stroke-width="1.5"><title>a90053b: chore(dc-init+contain): update workflows + actions + container config</title></circle>
    <circle class="commit-leaf" cx="600" cy="1540" r="6" fill="url(#leafGradient)" stroke="#16a34a" stroke-width="1.5"><title>3f03000: chore(devcontainer): guard python installs in post-create.sh (SKIP_PYTHON=1 to skip)</title></circle>
    <circle class="commit-leaf" cx="600" cy="1580" r="6" fill="url(#leafGradient)" stroke="#16a34a" stroke-width="1.5"><title>5311755: chore(devcontainer): simplify Dockerfile.cuda to minimal CUDA+R base and MIRROR build-arg</title></circle>
    <circle class="commit-leaf" cx="600" cy="1620" r="6" fill="url(#leafGradient)" stroke="#16a34a" stroke-width="1.5"><title>49b4cec: chore(devcontainer): switch to minimal CUDA+R devcontainer (remove heavy python feature &amp; postCreate)</title></circle>
    <circle class="commit-leaf" cx="600" cy="1660" r="10" fill="url(#mergeGradient)" stroke="#7c3aed" stroke-width="1.5"><title>647e31b: Merge pull request #9 from xaoscience/short-term-vsearch-cuda</title></circle>
    <circle class="commit-leaf" cx="1320" cy="1700" r="10" fill="url(#mergeGradient)" stroke="#7c3aed" stroke-width="1.5"><title>376b852: Merge pull request #9 from xaoscience/short-term-vsearch-cuda</title></circle>
    <circle class="commit-leaf" cx="-120" cy="1780" r="6" fill="url(#leafGradient)" stroke="#16a34a" stroke-width="1.5"><title>8c43e83: docs: Add Phase 1 GPU implementation guide and validation checklist</title></circle>
    <circle class="commit-leaf" cx="1440" cy="1860" r="6" fill="url(#leafGradient)" stroke="#16a34a" stroke-width="1.5"><title>1965089: docs: Add Phase 1 GPU implementation guide and validation checklist</title></circle>
    <circle class="commit-leaf" cx="-240" cy="1940" r="6" fill="url(#leafGradient)" stroke="#16a34a" stroke-width="1.5"><title>d2a8038: feat: Add comprehensive CPU vs GPU benchmark test suite</title></circle>
    <circle class="commit-leaf" cx="1560" cy="2020" r="6" fill="url(#leafGradient)" stroke="#16a34a" stroke-width="1.5"><title>6f05151: feat: Add comprehensive CPU vs GPU benchmark test suite</title></circle>
    <circle class="commit-leaf" cx="-360" cy="2100" r="6" fill="url(#leafGradient)" stroke="#16a34a" stroke-width="1.5"><title>fd42f6f: feat: Add CUDA GPU acceleration support to chimera detection stage</title></circle>
    <circle class="commit-leaf" cx="1680" cy="2180" r="6" fill="url(#leafGradient)" stroke="#16a34a" stroke-width="1.5"><title>b68691b: feat: Add CUDA GPU acceleration support to chimera detection stage</title></circle>
    <circle class="commit-leaf" cx="-480" cy="2260" r="6" fill="url(#leafGradient)" stroke="#16a34a" stroke-width="1.5"><title>56fa902: feat: Update CLI orchestrator with CUDA flag support and enhanced logging</title></circle>
    <circle class="commit-leaf" cx="1800" cy="2340" r="6" fill="url(#leafGradient)" stroke="#16a34a" stroke-width="1.5"><title>d0ea104: feat: Update CLI orchestrator with CUDA flag support and enhanced logging</title></circle>
    <circle class="commit-leaf" cx="600" cy="2420" r="10" fill="url(#mergeGradient)" stroke="#7c3aed" stroke-width="1.5"><title>dde4570: Merge pull request #8 from xaoscience/cuda-expansion</title></circle>
    <circle class="commit-leaf" cx="-600" cy="2460" r="10" fill="url(#mergeGradient)" stroke="#7c3aed" stroke-width="1.5"><title>8ea4df1: Merge pull request #8 from xaoscience/cuda-expansion</title></circle>
    <circle class="commit-leaf" cx="1920" cy="2540" r="6" fill="url(#leafGradient)" stroke="#16a34a" stroke-width="1.5"><title>2fd2231: docs: Update README with CUDA acceleration options and GPU performance</title></circle>
    <circle class="commit-leaf" cx="-720" cy="2620" r="6" fill="url(#leafGradient)" stroke="#16a34a" stroke-width="1.5"><title>8752098: docs: Update README with CUDA acceleration options and GPU performance</title></circle>
    <circle class="commit-leaf" cx="2040" cy="2700" r="6" fill="url(#leafGradient)" stroke="#16a34a" stroke-width="1.5"><title>ac91cc4: feat: Add Dockerfile.cuda for GPU-accelerated amplicon analysis</title></circle>
    <circle class="commit-leaf" cx="-840" cy="2780" r="6" fill="url(#leafGradient)" stroke="#16a34a" stroke-width="1.5"><title>9d17c0c: feat: Add Dockerfile.cuda for GPU-accelerated amplicon analysis</title></circle>
    <circle class="commit-leaf" cx="2160" cy="2860" r="6" fill="url(#leafGradient)" stroke="#16a34a" stroke-width="1.5"><title>47b0efc: docs: Add CUDA acceleration guide for GPU-enabled amplicon analysis</title></circle>
    <circle class="commit-leaf" cx="-960" cy="2940" r="6" fill="url(#leafGradient)" stroke="#16a34a" stroke-width="1.5"><title>deb6692: docs: Add CUDA acceleration guide for GPU-enabled amplicon analysis</title></circle>
    <circle class="commit-leaf" cx="600" cy="3020" r="9" fill="url(#forkGradient)" stroke="#ea580c" stroke-width="1.5"><title>88201ac: adapt container</title></circle>
    <circle class="commit-leaf" cx="2280" cy="3060" r="9" fill="url(#forkGradient)" stroke="#ea580c" stroke-width="1.5"><title>89aba31: adapt container</title></circle>
    <circle class="commit-leaf" cx="600" cy="3140" r="6" fill="url(#leafGradient)" stroke="#16a34a" stroke-width="1.5"><title>9b4ed2e: chore: Update status badge to experimental and license to GPL3</title></circle>
    <circle class="commit-leaf" cx="-1080" cy="3180" r="6" fill="url(#leafGradient)" stroke="#16a34a" stroke-width="1.5"><title>b076780: chore: Update status badge to experimental and license to GPL3</title></circle>
    <circle class="commit-leaf" cx="600" cy="3260" r="6" fill="url(#leafGradient)" stroke="#16a34a" stroke-width="1.5"><title>d6a8bbc: cleanup: Remove all legacy documentation and example data</title></circle>
    <circle class="commit-leaf" cx="2400" cy="3300" r="6" fill="url(#leafGradient)" stroke="#16a34a" stroke-width="1.5"><title>898414a: cleanup: Remove all legacy documentation and example data</title></circle>
    <circle class="commit-leaf" cx="600" cy="3380" r="6" fill="url(#leafGradient)" stroke="#16a34a" stroke-width="1.5"><title>1071586: manual cleanup</title></circle>
    <circle class="commit-leaf" cx="-1200" cy="3420" r="6" fill="url(#leafGradient)" stroke="#16a34a" stroke-width="1.5"><title>2af1c22: manual cleanup</title></circle>
    <circle class="commit-leaf" cx="600" cy="3500" r="10" fill="url(#mergeGradient)" stroke="#7c3aed" stroke-width="1.5"><title>335804e: Merge pull request #7 from xaoscience/cleanup-refactor</title></circle>
    <circle class="commit-leaf" cx="2520" cy="3540" r="10" fill="url(#mergeGradient)" stroke="#7c3aed" stroke-width="1.5"><title>84ab5f6: Merge pull request #7 from xaoscience/cleanup-refactor</title></circle>
    <circle class="commit-leaf" cx="-1320" cy="3620" r="6" fill="url(#leafGradient)" stroke="#16a34a" stroke-width="1.5"><title>48ff6fa: cleanup: Remove legacy Python/R code and old infrastructure</title></circle>
    <circle class="commit-leaf" cx="2640" cy="3700" r="6" fill="url(#leafGradient)" stroke="#16a34a" stroke-width="1.5"><title>dba7129: cleanup: Remove legacy Python/R code and old infrastructure</title></circle>
    <circle class="commit-leaf" cx="-1440" cy="3780" r="6" fill="url(#leafGradient)" stroke="#16a34a" stroke-width="1.5"><title>c4c7d0b: cleanup: Remove legacy Python infrastructure</title></circle>
    <circle class="commit-leaf" cx="2760" cy="3860" r="6" fill="url(#leafGradient)" stroke="#16a34a" stroke-width="1.5"><title>d716526: cleanup: Remove legacy Python infrastructure</title></circle>
    <circle class="commit-leaf" cx="-1560" cy="3940" r="6" fill="url(#leafGradient)" stroke="#16a34a" stroke-width="1.5"><title>7861cf6: cleanup: Remove redundant documentation</title></circle>
    <circle class="commit-leaf" cx="2880" cy="4020" r="6" fill="url(#leafGradient)" stroke="#16a34a" stroke-width="1.5"><title>49de8d6: cleanup: Remove redundant documentation</title></circle>
    <circle class="commit-leaf" cx="-1680" cy="4100" r="6" fill="url(#leafGradient)" stroke="#16a34a" stroke-width="1.5"><title>0154828: refactor: Reorganize project structure and consolidate documentation</title></circle>
    <circle class="commit-leaf" cx="3000" cy="4180" r="6" fill="url(#leafGradient)" stroke="#16a34a" stroke-width="1.5"><title>be8387c: refactor: Reorganize project structure and consolidate documentation</title></circle>
    <circle class="commit-leaf" cx="600" cy="4260" r="10" fill="url(#mergeGradient)" stroke="#7c3aed" stroke-width="1.5"><title>72d2cab: Merge pull request #6 from xaoscience/bash-refactor</title></circle>
    <circle class="commit-leaf" cx="-1800" cy="4300" r="10" fill="url(#mergeGradient)" stroke="#7c3aed" stroke-width="1.5"><title>f28913d: Merge pull request #6 from xaoscience/bash-refactor</title></circle>
    <circle class="commit-leaf" cx="3120" cy="4380" r="6" fill="url(#leafGradient)" stroke="#16a34a" stroke-width="1.5"><title>f65ee2f: Bash-Refactor: System architecture documentation</title></circle>
    <circle class="commit-leaf" cx="-1920" cy="4460" r="6" fill="url(#leafGradient)" stroke="#16a34a" stroke-width="1.5"><title>f3e795e: Bash-Refactor: System architecture documentation</title></circle>
    <circle class="commit-leaf" cx="3240" cy="4540" r="6" fill="url(#leafGradient)" stroke="#16a34a" stroke-width="1.5"><title>e847b5d: Bash-Refactor: Implementation summary &amp; delivery report</title></circle>
    <circle class="commit-leaf" cx="-2040" cy="4620" r="6" fill="url(#leafGradient)" stroke="#16a34a" stroke-width="1.5"><title>0839e5f: Bash-Refactor: Implementation summary &amp; delivery report</title></circle>
    <circle class="commit-leaf" cx="3360" cy="4700" r="6" fill="url(#leafGradient)" stroke="#16a34a" stroke-width="1.5"><title>0c069f8: Bash-Refactor: Quick reference guide with copy-paste recipes</title></circle>
    <circle class="commit-leaf" cx="-2160" cy="4780" r="6" fill="url(#leafGradient)" stroke="#16a34a" stroke-width="1.5"><title>94340aa: Bash-Refactor: Quick reference guide with copy-paste recipes</title></circle>
    <circle class="commit-leaf" cx="3480" cy="4860" r="6" fill="url(#leafGradient)" stroke="#16a34a" stroke-width="1.5"><title>ab00870: Bash-Refactor: Complete documentation with execution guide</title></circle>
    <circle class="commit-leaf" cx="-2280" cy="4940" r="6" fill="url(#leafGradient)" stroke="#16a34a" stroke-width="1.5"><title>ab82520: Bash-Refactor: Complete documentation with execution guide</title></circle>
    <circle class="commit-leaf" cx="3600" cy="5020" r="6" fill="url(#leafGradient)" stroke="#16a34a" stroke-width="1.5"><title>25936e6: Bash-Refactor: Test suite for pipeline validation</title></circle>
    <circle class="commit-leaf" cx="-2400" cy="5100" r="6" fill="url(#leafGradient)" stroke="#16a34a" stroke-width="1.5"><title>66c7ad0: Bash-Refactor: Test suite for pipeline validation</title></circle>
    <circle class="commit-leaf" cx="3720" cy="5180" r="6" fill="url(#leafGradient)" stroke="#16a34a" stroke-width="1.5"><title>1f8e399: Bash-Refactor: Pipeline Stage 06 - Krona visualization (final stage)</title></circle>
    <circle class="commit-leaf" cx="-2520" cy="5260" r="6" fill="url(#leafGradient)" stroke="#16a34a" stroke-width="1.5"><title>81be338: Bash-Refactor: Pipeline Stage 06 - Krona visualization (final stage)</title></circle>
    <circle class="commit-leaf" cx="3840" cy="5340" r="6" fill="url(#leafGradient)" stroke="#16a34a" stroke-width="1.5"><title>ecebb03: Bash-Refactor: Pipeline Stage 05 - FastTree phylogenetic inference</title></circle>
    <circle class="commit-leaf" cx="-2640" cy="5420" r="6" fill="url(#leafGradient)" stroke="#16a34a" stroke-width="1.5"><title>fc056cb: Bash-Refactor: Pipeline Stage 05 - FastTree phylogenetic inference</title></circle>
    <circle class="commit-leaf" cx="3960" cy="5500" r="6" fill="url(#leafGradient)" stroke="#16a34a" stroke-width="1.5"><title>40b2117: Bash-Refactor: Pipeline Stage 04 - RDP Classifier taxonomy</title></circle>
    <circle class="commit-leaf" cx="-2760" cy="5580" r="6" fill="url(#leafGradient)" stroke="#16a34a" stroke-width="1.5"><title>d108853: Bash-Refactor: Pipeline Stage 04 - RDP Classifier taxonomy</title></circle>
    <circle class="commit-leaf" cx="4080" cy="5660" r="6" fill="url(#leafGradient)" stroke="#16a34a" stroke-width="1.5"><title>8eaaea4: Bash-Refactor: Pipeline Stage 03 - Chimera detection (VSEARCH UCHIME)</title></circle>
    <circle class="commit-leaf" cx="-2880" cy="5740" r="6" fill="url(#leafGradient)" stroke="#16a34a" stroke-width="1.5"><title>d279cc4: Bash-Refactor: Pipeline Stage 03 - Chimera detection (VSEARCH UCHIME)</title></circle>
    <circle class="commit-leaf" cx="4200" cy="5820" r="6" fill="url(#leafGradient)" stroke="#16a34a" stroke-width="1.5"><title>d828cfb: Bash-Refactor: Pipeline Stage 02 - DADA2 denoising</title></circle>
    <circle class="commit-leaf" cx="-3000" cy="5900" r="6" fill="url(#leafGradient)" stroke="#16a34a" stroke-width="1.5"><title>01e95e1: Bash-Refactor: Pipeline Stage 02 - DADA2 denoising</title></circle>
    <circle class="commit-leaf" cx="4320" cy="5980" r="6" fill="url(#leafGradient)" stroke="#16a34a" stroke-width="1.5"><title>452d052: Bash-Refactor: Pipeline Stage 01 - Preprocess (QC, trim, filter)</title></circle>
    <circle class="commit-leaf" cx="-3120" cy="6060" r="6" fill="url(#leafGradient)" stroke="#16a34a" stroke-width="1.5"><title>20f5019: Bash-Refactor: Pipeline Stage 01 - Preprocess (QC, trim, filter)</title></circle>
    <circle class="commit-leaf" cx="4440" cy="6140" r="6" fill="url(#leafGradient)" stroke="#16a34a" stroke-width="1.5"><title>0e75302: Bash-Refactor: Dashboard JavaScript (real-time updates)</title></circle>
    <circle class="commit-leaf" cx="-3240" cy="6220" r="6" fill="url(#leafGradient)" stroke="#16a34a" stroke-width="1.5"><title>bb26e14: Bash-Refactor: Dashboard JavaScript (real-time updates)</title></circle>
    <circle class="commit-leaf" cx="4560" cy="6300" r="6" fill="url(#leafGradient)" stroke="#16a34a" stroke-width="1.5"><title>82f0fe0: Bash-Refactor: Dashboard CSS styling</title></circle>
    <circle class="commit-leaf" cx="-3360" cy="6380" r="6" fill="url(#leafGradient)" stroke="#16a34a" stroke-width="1.5"><title>515aeed: Bash-Refactor: Dashboard CSS styling</title></circle>
    <circle class="commit-leaf" cx="4680" cy="6460" r="6" fill="url(#leafGradient)" stroke="#16a34a" stroke-width="1.5"><title>e2661f5: Bash-Refactor: Web dashboard (HTML + D3/Plotly)</title></circle>
    <circle class="commit-leaf" cx="-3480" cy="6540" r="6" fill="url(#leafGradient)" stroke="#16a34a" stroke-width="1.5"><title>95f5805: Bash-Refactor: Web dashboard (HTML + D3/Plotly)</title></circle>
    <circle class="commit-leaf" cx="4800" cy="6620" r="6" fill="url(#leafGradient)" stroke="#16a34a" stroke-width="1.5"><title>f20698a: Bash-Refactor: C++ analytics server (WebSocket, live metrics)</title></circle>
    <circle class="commit-leaf" cx="-3600" cy="6700" r="6" fill="url(#leafGradient)" stroke="#16a34a" stroke-width="1.5"><title>a187cbe: Bash-Refactor: C++ analytics server (WebSocket, live metrics)</title></circle>
    <circle class="commit-leaf" cx="4920" cy="6780" r="6" fill="url(#leafGradient)" stroke="#16a34a" stroke-width="1.5"><title>73af8c2: Bash-Refactor: Main orchestrator CLI</title></circle>
    <circle class="commit-leaf" cx="-3720" cy="6860" r="6" fill="url(#leafGradient)" stroke="#16a34a" stroke-width="1.5"><title>b81e005: Bash-Refactor: Main orchestrator CLI</title></circle>
    <circle class="commit-leaf" cx="5040" cy="6940" r="6" fill="url(#leafGradient)" stroke="#16a34a" stroke-width="1.5"><title>1e6aac5: Bash-Refactor: Bleeding-edge native bioinformatics pipeline (2025)</title></circle>
    <circle class="commit-leaf" cx="-3840" cy="7020" r="6" fill="url(#leafGradient)" stroke="#16a34a" stroke-width="1.5"><title>797a496: Bash-Refactor: Bleeding-edge native bioinformatics pipeline (2025)</title></circle>
    <circle class="commit-leaf" cx="600" cy="7100" r="10" fill="url(#mergeGradient)" stroke="#7c3aed" stroke-width="1.5"><title>614fcc1: Merge pull request #5 from xaoscience/refactor</title></circle>
    <circle class="commit-leaf" cx="5160" cy="7140" r="10" fill="url(#mergeGradient)" stroke="#7c3aed" stroke-width="1.5"><title>7f51b95: Merge pull request #5 from xaoscience/refactor</title></circle>
    <circle class="commit-leaf" cx="-3960" cy="7220" r="6" fill="url(#leafGradient)" stroke="#16a34a" stroke-width="1.5"><title>0efed4c: Refactor: Branch status and validation checklist</title></circle>
    <circle class="commit-leaf" cx="5280" cy="7300" r="6" fill="url(#leafGradient)" stroke="#16a34a" stroke-width="1.5"><title>9243447: Refactor: Branch status and validation checklist</title></circle>
    <circle class="commit-leaf" cx="-4080" cy="7380" r="6" fill="url(#leafGradient)" stroke="#16a34a" stroke-width="1.5"><title>b2d1461: Refactor: Comprehensive architecture &amp; implementation documentation</title></circle>
    <circle class="commit-leaf" cx="5400" cy="7460" r="6" fill="url(#leafGradient)" stroke="#16a34a" stroke-width="1.5"><title>c0bd084: Refactor: Comprehensive architecture &amp; implementation documentation</title></circle>
    <circle class="commit-leaf" cx="-4200" cy="7540" r="6" fill="url(#leafGradient)" stroke="#16a34a" stroke-width="1.5"><title>abf40d8: Refactor: CLI entrypoint with modular commands</title></circle>
    <circle class="commit-leaf" cx="5520" cy="7620" r="6" fill="url(#leafGradient)" stroke="#16a34a" stroke-width="1.5"><title>2215b60: Refactor: CLI entrypoint with modular commands</title></circle>
    <circle class="commit-leaf" cx="-4320" cy="7700" r="6" fill="url(#leafGradient)" stroke="#16a34a" stroke-width="1.5"><title>6a59793: Refactor: Phylogenetic module - neighbor-joining tree construction</title></circle>
    <circle class="commit-leaf" cx="5640" cy="7780" r="6" fill="url(#leafGradient)" stroke="#16a34a" stroke-width="1.5"><title>b735e60: Refactor: Phylogenetic module - neighbor-joining tree construction</title></circle>
    <circle class="commit-leaf" cx="-4440" cy="7860" r="6" fill="url(#leafGradient)" stroke="#16a34a" stroke-width="1.5"><title>dd64562: Refactor: Taxonomy assignment module (k-mer, exact match methods)</title></circle>
    <circle class="commit-leaf" cx="5760" cy="7940" r="6" fill="url(#leafGradient)" stroke="#16a34a" stroke-width="1.5"><title>45622ca: Refactor: Taxonomy assignment module (k-mer, exact match methods)</title></circle>
    <circle class="commit-leaf" cx="-4560" cy="8020" r="6" fill="url(#leafGradient)" stroke="#16a34a" stroke-width="1.5"><title>7d0db21: Refactor: Denoising module - pure Python ASV inference</title></circle>
    <circle class="commit-leaf" cx="5880" cy="8100" r="6" fill="url(#leafGradient)" stroke="#16a34a" stroke-width="1.5"><title>a965be6: Refactor: Denoising module - pure Python ASV inference</title></circle>
    <circle class="commit-leaf" cx="-4680" cy="8180" r="6" fill="url(#leafGradient)" stroke="#16a34a" stroke-width="1.5"><title>3b21685: Refactor: QC module - pure Python DADA2-inspired filtering</title></circle>
    <circle class="commit-leaf" cx="6000" cy="8260" r="6" fill="url(#leafGradient)" stroke="#16a34a" stroke-width="1.5"><title>ab6ba30: Refactor: QC module - pure Python DADA2-inspired filtering</title></circle>
    <circle class="commit-leaf" cx="-4800" cy="8340" r="6" fill="url(#leafGradient)" stroke="#16a34a" stroke-width="1.5"><title>ae7fac2: Refactor: Safe Entrez fetching with XXE protection</title></circle>
    <circle class="commit-leaf" cx="6120" cy="8420" r="6" fill="url(#leafGradient)" stroke="#16a34a" stroke-width="1.5"><title>5d2042b: Refactor: Safe Entrez fetching with XXE protection</title></circle>
    <circle class="commit-leaf" cx="-4920" cy="8500" r="6" fill="url(#leafGradient)" stroke="#16a34a" stroke-width="1.5"><title>085a561: Refactor: I/O module with documented bioinformatics methods</title></circle>
    <circle class="commit-leaf" cx="6240" cy="8580" r="6" fill="url(#leafGradient)" stroke="#16a34a" stroke-width="1.5"><title>28169cc: Refactor: I/O module with documented bioinformatics methods</title></circle>
    <circle class="commit-leaf" cx="-5040" cy="8660" r="6" fill="url(#leafGradient)" stroke="#16a34a" stroke-width="1.5"><title>7991f4b: Refactor: Nucleid profile configuration system (scalable)</title></circle>
    <circle class="commit-leaf" cx="6360" cy="8740" r="6" fill="url(#leafGradient)" stroke="#16a34a" stroke-width="1.5"><title>d2a5106: Refactor: Nucleid profile configuration system (scalable)</title></circle>
    <circle class="commit-leaf" cx="-5160" cy="8820" r="6" fill="url(#leafGradient)" stroke="#16a34a" stroke-width="1.5"><title>7b19390: Refactor: Core module with modular imports</title></circle>
    <circle class="commit-leaf" cx="6480" cy="8900" r="6" fill="url(#leafGradient)" stroke="#16a34a" stroke-width="1.5"><title>2d4bc57: Refactor: Core module with modular imports</title></circle>
    <circle class="commit-leaf" cx="-5280" cy="8980" r="6" fill="url(#leafGradient)" stroke="#16a34a" stroke-width="1.5"><title>1e5b139: Refactor: Update requirements - remove R, add defusedxml XXE fix, bump Biopython</title></circle>
    <circle class="commit-leaf" cx="6600" cy="9060" r="6" fill="url(#leafGradient)" stroke="#16a34a" stroke-width="1.5"><title>94d8187: Refactor: Update requirements - remove R, add defusedxml XXE fix, bump Biopython</title></circle>
    <circle class="commit-leaf" cx="-5400" cy="9140" r="6" fill="url(#leafGradient)" stroke="#16a34a" stroke-width="1.5"><title>c86f68c: Refactor: Setup package as installable Python application</title></circle>
    <circle class="commit-leaf" cx="6720" cy="9220" r="6" fill="url(#leafGradient)" stroke="#16a34a" stroke-width="1.5"><title>180f5d6: Refactor: Setup package as installable Python application</title></circle>
    <circle class="commit-leaf" cx="600" cy="9300" r="10" fill="url(#mergeGradient)" stroke="#7c3aed" stroke-width="1.5"><title>a353a11: Merge pull request #1 from xaoscience/dependabot/github_actions/actions/checkout-6</title></circle>
    <circle class="commit-leaf" cx="-5520" cy="9340" r="10" fill="url(#mergeGradient)" stroke="#7c3aed" stroke-width="1.5"><title>0ae62ba: Merge pull request #1 from xaoscience/dependabot/github_actions/actions/checkout-6</title></circle>
    <circle class="commit-leaf" cx="600" cy="9420" r="10" fill="url(#mergeGradient)" stroke="#7c3aed" stroke-width="1.5"><title>4e74dce: Merge pull request #4 from xaoscience/dependabot/pip/jupyter-68f4446fcb</title></circle>
    <circle class="commit-leaf" cx="6840" cy="9460" r="10" fill="url(#mergeGradient)" stroke="#7c3aed" stroke-width="1.5"><title>6abd285: Merge pull request #4 from xaoscience/dependabot/pip/jupyter-68f4446fcb</title></circle>
    <circle class="commit-leaf" cx="600" cy="9540" r="10" fill="url(#mergeGradient)" stroke="#7c3aed" stroke-width="1.5"><title>6954cde: Merge pull request #3 from xaoscience/dependabot/pip/data-science-d96427fa6b</title></circle>
    <circle class="commit-leaf" cx="-5640" cy="9580" r="10" fill="url(#mergeGradient)" stroke="#7c3aed" stroke-width="1.5"><title>90efd06: Merge pull request #3 from xaoscience/dependabot/pip/data-science-d96427fa6b</title></circle>
    <circle class="commit-leaf" cx="6960" cy="9660" r="6" fill="url(#leafGradient)" stroke="#16a34a" stroke-width="1.5"><title>c20e75d: chore(deps)(deps): bump notebook in the jupyter group</title></circle>
    <circle class="commit-leaf" cx="-5760" cy="9740" r="6" fill="url(#leafGradient)" stroke="#16a34a" stroke-width="1.5"><title>c2f9be1: chore(deps)(deps): bump notebook in the jupyter group</title></circle>
    <circle class="commit-leaf" cx="7080" cy="9820" r="6" fill="url(#leafGradient)" stroke="#16a34a" stroke-width="1.5"><title>e228c45: chore(deps)(deps): bump numpy in the data-science group</title></circle>
    <circle class="commit-leaf" cx="-5880" cy="9900" r="6" fill="url(#leafGradient)" stroke="#16a34a" stroke-width="1.5"><title>75b225f: chore(deps)(deps): bump numpy in the data-science group</title></circle>
    <circle class="commit-leaf" cx="600" cy="9980" r="10" fill="url(#mergeGradient)" stroke="#7c3aed" stroke-width="1.5"><title>f3b395d: Merge pull request #2 from xaoscience/dependabot/github_actions/actions/github-script-8</title></circle>
    <circle class="commit-leaf" cx="7200" cy="10020" r="10" fill="url(#mergeGradient)" stroke="#7c3aed" stroke-width="1.5"><title>052c3f9: Merge pull request #2 from xaoscience/dependabot/github_actions/actions/github-script-8</title></circle>
    <circle class="commit-leaf" cx="-6000" cy="10100" r="6" fill="url(#leafGradient)" stroke="#16a34a" stroke-width="1.5"><title>e157b67: deps(deps): bump actions/github-script from 7 to 8</title></circle>
    <circle class="commit-leaf" cx="7320" cy="10180" r="6" fill="url(#leafGradient)" stroke="#16a34a" stroke-width="1.5"><title>62810a3: deps(deps): bump actions/github-script from 7 to 8</title></circle>
    <circle class="commit-leaf" cx="-6120" cy="10260" r="6" fill="url(#leafGradient)" stroke="#16a34a" stroke-width="1.5"><title>cd7763e: deps(deps): bump actions/checkout from 4 to 6</title></circle>
    <circle class="commit-leaf" cx="7440" cy="10340" r="6" fill="url(#leafGradient)" stroke="#16a34a" stroke-width="1.5"><title>4ee89f7: deps(deps): bump actions/checkout from 4 to 6</title></circle>
    <circle class="commit-leaf" cx="600" cy="10420" r="9" fill="url(#forkGradient)" stroke="#ea580c" stroke-width="1.5"><title>3049af8: Initial commit</title></circle>
    <circle class="commit-leaf" cx="-6240" cy="10460" r="9" fill="url(#forkGradient)" stroke="#ea580c" stroke-width="1.5"><title>1fd560a: Initial commit</title></circle>
  </g>
  
  <!-- Legend -->
  <g id="legend" transform="translate(20, 20)">
    <rect width="200" height="110" fill="white" stroke="#cbd5e1" stroke-width="1" rx="4"/>
    <circle cx="20" cy="25" r="5" fill="url(#leafGradient)" stroke="#16a34a"/>
    <text x="32" y="30" class="branch-label" font-size="12">Regular Commit</text>
    <circle cx="20" cy="50" r="6" fill="url(#mergeGradient)" stroke="#7c3aed"/>
    <text x="32" y="55" class="branch-label" font-size="12">Merge Commit</text>
    <circle cx="20" cy="75" r="6" fill="url(#forkGradient)" stroke="#ea580c"/>
    <text x="32" y="80" class="branch-label" font-size="12">Fork Point</text>
    <circle cx="20" cy="100" r="6" fill="url(#tagGradient)" stroke="#0284c7"/>
    <text x="32" y="105" class="branch-label" font-size="12">Tagged</text>
  </g>
  
  <!-- Repository info -->
  <g id="info" transform="translate(20, 10540)">
    <text x="0" y="0" class="branch-label" font-size="12" fill="#666">
      Repository: NucleiTaxa
    </text>
    <text x="0" y="20" class="branch-label" font-size="10" fill="#999">
      Generated: 2026-04-27 03:29:28 UTC
    </text>
  </g>
</svg>
