<?xml version="1.0" encoding="UTF-8"?>
<svg xmlns="http://www.w3.org/2000/svg" 
     xmlns:xlink="http://www.w3.org/1999/xlink"
     width="13600" height="9980" 
     viewBox="0 0 13600 9980">
  <defs>
    <radialGradient id="leafGradient">
      <stop offset="0%" style="stop-color:#22c55e;stop-opacity:1" />
      <stop offset="100%" style="stop-color:#16a34a;stop-opacity:0.8" />
    </radialGradient>
    <radialGradient id="mergeGradient">
      <stop offset="0%" style="stop-color:#a78bfa;stop-opacity:1" />
      <stop offset="100%" style="stop-color:#7c3aed;stop-opacity:0.8" />
    </radialGradient>
    <radialGradient id="forkGradient">
      <stop offset="0%" style="stop-color:#fb923c;stop-opacity:1" />
      <stop offset="100%" style="stop-color:#ea580c;stop-opacity:0.8" />
    </radialGradient>
    <radialGradient id="tagGradient">
      <stop offset="0%" style="stop-color:#38bdf8;stop-opacity:1" />
      <stop offset="100%" style="stop-color:#0284c7;stop-opacity:0.8" />
    </radialGradient>
    <style>
      .branch-line { stroke: #64748b; stroke-width: 2; fill: none; opacity: 0.7; }
      .trunk-line { stroke: #22c55e; stroke-width: 2.5; fill: none; opacity: 0.6; }
      .commit-leaf { cursor: pointer; }
      .commit-leaf:hover { filter: brightness(1.5); }
      .branch-label { font-family: sans-serif; font-size: 12px; font-weight: bold; fill: #0f172a; }
    </style>
  </defs>
  
  <rect width="13600" height="9980" fill="#f8fafc"/>
  <defs>
    <pattern id="grid" width="100" height="100" patternUnits="userSpaceOnUse">
      <path d="M 100 0 L 0 0 0 100" fill="none" stroke="#e2e8f0" stroke-width="0.5" opacity="0.3"/>
    </pattern>
  </defs>
  <rect width="13600" height="9980" fill="url(#grid)"/>
  
  <!-- Branch connection lines -->
  <g id="branches">
    <line class="trunk-line" x1="600" y1="60" x2="600" y2="100"/>
    <path class="branch-line" d="M 600 60 C 600 92, 720 108, 720 140"/>
    <line class="trunk-line" x1="600" y1="100" x2="600" y2="300"/>
    <path class="branch-line" d="M 600 100 C 600 148, 480 172, 480 220"/>
    <path class="branch-line" d="M 720 140 C 720 204, 600 236, 600 300"/>
    <path class="branch-line" d="M 480 220 C 480 252, 600 268, 600 300"/>
    <line class="trunk-line" x1="600" y1="300" x2="600" y2="420"/>
    <path class="branch-line" d="M 600 300 C 600 316, 840 324, 840 340"/>
    <path class="branch-line" d="M 840 340 C 840 372, 600 388, 600 420"/>
    <line class="trunk-line" x1="600" y1="420" x2="600" y2="460"/>
    <line class="trunk-line" x1="600" y1="460" x2="600" y2="580"/>
    <path class="branch-line" d="M 600 460 C 600 476, 360 484, 360 500"/>
    <path class="branch-line" d="M 360 500 C 360 532, 600 548, 600 580"/>
    <line class="trunk-line" x1="600" y1="580" x2="600" y2="620"/>
    <line class="trunk-line" x1="600" y1="620" x2="600" y2="660"/>
    <line class="trunk-line" x1="600" y1="660" x2="600" y2="780"/>
    <path class="branch-line" d="M 600 660 C 600 676, 960 684, 960 700"/>
    <path class="branch-line" d="M 960 700 C 960 780, 600 820, 600 900"/>
    <line class="trunk-line" x1="600" y1="780" x2="600" y2="900"/>
    <path class="branch-line" d="M 600 780 C 600 796, 240 804, 240 820"/>
    <path class="branch-line" d="M 240 820 C 240 852, 600 868, 600 900"/>
    <line class="trunk-line" x1="600" y1="900" x2="600" y2="940"/>
    <line class="trunk-line" x1="600" y1="940" x2="600" y2="980"/>
    <line class="trunk-line" x1="600" y1="980" x2="600" y2="1020"/>
    <line class="trunk-line" x1="600" y1="1020" x2="600" y2="1060"/>
    <line class="trunk-line" x1="600" y1="1060" x2="600" y2="1820"/>
    <path class="branch-line" d="M 600 1060 C 600 1108, 120 1132, 120 1180"/>
    <path class="branch-line" d="M 1080 1100 C 1080 1404, -360 1556, -360 1860"/>
    <path class="branch-line" d="M 1080 1100 C 1080 1164, 1200 1196, 1200 1260"/>
    <path class="branch-line" d="M 120 1180 C 120 1244, 0 1276, 0 1340"/>
    <path class="branch-line" d="M 1200 1260 C 1200 1324, 1320 1356, 1320 1420"/>
    <path class="branch-line" d="M 0 1340 C 0 1404, -120 1436, -120 1500"/>
    <path class="branch-line" d="M 1320 1420 C 1320 1484, 1440 1516, 1440 1580"/>
    <path class="branch-line" d="M -120 1500 C -120 1564, -240 1596, -240 1660"/>
    <path class="branch-line" d="M 1440 1580 C 1440 1644, 1560 1676, 1560 1740"/>
    <path class="branch-line" d="M -240 1660 C -240 1724, 600 1756, 600 1820"/>
    <path class="branch-line" d="M 1560 1740 C 1560 1788, -360 1812, -360 1860"/>
    <line class="trunk-line" x1="600" y1="1820" x2="600" y2="2420"/>
    <path class="branch-line" d="M 600 1820 C 600 1868, 1680 1892, 1680 1940"/>
    <path class="branch-line" d="M -360 1860 C -360 2100, 2040 2220, 2040 2460"/>
    <path class="branch-line" d="M -360 1860 C -360 1924, -480 1956, -480 2020"/>
    <path class="branch-line" d="M 1680 1940 C 1680 2004, 1800 2036, 1800 2100"/>
    <path class="branch-line" d="M -480 2020 C -480 2084, -600 2116, -600 2180"/>
    <path class="branch-line" d="M 1800 2100 C 1800 2164, 1920 2196, 1920 2260"/>
    <path class="branch-line" d="M -600 2180 C -600 2244, -720 2276, -720 2340"/>
    <path class="branch-line" d="M 1920 2260 C 1920 2324, 600 2356, 600 2420"/>
    <path class="branch-line" d="M -720 2340 C -720 2388, 2040 2412, 2040 2460"/>
    <line class="trunk-line" x1="600" y1="2420" x2="600" y2="2540"/>
    <path class="branch-line" d="M 2040 2460 C 2040 2508, -840 2532, -840 2580"/>
    <line class="trunk-line" x1="600" y1="2540" x2="600" y2="2660"/>
    <path class="branch-line" d="M -840 2580 C -840 2628, 2160 2652, 2160 2700"/>
    <line class="trunk-line" x1="600" y1="2660" x2="600" y2="2780"/>
    <path class="branch-line" d="M 2160 2700 C 2160 2748, -960 2772, -960 2820"/>
    <line class="trunk-line" x1="600" y1="2780" x2="600" y2="2900"/>
    <path class="branch-line" d="M -960 2820 C -960 2868, 2280 2892, 2280 2940"/>
    <line class="trunk-line" x1="600" y1="2900" x2="600" y2="3660"/>
    <path class="branch-line" d="M 600 2900 C 600 2948, -1080 2972, -1080 3020"/>
    <path class="branch-line" d="M 2280 2940 C 2280 3244, -1560 3396, -1560 3700"/>
    <path class="branch-line" d="M 2280 2940 C 2280 3004, 2400 3036, 2400 3100"/>
    <path class="branch-line" d="M -1080 3020 C -1080 3084, -1200 3116, -1200 3180"/>
    <path class="branch-line" d="M 2400 3100 C 2400 3164, 2520 3196, 2520 3260"/>
    <path class="branch-line" d="M -1200 3180 C -1200 3244, -1320 3276, -1320 3340"/>
    <path class="branch-line" d="M 2520 3260 C 2520 3324, 2640 3356, 2640 3420"/>
    <path class="branch-line" d="M -1320 3340 C -1320 3404, -1440 3436, -1440 3500"/>
    <path class="branch-line" d="M 2640 3420 C 2640 3484, 2760 3516, 2760 3580"/>
    <path class="branch-line" d="M -1440 3500 C -1440 3564, 600 3596, 600 3660"/>
    <path class="branch-line" d="M 2760 3580 C 2760 3628, -1560 3652, -1560 3700"/>
    <line class="trunk-line" x1="600" y1="3660" x2="600" y2="6500"/>
    <path class="branch-line" d="M 600 3660 C 600 3708, 2880 3732, 2880 3780"/>
    <path class="branch-line" d="M -1560 3700 C -1560 4836, 4920 5404, 4920 6540"/>
    <path class="branch-line" d="M -1560 3700 C -1560 3764, -1680 3796, -1680 3860"/>
    <path class="branch-line" d="M 2880 3780 C 2880 3844, 3000 3876, 3000 3940"/>
    <path class="branch-line" d="M -1680 3860 C -1680 3924, -1800 3956, -1800 4020"/>
    <path class="branch-line" d="M 3000 3940 C 3000 4004, 3120 4036, 3120 4100"/>
    <path class="branch-line" d="M -1800 4020 C -1800 4084, -1920 4116, -1920 4180"/>
    <path class="branch-line" d="M 3120 4100 C 3120 4164, 3240 4196, 3240 4260"/>
    <path class="branch-line" d="M -1920 4180 C -1920 4244, -2040 4276, -2040 4340"/>
    <path class="branch-line" d="M 3240 4260 C 3240 4324, 3360 4356, 3360 4420"/>
    <path class="branch-line" d="M -2040 4340 C -2040 4404, -2160 4436, -2160 4500"/>
    <path class="branch-line" d="M 3360 4420 C 3360 4484, 3480 4516, 3480 4580"/>
    <path class="branch-line" d="M -2160 4500 C -2160 4564, -2280 4596, -2280 4660"/>
    <path class="branch-line" d="M 3480 4580 C 3480 4644, 3600 4676, 3600 4740"/>
    <path class="branch-line" d="M -2280 4660 C -2280 4724, -2400 4756, -2400 4820"/>
    <path class="branch-line" d="M 3600 4740 C 3600 4804, 3720 4836, 3720 4900"/>
    <path class="branch-line" d="M -2400 4820 C -2400 4884, -2520 4916, -2520 4980"/>
    <path class="branch-line" d="M 3720 4900 C 3720 4964, 3840 4996, 3840 5060"/>
    <path class="branch-line" d="M -2520 4980 C -2520 5044, -2640 5076, -2640 5140"/>
    <path class="branch-line" d="M 3840 5060 C 3840 5124, 3960 5156, 3960 5220"/>
    <path class="branch-line" d="M -2640 5140 C -2640 5204, -2760 5236, -2760 5300"/>
    <path class="branch-line" d="M 3960 5220 C 3960 5284, 4080 5316, 4080 5380"/>
    <path class="branch-line" d="M -2760 5300 C -2760 5364, -2880 5396, -2880 5460"/>
    <path class="branch-line" d="M 4080 5380 C 4080 5444, 4200 5476, 4200 5540"/>
    <path class="branch-line" d="M -2880 5460 C -2880 5524, -3000 5556, -3000 5620"/>
    <path class="branch-line" d="M 4200 5540 C 4200 5604, 4320 5636, 4320 5700"/>
    <path class="branch-line" d="M -3000 5620 C -3000 5684, -3120 5716, -3120 5780"/>
    <path class="branch-line" d="M 4320 5700 C 4320 5764, 4440 5796, 4440 5860"/>
    <path class="branch-line" d="M -3120 5780 C -3120 5844, -3240 5876, -3240 5940"/>
    <path class="branch-line" d="M 4440 5860 C 4440 5924, 4560 5956, 4560 6020"/>
    <path class="branch-line" d="M -3240 5940 C -3240 6004, -3360 6036, -3360 6100"/>
    <path class="branch-line" d="M 4560 6020 C 4560 6084, 4680 6116, 4680 6180"/>
    <path class="branch-line" d="M -3360 6100 C -3360 6164, -3480 6196, -3480 6260"/>
    <path class="branch-line" d="M 4680 6180 C 4680 6244, 4800 6276, 4800 6340"/>
    <path class="branch-line" d="M -3480 6260 C -3480 6324, -3600 6356, -3600 6420"/>
    <path class="branch-line" d="M 4800 6340 C 4800 6404, 600 6436, 600 6500"/>
    <path class="branch-line" d="M -3600 6420 C -3600 6468, 4920 6492, 4920 6540"/>
    <line class="trunk-line" x1="600" y1="6500" x2="600" y2="8700"/>
    <path class="branch-line" d="M 600 6500 C 600 6548, -3720 6572, -3720 6620"/>
    <path class="branch-line" d="M 4920 6540 C 4920 7420, -5280 7860, -5280 8740"/>
    <path class="branch-line" d="M 4920 6540 C 4920 6604, 5040 6636, 5040 6700"/>
    <path class="branch-line" d="M -3720 6620 C -3720 6684, -3840 6716, -3840 6780"/>
    <path class="branch-line" d="M 5040 6700 C 5040 6764, 5160 6796, 5160 6860"/>
    <path class="branch-line" d="M -3840 6780 C -3840 6844, -3960 6876, -3960 6940"/>
    <path class="branch-line" d="M 5160 6860 C 5160 6924, 5280 6956, 5280 7020"/>
    <path class="branch-line" d="M -3960 6940 C -3960 7004, -4080 7036, -4080 7100"/>
    <path class="branch-line" d="M 5280 7020 C 5280 7084, 5400 7116, 5400 7180"/>
    <path class="branch-line" d="M -4080 7100 C -4080 7164, -4200 7196, -4200 7260"/>
    <path class="branch-line" d="M 5400 7180 C 5400 7244, 5520 7276, 5520 7340"/>
    <path class="branch-line" d="M -4200 7260 C -4200 7324, -4320 7356, -4320 7420"/>
    <path class="branch-line" d="M 5520 7340 C 5520 7404, 5640 7436, 5640 7500"/>
    <path class="branch-line" d="M -4320 7420 C -4320 7484, -4440 7516, -4440 7580"/>
    <path class="branch-line" d="M 5640 7500 C 5640 7564, 5760 7596, 5760 7660"/>
    <path class="branch-line" d="M -4440 7580 C -4440 7644, -4560 7676, -4560 7740"/>
    <path class="branch-line" d="M 5760 7660 C 5760 7724, 5880 7756, 5880 7820"/>
    <path class="branch-line" d="M -4560 7740 C -4560 7804, -4680 7836, -4680 7900"/>
    <path class="branch-line" d="M 5880 7820 C 5880 7884, 6000 7916, 6000 7980"/>
    <path class="branch-line" d="M -4680 7900 C -4680 7964, -4800 7996, -4800 8060"/>
    <path class="branch-line" d="M 6000 7980 C 6000 8044, 6120 8076, 6120 8140"/>
    <path class="branch-line" d="M -4800 8060 C -4800 8124, -4920 8156, -4920 8220"/>
    <path class="branch-line" d="M 6120 8140 C 6120 8204, 6240 8236, 6240 8300"/>
    <path class="branch-line" d="M -4920 8220 C -4920 8284, -5040 8316, -5040 8380"/>
    <path class="branch-line" d="M 6240 8300 C 6240 8364, 6360 8396, 6360 8460"/>
    <path class="branch-line" d="M -5040 8380 C -5040 8444, -5160 8476, -5160 8540"/>
    <path class="branch-line" d="M 6360 8460 C 6360 8524, 6480 8556, 6480 8620"/>
    <path class="branch-line" d="M -5160 8540 C -5160 8604, 600 8636, 600 8700"/>
    <path class="branch-line" d="M 6480 8620 C 6480 8668, -5280 8692, -5280 8740"/>
    <line class="trunk-line" x1="600" y1="8700" x2="600" y2="8820"/>
    <path class="branch-line" d="M 600 8700 C 600 9084, -5880 9276, -5880 9660"/>
    <path class="branch-line" d="M -5280 8740 C -5280 8788, 6600 8812, 6600 8860"/>
    <path class="branch-line" d="M -5280 8740 C -5280 9140, 7200 9340, 7200 9740"/>
    <line class="trunk-line" x1="600" y1="8820" x2="600" y2="8940"/>
    <path class="branch-line" d="M 600 8820 C 600 8916, 6720 8964, 6720 9060"/>
    <path class="branch-line" d="M 6600 8860 C 6600 8908, -5400 8932, -5400 8980"/>
    <path class="branch-line" d="M 6600 8860 C 6600 8972, -5520 9028, -5520 9140"/>
    <line class="trunk-line" x1="600" y1="8940" x2="600" y2="9380"/>
    <path class="branch-line" d="M 600 8940 C 600 9052, 6840 9108, 6840 9220"/>
    <path class="branch-line" d="M -5400 8980 C -5400 9156, 6960 9244, 6960 9420"/>
    <path class="branch-line" d="M -5400 8980 C -5400 9108, -5640 9172, -5640 9300"/>
    <path class="branch-line" d="M 6720 9060 C 6720 9364, 600 9516, 600 9820"/>
    <path class="branch-line" d="M -5520 9140 C -5520 9428, -6000 9572, -6000 9860"/>
    <path class="branch-line" d="M 6840 9220 C 6840 9460, 600 9580, 600 9820"/>
    <path class="branch-line" d="M -5640 9300 C -5640 9524, -6000 9636, -6000 9860"/>
    <line class="trunk-line" x1="600" y1="9380" x2="600" y2="9820"/>
    <path class="branch-line" d="M 600 9380 C 600 9428, -5760 9452, -5760 9500"/>
    <path class="branch-line" d="M 6960 9420 C 6960 9596, -6000 9684, -6000 9860"/>
    <path class="branch-line" d="M 6960 9420 C 6960 9484, 7080 9516, 7080 9580"/>
    <path class="branch-line" d="M -5760 9500 C -5760 9628, 600 9692, 600 9820"/>
    <path class="branch-line" d="M 7080 9580 C 7080 9692, -6000 9748, -6000 9860"/>
    <path class="branch-line" d="M -5880 9660 C -5880 9724, 600 9756, 600 9820"/>
    <path class="branch-line" d="M 7200 9740 C 7200 9788, -6000 9812, -6000 9860"/>
  </g>
  <!-- Commit nodes -->
  <g id="commits">
    <circle class="commit-leaf" cx="600" cy="60" r="10" fill="url(#mergeGradient)" stroke="#7c3aed" stroke-width="1.5"><title>6768ca5: Merge pull request #18 from XAOSTECH/dependabot/github_actions/XAOSTECH/dev-control-36d58407ebfb4ea31439818a87634315a0cebcad</title></circle>
    <circle class="commit-leaf" cx="600" cy="100" r="10" fill="url(#mergeGradient)" stroke="#7c3aed" stroke-width="1.5"><title>ab99e5c: Merge pull request #17 from XAOSTECH/dependabot/github_actions/actions/github-script-8</title></circle>
    <circle class="commit-leaf" cx="720" cy="140" r="6" fill="url(#leafGradient)" stroke="#16a34a" stroke-width="1.5"><title>105cc7b: deps(deps): bump XAOSTECH/dev-control</title></circle>
    <circle class="commit-leaf" cx="480" cy="220" r="6" fill="url(#leafGradient)" stroke="#16a34a" stroke-width="1.5"><title>d369dd8: deps(deps): bump actions/github-script from 6 to 8</title></circle>
    <circle class="commit-leaf" cx="600" cy="300" r="10" fill="url(#mergeGradient)" stroke="#7c3aed" stroke-width="1.5"><title>a4da0d1: Merge pull request #16 from XAOSTECH/anglicise/20260401-020811</title></circle>
    <circle class="commit-leaf" cx="840" cy="340" r="6" fill="url(#leafGradient)" stroke="#16a34a" stroke-width="1.5"><title>1c0269c: chore: convert American spellings to British English</title></circle>
    <circle class="commit-leaf" cx="600" cy="420" r="9" fill="url(#forkGradient)" stroke="#ea580c" stroke-width="1.5"><title>07fea13: chore: update git tree visualisation</title></circle>
    <circle class="commit-leaf" cx="600" cy="460" r="10" fill="url(#mergeGradient)" stroke="#7c3aed" stroke-width="1.5"><title>a2fa428: Merge pull request #14 from XAOSTECH/dependabot/github_actions/actions/create-github-app-token-3</title></circle>
    <circle class="commit-leaf" cx="360" cy="500" r="6" fill="url(#leafGradient)" stroke="#16a34a" stroke-width="1.5"><title>76e9b72: deps(deps): bump actions/create-github-app-token from 2 to 3</title></circle>
    <circle class="commit-leaf" cx="600" cy="580" r="9" fill="url(#forkGradient)" stroke="#ea580c" stroke-width="1.5"><title>47b418a: chore(dc-init): load workflows,actions</title></circle>
    <circle class="commit-leaf" cx="600" cy="620" r="6" fill="url(#leafGradient)" stroke="#16a34a" stroke-width="1.5"><title>8fa06ba: chore: update git tree visualisation</title></circle>
    <circle class="commit-leaf" cx="600" cy="660" r="10" fill="url(#mergeGradient)" stroke="#7c3aed" stroke-width="1.5"><title>980f73b: Merge pull request #13 from XAOSTECH/dependabot/github_actions/actions/upload-artifact-7</title></circle>
    <circle class="commit-leaf" cx="960" cy="700" r="6" fill="url(#leafGradient)" stroke="#16a34a" stroke-width="1.5"><title>07aa05a: deps(deps): bump actions/upload-artifact from 4 to 7</title></circle>
    <circle class="commit-leaf" cx="600" cy="780" r="10" fill="url(#mergeGradient)" stroke="#7c3aed" stroke-width="1.5"><title>3eb93ad: Merge pull request #11 from XAOSTECH/dependabot/github_actions/actions/create-github-app-token-3</title></circle>
    <circle class="commit-leaf" cx="240" cy="820" r="6" fill="url(#leafGradient)" stroke="#16a34a" stroke-width="1.5"><title>ef2f3e6: deps(deps): bump actions/create-github-app-token from 2 to 3</title></circle>
    <circle class="commit-leaf" cx="600" cy="900" r="9" fill="url(#forkGradient)" stroke="#ea580c" stroke-width="1.5"><title>a90053b: chore(dc-init+contain): update workflows + actions + container config</title></circle>
    <circle class="commit-leaf" cx="600" cy="940" r="6" fill="url(#leafGradient)" stroke="#16a34a" stroke-width="1.5"><title>3f03000: chore(devcontainer): guard python installs in post-create.sh (SKIP_PYTHON=1 to skip)</title></circle>
    <circle class="commit-leaf" cx="600" cy="980" r="6" fill="url(#leafGradient)" stroke="#16a34a" stroke-width="1.5"><title>5311755: chore(devcontainer): simplify Dockerfile.cuda to minimal CUDA+R base and MIRROR build-arg</title></circle>
    <circle class="commit-leaf" cx="600" cy="1020" r="6" fill="url(#leafGradient)" stroke="#16a34a" stroke-width="1.5"><title>49b4cec: chore(devcontainer): switch to minimal CUDA+R devcontainer (remove heavy python feature &amp; postCreate)</title></circle>
    <circle class="commit-leaf" cx="600" cy="1060" r="10" fill="url(#mergeGradient)" stroke="#7c3aed" stroke-width="1.5"><title>647e31b: Merge pull request #9 from xaoscience/short-term-vsearch-cuda</title></circle>
    <circle class="commit-leaf" cx="1080" cy="1100" r="10" fill="url(#mergeGradient)" stroke="#7c3aed" stroke-width="1.5"><title>376b852: Merge pull request #9 from xaoscience/short-term-vsearch-cuda</title></circle>
    <circle class="commit-leaf" cx="120" cy="1180" r="6" fill="url(#leafGradient)" stroke="#16a34a" stroke-width="1.5"><title>8c43e83: docs: Add Phase 1 GPU implementation guide and validation checklist</title></circle>
    <circle class="commit-leaf" cx="1200" cy="1260" r="6" fill="url(#leafGradient)" stroke="#16a34a" stroke-width="1.5"><title>1965089: docs: Add Phase 1 GPU implementation guide and validation checklist</title></circle>
    <circle class="commit-leaf" cx="0" cy="1340" r="6" fill="url(#leafGradient)" stroke="#16a34a" stroke-width="1.5"><title>d2a8038: feat: Add comprehensive CPU vs GPU benchmark test suite</title></circle>
    <circle class="commit-leaf" cx="1320" cy="1420" r="6" fill="url(#leafGradient)" stroke="#16a34a" stroke-width="1.5"><title>6f05151: feat: Add comprehensive CPU vs GPU benchmark test suite</title></circle>
    <circle class="commit-leaf" cx="-120" cy="1500" r="6" fill="url(#leafGradient)" stroke="#16a34a" stroke-width="1.5"><title>fd42f6f: feat: Add CUDA GPU acceleration support to chimera detection stage</title></circle>
    <circle class="commit-leaf" cx="1440" cy="1580" r="6" fill="url(#leafGradient)" stroke="#16a34a" stroke-width="1.5"><title>b68691b: feat: Add CUDA GPU acceleration support to chimera detection stage</title></circle>
    <circle class="commit-leaf" cx="-240" cy="1660" r="6" fill="url(#leafGradient)" stroke="#16a34a" stroke-width="1.5"><title>56fa902: feat: Update CLI orchestrator with CUDA flag support and enhanced logging</title></circle>
    <circle class="commit-leaf" cx="1560" cy="1740" r="6" fill="url(#leafGradient)" stroke="#16a34a" stroke-width="1.5"><title>d0ea104: feat: Update CLI orchestrator with CUDA flag support and enhanced logging</title></circle>
    <circle class="commit-leaf" cx="600" cy="1820" r="10" fill="url(#mergeGradient)" stroke="#7c3aed" stroke-width="1.5"><title>dde4570: Merge pull request #8 from xaoscience/cuda-expansion</title></circle>
    <circle class="commit-leaf" cx="-360" cy="1860" r="10" fill="url(#mergeGradient)" stroke="#7c3aed" stroke-width="1.5"><title>8ea4df1: Merge pull request #8 from xaoscience/cuda-expansion</title></circle>
    <circle class="commit-leaf" cx="1680" cy="1940" r="6" fill="url(#leafGradient)" stroke="#16a34a" stroke-width="1.5"><title>2fd2231: docs: Update README with CUDA acceleration options and GPU performance</title></circle>
    <circle class="commit-leaf" cx="-480" cy="2020" r="6" fill="url(#leafGradient)" stroke="#16a34a" stroke-width="1.5"><title>8752098: docs: Update README with CUDA acceleration options and GPU performance</title></circle>
    <circle class="commit-leaf" cx="1800" cy="2100" r="6" fill="url(#leafGradient)" stroke="#16a34a" stroke-width="1.5"><title>ac91cc4: feat: Add Dockerfile.cuda for GPU-accelerated amplicon analysis</title></circle>
    <circle class="commit-leaf" cx="-600" cy="2180" r="6" fill="url(#leafGradient)" stroke="#16a34a" stroke-width="1.5"><title>9d17c0c: feat: Add Dockerfile.cuda for GPU-accelerated amplicon analysis</title></circle>
    <circle class="commit-leaf" cx="1920" cy="2260" r="6" fill="url(#leafGradient)" stroke="#16a34a" stroke-width="1.5"><title>47b0efc: docs: Add CUDA acceleration guide for GPU-enabled amplicon analysis</title></circle>
    <circle class="commit-leaf" cx="-720" cy="2340" r="6" fill="url(#leafGradient)" stroke="#16a34a" stroke-width="1.5"><title>deb6692: docs: Add CUDA acceleration guide for GPU-enabled amplicon analysis</title></circle>
    <circle class="commit-leaf" cx="600" cy="2420" r="9" fill="url(#forkGradient)" stroke="#ea580c" stroke-width="1.5"><title>88201ac: adapt container</title></circle>
    <circle class="commit-leaf" cx="2040" cy="2460" r="9" fill="url(#forkGradient)" stroke="#ea580c" stroke-width="1.5"><title>89aba31: adapt container</title></circle>
    <circle class="commit-leaf" cx="600" cy="2540" r="6" fill="url(#leafGradient)" stroke="#16a34a" stroke-width="1.5"><title>9b4ed2e: chore: Update status badge to experimental and license to GPL3</title></circle>
    <circle class="commit-leaf" cx="-840" cy="2580" r="6" fill="url(#leafGradient)" stroke="#16a34a" stroke-width="1.5"><title>b076780: chore: Update status badge to experimental and license to GPL3</title></circle>
    <circle class="commit-leaf" cx="600" cy="2660" r="6" fill="url(#leafGradient)" stroke="#16a34a" stroke-width="1.5"><title>d6a8bbc: cleanup: Remove all legacy documentation and example data</title></circle>
    <circle class="commit-leaf" cx="2160" cy="2700" r="6" fill="url(#leafGradient)" stroke="#16a34a" stroke-width="1.5"><title>898414a: cleanup: Remove all legacy documentation and example data</title></circle>
    <circle class="commit-leaf" cx="600" cy="2780" r="6" fill="url(#leafGradient)" stroke="#16a34a" stroke-width="1.5"><title>1071586: manual cleanup</title></circle>
    <circle class="commit-leaf" cx="-960" cy="2820" r="6" fill="url(#leafGradient)" stroke="#16a34a" stroke-width="1.5"><title>2af1c22: manual cleanup</title></circle>
    <circle class="commit-leaf" cx="600" cy="2900" r="10" fill="url(#mergeGradient)" stroke="#7c3aed" stroke-width="1.5"><title>335804e: Merge pull request #7 from xaoscience/cleanup-refactor</title></circle>
    <circle class="commit-leaf" cx="2280" cy="2940" r="10" fill="url(#mergeGradient)" stroke="#7c3aed" stroke-width="1.5"><title>84ab5f6: Merge pull request #7 from xaoscience/cleanup-refactor</title></circle>
    <circle class="commit-leaf" cx="-1080" cy="3020" r="6" fill="url(#leafGradient)" stroke="#16a34a" stroke-width="1.5"><title>48ff6fa: cleanup: Remove legacy Python/R code and old infrastructure</title></circle>
    <circle class="commit-leaf" cx="2400" cy="3100" r="6" fill="url(#leafGradient)" stroke="#16a34a" stroke-width="1.5"><title>dba7129: cleanup: Remove legacy Python/R code and old infrastructure</title></circle>
    <circle class="commit-leaf" cx="-1200" cy="3180" r="6" fill="url(#leafGradient)" stroke="#16a34a" stroke-width="1.5"><title>c4c7d0b: cleanup: Remove legacy Python infrastructure</title></circle>
    <circle class="commit-leaf" cx="2520" cy="3260" r="6" fill="url(#leafGradient)" stroke="#16a34a" stroke-width="1.5"><title>d716526: cleanup: Remove legacy Python infrastructure</title></circle>
    <circle class="commit-leaf" cx="-1320" cy="3340" r="6" fill="url(#leafGradient)" stroke="#16a34a" stroke-width="1.5"><title>7861cf6: cleanup: Remove redundant documentation</title></circle>
    <circle class="commit-leaf" cx="2640" cy="3420" r="6" fill="url(#leafGradient)" stroke="#16a34a" stroke-width="1.5"><title>49de8d6: cleanup: Remove redundant documentation</title></circle>
    <circle class="commit-leaf" cx="-1440" cy="3500" r="6" fill="url(#leafGradient)" stroke="#16a34a" stroke-width="1.5"><title>0154828: refactor: Reorganize project structure and consolidate documentation</title></circle>
    <circle class="commit-leaf" cx="2760" cy="3580" r="6" fill="url(#leafGradient)" stroke="#16a34a" stroke-width="1.5"><title>be8387c: refactor: Reorganize project structure and consolidate documentation</title></circle>
    <circle class="commit-leaf" cx="600" cy="3660" r="10" fill="url(#mergeGradient)" stroke="#7c3aed" stroke-width="1.5"><title>72d2cab: Merge pull request #6 from xaoscience/bash-refactor</title></circle>
    <circle class="commit-leaf" cx="-1560" cy="3700" r="10" fill="url(#mergeGradient)" stroke="#7c3aed" stroke-width="1.5"><title>f28913d: Merge pull request #6 from xaoscience/bash-refactor</title></circle>
    <circle class="commit-leaf" cx="2880" cy="3780" r="6" fill="url(#leafGradient)" stroke="#16a34a" stroke-width="1.5"><title>f65ee2f: Bash-Refactor: System architecture documentation</title></circle>
    <circle class="commit-leaf" cx="-1680" cy="3860" r="6" fill="url(#leafGradient)" stroke="#16a34a" stroke-width="1.5"><title>f3e795e: Bash-Refactor: System architecture documentation</title></circle>
    <circle class="commit-leaf" cx="3000" cy="3940" r="6" fill="url(#leafGradient)" stroke="#16a34a" stroke-width="1.5"><title>e847b5d: Bash-Refactor: Implementation summary &amp; delivery report</title></circle>
    <circle class="commit-leaf" cx="-1800" cy="4020" r="6" fill="url(#leafGradient)" stroke="#16a34a" stroke-width="1.5"><title>0839e5f: Bash-Refactor: Implementation summary &amp; delivery report</title></circle>
    <circle class="commit-leaf" cx="3120" cy="4100" r="6" fill="url(#leafGradient)" stroke="#16a34a" stroke-width="1.5"><title>0c069f8: Bash-Refactor: Quick reference guide with copy-paste recipes</title></circle>
    <circle class="commit-leaf" cx="-1920" cy="4180" r="6" fill="url(#leafGradient)" stroke="#16a34a" stroke-width="1.5"><title>94340aa: Bash-Refactor: Quick reference guide with copy-paste recipes</title></circle>
    <circle class="commit-leaf" cx="3240" cy="4260" r="6" fill="url(#leafGradient)" stroke="#16a34a" stroke-width="1.5"><title>ab00870: Bash-Refactor: Complete documentation with execution guide</title></circle>
    <circle class="commit-leaf" cx="-2040" cy="4340" r="6" fill="url(#leafGradient)" stroke="#16a34a" stroke-width="1.5"><title>ab82520: Bash-Refactor: Complete documentation with execution guide</title></circle>
    <circle class="commit-leaf" cx="3360" cy="4420" r="6" fill="url(#leafGradient)" stroke="#16a34a" stroke-width="1.5"><title>25936e6: Bash-Refactor: Test suite for pipeline validation</title></circle>
    <circle class="commit-leaf" cx="-2160" cy="4500" r="6" fill="url(#leafGradient)" stroke="#16a34a" stroke-width="1.5"><title>66c7ad0: Bash-Refactor: Test suite for pipeline validation</title></circle>
    <circle class="commit-leaf" cx="3480" cy="4580" r="6" fill="url(#leafGradient)" stroke="#16a34a" stroke-width="1.5"><title>1f8e399: Bash-Refactor: Pipeline Stage 06 - Krona visualization (final stage)</title></circle>
    <circle class="commit-leaf" cx="-2280" cy="4660" r="6" fill="url(#leafGradient)" stroke="#16a34a" stroke-width="1.5"><title>81be338: Bash-Refactor: Pipeline Stage 06 - Krona visualization (final stage)</title></circle>
    <circle class="commit-leaf" cx="3600" cy="4740" r="6" fill="url(#leafGradient)" stroke="#16a34a" stroke-width="1.5"><title>ecebb03: Bash-Refactor: Pipeline Stage 05 - FastTree phylogenetic inference</title></circle>
    <circle class="commit-leaf" cx="-2400" cy="4820" r="6" fill="url(#leafGradient)" stroke="#16a34a" stroke-width="1.5"><title>fc056cb: Bash-Refactor: Pipeline Stage 05 - FastTree phylogenetic inference</title></circle>
    <circle class="commit-leaf" cx="3720" cy="4900" r="6" fill="url(#leafGradient)" stroke="#16a34a" stroke-width="1.5"><title>40b2117: Bash-Refactor: Pipeline Stage 04 - RDP Classifier taxonomy</title></circle>
    <circle class="commit-leaf" cx="-2520" cy="4980" r="6" fill="url(#leafGradient)" stroke="#16a34a" stroke-width="1.5"><title>d108853: Bash-Refactor: Pipeline Stage 04 - RDP Classifier taxonomy</title></circle>
    <circle class="commit-leaf" cx="3840" cy="5060" r="6" fill="url(#leafGradient)" stroke="#16a34a" stroke-width="1.5"><title>8eaaea4: Bash-Refactor: Pipeline Stage 03 - Chimera detection (VSEARCH UCHIME)</title></circle>
    <circle class="commit-leaf" cx="-2640" cy="5140" r="6" fill="url(#leafGradient)" stroke="#16a34a" stroke-width="1.5"><title>d279cc4: Bash-Refactor: Pipeline Stage 03 - Chimera detection (VSEARCH UCHIME)</title></circle>
    <circle class="commit-leaf" cx="3960" cy="5220" r="6" fill="url(#leafGradient)" stroke="#16a34a" stroke-width="1.5"><title>d828cfb: Bash-Refactor: Pipeline Stage 02 - DADA2 denoising</title></circle>
    <circle class="commit-leaf" cx="-2760" cy="5300" r="6" fill="url(#leafGradient)" stroke="#16a34a" stroke-width="1.5"><title>01e95e1: Bash-Refactor: Pipeline Stage 02 - DADA2 denoising</title></circle>
    <circle class="commit-leaf" cx="4080" cy="5380" r="6" fill="url(#leafGradient)" stroke="#16a34a" stroke-width="1.5"><title>452d052: Bash-Refactor: Pipeline Stage 01 - Preprocess (QC, trim, filter)</title></circle>
    <circle class="commit-leaf" cx="-2880" cy="5460" r="6" fill="url(#leafGradient)" stroke="#16a34a" stroke-width="1.5"><title>20f5019: Bash-Refactor: Pipeline Stage 01 - Preprocess (QC, trim, filter)</title></circle>
    <circle class="commit-leaf" cx="4200" cy="5540" r="6" fill="url(#leafGradient)" stroke="#16a34a" stroke-width="1.5"><title>0e75302: Bash-Refactor: Dashboard JavaScript (real-time updates)</title></circle>
    <circle class="commit-leaf" cx="-3000" cy="5620" r="6" fill="url(#leafGradient)" stroke="#16a34a" stroke-width="1.5"><title>bb26e14: Bash-Refactor: Dashboard JavaScript (real-time updates)</title></circle>
    <circle class="commit-leaf" cx="4320" cy="5700" r="6" fill="url(#leafGradient)" stroke="#16a34a" stroke-width="1.5"><title>82f0fe0: Bash-Refactor: Dashboard CSS styling</title></circle>
    <circle class="commit-leaf" cx="-3120" cy="5780" r="6" fill="url(#leafGradient)" stroke="#16a34a" stroke-width="1.5"><title>515aeed: Bash-Refactor: Dashboard CSS styling</title></circle>
    <circle class="commit-leaf" cx="4440" cy="5860" r="6" fill="url(#leafGradient)" stroke="#16a34a" stroke-width="1.5"><title>e2661f5: Bash-Refactor: Web dashboard (HTML + D3/Plotly)</title></circle>
    <circle class="commit-leaf" cx="-3240" cy="5940" r="6" fill="url(#leafGradient)" stroke="#16a34a" stroke-width="1.5"><title>95f5805: Bash-Refactor: Web dashboard (HTML + D3/Plotly)</title></circle>
    <circle class="commit-leaf" cx="4560" cy="6020" r="6" fill="url(#leafGradient)" stroke="#16a34a" stroke-width="1.5"><title>f20698a: Bash-Refactor: C++ analytics server (WebSocket, live metrics)</title></circle>
    <circle class="commit-leaf" cx="-3360" cy="6100" r="6" fill="url(#leafGradient)" stroke="#16a34a" stroke-width="1.5"><title>a187cbe: Bash-Refactor: C++ analytics server (WebSocket, live metrics)</title></circle>
    <circle class="commit-leaf" cx="4680" cy="6180" r="6" fill="url(#leafGradient)" stroke="#16a34a" stroke-width="1.5"><title>73af8c2: Bash-Refactor: Main orchestrator CLI</title></circle>
    <circle class="commit-leaf" cx="-3480" cy="6260" r="6" fill="url(#leafGradient)" stroke="#16a34a" stroke-width="1.5"><title>b81e005: Bash-Refactor: Main orchestrator CLI</title></circle>
    <circle class="commit-leaf" cx="4800" cy="6340" r="6" fill="url(#leafGradient)" stroke="#16a34a" stroke-width="1.5"><title>1e6aac5: Bash-Refactor: Bleeding-edge native bioinformatics pipeline (2025)</title></circle>
    <circle class="commit-leaf" cx="-3600" cy="6420" r="6" fill="url(#leafGradient)" stroke="#16a34a" stroke-width="1.5"><title>797a496: Bash-Refactor: Bleeding-edge native bioinformatics pipeline (2025)</title></circle>
    <circle class="commit-leaf" cx="600" cy="6500" r="10" fill="url(#mergeGradient)" stroke="#7c3aed" stroke-width="1.5"><title>614fcc1: Merge pull request #5 from xaoscience/refactor</title></circle>
    <circle class="commit-leaf" cx="4920" cy="6540" r="10" fill="url(#mergeGradient)" stroke="#7c3aed" stroke-width="1.5"><title>7f51b95: Merge pull request #5 from xaoscience/refactor</title></circle>
    <circle class="commit-leaf" cx="-3720" cy="6620" r="6" fill="url(#leafGradient)" stroke="#16a34a" stroke-width="1.5"><title>0efed4c: Refactor: Branch status and validation checklist</title></circle>
    <circle class="commit-leaf" cx="5040" cy="6700" r="6" fill="url(#leafGradient)" stroke="#16a34a" stroke-width="1.5"><title>9243447: Refactor: Branch status and validation checklist</title></circle>
    <circle class="commit-leaf" cx="-3840" cy="6780" r="6" fill="url(#leafGradient)" stroke="#16a34a" stroke-width="1.5"><title>b2d1461: Refactor: Comprehensive architecture &amp; implementation documentation</title></circle>
    <circle class="commit-leaf" cx="5160" cy="6860" r="6" fill="url(#leafGradient)" stroke="#16a34a" stroke-width="1.5"><title>c0bd084: Refactor: Comprehensive architecture &amp; implementation documentation</title></circle>
    <circle class="commit-leaf" cx="-3960" cy="6940" r="6" fill="url(#leafGradient)" stroke="#16a34a" stroke-width="1.5"><title>abf40d8: Refactor: CLI entrypoint with modular commands</title></circle>
    <circle class="commit-leaf" cx="5280" cy="7020" r="6" fill="url(#leafGradient)" stroke="#16a34a" stroke-width="1.5"><title>2215b60: Refactor: CLI entrypoint with modular commands</title></circle>
    <circle class="commit-leaf" cx="-4080" cy="7100" r="6" fill="url(#leafGradient)" stroke="#16a34a" stroke-width="1.5"><title>6a59793: Refactor: Phylogenetic module - neighbor-joining tree construction</title></circle>
    <circle class="commit-leaf" cx="5400" cy="7180" r="6" fill="url(#leafGradient)" stroke="#16a34a" stroke-width="1.5"><title>b735e60: Refactor: Phylogenetic module - neighbor-joining tree construction</title></circle>
    <circle class="commit-leaf" cx="-4200" cy="7260" r="6" fill="url(#leafGradient)" stroke="#16a34a" stroke-width="1.5"><title>dd64562: Refactor: Taxonomy assignment module (k-mer, exact match methods)</title></circle>
    <circle class="commit-leaf" cx="5520" cy="7340" r="6" fill="url(#leafGradient)" stroke="#16a34a" stroke-width="1.5"><title>45622ca: Refactor: Taxonomy assignment module (k-mer, exact match methods)</title></circle>
    <circle class="commit-leaf" cx="-4320" cy="7420" r="6" fill="url(#leafGradient)" stroke="#16a34a" stroke-width="1.5"><title>7d0db21: Refactor: Denoising module - pure Python ASV inference</title></circle>
    <circle class="commit-leaf" cx="5640" cy="7500" r="6" fill="url(#leafGradient)" stroke="#16a34a" stroke-width="1.5"><title>a965be6: Refactor: Denoising module - pure Python ASV inference</title></circle>
    <circle class="commit-leaf" cx="-4440" cy="7580" r="6" fill="url(#leafGradient)" stroke="#16a34a" stroke-width="1.5"><title>3b21685: Refactor: QC module - pure Python DADA2-inspired filtering</title></circle>
    <circle class="commit-leaf" cx="5760" cy="7660" r="6" fill="url(#leafGradient)" stroke="#16a34a" stroke-width="1.5"><title>ab6ba30: Refactor: QC module - pure Python DADA2-inspired filtering</title></circle>
    <circle class="commit-leaf" cx="-4560" cy="7740" r="6" fill="url(#leafGradient)" stroke="#16a34a" stroke-width="1.5"><title>ae7fac2: Refactor: Safe Entrez fetching with XXE protection</title></circle>
    <circle class="commit-leaf" cx="5880" cy="7820" r="6" fill="url(#leafGradient)" stroke="#16a34a" stroke-width="1.5"><title>5d2042b: Refactor: Safe Entrez fetching with XXE protection</title></circle>
    <circle class="commit-leaf" cx="-4680" cy="7900" r="6" fill="url(#leafGradient)" stroke="#16a34a" stroke-width="1.5"><title>085a561: Refactor: I/O module with documented bioinformatics methods</title></circle>
    <circle class="commit-leaf" cx="6000" cy="7980" r="6" fill="url(#leafGradient)" stroke="#16a34a" stroke-width="1.5"><title>28169cc: Refactor: I/O module with documented bioinformatics methods</title></circle>
    <circle class="commit-leaf" cx="-4800" cy="8060" r="6" fill="url(#leafGradient)" stroke="#16a34a" stroke-width="1.5"><title>7991f4b: Refactor: Nucleid profile configuration system (scalable)</title></circle>
    <circle class="commit-leaf" cx="6120" cy="8140" r="6" fill="url(#leafGradient)" stroke="#16a34a" stroke-width="1.5"><title>d2a5106: Refactor: Nucleid profile configuration system (scalable)</title></circle>
    <circle class="commit-leaf" cx="-4920" cy="8220" r="6" fill="url(#leafGradient)" stroke="#16a34a" stroke-width="1.5"><title>7b19390: Refactor: Core module with modular imports</title></circle>
    <circle class="commit-leaf" cx="6240" cy="8300" r="6" fill="url(#leafGradient)" stroke="#16a34a" stroke-width="1.5"><title>2d4bc57: Refactor: Core module with modular imports</title></circle>
    <circle class="commit-leaf" cx="-5040" cy="8380" r="6" fill="url(#leafGradient)" stroke="#16a34a" stroke-width="1.5"><title>1e5b139: Refactor: Update requirements - remove R, add defusedxml XXE fix, bump Biopython</title></circle>
    <circle class="commit-leaf" cx="6360" cy="8460" r="6" fill="url(#leafGradient)" stroke="#16a34a" stroke-width="1.5"><title>94d8187: Refactor: Update requirements - remove R, add defusedxml XXE fix, bump Biopython</title></circle>
    <circle class="commit-leaf" cx="-5160" cy="8540" r="6" fill="url(#leafGradient)" stroke="#16a34a" stroke-width="1.5"><title>c86f68c: Refactor: Setup package as installable Python application</title></circle>
    <circle class="commit-leaf" cx="6480" cy="8620" r="6" fill="url(#leafGradient)" stroke="#16a34a" stroke-width="1.5"><title>180f5d6: Refactor: Setup package as installable Python application</title></circle>
    <circle class="commit-leaf" cx="600" cy="8700" r="10" fill="url(#mergeGradient)" stroke="#7c3aed" stroke-width="1.5"><title>a353a11: Merge pull request #1 from xaoscience/dependabot/github_actions/actions/checkout-6</title></circle>
    <circle class="commit-leaf" cx="-5280" cy="8740" r="10" fill="url(#mergeGradient)" stroke="#7c3aed" stroke-width="1.5"><title>0ae62ba: Merge pull request #1 from xaoscience/dependabot/github_actions/actions/checkout-6</title></circle>
    <circle class="commit-leaf" cx="600" cy="8820" r="10" fill="url(#mergeGradient)" stroke="#7c3aed" stroke-width="1.5"><title>4e74dce: Merge pull request #4 from xaoscience/dependabot/pip/jupyter-68f4446fcb</title></circle>
    <circle class="commit-leaf" cx="6600" cy="8860" r="10" fill="url(#mergeGradient)" stroke="#7c3aed" stroke-width="1.5"><title>6abd285: Merge pull request #4 from xaoscience/dependabot/pip/jupyter-68f4446fcb</title></circle>
    <circle class="commit-leaf" cx="600" cy="8940" r="10" fill="url(#mergeGradient)" stroke="#7c3aed" stroke-width="1.5"><title>6954cde: Merge pull request #3 from xaoscience/dependabot/pip/data-science-d96427fa6b</title></circle>
    <circle class="commit-leaf" cx="-5400" cy="8980" r="10" fill="url(#mergeGradient)" stroke="#7c3aed" stroke-width="1.5"><title>90efd06: Merge pull request #3 from xaoscience/dependabot/pip/data-science-d96427fa6b</title></circle>
    <circle class="commit-leaf" cx="6720" cy="9060" r="6" fill="url(#leafGradient)" stroke="#16a34a" stroke-width="1.5"><title>c20e75d: chore(deps)(deps): bump notebook in the jupyter group</title></circle>
    <circle class="commit-leaf" cx="-5520" cy="9140" r="6" fill="url(#leafGradient)" stroke="#16a34a" stroke-width="1.5"><title>c2f9be1: chore(deps)(deps): bump notebook in the jupyter group</title></circle>
    <circle class="commit-leaf" cx="6840" cy="9220" r="6" fill="url(#leafGradient)" stroke="#16a34a" stroke-width="1.5"><title>e228c45: chore(deps)(deps): bump numpy in the data-science group</title></circle>
    <circle class="commit-leaf" cx="-5640" cy="9300" r="6" fill="url(#leafGradient)" stroke="#16a34a" stroke-width="1.5"><title>75b225f: chore(deps)(deps): bump numpy in the data-science group</title></circle>
    <circle class="commit-leaf" cx="600" cy="9380" r="10" fill="url(#mergeGradient)" stroke="#7c3aed" stroke-width="1.5"><title>f3b395d: Merge pull request #2 from xaoscience/dependabot/github_actions/actions/github-script-8</title></circle>
    <circle class="commit-leaf" cx="6960" cy="9420" r="10" fill="url(#mergeGradient)" stroke="#7c3aed" stroke-width="1.5"><title>052c3f9: Merge pull request #2 from xaoscience/dependabot/github_actions/actions/github-script-8</title></circle>
    <circle class="commit-leaf" cx="-5760" cy="9500" r="6" fill="url(#leafGradient)" stroke="#16a34a" stroke-width="1.5"><title>e157b67: deps(deps): bump actions/github-script from 7 to 8</title></circle>
    <circle class="commit-leaf" cx="7080" cy="9580" r="6" fill="url(#leafGradient)" stroke="#16a34a" stroke-width="1.5"><title>62810a3: deps(deps): bump actions/github-script from 7 to 8</title></circle>
    <circle class="commit-leaf" cx="-5880" cy="9660" r="6" fill="url(#leafGradient)" stroke="#16a34a" stroke-width="1.5"><title>cd7763e: deps(deps): bump actions/checkout from 4 to 6</title></circle>
    <circle class="commit-leaf" cx="7200" cy="9740" r="6" fill="url(#leafGradient)" stroke="#16a34a" stroke-width="1.5"><title>4ee89f7: deps(deps): bump actions/checkout from 4 to 6</title></circle>
    <circle class="commit-leaf" cx="600" cy="9820" r="9" fill="url(#forkGradient)" stroke="#ea580c" stroke-width="1.5"><title>3049af8: Initial commit</title></circle>
    <circle class="commit-leaf" cx="-6000" cy="9860" r="9" fill="url(#forkGradient)" stroke="#ea580c" stroke-width="1.5"><title>1fd560a: Initial commit</title></circle>
  </g>
  
  <!-- Legend -->
  <g id="legend" transform="translate(20, 20)">
    <rect width="200" height="110" fill="white" stroke="#cbd5e1" stroke-width="1" rx="4"/>
    <circle cx="20" cy="25" r="5" fill="url(#leafGradient)" stroke="#16a34a"/>
    <text x="32" y="30" class="branch-label" font-size="12">Regular Commit</text>
    <circle cx="20" cy="50" r="6" fill="url(#mergeGradient)" stroke="#7c3aed"/>
    <text x="32" y="55" class="branch-label" font-size="12">Merge Commit</text>
    <circle cx="20" cy="75" r="6" fill="url(#forkGradient)" stroke="#ea580c"/>
    <text x="32" y="80" class="branch-label" font-size="12">Fork Point</text>
    <circle cx="20" cy="100" r="6" fill="url(#tagGradient)" stroke="#0284c7"/>
    <text x="32" y="105" class="branch-label" font-size="12">Tagged</text>
  </g>
  
  <!-- Repository info -->
  <g id="info" transform="translate(20, 9940)">
    <text x="0" y="0" class="branch-label" font-size="12" fill="#666">
      Repository: NucleiTaxa
    </text>
    <text x="0" y="20" class="branch-label" font-size="10" fill="#999">
      Generated: 2026-04-06 02:51:57 UTC
    </text>
  </g>
</svg>
