<?xml version="1.0" encoding="UTF-8"?>
<svg xmlns="http://www.w3.org/2000/svg"
     width="300" height="230"
     viewBox="-6260 40 13840 10640">
  <style>
    @keyframes sway {
      0%   { transform: translateX(0); }
      25%  { transform: translateX(3px); }
      50%  { transform: translateX(-2px); }
      75%  { transform: translateX(4px); }
      100% { transform: translateX(0); }
    }
    .mini-node { animation: sway 4s ease-in-out infinite; }
    .mini-line { stroke-width: 1.5; fill: none; opacity: 0.5; }
  </style>
  <rect width="100%" height="100%" fill="#0a0a1a" rx="6"/>
  <g class="mini-node">
    <line class="mini-line" stroke="#4ade80" x1="600" y1="60" x2="600" y2="100"/>
    <line class="mini-line" stroke="#4ade80" x1="600" y1="100" x2="600" y2="220"/>
    <path class="mini-line" stroke="#64748b" d="M 600 100 C 600 116, 720 124, 720 140"/>
    <path class="mini-line" stroke="#64748b" d="M 720 140 C 720 172, 600 188, 600 220"/>
    <line class="mini-line" stroke="#4ade80" x1="600" y1="220" x2="600" y2="260"/>
    <line class="mini-line" stroke="#4ade80" x1="600" y1="260" x2="600" y2="380"/>
    <path class="mini-line" stroke="#64748b" d="M 600 260 C 600 276, 480 284, 480 300"/>
    <path class="mini-line" stroke="#64748b" d="M 480 300 C 480 332, 600 348, 600 380"/>
    <line class="mini-line" stroke="#4ade80" x1="600" y1="380" x2="600" y2="420"/>
    <line class="mini-line" stroke="#4ade80" x1="600" y1="420" x2="600" y2="460"/>
    <line class="mini-line" stroke="#4ade80" x1="600" y1="460" x2="600" y2="500"/>
    <path class="mini-line" stroke="#64748b" d="M 600 460 C 600 508, 840 532, 840 580"/>
    <line class="mini-line" stroke="#4ade80" x1="600" y1="500" x2="600" y2="540"/>
    <path class="mini-line" stroke="#64748b" d="M 600 500 C 600 564, 360 596, 360 660"/>
    <line class="mini-line" stroke="#4ade80" x1="600" y1="540" x2="600" y2="820"/>
    <path class="mini-line" stroke="#64748b" d="M 600 540 C 600 620, 960 660, 960 740"/>
    <path class="mini-line" stroke="#64748b" d="M 840 580 C 840 676, 600 724, 600 820"/>
    <path class="mini-line" stroke="#64748b" d="M 360 660 C 360 724, 600 756, 600 820"/>
    <path class="mini-line" stroke="#64748b" d="M 960 740 C 960 772, 600 788, 600 820"/>
    <line class="mini-line" stroke="#4ade80" x1="600" y1="820" x2="600" y2="860"/>
    <line class="mini-line" stroke="#4ade80" x1="600" y1="860" x2="600" y2="900"/>
    <path class="mini-line" stroke="#64748b" d="M 600 860 C 600 892, 240 908, 240 940"/>
    <line class="mini-line" stroke="#4ade80" x1="600" y1="900" x2="600" y2="1100"/>
    <path class="mini-line" stroke="#64748b" d="M 600 900 C 600 948, 1080 972, 1080 1020"/>
    <path class="mini-line" stroke="#64748b" d="M 240 940 C 240 1004, 600 1036, 600 1100"/>
    <path class="mini-line" stroke="#64748b" d="M 1080 1020 C 1080 1052, 600 1068, 600 1100"/>
    <line class="mini-line" stroke="#4ade80" x1="600" y1="1100" x2="600" y2="1220"/>
    <path class="mini-line" stroke="#64748b" d="M 600 1100 C 600 1116, 120 1124, 120 1140"/>
    <path class="mini-line" stroke="#64748b" d="M 120 1140 C 120 1172, 600 1188, 600 1220"/>
    <line class="mini-line" stroke="#4ade80" x1="600" y1="1220" x2="600" y2="1260"/>
    <line class="mini-line" stroke="#4ade80" x1="600" y1="1260" x2="600" y2="1380"/>
    <path class="mini-line" stroke="#64748b" d="M 600 1260 C 600 1276, 1200 1284, 1200 1300"/>
    <path class="mini-line" stroke="#64748b" d="M 1200 1300 C 1200 1332, 600 1348, 600 1380"/>
    <line class="mini-line" stroke="#4ade80" x1="600" y1="1380" x2="600" y2="1420"/>
    <line class="mini-line" stroke="#4ade80" x1="600" y1="1420" x2="600" y2="1460"/>
    <line class="mini-line" stroke="#4ade80" x1="600" y1="1460" x2="600" y2="1580"/>
    <path class="mini-line" stroke="#64748b" d="M 600 1460 C 600 1476, 0 1484, 0 1500"/>
    <path class="mini-line" stroke="#64748b" d="M 0 1500 C 0 1580, 600 1620, 600 1700"/>
    <line class="mini-line" stroke="#4ade80" x1="600" y1="1580" x2="600" y2="1700"/>
    <path class="mini-line" stroke="#64748b" d="M 600 1580 C 600 1596, 1320 1604, 1320 1620"/>
    <path class="mini-line" stroke="#64748b" d="M 1320 1620 C 1320 1652, 600 1668, 600 1700"/>
    <line class="mini-line" stroke="#4ade80" x1="600" y1="1700" x2="600" y2="1740"/>
    <line class="mini-line" stroke="#4ade80" x1="600" y1="1740" x2="600" y2="1780"/>
    <line class="mini-line" stroke="#4ade80" x1="600" y1="1780" x2="600" y2="1820"/>
    <line class="mini-line" stroke="#4ade80" x1="600" y1="1820" x2="600" y2="1860"/>
    <line class="mini-line" stroke="#4ade80" x1="600" y1="1860" x2="600" y2="2620"/>
    <path class="mini-line" stroke="#64748b" d="M 600 1860 C 600 1908, 1440 1932, 1440 1980"/>
    <path class="mini-line" stroke="#64748b" d="M -120 1900 C -120 2204, 1920 2356, 1920 2660"/>
    <path class="mini-line" stroke="#64748b" d="M -120 1900 C -120 1964, -240 1996, -240 2060"/>
    <path class="mini-line" stroke="#64748b" d="M 1440 1980 C 1440 2044, 1560 2076, 1560 2140"/>
    <path class="mini-line" stroke="#64748b" d="M -240 2060 C -240 2124, -360 2156, -360 2220"/>
    <path class="mini-line" stroke="#64748b" d="M 1560 2140 C 1560 2204, 1680 2236, 1680 2300"/>
    <path class="mini-line" stroke="#64748b" d="M -360 2220 C -360 2284, -480 2316, -480 2380"/>
    <path class="mini-line" stroke="#64748b" d="M 1680 2300 C 1680 2364, 1800 2396, 1800 2460"/>
    <path class="mini-line" stroke="#64748b" d="M -480 2380 C -480 2444, -600 2476, -600 2540"/>
    <path class="mini-line" stroke="#64748b" d="M 1800 2460 C 1800 2524, 600 2556, 600 2620"/>
    <path class="mini-line" stroke="#64748b" d="M -600 2540 C -600 2588, 1920 2612, 1920 2660"/>
    <line class="mini-line" stroke="#4ade80" x1="600" y1="2620" x2="600" y2="3220"/>
    <path class="mini-line" stroke="#64748b" d="M 600 2620 C 600 2668, -720 2692, -720 2740"/>
    <path class="mini-line" stroke="#64748b" d="M 1920 2660 C 1920 2900, -1080 3020, -1080 3260"/>
    <path class="mini-line" stroke="#64748b" d="M 1920 2660 C 1920 2724, 2040 2756, 2040 2820"/>
    <path class="mini-line" stroke="#64748b" d="M -720 2740 C -720 2804, -840 2836, -840 2900"/>
    <path class="mini-line" stroke="#64748b" d="M 2040 2820 C 2040 2884, 2160 2916, 2160 2980"/>
    <path class="mini-line" stroke="#64748b" d="M -840 2900 C -840 2964, -960 2996, -960 3060"/>
    <path class="mini-line" stroke="#64748b" d="M 2160 2980 C 2160 3044, 2280 3076, 2280 3140"/>
    <path class="mini-line" stroke="#64748b" d="M -960 3060 C -960 3124, 600 3156, 600 3220"/>
    <path class="mini-line" stroke="#64748b" d="M 2280 3140 C 2280 3188, -1080 3212, -1080 3260"/>
    <line class="mini-line" stroke="#4ade80" x1="600" y1="3220" x2="600" y2="3340"/>
    <path class="mini-line" stroke="#64748b" d="M -1080 3260 C -1080 3308, 2400 3332, 2400 3380"/>
    <line class="mini-line" stroke="#4ade80" x1="600" y1="3340" x2="600" y2="3460"/>
    <path class="mini-line" stroke="#64748b" d="M 2400 3380 C 2400 3428, -1200 3452, -1200 3500"/>
    <line class="mini-line" stroke="#4ade80" x1="600" y1="3460" x2="600" y2="3580"/>
    <path class="mini-line" stroke="#64748b" d="M -1200 3500 C -1200 3548, 2520 3572, 2520 3620"/>
    <line class="mini-line" stroke="#4ade80" x1="600" y1="3580" x2="600" y2="3700"/>
    <path class="mini-line" stroke="#64748b" d="M 2520 3620 C 2520 3668, -1320 3692, -1320 3740"/>
    <line class="mini-line" stroke="#4ade80" x1="600" y1="3700" x2="600" y2="4460"/>
    <path class="mini-line" stroke="#64748b" d="M 600 3700 C 600 3748, 2640 3772, 2640 3820"/>
    <path class="mini-line" stroke="#64748b" d="M -1320 3740 C -1320 4044, 3120 4196, 3120 4500"/>
    <path class="mini-line" stroke="#64748b" d="M -1320 3740 C -1320 3804, -1440 3836, -1440 3900"/>
    <path class="mini-line" stroke="#64748b" d="M 2640 3820 C 2640 3884, 2760 3916, 2760 3980"/>
    <path class="mini-line" stroke="#64748b" d="M -1440 3900 C -1440 3964, -1560 3996, -1560 4060"/>
    <path class="mini-line" stroke="#64748b" d="M 2760 3980 C 2760 4044, 2880 4076, 2880 4140"/>
    <path class="mini-line" stroke="#64748b" d="M -1560 4060 C -1560 4124, -1680 4156, -1680 4220"/>
    <path class="mini-line" stroke="#64748b" d="M 2880 4140 C 2880 4204, 3000 4236, 3000 4300"/>
    <path class="mini-line" stroke="#64748b" d="M -1680 4220 C -1680 4284, -1800 4316, -1800 4380"/>
    <path class="mini-line" stroke="#64748b" d="M 3000 4300 C 3000 4364, 600 4396, 600 4460"/>
    <path class="mini-line" stroke="#64748b" d="M -1800 4380 C -1800 4428, 3120 4452, 3120 4500"/>
    <line class="mini-line" stroke="#4ade80" x1="600" y1="4460" x2="600" y2="7300"/>
    <path class="mini-line" stroke="#64748b" d="M 600 4460 C 600 4508, -1920 4532, -1920 4580"/>
    <path class="mini-line" stroke="#64748b" d="M 3120 4500 C 3120 5636, -3960 6204, -3960 7340"/>
    <path class="mini-line" stroke="#64748b" d="M 3120 4500 C 3120 4564, 3240 4596, 3240 4660"/>
    <path class="mini-line" stroke="#64748b" d="M -1920 4580 C -1920 4644, -2040 4676, -2040 4740"/>
    <path class="mini-line" stroke="#64748b" d="M 3240 4660 C 3240 4724, 3360 4756, 3360 4820"/>
    <path class="mini-line" stroke="#64748b" d="M -2040 4740 C -2040 4804, -2160 4836, -2160 4900"/>
    <path class="mini-line" stroke="#64748b" d="M 3360 4820 C 3360 4884, 3480 4916, 3480 4980"/>
    <path class="mini-line" stroke="#64748b" d="M -2160 4900 C -2160 4964, -2280 4996, -2280 5060"/>
    <path class="mini-line" stroke="#64748b" d="M 3480 4980 C 3480 5044, 3600 5076, 3600 5140"/>
    <path class="mini-line" stroke="#64748b" d="M -2280 5060 C -2280 5124, -2400 5156, -2400 5220"/>
    <path class="mini-line" stroke="#64748b" d="M 3600 5140 C 3600 5204, 3720 5236, 3720 5300"/>
    <path class="mini-line" stroke="#64748b" d="M -2400 5220 C -2400 5284, -2520 5316, -2520 5380"/>
    <path class="mini-line" stroke="#64748b" d="M 3720 5300 C 3720 5364, 3840 5396, 3840 5460"/>
    <path class="mini-line" stroke="#64748b" d="M -2520 5380 C -2520 5444, -2640 5476, -2640 5540"/>
    <path class="mini-line" stroke="#64748b" d="M 3840 5460 C 3840 5524, 3960 5556, 3960 5620"/>
    <path class="mini-line" stroke="#64748b" d="M -2640 5540 C -2640 5604, -2760 5636, -2760 5700"/>
    <path class="mini-line" stroke="#64748b" d="M 3960 5620 C 3960 5684, 4080 5716, 4080 5780"/>
    <path class="mini-line" stroke="#64748b" d="M -2760 5700 C -2760 5764, -2880 5796, -2880 5860"/>
    <path class="mini-line" stroke="#64748b" d="M 4080 5780 C 4080 5844, 4200 5876, 4200 5940"/>
    <path class="mini-line" stroke="#64748b" d="M -2880 5860 C -2880 5924, -3000 5956, -3000 6020"/>
    <path class="mini-line" stroke="#64748b" d="M 4200 5940 C 4200 6004, 4320 6036, 4320 6100"/>
    <path class="mini-line" stroke="#64748b" d="M -3000 6020 C -3000 6084, -3120 6116, -3120 6180"/>
    <path class="mini-line" stroke="#64748b" d="M 4320 6100 C 4320 6164, 4440 6196, 4440 6260"/>
    <path class="mini-line" stroke="#64748b" d="M -3120 6180 C -3120 6244, -3240 6276, -3240 6340"/>
    <path class="mini-line" stroke="#64748b" d="M 4440 6260 C 4440 6324, 4560 6356, 4560 6420"/>
    <path class="mini-line" stroke="#64748b" d="M -3240 6340 C -3240 6404, -3360 6436, -3360 6500"/>
    <path class="mini-line" stroke="#64748b" d="M 4560 6420 C 4560 6484, 4680 6516, 4680 6580"/>
    <path class="mini-line" stroke="#64748b" d="M -3360 6500 C -3360 6564, -3480 6596, -3480 6660"/>
    <path class="mini-line" stroke="#64748b" d="M 4680 6580 C 4680 6644, 4800 6676, 4800 6740"/>
    <path class="mini-line" stroke="#64748b" d="M -3480 6660 C -3480 6724, -3600 6756, -3600 6820"/>
    <path class="mini-line" stroke="#64748b" d="M 4800 6740 C 4800 6804, 4920 6836, 4920 6900"/>
    <path class="mini-line" stroke="#64748b" d="M -3600 6820 C -3600 6884, -3720 6916, -3720 6980"/>
    <path class="mini-line" stroke="#64748b" d="M 4920 6900 C 4920 6964, 5040 6996, 5040 7060"/>
    <path class="mini-line" stroke="#64748b" d="M -3720 6980 C -3720 7044, -3840 7076, -3840 7140"/>
    <path class="mini-line" stroke="#64748b" d="M 5040 7060 C 5040 7124, 5160 7156, 5160 7220"/>
    <path class="mini-line" stroke="#64748b" d="M -3840 7140 C -3840 7204, 600 7236, 600 7300"/>
    <path class="mini-line" stroke="#64748b" d="M 5160 7220 C 5160 7268, -3960 7292, -3960 7340"/>
    <line class="mini-line" stroke="#4ade80" x1="600" y1="7300" x2="600" y2="9500"/>
    <path class="mini-line" stroke="#64748b" d="M 600 7300 C 600 7348, 5280 7372, 5280 7420"/>
    <path class="mini-line" stroke="#64748b" d="M -3960 7340 C -3960 8220, 6840 8660, 6840 9540"/>
    <path class="mini-line" stroke="#64748b" d="M -3960 7340 C -3960 7404, -4080 7436, -4080 7500"/>
    <path class="mini-line" stroke="#64748b" d="M 5280 7420 C 5280 7484, 5400 7516, 5400 7580"/>
    <path class="mini-line" stroke="#64748b" d="M -4080 7500 C -4080 7564, -4200 7596, -4200 7660"/>
    <path class="mini-line" stroke="#64748b" d="M 5400 7580 C 5400 7644, 5520 7676, 5520 7740"/>
    <path class="mini-line" stroke="#64748b" d="M -4200 7660 C -4200 7724, -4320 7756, -4320 7820"/>
    <path class="mini-line" stroke="#64748b" d="M 5520 7740 C 5520 7804, 5640 7836, 5640 7900"/>
    <path class="mini-line" stroke="#64748b" d="M -4320 7820 C -4320 7884, -4440 7916, -4440 7980"/>
    <path class="mini-line" stroke="#64748b" d="M 5640 7900 C 5640 7964, 5760 7996, 5760 8060"/>
    <path class="mini-line" stroke="#64748b" d="M -4440 7980 C -4440 8044, -4560 8076, -4560 8140"/>
    <path class="mini-line" stroke="#64748b" d="M 5760 8060 C 5760 8124, 5880 8156, 5880 8220"/>
    <path class="mini-line" stroke="#64748b" d="M -4560 8140 C -4560 8204, -4680 8236, -4680 8300"/>
    <path class="mini-line" stroke="#64748b" d="M 5880 8220 C 5880 8284, 6000 8316, 6000 8380"/>
    <path class="mini-line" stroke="#64748b" d="M -4680 8300 C -4680 8364, -4800 8396, -4800 8460"/>
    <path class="mini-line" stroke="#64748b" d="M 6000 8380 C 6000 8444, 6120 8476, 6120 8540"/>
    <path class="mini-line" stroke="#64748b" d="M -4800 8460 C -4800 8524, -4920 8556, -4920 8620"/>
    <path class="mini-line" stroke="#64748b" d="M 6120 8540 C 6120 8604, 6240 8636, 6240 8700"/>
    <path class="mini-line" stroke="#64748b" d="M -4920 8620 C -4920 8684, -5040 8716, -5040 8780"/>
    <path class="mini-line" stroke="#64748b" d="M 6240 8700 C 6240 8764, 6360 8796, 6360 8860"/>
    <path class="mini-line" stroke="#64748b" d="M -5040 8780 C -5040 8844, -5160 8876, -5160 8940"/>
    <path class="mini-line" stroke="#64748b" d="M 6360 8860 C 6360 8924, 6480 8956, 6480 9020"/>
    <path class="mini-line" stroke="#64748b" d="M -5160 8940 C -5160 9004, -5280 9036, -5280 9100"/>
    <path class="mini-line" stroke="#64748b" d="M 6480 9020 C 6480 9084, 6600 9116, 6600 9180"/>
    <path class="mini-line" stroke="#64748b" d="M -5280 9100 C -5280 9164, -5400 9196, -5400 9260"/>
    <path class="mini-line" stroke="#64748b" d="M 6600 9180 C 6600 9244, 6720 9276, 6720 9340"/>
    <path class="mini-line" stroke="#64748b" d="M -5400 9260 C -5400 9324, -5520 9356, -5520 9420"/>
    <path class="mini-line" stroke="#64748b" d="M 6720 9340 C 6720 9404, 600 9436, 600 9500"/>
    <path class="mini-line" stroke="#64748b" d="M -5520 9420 C -5520 9468, 6840 9492, 6840 9540"/>
    <line class="mini-line" stroke="#4ade80" x1="600" y1="9500" x2="600" y2="9620"/>
    <path class="mini-line" stroke="#64748b" d="M 600 9500 C 600 9884, 7440 10076, 7440 10460"/>
    <path class="mini-line" stroke="#64748b" d="M 6840 9540 C 6840 9588, -5640 9612, -5640 9660"/>
    <path class="mini-line" stroke="#64748b" d="M 6840 9540 C 6840 9940, -6240 10140, -6240 10540"/>
    <line class="mini-line" stroke="#4ade80" x1="600" y1="9620" x2="600" y2="9740"/>
    <path class="mini-line" stroke="#64748b" d="M 600 9620 C 600 9716, -5760 9764, -5760 9860"/>
    <path class="mini-line" stroke="#64748b" d="M -5640 9660 C -5640 9708, 6960 9732, 6960 9780"/>
    <path class="mini-line" stroke="#64748b" d="M -5640 9660 C -5640 9772, 7080 9828, 7080 9940"/>
    <line class="mini-line" stroke="#4ade80" x1="600" y1="9740" x2="600" y2="10180"/>
    <path class="mini-line" stroke="#64748b" d="M 600 9740 C 600 9852, -5880 9908, -5880 10020"/>
    <path class="mini-line" stroke="#64748b" d="M 6960 9780 C 6960 9956, -6000 10044, -6000 10220"/>
    <path class="mini-line" stroke="#64748b" d="M 6960 9780 C 6960 9908, 7200 9972, 7200 10100"/>
    <path class="mini-line" stroke="#64748b" d="M -5760 9860 C -5760 10164, 600 10316, 600 10620"/>
    <path class="mini-line" stroke="#64748b" d="M 7080 9940 C 7080 10228, 7560 10372, 7560 10660"/>
    <path class="mini-line" stroke="#64748b" d="M -5880 10020 C -5880 10260, 600 10380, 600 10620"/>
    <path class="mini-line" stroke="#64748b" d="M 7200 10100 C 7200 10324, 7560 10436, 7560 10660"/>
    <line class="mini-line" stroke="#4ade80" x1="600" y1="10180" x2="600" y2="10620"/>
    <path class="mini-line" stroke="#64748b" d="M 600 10180 C 600 10228, 7320 10252, 7320 10300"/>
    <path class="mini-line" stroke="#64748b" d="M -6000 10220 C -6000 10396, 7560 10484, 7560 10660"/>
    <path class="mini-line" stroke="#64748b" d="M -6000 10220 C -6000 10284, -6120 10316, -6120 10380"/>
    <path class="mini-line" stroke="#64748b" d="M 7320 10300 C 7320 10428, 600 10492, 600 10620"/>
    <path class="mini-line" stroke="#64748b" d="M -6120 10380 C -6120 10492, 7560 10548, 7560 10660"/>
    <path class="mini-line" stroke="#64748b" d="M 7440 10460 C 7440 10524, 600 10556, 600 10620"/>
    <path class="mini-line" stroke="#64748b" d="M -6240 10540 C -6240 10588, 7560 10612, 7560 10660"/>
    <circle cx="600" cy="60" r="4" fill="#4ade80" opacity="0.9"/>
    <circle cx="600" cy="100" r="7" fill="#c084fc" opacity="0.9"/>
    <circle cx="720" cy="140" r="4" fill="#4ade80" opacity="0.9"/>
    <circle cx="600" cy="220" r="6" fill="#fb923c" opacity="0.9"/>
    <circle cx="600" cy="260" r="7" fill="#c084fc" opacity="0.9"/>
    <circle cx="480" cy="300" r="4" fill="#4ade80" opacity="0.9"/>
    <circle cx="600" cy="380" r="6" fill="#fb923c" opacity="0.9"/>
    <circle cx="600" cy="420" r="4" fill="#4ade80" opacity="0.9"/>
    <circle cx="600" cy="460" r="7" fill="#c084fc" opacity="0.9"/>
    <circle cx="600" cy="500" r="7" fill="#c084fc" opacity="0.9"/>
    <circle cx="600" cy="540" r="7" fill="#c084fc" opacity="0.9"/>
    <circle cx="840" cy="580" r="4" fill="#4ade80" opacity="0.9"/>
    <circle cx="360" cy="660" r="4" fill="#4ade80" opacity="0.9"/>
    <circle cx="960" cy="740" r="4" fill="#4ade80" opacity="0.9"/>
    <circle cx="600" cy="820" r="6" fill="#fb923c" opacity="0.9"/>
    <circle cx="600" cy="860" r="7" fill="#c084fc" opacity="0.9"/>
    <circle cx="600" cy="900" r="7" fill="#c084fc" opacity="0.9"/>
    <circle cx="240" cy="940" r="4" fill="#4ade80" opacity="0.9"/>
    <circle cx="1080" cy="1020" r="4" fill="#4ade80" opacity="0.9"/>
    <circle cx="600" cy="1100" r="7" fill="#c084fc" opacity="0.9"/>
    <circle cx="120" cy="1140" r="4" fill="#4ade80" opacity="0.9"/>
    <circle cx="600" cy="1220" r="6" fill="#fb923c" opacity="0.9"/>
    <circle cx="600" cy="1260" r="7" fill="#c084fc" opacity="0.9"/>
    <circle cx="1200" cy="1300" r="4" fill="#4ade80" opacity="0.9"/>
    <circle cx="600" cy="1380" r="6" fill="#fb923c" opacity="0.9"/>
    <circle cx="600" cy="1420" r="4" fill="#4ade80" opacity="0.9"/>
    <circle cx="600" cy="1460" r="7" fill="#c084fc" opacity="0.9"/>
    <circle cx="0" cy="1500" r="4" fill="#4ade80" opacity="0.9"/>
    <circle cx="600" cy="1580" r="7" fill="#c084fc" opacity="0.9"/>
    <circle cx="1320" cy="1620" r="4" fill="#4ade80" opacity="0.9"/>
    <circle cx="600" cy="1700" r="6" fill="#fb923c" opacity="0.9"/>
    <circle cx="600" cy="1740" r="4" fill="#4ade80" opacity="0.9"/>
    <circle cx="600" cy="1780" r="4" fill="#4ade80" opacity="0.9"/>
    <circle cx="600" cy="1820" r="4" fill="#4ade80" opacity="0.9"/>
    <circle cx="600" cy="1860" r="7" fill="#c084fc" opacity="0.9"/>
    <circle cx="-120" cy="1900" r="7" fill="#c084fc" opacity="0.9"/>
    <circle cx="1440" cy="1980" r="4" fill="#4ade80" opacity="0.9"/>
    <circle cx="-240" cy="2060" r="4" fill="#4ade80" opacity="0.9"/>
    <circle cx="1560" cy="2140" r="4" fill="#4ade80" opacity="0.9"/>
    <circle cx="-360" cy="2220" r="4" fill="#4ade80" opacity="0.9"/>
    <circle cx="1680" cy="2300" r="4" fill="#4ade80" opacity="0.9"/>
    <circle cx="-480" cy="2380" r="4" fill="#4ade80" opacity="0.9"/>
    <circle cx="1800" cy="2460" r="4" fill="#4ade80" opacity="0.9"/>
    <circle cx="-600" cy="2540" r="4" fill="#4ade80" opacity="0.9"/>
    <circle cx="600" cy="2620" r="7" fill="#c084fc" opacity="0.9"/>
    <circle cx="1920" cy="2660" r="7" fill="#c084fc" opacity="0.9"/>
    <circle cx="-720" cy="2740" r="4" fill="#4ade80" opacity="0.9"/>
    <circle cx="2040" cy="2820" r="4" fill="#4ade80" opacity="0.9"/>
    <circle cx="-840" cy="2900" r="4" fill="#4ade80" opacity="0.9"/>
    <circle cx="2160" cy="2980" r="4" fill="#4ade80" opacity="0.9"/>
    <circle cx="-960" cy="3060" r="4" fill="#4ade80" opacity="0.9"/>
    <circle cx="2280" cy="3140" r="4" fill="#4ade80" opacity="0.9"/>
    <circle cx="600" cy="3220" r="6" fill="#fb923c" opacity="0.9"/>
    <circle cx="-1080" cy="3260" r="6" fill="#fb923c" opacity="0.9"/>
    <circle cx="600" cy="3340" r="4" fill="#4ade80" opacity="0.9"/>
    <circle cx="2400" cy="3380" r="4" fill="#4ade80" opacity="0.9"/>
    <circle cx="600" cy="3460" r="4" fill="#4ade80" opacity="0.9"/>
    <circle cx="-1200" cy="3500" r="4" fill="#4ade80" opacity="0.9"/>
    <circle cx="600" cy="3580" r="4" fill="#4ade80" opacity="0.9"/>
    <circle cx="2520" cy="3620" r="4" fill="#4ade80" opacity="0.9"/>
    <circle cx="600" cy="3700" r="7" fill="#c084fc" opacity="0.9"/>
    <circle cx="-1320" cy="3740" r="7" fill="#c084fc" opacity="0.9"/>
    <circle cx="2640" cy="3820" r="4" fill="#4ade80" opacity="0.9"/>
    <circle cx="-1440" cy="3900" r="4" fill="#4ade80" opacity="0.9"/>
    <circle cx="2760" cy="3980" r="4" fill="#4ade80" opacity="0.9"/>
    <circle cx="-1560" cy="4060" r="4" fill="#4ade80" opacity="0.9"/>
    <circle cx="2880" cy="4140" r="4" fill="#4ade80" opacity="0.9"/>
    <circle cx="-1680" cy="4220" r="4" fill="#4ade80" opacity="0.9"/>
    <circle cx="3000" cy="4300" r="4" fill="#4ade80" opacity="0.9"/>
    <circle cx="-1800" cy="4380" r="4" fill="#4ade80" opacity="0.9"/>
    <circle cx="600" cy="4460" r="7" fill="#c084fc" opacity="0.9"/>
    <circle cx="3120" cy="4500" r="7" fill="#c084fc" opacity="0.9"/>
    <circle cx="-1920" cy="4580" r="4" fill="#4ade80" opacity="0.9"/>
    <circle cx="3240" cy="4660" r="4" fill="#4ade80" opacity="0.9"/>
    <circle cx="-2040" cy="4740" r="4" fill="#4ade80" opacity="0.9"/>
    <circle cx="3360" cy="4820" r="4" fill="#4ade80" opacity="0.9"/>
    <circle cx="-2160" cy="4900" r="4" fill="#4ade80" opacity="0.9"/>
    <circle cx="3480" cy="4980" r="4" fill="#4ade80" opacity="0.9"/>
    <circle cx="-2280" cy="5060" r="4" fill="#4ade80" opacity="0.9"/>
    <circle cx="3600" cy="5140" r="4" fill="#4ade80" opacity="0.9"/>
    <circle cx="-2400" cy="5220" r="4" fill="#4ade80" opacity="0.9"/>
    <circle cx="3720" cy="5300" r="4" fill="#4ade80" opacity="0.9"/>
    <circle cx="-2520" cy="5380" r="4" fill="#4ade80" opacity="0.9"/>
    <circle cx="3840" cy="5460" r="4" fill="#4ade80" opacity="0.9"/>
    <circle cx="-2640" cy="5540" r="4" fill="#4ade80" opacity="0.9"/>
    <circle cx="3960" cy="5620" r="4" fill="#4ade80" opacity="0.9"/>
    <circle cx="-2760" cy="5700" r="4" fill="#4ade80" opacity="0.9"/>
    <circle cx="4080" cy="5780" r="4" fill="#4ade80" opacity="0.9"/>
    <circle cx="-2880" cy="5860" r="4" fill="#4ade80" opacity="0.9"/>
    <circle cx="4200" cy="5940" r="4" fill="#4ade80" opacity="0.9"/>
    <circle cx="-3000" cy="6020" r="4" fill="#4ade80" opacity="0.9"/>
    <circle cx="4320" cy="6100" r="4" fill="#4ade80" opacity="0.9"/>
    <circle cx="-3120" cy="6180" r="4" fill="#4ade80" opacity="0.9"/>
    <circle cx="4440" cy="6260" r="4" fill="#4ade80" opacity="0.9"/>
    <circle cx="-3240" cy="6340" r="4" fill="#4ade80" opacity="0.9"/>
    <circle cx="4560" cy="6420" r="4" fill="#4ade80" opacity="0.9"/>
    <circle cx="-3360" cy="6500" r="4" fill="#4ade80" opacity="0.9"/>
    <circle cx="4680" cy="6580" r="4" fill="#4ade80" opacity="0.9"/>
    <circle cx="-3480" cy="6660" r="4" fill="#4ade80" opacity="0.9"/>
    <circle cx="4800" cy="6740" r="4" fill="#4ade80" opacity="0.9"/>
    <circle cx="-3600" cy="6820" r="4" fill="#4ade80" opacity="0.9"/>
    <circle cx="4920" cy="6900" r="4" fill="#4ade80" opacity="0.9"/>
    <circle cx="-3720" cy="6980" r="4" fill="#4ade80" opacity="0.9"/>
    <circle cx="5040" cy="7060" r="4" fill="#4ade80" opacity="0.9"/>
    <circle cx="-3840" cy="7140" r="4" fill="#4ade80" opacity="0.9"/>
    <circle cx="5160" cy="7220" r="4" fill="#4ade80" opacity="0.9"/>
    <circle cx="600" cy="7300" r="7" fill="#c084fc" opacity="0.9"/>
    <circle cx="-3960" cy="7340" r="7" fill="#c084fc" opacity="0.9"/>
    <circle cx="5280" cy="7420" r="4" fill="#4ade80" opacity="0.9"/>
    <circle cx="-4080" cy="7500" r="4" fill="#4ade80" opacity="0.9"/>
    <circle cx="5400" cy="7580" r="4" fill="#4ade80" opacity="0.9"/>
    <circle cx="-4200" cy="7660" r="4" fill="#4ade80" opacity="0.9"/>
    <circle cx="5520" cy="7740" r="4" fill="#4ade80" opacity="0.9"/>
    <circle cx="-4320" cy="7820" r="4" fill="#4ade80" opacity="0.9"/>
    <circle cx="5640" cy="7900" r="4" fill="#4ade80" opacity="0.9"/>
    <circle cx="-4440" cy="7980" r="4" fill="#4ade80" opacity="0.9"/>
    <circle cx="5760" cy="8060" r="4" fill="#4ade80" opacity="0.9"/>
    <circle cx="-4560" cy="8140" r="4" fill="#4ade80" opacity="0.9"/>
    <circle cx="5880" cy="8220" r="4" fill="#4ade80" opacity="0.9"/>
    <circle cx="-4680" cy="8300" r="4" fill="#4ade80" opacity="0.9"/>
    <circle cx="6000" cy="8380" r="4" fill="#4ade80" opacity="0.9"/>
    <circle cx="-4800" cy="8460" r="4" fill="#4ade80" opacity="0.9"/>
    <circle cx="6120" cy="8540" r="4" fill="#4ade80" opacity="0.9"/>
    <circle cx="-4920" cy="8620" r="4" fill="#4ade80" opacity="0.9"/>
    <circle cx="6240" cy="8700" r="4" fill="#4ade80" opacity="0.9"/>
    <circle cx="-5040" cy="8780" r="4" fill="#4ade80" opacity="0.9"/>
    <circle cx="6360" cy="8860" r="4" fill="#4ade80" opacity="0.9"/>
    <circle cx="-5160" cy="8940" r="4" fill="#4ade80" opacity="0.9"/>
    <circle cx="6480" cy="9020" r="4" fill="#4ade80" opacity="0.9"/>
    <circle cx="-5280" cy="9100" r="4" fill="#4ade80" opacity="0.9"/>
    <circle cx="6600" cy="9180" r="4" fill="#4ade80" opacity="0.9"/>
    <circle cx="-5400" cy="9260" r="4" fill="#4ade80" opacity="0.9"/>
    <circle cx="6720" cy="9340" r="4" fill="#4ade80" opacity="0.9"/>
    <circle cx="-5520" cy="9420" r="4" fill="#4ade80" opacity="0.9"/>
    <circle cx="600" cy="9500" r="7" fill="#c084fc" opacity="0.9"/>
    <circle cx="6840" cy="9540" r="7" fill="#c084fc" opacity="0.9"/>
    <circle cx="600" cy="9620" r="7" fill="#c084fc" opacity="0.9"/>
    <circle cx="-5640" cy="9660" r="7" fill="#c084fc" opacity="0.9"/>
    <circle cx="600" cy="9740" r="7" fill="#c084fc" opacity="0.9"/>
    <circle cx="6960" cy="9780" r="7" fill="#c084fc" opacity="0.9"/>
    <circle cx="-5760" cy="9860" r="4" fill="#4ade80" opacity="0.9"/>
    <circle cx="7080" cy="9940" r="4" fill="#4ade80" opacity="0.9"/>
    <circle cx="-5880" cy="10020" r="4" fill="#4ade80" opacity="0.9"/>
    <circle cx="7200" cy="10100" r="4" fill="#4ade80" opacity="0.9"/>
    <circle cx="600" cy="10180" r="7" fill="#c084fc" opacity="0.9"/>
    <circle cx="-6000" cy="10220" r="7" fill="#c084fc" opacity="0.9"/>
    <circle cx="7320" cy="10300" r="4" fill="#4ade80" opacity="0.9"/>
    <circle cx="-6120" cy="10380" r="4" fill="#4ade80" opacity="0.9"/>
    <circle cx="7440" cy="10460" r="4" fill="#4ade80" opacity="0.9"/>
    <circle cx="-6240" cy="10540" r="4" fill="#4ade80" opacity="0.9"/>
    <circle cx="600" cy="10620" r="6" fill="#fb923c" opacity="0.9"/>
    <circle cx="7560" cy="10660" r="6" fill="#fb923c" opacity="0.9"/>
  </g>
</svg>
