<?xml version="1.0" encoding="UTF-8"?>
<svg xmlns="http://www.w3.org/2000/svg"
     width="300" height="234"
     viewBox="-6260 40 13840 10800">
  <style>
    @keyframes sway {
      0%   { transform: translateX(0); }
      25%  { transform: translateX(3px); }
      50%  { transform: translateX(-2px); }
      75%  { transform: translateX(4px); }
      100% { transform: translateX(0); }
    }
    .mini-node { animation: sway 4s ease-in-out infinite; }
    .mini-line { stroke-width: 1.5; fill: none; opacity: 0.5; }
  </style>
  <rect width="100%" height="100%" fill="#0a0a1a" rx="6"/>
  <g class="mini-node">
    <line class="mini-line" stroke="#4ade80" x1="600" y1="60" x2="600" y2="100"/>
    <line class="mini-line" stroke="#4ade80" x1="600" y1="100" x2="600" y2="140"/>
    <line class="mini-line" stroke="#4ade80" x1="600" y1="140" x2="600" y2="180"/>
    <line class="mini-line" stroke="#4ade80" x1="600" y1="180" x2="600" y2="220"/>
    <line class="mini-line" stroke="#4ade80" x1="600" y1="220" x2="600" y2="260"/>
    <line class="mini-line" stroke="#4ade80" x1="600" y1="260" x2="600" y2="380"/>
    <path class="mini-line" stroke="#64748b" d="M 600 260 C 600 276, 720 284, 720 300"/>
    <path class="mini-line" stroke="#64748b" d="M 720 300 C 720 332, 600 348, 600 380"/>
    <line class="mini-line" stroke="#4ade80" x1="600" y1="380" x2="600" y2="420"/>
    <line class="mini-line" stroke="#4ade80" x1="600" y1="420" x2="600" y2="540"/>
    <path class="mini-line" stroke="#64748b" d="M 600 420 C 600 436, 480 444, 480 460"/>
    <path class="mini-line" stroke="#64748b" d="M 480 460 C 480 492, 600 508, 600 540"/>
    <line class="mini-line" stroke="#4ade80" x1="600" y1="540" x2="600" y2="580"/>
    <line class="mini-line" stroke="#4ade80" x1="600" y1="580" x2="600" y2="620"/>
    <line class="mini-line" stroke="#4ade80" x1="600" y1="620" x2="600" y2="660"/>
    <path class="mini-line" stroke="#64748b" d="M 600 620 C 600 668, 840 692, 840 740"/>
    <line class="mini-line" stroke="#4ade80" x1="600" y1="660" x2="600" y2="700"/>
    <path class="mini-line" stroke="#64748b" d="M 600 660 C 600 724, 360 756, 360 820"/>
    <line class="mini-line" stroke="#4ade80" x1="600" y1="700" x2="600" y2="980"/>
    <path class="mini-line" stroke="#64748b" d="M 600 700 C 600 780, 960 820, 960 900"/>
    <path class="mini-line" stroke="#64748b" d="M 840 740 C 840 836, 600 884, 600 980"/>
    <path class="mini-line" stroke="#64748b" d="M 360 820 C 360 884, 600 916, 600 980"/>
    <path class="mini-line" stroke="#64748b" d="M 960 900 C 960 932, 600 948, 600 980"/>
    <line class="mini-line" stroke="#4ade80" x1="600" y1="980" x2="600" y2="1020"/>
    <line class="mini-line" stroke="#4ade80" x1="600" y1="1020" x2="600" y2="1060"/>
    <path class="mini-line" stroke="#64748b" d="M 600 1020 C 600 1052, 240 1068, 240 1100"/>
    <line class="mini-line" stroke="#4ade80" x1="600" y1="1060" x2="600" y2="1260"/>
    <path class="mini-line" stroke="#64748b" d="M 600 1060 C 600 1108, 1080 1132, 1080 1180"/>
    <path class="mini-line" stroke="#64748b" d="M 240 1100 C 240 1164, 600 1196, 600 1260"/>
    <path class="mini-line" stroke="#64748b" d="M 1080 1180 C 1080 1212, 600 1228, 600 1260"/>
    <line class="mini-line" stroke="#4ade80" x1="600" y1="1260" x2="600" y2="1380"/>
    <path class="mini-line" stroke="#64748b" d="M 600 1260 C 600 1276, 120 1284, 120 1300"/>
    <path class="mini-line" stroke="#64748b" d="M 120 1300 C 120 1332, 600 1348, 600 1380"/>
    <line class="mini-line" stroke="#4ade80" x1="600" y1="1380" x2="600" y2="1420"/>
    <line class="mini-line" stroke="#4ade80" x1="600" y1="1420" x2="600" y2="1540"/>
    <path class="mini-line" stroke="#64748b" d="M 600 1420 C 600 1436, 1200 1444, 1200 1460"/>
    <path class="mini-line" stroke="#64748b" d="M 1200 1460 C 1200 1492, 600 1508, 600 1540"/>
    <line class="mini-line" stroke="#4ade80" x1="600" y1="1540" x2="600" y2="1580"/>
    <line class="mini-line" stroke="#4ade80" x1="600" y1="1580" x2="600" y2="1620"/>
    <line class="mini-line" stroke="#4ade80" x1="600" y1="1620" x2="600" y2="1740"/>
    <path class="mini-line" stroke="#64748b" d="M 600 1620 C 600 1636, 0 1644, 0 1660"/>
    <path class="mini-line" stroke="#64748b" d="M 0 1660 C 0 1740, 600 1780, 600 1860"/>
    <line class="mini-line" stroke="#4ade80" x1="600" y1="1740" x2="600" y2="1860"/>
    <path class="mini-line" stroke="#64748b" d="M 600 1740 C 600 1756, 1320 1764, 1320 1780"/>
    <path class="mini-line" stroke="#64748b" d="M 1320 1780 C 1320 1812, 600 1828, 600 1860"/>
    <line class="mini-line" stroke="#4ade80" x1="600" y1="1860" x2="600" y2="1900"/>
    <line class="mini-line" stroke="#4ade80" x1="600" y1="1900" x2="600" y2="1940"/>
    <line class="mini-line" stroke="#4ade80" x1="600" y1="1940" x2="600" y2="1980"/>
    <line class="mini-line" stroke="#4ade80" x1="600" y1="1980" x2="600" y2="2020"/>
    <line class="mini-line" stroke="#4ade80" x1="600" y1="2020" x2="600" y2="2780"/>
    <path class="mini-line" stroke="#64748b" d="M 600 2020 C 600 2068, 1440 2092, 1440 2140"/>
    <path class="mini-line" stroke="#64748b" d="M -120 2060 C -120 2364, 1920 2516, 1920 2820"/>
    <path class="mini-line" stroke="#64748b" d="M -120 2060 C -120 2124, -240 2156, -240 2220"/>
    <path class="mini-line" stroke="#64748b" d="M 1440 2140 C 1440 2204, 1560 2236, 1560 2300"/>
    <path class="mini-line" stroke="#64748b" d="M -240 2220 C -240 2284, -360 2316, -360 2380"/>
    <path class="mini-line" stroke="#64748b" d="M 1560 2300 C 1560 2364, 1680 2396, 1680 2460"/>
    <path class="mini-line" stroke="#64748b" d="M -360 2380 C -360 2444, -480 2476, -480 2540"/>
    <path class="mini-line" stroke="#64748b" d="M 1680 2460 C 1680 2524, 1800 2556, 1800 2620"/>
    <path class="mini-line" stroke="#64748b" d="M -480 2540 C -480 2604, -600 2636, -600 2700"/>
    <path class="mini-line" stroke="#64748b" d="M 1800 2620 C 1800 2684, 600 2716, 600 2780"/>
    <path class="mini-line" stroke="#64748b" d="M -600 2700 C -600 2748, 1920 2772, 1920 2820"/>
    <line class="mini-line" stroke="#4ade80" x1="600" y1="2780" x2="600" y2="3380"/>
    <path class="mini-line" stroke="#64748b" d="M 600 2780 C 600 2828, -720 2852, -720 2900"/>
    <path class="mini-line" stroke="#64748b" d="M 1920 2820 C 1920 3060, -1080 3180, -1080 3420"/>
    <path class="mini-line" stroke="#64748b" d="M 1920 2820 C 1920 2884, 2040 2916, 2040 2980"/>
    <path class="mini-line" stroke="#64748b" d="M -720 2900 C -720 2964, -840 2996, -840 3060"/>
    <path class="mini-line" stroke="#64748b" d="M 2040 2980 C 2040 3044, 2160 3076, 2160 3140"/>
    <path class="mini-line" stroke="#64748b" d="M -840 3060 C -840 3124, -960 3156, -960 3220"/>
    <path class="mini-line" stroke="#64748b" d="M 2160 3140 C 2160 3204, 2280 3236, 2280 3300"/>
    <path class="mini-line" stroke="#64748b" d="M -960 3220 C -960 3284, 600 3316, 600 3380"/>
    <path class="mini-line" stroke="#64748b" d="M 2280 3300 C 2280 3348, -1080 3372, -1080 3420"/>
    <line class="mini-line" stroke="#4ade80" x1="600" y1="3380" x2="600" y2="3500"/>
    <path class="mini-line" stroke="#64748b" d="M -1080 3420 C -1080 3468, 2400 3492, 2400 3540"/>
    <line class="mini-line" stroke="#4ade80" x1="600" y1="3500" x2="600" y2="3620"/>
    <path class="mini-line" stroke="#64748b" d="M 2400 3540 C 2400 3588, -1200 3612, -1200 3660"/>
    <line class="mini-line" stroke="#4ade80" x1="600" y1="3620" x2="600" y2="3740"/>
    <path class="mini-line" stroke="#64748b" d="M -1200 3660 C -1200 3708, 2520 3732, 2520 3780"/>
    <line class="mini-line" stroke="#4ade80" x1="600" y1="3740" x2="600" y2="3860"/>
    <path class="mini-line" stroke="#64748b" d="M 2520 3780 C 2520 3828, -1320 3852, -1320 3900"/>
    <line class="mini-line" stroke="#4ade80" x1="600" y1="3860" x2="600" y2="4620"/>
    <path class="mini-line" stroke="#64748b" d="M 600 3860 C 600 3908, 2640 3932, 2640 3980"/>
    <path class="mini-line" stroke="#64748b" d="M -1320 3900 C -1320 4204, 3120 4356, 3120 4660"/>
    <path class="mini-line" stroke="#64748b" d="M -1320 3900 C -1320 3964, -1440 3996, -1440 4060"/>
    <path class="mini-line" stroke="#64748b" d="M 2640 3980 C 2640 4044, 2760 4076, 2760 4140"/>
    <path class="mini-line" stroke="#64748b" d="M -1440 4060 C -1440 4124, -1560 4156, -1560 4220"/>
    <path class="mini-line" stroke="#64748b" d="M 2760 4140 C 2760 4204, 2880 4236, 2880 4300"/>
    <path class="mini-line" stroke="#64748b" d="M -1560 4220 C -1560 4284, -1680 4316, -1680 4380"/>
    <path class="mini-line" stroke="#64748b" d="M 2880 4300 C 2880 4364, 3000 4396, 3000 4460"/>
    <path class="mini-line" stroke="#64748b" d="M -1680 4380 C -1680 4444, -1800 4476, -1800 4540"/>
    <path class="mini-line" stroke="#64748b" d="M 3000 4460 C 3000 4524, 600 4556, 600 4620"/>
    <path class="mini-line" stroke="#64748b" d="M -1800 4540 C -1800 4588, 3120 4612, 3120 4660"/>
    <line class="mini-line" stroke="#4ade80" x1="600" y1="4620" x2="600" y2="7460"/>
    <path class="mini-line" stroke="#64748b" d="M 600 4620 C 600 4668, -1920 4692, -1920 4740"/>
    <path class="mini-line" stroke="#64748b" d="M 3120 4660 C 3120 5796, -3960 6364, -3960 7500"/>
    <path class="mini-line" stroke="#64748b" d="M 3120 4660 C 3120 4724, 3240 4756, 3240 4820"/>
    <path class="mini-line" stroke="#64748b" d="M -1920 4740 C -1920 4804, -2040 4836, -2040 4900"/>
    <path class="mini-line" stroke="#64748b" d="M 3240 4820 C 3240 4884, 3360 4916, 3360 4980"/>
    <path class="mini-line" stroke="#64748b" d="M -2040 4900 C -2040 4964, -2160 4996, -2160 5060"/>
    <path class="mini-line" stroke="#64748b" d="M 3360 4980 C 3360 5044, 3480 5076, 3480 5140"/>
    <path class="mini-line" stroke="#64748b" d="M -2160 5060 C -2160 5124, -2280 5156, -2280 5220"/>
    <path class="mini-line" stroke="#64748b" d="M 3480 5140 C 3480 5204, 3600 5236, 3600 5300"/>
    <path class="mini-line" stroke="#64748b" d="M -2280 5220 C -2280 5284, -2400 5316, -2400 5380"/>
    <path class="mini-line" stroke="#64748b" d="M 3600 5300 C 3600 5364, 3720 5396, 3720 5460"/>
    <path class="mini-line" stroke="#64748b" d="M -2400 5380 C -2400 5444, -2520 5476, -2520 5540"/>
    <path class="mini-line" stroke="#64748b" d="M 3720 5460 C 3720 5524, 3840 5556, 3840 5620"/>
    <path class="mini-line" stroke="#64748b" d="M -2520 5540 C -2520 5604, -2640 5636, -2640 5700"/>
    <path class="mini-line" stroke="#64748b" d="M 3840 5620 C 3840 5684, 3960 5716, 3960 5780"/>
    <path class="mini-line" stroke="#64748b" d="M -2640 5700 C -2640 5764, -2760 5796, -2760 5860"/>
    <path class="mini-line" stroke="#64748b" d="M 3960 5780 C 3960 5844, 4080 5876, 4080 5940"/>
    <path class="mini-line" stroke="#64748b" d="M -2760 5860 C -2760 5924, -2880 5956, -2880 6020"/>
    <path class="mini-line" stroke="#64748b" d="M 4080 5940 C 4080 6004, 4200 6036, 4200 6100"/>
    <path class="mini-line" stroke="#64748b" d="M -2880 6020 C -2880 6084, -3000 6116, -3000 6180"/>
    <path class="mini-line" stroke="#64748b" d="M 4200 6100 C 4200 6164, 4320 6196, 4320 6260"/>
    <path class="mini-line" stroke="#64748b" d="M -3000 6180 C -3000 6244, -3120 6276, -3120 6340"/>
    <path class="mini-line" stroke="#64748b" d="M 4320 6260 C 4320 6324, 4440 6356, 4440 6420"/>
    <path class="mini-line" stroke="#64748b" d="M -3120 6340 C -3120 6404, -3240 6436, -3240 6500"/>
    <path class="mini-line" stroke="#64748b" d="M 4440 6420 C 4440 6484, 4560 6516, 4560 6580"/>
    <path class="mini-line" stroke="#64748b" d="M -3240 6500 C -3240 6564, -3360 6596, -3360 6660"/>
    <path class="mini-line" stroke="#64748b" d="M 4560 6580 C 4560 6644, 4680 6676, 4680 6740"/>
    <path class="mini-line" stroke="#64748b" d="M -3360 6660 C -3360 6724, -3480 6756, -3480 6820"/>
    <path class="mini-line" stroke="#64748b" d="M 4680 6740 C 4680 6804, 4800 6836, 4800 6900"/>
    <path class="mini-line" stroke="#64748b" d="M -3480 6820 C -3480 6884, -3600 6916, -3600 6980"/>
    <path class="mini-line" stroke="#64748b" d="M 4800 6900 C 4800 6964, 4920 6996, 4920 7060"/>
    <path class="mini-line" stroke="#64748b" d="M -3600 6980 C -3600 7044, -3720 7076, -3720 7140"/>
    <path class="mini-line" stroke="#64748b" d="M 4920 7060 C 4920 7124, 5040 7156, 5040 7220"/>
    <path class="mini-line" stroke="#64748b" d="M -3720 7140 C -3720 7204, -3840 7236, -3840 7300"/>
    <path class="mini-line" stroke="#64748b" d="M 5040 7220 C 5040 7284, 5160 7316, 5160 7380"/>
    <path class="mini-line" stroke="#64748b" d="M -3840 7300 C -3840 7364, 600 7396, 600 7460"/>
    <path class="mini-line" stroke="#64748b" d="M 5160 7380 C 5160 7428, -3960 7452, -3960 7500"/>
    <line class="mini-line" stroke="#4ade80" x1="600" y1="7460" x2="600" y2="9660"/>
    <path class="mini-line" stroke="#64748b" d="M 600 7460 C 600 7508, 5280 7532, 5280 7580"/>
    <path class="mini-line" stroke="#64748b" d="M -3960 7500 C -3960 8380, 6840 8820, 6840 9700"/>
    <path class="mini-line" stroke="#64748b" d="M -3960 7500 C -3960 7564, -4080 7596, -4080 7660"/>
    <path class="mini-line" stroke="#64748b" d="M 5280 7580 C 5280 7644, 5400 7676, 5400 7740"/>
    <path class="mini-line" stroke="#64748b" d="M -4080 7660 C -4080 7724, -4200 7756, -4200 7820"/>
    <path class="mini-line" stroke="#64748b" d="M 5400 7740 C 5400 7804, 5520 7836, 5520 7900"/>
    <path class="mini-line" stroke="#64748b" d="M -4200 7820 C -4200 7884, -4320 7916, -4320 7980"/>
    <path class="mini-line" stroke="#64748b" d="M 5520 7900 C 5520 7964, 5640 7996, 5640 8060"/>
    <path class="mini-line" stroke="#64748b" d="M -4320 7980 C -4320 8044, -4440 8076, -4440 8140"/>
    <path class="mini-line" stroke="#64748b" d="M 5640 8060 C 5640 8124, 5760 8156, 5760 8220"/>
    <path class="mini-line" stroke="#64748b" d="M -4440 8140 C -4440 8204, -4560 8236, -4560 8300"/>
    <path class="mini-line" stroke="#64748b" d="M 5760 8220 C 5760 8284, 5880 8316, 5880 8380"/>
    <path class="mini-line" stroke="#64748b" d="M -4560 8300 C -4560 8364, -4680 8396, -4680 8460"/>
    <path class="mini-line" stroke="#64748b" d="M 5880 8380 C 5880 8444, 6000 8476, 6000 8540"/>
    <path class="mini-line" stroke="#64748b" d="M -4680 8460 C -4680 8524, -4800 8556, -4800 8620"/>
    <path class="mini-line" stroke="#64748b" d="M 6000 8540 C 6000 8604, 6120 8636, 6120 8700"/>
    <path class="mini-line" stroke="#64748b" d="M -4800 8620 C -4800 8684, -4920 8716, -4920 8780"/>
    <path class="mini-line" stroke="#64748b" d="M 6120 8700 C 6120 8764, 6240 8796, 6240 8860"/>
    <path class="mini-line" stroke="#64748b" d="M -4920 8780 C -4920 8844, -5040 8876, -5040 8940"/>
    <path class="mini-line" stroke="#64748b" d="M 6240 8860 C 6240 8924, 6360 8956, 6360 9020"/>
    <path class="mini-line" stroke="#64748b" d="M -5040 8940 C -5040 9004, -5160 9036, -5160 9100"/>
    <path class="mini-line" stroke="#64748b" d="M 6360 9020 C 6360 9084, 6480 9116, 6480 9180"/>
    <path class="mini-line" stroke="#64748b" d="M -5160 9100 C -5160 9164, -5280 9196, -5280 9260"/>
    <path class="mini-line" stroke="#64748b" d="M 6480 9180 C 6480 9244, 6600 9276, 6600 9340"/>
    <path class="mini-line" stroke="#64748b" d="M -5280 9260 C -5280 9324, -5400 9356, -5400 9420"/>
    <path class="mini-line" stroke="#64748b" d="M 6600 9340 C 6600 9404, 6720 9436, 6720 9500"/>
    <path class="mini-line" stroke="#64748b" d="M -5400 9420 C -5400 9484, -5520 9516, -5520 9580"/>
    <path class="mini-line" stroke="#64748b" d="M 6720 9500 C 6720 9564, 600 9596, 600 9660"/>
    <path class="mini-line" stroke="#64748b" d="M -5520 9580 C -5520 9628, 6840 9652, 6840 9700"/>
    <line class="mini-line" stroke="#4ade80" x1="600" y1="9660" x2="600" y2="9780"/>
    <path class="mini-line" stroke="#64748b" d="M 600 9660 C 600 10044, 7440 10236, 7440 10620"/>
    <path class="mini-line" stroke="#64748b" d="M 6840 9700 C 6840 9748, -5640 9772, -5640 9820"/>
    <path class="mini-line" stroke="#64748b" d="M 6840 9700 C 6840 10100, -6240 10300, -6240 10700"/>
    <line class="mini-line" stroke="#4ade80" x1="600" y1="9780" x2="600" y2="9900"/>
    <path class="mini-line" stroke="#64748b" d="M 600 9780 C 600 9876, -5760 9924, -5760 10020"/>
    <path class="mini-line" stroke="#64748b" d="M -5640 9820 C -5640 9868, 6960 9892, 6960 9940"/>
    <path class="mini-line" stroke="#64748b" d="M -5640 9820 C -5640 9932, 7080 9988, 7080 10100"/>
    <line class="mini-line" stroke="#4ade80" x1="600" y1="9900" x2="600" y2="10340"/>
    <path class="mini-line" stroke="#64748b" d="M 600 9900 C 600 10012, -5880 10068, -5880 10180"/>
    <path class="mini-line" stroke="#64748b" d="M 6960 9940 C 6960 10116, -6000 10204, -6000 10380"/>
    <path class="mini-line" stroke="#64748b" d="M 6960 9940 C 6960 10068, 7200 10132, 7200 10260"/>
    <path class="mini-line" stroke="#64748b" d="M -5760 10020 C -5760 10324, 600 10476, 600 10780"/>
    <path class="mini-line" stroke="#64748b" d="M 7080 10100 C 7080 10388, 7560 10532, 7560 10820"/>
    <path class="mini-line" stroke="#64748b" d="M -5880 10180 C -5880 10420, 600 10540, 600 10780"/>
    <path class="mini-line" stroke="#64748b" d="M 7200 10260 C 7200 10484, 7560 10596, 7560 10820"/>
    <line class="mini-line" stroke="#4ade80" x1="600" y1="10340" x2="600" y2="10780"/>
    <path class="mini-line" stroke="#64748b" d="M 600 10340 C 600 10388, 7320 10412, 7320 10460"/>
    <path class="mini-line" stroke="#64748b" d="M -6000 10380 C -6000 10556, 7560 10644, 7560 10820"/>
    <path class="mini-line" stroke="#64748b" d="M -6000 10380 C -6000 10444, -6120 10476, -6120 10540"/>
    <path class="mini-line" stroke="#64748b" d="M 7320 10460 C 7320 10588, 600 10652, 600 10780"/>
    <path class="mini-line" stroke="#64748b" d="M -6120 10540 C -6120 10652, 7560 10708, 7560 10820"/>
    <path class="mini-line" stroke="#64748b" d="M 7440 10620 C 7440 10684, 600 10716, 600 10780"/>
    <path class="mini-line" stroke="#64748b" d="M -6240 10700 C -6240 10748, 7560 10772, 7560 10820"/>
    <circle cx="600" cy="60" r="4" fill="#4ade80" opacity="0.9"/>
    <circle cx="600" cy="100" r="4" fill="#4ade80" opacity="0.9"/>
    <circle cx="600" cy="140" r="4" fill="#4ade80" opacity="0.9"/>
    <circle cx="600" cy="180" r="4" fill="#4ade80" opacity="0.9"/>
    <circle cx="600" cy="220" r="4" fill="#4ade80" opacity="0.9"/>
    <circle cx="600" cy="260" r="7" fill="#c084fc" opacity="0.9"/>
    <circle cx="720" cy="300" r="4" fill="#4ade80" opacity="0.9"/>
    <circle cx="600" cy="380" r="6" fill="#fb923c" opacity="0.9"/>
    <circle cx="600" cy="420" r="7" fill="#c084fc" opacity="0.9"/>
    <circle cx="480" cy="460" r="4" fill="#4ade80" opacity="0.9"/>
    <circle cx="600" cy="540" r="6" fill="#fb923c" opacity="0.9"/>
    <circle cx="600" cy="580" r="4" fill="#4ade80" opacity="0.9"/>
    <circle cx="600" cy="620" r="7" fill="#c084fc" opacity="0.9"/>
    <circle cx="600" cy="660" r="7" fill="#c084fc" opacity="0.9"/>
    <circle cx="600" cy="700" r="7" fill="#c084fc" opacity="0.9"/>
    <circle cx="840" cy="740" r="4" fill="#4ade80" opacity="0.9"/>
    <circle cx="360" cy="820" r="4" fill="#4ade80" opacity="0.9"/>
    <circle cx="960" cy="900" r="4" fill="#4ade80" opacity="0.9"/>
    <circle cx="600" cy="980" r="6" fill="#fb923c" opacity="0.9"/>
    <circle cx="600" cy="1020" r="7" fill="#c084fc" opacity="0.9"/>
    <circle cx="600" cy="1060" r="7" fill="#c084fc" opacity="0.9"/>
    <circle cx="240" cy="1100" r="4" fill="#4ade80" opacity="0.9"/>
    <circle cx="1080" cy="1180" r="4" fill="#4ade80" opacity="0.9"/>
    <circle cx="600" cy="1260" r="7" fill="#c084fc" opacity="0.9"/>
    <circle cx="120" cy="1300" r="4" fill="#4ade80" opacity="0.9"/>
    <circle cx="600" cy="1380" r="6" fill="#fb923c" opacity="0.9"/>
    <circle cx="600" cy="1420" r="7" fill="#c084fc" opacity="0.9"/>
    <circle cx="1200" cy="1460" r="4" fill="#4ade80" opacity="0.9"/>
    <circle cx="600" cy="1540" r="6" fill="#fb923c" opacity="0.9"/>
    <circle cx="600" cy="1580" r="4" fill="#4ade80" opacity="0.9"/>
    <circle cx="600" cy="1620" r="7" fill="#c084fc" opacity="0.9"/>
    <circle cx="0" cy="1660" r="4" fill="#4ade80" opacity="0.9"/>
    <circle cx="600" cy="1740" r="7" fill="#c084fc" opacity="0.9"/>
    <circle cx="1320" cy="1780" r="4" fill="#4ade80" opacity="0.9"/>
    <circle cx="600" cy="1860" r="6" fill="#fb923c" opacity="0.9"/>
    <circle cx="600" cy="1900" r="4" fill="#4ade80" opacity="0.9"/>
    <circle cx="600" cy="1940" r="4" fill="#4ade80" opacity="0.9"/>
    <circle cx="600" cy="1980" r="4" fill="#4ade80" opacity="0.9"/>
    <circle cx="600" cy="2020" r="7" fill="#c084fc" opacity="0.9"/>
    <circle cx="-120" cy="2060" r="7" fill="#c084fc" opacity="0.9"/>
    <circle cx="1440" cy="2140" r="4" fill="#4ade80" opacity="0.9"/>
    <circle cx="-240" cy="2220" r="4" fill="#4ade80" opacity="0.9"/>
    <circle cx="1560" cy="2300" r="4" fill="#4ade80" opacity="0.9"/>
    <circle cx="-360" cy="2380" r="4" fill="#4ade80" opacity="0.9"/>
    <circle cx="1680" cy="2460" r="4" fill="#4ade80" opacity="0.9"/>
    <circle cx="-480" cy="2540" r="4" fill="#4ade80" opacity="0.9"/>
    <circle cx="1800" cy="2620" r="4" fill="#4ade80" opacity="0.9"/>
    <circle cx="-600" cy="2700" r="4" fill="#4ade80" opacity="0.9"/>
    <circle cx="600" cy="2780" r="7" fill="#c084fc" opacity="0.9"/>
    <circle cx="1920" cy="2820" r="7" fill="#c084fc" opacity="0.9"/>
    <circle cx="-720" cy="2900" r="4" fill="#4ade80" opacity="0.9"/>
    <circle cx="2040" cy="2980" r="4" fill="#4ade80" opacity="0.9"/>
    <circle cx="-840" cy="3060" r="4" fill="#4ade80" opacity="0.9"/>
    <circle cx="2160" cy="3140" r="4" fill="#4ade80" opacity="0.9"/>
    <circle cx="-960" cy="3220" r="4" fill="#4ade80" opacity="0.9"/>
    <circle cx="2280" cy="3300" r="4" fill="#4ade80" opacity="0.9"/>
    <circle cx="600" cy="3380" r="6" fill="#fb923c" opacity="0.9"/>
    <circle cx="-1080" cy="3420" r="6" fill="#fb923c" opacity="0.9"/>
    <circle cx="600" cy="3500" r="4" fill="#4ade80" opacity="0.9"/>
    <circle cx="2400" cy="3540" r="4" fill="#4ade80" opacity="0.9"/>
    <circle cx="600" cy="3620" r="4" fill="#4ade80" opacity="0.9"/>
    <circle cx="-1200" cy="3660" r="4" fill="#4ade80" opacity="0.9"/>
    <circle cx="600" cy="3740" r="4" fill="#4ade80" opacity="0.9"/>
    <circle cx="2520" cy="3780" r="4" fill="#4ade80" opacity="0.9"/>
    <circle cx="600" cy="3860" r="7" fill="#c084fc" opacity="0.9"/>
    <circle cx="-1320" cy="3900" r="7" fill="#c084fc" opacity="0.9"/>
    <circle cx="2640" cy="3980" r="4" fill="#4ade80" opacity="0.9"/>
    <circle cx="-1440" cy="4060" r="4" fill="#4ade80" opacity="0.9"/>
    <circle cx="2760" cy="4140" r="4" fill="#4ade80" opacity="0.9"/>
    <circle cx="-1560" cy="4220" r="4" fill="#4ade80" opacity="0.9"/>
    <circle cx="2880" cy="4300" r="4" fill="#4ade80" opacity="0.9"/>
    <circle cx="-1680" cy="4380" r="4" fill="#4ade80" opacity="0.9"/>
    <circle cx="3000" cy="4460" r="4" fill="#4ade80" opacity="0.9"/>
    <circle cx="-1800" cy="4540" r="4" fill="#4ade80" opacity="0.9"/>
    <circle cx="600" cy="4620" r="7" fill="#c084fc" opacity="0.9"/>
    <circle cx="3120" cy="4660" r="7" fill="#c084fc" opacity="0.9"/>
    <circle cx="-1920" cy="4740" r="4" fill="#4ade80" opacity="0.9"/>
    <circle cx="3240" cy="4820" r="4" fill="#4ade80" opacity="0.9"/>
    <circle cx="-2040" cy="4900" r="4" fill="#4ade80" opacity="0.9"/>
    <circle cx="3360" cy="4980" r="4" fill="#4ade80" opacity="0.9"/>
    <circle cx="-2160" cy="5060" r="4" fill="#4ade80" opacity="0.9"/>
    <circle cx="3480" cy="5140" r="4" fill="#4ade80" opacity="0.9"/>
    <circle cx="-2280" cy="5220" r="4" fill="#4ade80" opacity="0.9"/>
    <circle cx="3600" cy="5300" r="4" fill="#4ade80" opacity="0.9"/>
    <circle cx="-2400" cy="5380" r="4" fill="#4ade80" opacity="0.9"/>
    <circle cx="3720" cy="5460" r="4" fill="#4ade80" opacity="0.9"/>
    <circle cx="-2520" cy="5540" r="4" fill="#4ade80" opacity="0.9"/>
    <circle cx="3840" cy="5620" r="4" fill="#4ade80" opacity="0.9"/>
    <circle cx="-2640" cy="5700" r="4" fill="#4ade80" opacity="0.9"/>
    <circle cx="3960" cy="5780" r="4" fill="#4ade80" opacity="0.9"/>
    <circle cx="-2760" cy="5860" r="4" fill="#4ade80" opacity="0.9"/>
    <circle cx="4080" cy="5940" r="4" fill="#4ade80" opacity="0.9"/>
    <circle cx="-2880" cy="6020" r="4" fill="#4ade80" opacity="0.9"/>
    <circle cx="4200" cy="6100" r="4" fill="#4ade80" opacity="0.9"/>
    <circle cx="-3000" cy="6180" r="4" fill="#4ade80" opacity="0.9"/>
    <circle cx="4320" cy="6260" r="4" fill="#4ade80" opacity="0.9"/>
    <circle cx="-3120" cy="6340" r="4" fill="#4ade80" opacity="0.9"/>
    <circle cx="4440" cy="6420" r="4" fill="#4ade80" opacity="0.9"/>
    <circle cx="-3240" cy="6500" r="4" fill="#4ade80" opacity="0.9"/>
    <circle cx="4560" cy="6580" r="4" fill="#4ade80" opacity="0.9"/>
    <circle cx="-3360" cy="6660" r="4" fill="#4ade80" opacity="0.9"/>
    <circle cx="4680" cy="6740" r="4" fill="#4ade80" opacity="0.9"/>
    <circle cx="-3480" cy="6820" r="4" fill="#4ade80" opacity="0.9"/>
    <circle cx="4800" cy="6900" r="4" fill="#4ade80" opacity="0.9"/>
    <circle cx="-3600" cy="6980" r="4" fill="#4ade80" opacity="0.9"/>
    <circle cx="4920" cy="7060" r="4" fill="#4ade80" opacity="0.9"/>
    <circle cx="-3720" cy="7140" r="4" fill="#4ade80" opacity="0.9"/>
    <circle cx="5040" cy="7220" r="4" fill="#4ade80" opacity="0.9"/>
    <circle cx="-3840" cy="7300" r="4" fill="#4ade80" opacity="0.9"/>
    <circle cx="5160" cy="7380" r="4" fill="#4ade80" opacity="0.9"/>
    <circle cx="600" cy="7460" r="7" fill="#c084fc" opacity="0.9"/>
    <circle cx="-3960" cy="7500" r="7" fill="#c084fc" opacity="0.9"/>
    <circle cx="5280" cy="7580" r="4" fill="#4ade80" opacity="0.9"/>
    <circle cx="-4080" cy="7660" r="4" fill="#4ade80" opacity="0.9"/>
    <circle cx="5400" cy="7740" r="4" fill="#4ade80" opacity="0.9"/>
    <circle cx="-4200" cy="7820" r="4" fill="#4ade80" opacity="0.9"/>
    <circle cx="5520" cy="7900" r="4" fill="#4ade80" opacity="0.9"/>
    <circle cx="-4320" cy="7980" r="4" fill="#4ade80" opacity="0.9"/>
    <circle cx="5640" cy="8060" r="4" fill="#4ade80" opacity="0.9"/>
    <circle cx="-4440" cy="8140" r="4" fill="#4ade80" opacity="0.9"/>
    <circle cx="5760" cy="8220" r="4" fill="#4ade80" opacity="0.9"/>
    <circle cx="-4560" cy="8300" r="4" fill="#4ade80" opacity="0.9"/>
    <circle cx="5880" cy="8380" r="4" fill="#4ade80" opacity="0.9"/>
    <circle cx="-4680" cy="8460" r="4" fill="#4ade80" opacity="0.9"/>
    <circle cx="6000" cy="8540" r="4" fill="#4ade80" opacity="0.9"/>
    <circle cx="-4800" cy="8620" r="4" fill="#4ade80" opacity="0.9"/>
    <circle cx="6120" cy="8700" r="4" fill="#4ade80" opacity="0.9"/>
    <circle cx="-4920" cy="8780" r="4" fill="#4ade80" opacity="0.9"/>
    <circle cx="6240" cy="8860" r="4" fill="#4ade80" opacity="0.9"/>
    <circle cx="-5040" cy="8940" r="4" fill="#4ade80" opacity="0.9"/>
    <circle cx="6360" cy="9020" r="4" fill="#4ade80" opacity="0.9"/>
    <circle cx="-5160" cy="9100" r="4" fill="#4ade80" opacity="0.9"/>
    <circle cx="6480" cy="9180" r="4" fill="#4ade80" opacity="0.9"/>
    <circle cx="-5280" cy="9260" r="4" fill="#4ade80" opacity="0.9"/>
    <circle cx="6600" cy="9340" r="4" fill="#4ade80" opacity="0.9"/>
    <circle cx="-5400" cy="9420" r="4" fill="#4ade80" opacity="0.9"/>
    <circle cx="6720" cy="9500" r="4" fill="#4ade80" opacity="0.9"/>
    <circle cx="-5520" cy="9580" r="4" fill="#4ade80" opacity="0.9"/>
    <circle cx="600" cy="9660" r="7" fill="#c084fc" opacity="0.9"/>
    <circle cx="6840" cy="9700" r="7" fill="#c084fc" opacity="0.9"/>
    <circle cx="600" cy="9780" r="7" fill="#c084fc" opacity="0.9"/>
    <circle cx="-5640" cy="9820" r="7" fill="#c084fc" opacity="0.9"/>
    <circle cx="600" cy="9900" r="7" fill="#c084fc" opacity="0.9"/>
    <circle cx="6960" cy="9940" r="7" fill="#c084fc" opacity="0.9"/>
    <circle cx="-5760" cy="10020" r="4" fill="#4ade80" opacity="0.9"/>
    <circle cx="7080" cy="10100" r="4" fill="#4ade80" opacity="0.9"/>
    <circle cx="-5880" cy="10180" r="4" fill="#4ade80" opacity="0.9"/>
    <circle cx="7200" cy="10260" r="4" fill="#4ade80" opacity="0.9"/>
    <circle cx="600" cy="10340" r="7" fill="#c084fc" opacity="0.9"/>
    <circle cx="-6000" cy="10380" r="7" fill="#c084fc" opacity="0.9"/>
    <circle cx="7320" cy="10460" r="4" fill="#4ade80" opacity="0.9"/>
    <circle cx="-6120" cy="10540" r="4" fill="#4ade80" opacity="0.9"/>
    <circle cx="7440" cy="10620" r="4" fill="#4ade80" opacity="0.9"/>
    <circle cx="-6240" cy="10700" r="4" fill="#4ade80" opacity="0.9"/>
    <circle cx="600" cy="10780" r="6" fill="#fb923c" opacity="0.9"/>
    <circle cx="7560" cy="10820" r="6" fill="#fb923c" opacity="0.9"/>
  </g>
</svg>
